<svg width="456" height="89" viewBox="0 0 456 89" fill="none" xmlns="http://www.w3.org/2000/svg">
<path d="M117.007 72.2217C117.01 71.5279 116.821 70.8469 116.459 70.2548C116.097 69.6628 115.578 69.1831 114.959 68.8696C114.34 68.556 113.646 68.4209 112.955 68.4794C112.264 68.5379 111.602 68.7877 111.045 69.2009C110.487 69.614 110.056 70.1741 109.799 70.8185C109.542 71.4629 109.469 72.1661 109.59 72.8494C109.71 73.5327 110.017 74.1692 110.479 74.6874C110.94 75.2056 111.536 75.5852 112.201 75.7836C111.956 76.2824 111.576 76.703 111.105 76.9979C110.633 77.2929 110.089 77.4505 109.533 77.4532H106.544C105.437 77.4571 104.371 77.8727 103.554 78.6191V71.3981C104.462 71.2129 105.268 70.6974 105.817 69.9515C106.366 69.2056 106.618 68.2826 106.525 67.3612C106.432 66.4399 106 65.5859 105.313 64.9649C104.626 64.3438 103.733 64 102.807 64C101.881 64 100.988 64.3438 100.301 64.9649C99.614 65.5859 99.1821 66.4399 99.0891 67.3612C98.996 68.2826 99.2483 69.2056 99.7972 69.9515C100.346 70.6974 101.152 71.2129 102.06 71.3981V80.5159C101.154 80.6891 100.343 81.1877 99.7797 81.9176C99.2164 82.6476 98.9397 83.5585 99.0018 84.4785C99.0638 85.3984 99.4604 86.2639 100.117 86.9115C100.773 87.5592 101.643 87.9444 102.564 87.9944C103.485 88.0445 104.392 87.7558 105.114 87.183C105.837 86.6102 106.325 85.7928 106.486 84.885C106.648 83.9771 106.471 83.0417 105.99 82.255C105.509 81.4683 104.757 80.8848 103.876 80.6145C104.122 80.1162 104.501 79.6963 104.973 79.4019C105.444 79.1074 105.988 78.9503 106.544 78.9479H109.533C110.466 78.9436 111.374 78.6486 112.131 78.1039C112.888 77.5592 113.457 76.792 113.757 75.9091C114.653 75.7914 115.476 75.3528 116.074 74.6748C116.671 73.9968 117.003 73.1253 117.007 72.2217ZM100.565 67.7375C100.565 67.2941 100.696 66.8606 100.943 66.4919C101.189 66.1232 101.539 65.8358 101.949 65.6661C102.359 65.4964 102.809 65.452 103.244 65.5385C103.679 65.625 104.079 65.8386 104.392 66.1521C104.706 66.4657 104.919 66.8652 105.006 67.3001C105.092 67.735 105.048 68.1858 104.878 68.5955C104.709 69.0052 104.421 69.3554 104.053 69.6017C103.684 69.8481 103.25 69.9796 102.807 69.9796C102.212 69.9796 101.642 69.7434 101.222 69.3229C100.801 68.9024 100.565 68.3322 100.565 67.7375ZM105.049 84.1794C105.049 84.6229 104.918 85.0563 104.671 85.425C104.425 85.7937 104.075 86.0811 103.665 86.2508C103.255 86.4205 102.804 86.4649 102.37 86.3784C101.935 86.292 101.535 86.0784 101.222 85.7648C100.908 85.4512 100.694 85.0517 100.608 84.6169C100.521 84.1819 100.566 83.7311 100.736 83.3215C100.905 82.9117 101.193 82.5615 101.561 82.3152C101.93 82.0689 102.363 81.9373 102.807 81.9373C103.402 81.9373 103.972 82.1736 104.392 82.594C104.813 83.0145 105.049 83.5848 105.049 84.1794ZM113.27 74.4638C112.827 74.4638 112.393 74.3322 112.024 74.0859C111.656 73.8395 111.368 73.4894 111.199 73.0797C111.029 72.67 110.984 72.2192 111.071 71.7843C111.157 71.3493 111.371 70.9499 111.685 70.6363C111.998 70.3227 112.398 70.1092 112.833 70.0227C113.267 69.9362 113.718 69.9806 114.128 70.1503C114.538 70.32 114.888 70.6073 115.134 70.976C115.381 71.3448 115.512 71.7782 115.512 72.2217C115.512 72.8163 115.276 73.3866 114.855 73.8071C114.435 74.2275 113.865 74.4638 113.27 74.4638Z" fill="white"/>
<path fill-rule="evenodd" clip-rule="evenodd" d="M302.42 64L303.25 68.1529L306.774 65.8037L310.196 69.2258L307.847 72.7496L312 73.5802V78.4198L307.847 79.2504L310.196 82.7742L306.774 86.1963L303.25 83.8471L302.42 88H297.58L296.75 83.8471L293.226 86.1963L289.804 82.7742L292.153 79.2504L288 78.4198V73.5802L292.153 72.7496L289.804 69.2258L293.226 65.8037L296.75 68.1529L297.58 64L302.42 64ZM306.235 74.184L305.693 72.8755L307.979 69.4453L306.555 68.0205L303.125 70.3073L301.816 69.7653L301.007 65.7228L298.993 65.7228L298.184 69.7654L296.875 70.3073L293.445 68.0205L292.021 69.4453L294.307 72.8755L293.765 74.184L289.723 74.9926V77.0075L293.765 77.816L294.307 79.1245L292.021 82.5547L293.445 83.9795L296.876 81.6927L298.184 82.2347L298.993 86.2772H301.007L301.816 82.2347L303.125 81.6927L306.555 83.9795L307.979 82.5547L305.693 79.1245L306.235 77.816L310.277 77.0075V74.9926L306.235 74.184ZM301.714 76C301.714 76.9468 300.947 77.7143 300 77.7143C299.053 77.7143 298.286 76.9468 298.286 76C298.286 75.0532 299.053 74.2857 300 74.2857C300.947 74.2857 301.714 75.0532 301.714 76ZM303.429 76C303.429 77.8935 301.894 79.4286 300 79.4286C298.106 79.4286 296.571 77.8935 296.571 76C296.571 74.1065 298.106 72.5714 300 72.5714C301.894 72.5714 303.429 74.1065 303.429 76Z" fill="#F4F4F4"/>
<path fill-rule="evenodd" clip-rule="evenodd" d="M70 72.25C70 75.9779 66.9779 79 63.25 79C59.5221 79 56.5 75.9779 56.5 72.25C56.5 68.5221 59.5221 65.5 63.25 65.5C66.9779 65.5 70 68.5221 70 72.25ZM71.5 72.25C71.5 76.8063 67.8063 80.5 63.25 80.5C61.3323 80.5 59.5674 79.8457 58.1664 78.7481L50.1251 87.8677L49 86.8756L57.0735 77.7195C55.7833 76.2636 55 74.3483 55 72.25C55 67.6937 58.6937 64 63.25 64C67.8063 64 71.5 67.6937 71.5 72.25Z" fill="white"/>
<path fill-rule="evenodd" clip-rule="evenodd" d="M347.105 68.5613L343.675 71.9883L342.541 70.8683L344.611 68.7885H339.811C339.175 68.7885 338.564 69.0413 338.114 69.4914C337.664 69.9414 337.411 70.5518 337.411 71.1883C337.411 71.8248 337.664 72.4352 338.114 72.8853C338.564 73.3353 339.175 73.5882 339.811 73.5882H340.701V75.1881H339.821C338.792 75.142 337.821 74.7009 337.109 73.9566C336.397 73.2123 336 72.2222 336 71.1923C336 70.1625 336.397 69.1723 337.109 68.428C337.821 67.6837 338.792 67.2426 339.821 67.1966H344.621L342.541 65.1311L343.675 64L347.105 67.4318V68.5613Z" fill="white"/>
<path d="M352.62 88H343.021L342.221 87.2001V74.4121L343.021 73.6122H352.62L353.42 74.4121V87.2001L352.62 88ZM343.821 86.4001H351.82V75.2121H343.821V86.4001Z" fill="white"/>
<path d="M359.02 65.6015H349.42L348.62 66.4014V71.9883H350.22V67.2014H358.22V78.3879H355.02V79.9877H359.02L359.82 79.1878V66.4014L359.02 65.6015Z" fill="white"/>
<path d="M350.22 76.788H345.421V78.3879H350.22V76.788Z" fill="white"/>
<path d="M350.22 79.9877H345.421V81.5876H350.22V79.9877Z" fill="white"/>
<path d="M350.22 83.1875H345.421V84.7874H350.22V83.1875Z" fill="white"/>
<path d="M356.62 68.7885H351.82V70.3883H356.62V68.7885Z" fill="white"/>
<path d="M356.62 75.188H355.02V76.7879H356.62V75.188Z" fill="white"/>
<path d="M353.282 71.9883V72.0123L354.858 73.5882H356.62V71.9883H353.282Z" fill="white"/>
<path d="M246 76C246 76.2967 245.912 76.5867 245.747 76.8334C245.582 77.08 245.348 77.2723 245.074 77.3858C244.8 77.4994 244.498 77.5291 244.207 77.4712C243.916 77.4133 243.649 77.2704 243.439 77.0607C243.23 76.8509 243.087 76.5836 243.029 76.2926C242.971 76.0017 243.001 75.7001 243.114 75.426C243.228 75.1519 243.42 74.9176 243.667 74.7528C243.913 74.588 244.203 74.5 244.5 74.5C244.898 74.5 245.279 74.658 245.561 74.9393C245.842 75.2206 246 75.6022 246 76Z" fill="white"/>
<path d="M253.5 76C253.5 76.2967 253.412 76.5867 253.247 76.8334C253.082 77.08 252.848 77.2723 252.574 77.3858C252.3 77.4994 251.998 77.5291 251.707 77.4712C251.416 77.4133 251.149 77.2704 250.939 77.0607C250.73 76.8509 250.587 76.5836 250.529 76.2926C250.471 76.0017 250.501 75.7001 250.614 75.426C250.728 75.1519 250.92 74.9176 251.167 74.7528C251.413 74.588 251.703 74.5 252 74.5C252.398 74.5 252.779 74.658 253.061 74.9393C253.342 75.2206 253.5 75.6022 253.5 76Z" fill="white"/>
<path d="M261 76C261 76.2967 260.912 76.5867 260.747 76.8334C260.582 77.08 260.348 77.2723 260.074 77.3858C259.8 77.4994 259.498 77.5291 259.207 77.4712C258.916 77.4133 258.649 77.2704 258.439 77.0607C258.23 76.8509 258.087 76.5836 258.029 76.2926C257.971 76.0017 258.001 75.7001 258.114 75.426C258.228 75.1519 258.42 74.9176 258.667 74.7528C258.913 74.588 259.203 74.5 259.5 74.5C259.898 74.5 260.279 74.658 260.561 74.9393C260.842 75.2206 261 75.6022 261 76Z" fill="white"/>
<path fill-rule="evenodd" clip-rule="evenodd" d="M8.50001 64L17.5 64L22 68.5V80.5682L20.7046 82H16V86.5682L14.5682 88H2.5L1 86.5682L1 71.5L2.5 70L7.00001 70V65.5L8.50001 64ZM16 65.5V70H20.5L20.5 80.5H8.50001L8.50001 65.5L16 65.5ZM19.8787 68.5L17.5 66.1213V68.5H19.8787ZM7.00001 71.5V80.5682L8.50001 82H14.5V86.5H2.5L2.5 71.5H7.00001Z" fill="white"/>
<path fill-rule="evenodd" clip-rule="evenodd" d="M205.5 65.5L207 64H214.5L216 65.5V73L214.5 74.5H207L205.5 73V65.5ZM207 65.5V73H214.5V65.5H207ZM192 79V70L193.5 68.5H201L202.5 70V77.5H210L211.5 79V86.5L210 88H202.5H201H193.5L192 86.5V79ZM201 77.5V70H193.5V77.5H201ZM201 79H193.5V86.5H201V79ZM202.5 86.5H210V79H202.5V86.5Z" fill="white"/>
<path d="M147.463 76.86L147.458 76.79C147.46 76.8134 147.461 76.8367 147.463 76.86Z" fill="white"/>
<path d="M154.727 77.5509L151.693 74.501L152.707 73.4868L155.916 76.7117L159.079 73.5488L160.093 74.5629L157.059 77.5972L160.093 80.647L159.079 81.6612L155.87 78.4362L152.707 81.5993L151.693 80.5851L154.727 77.5509Z" fill="white"/>
<path fill-rule="evenodd" clip-rule="evenodd" d="M160.933 69.0029V70H162.278L165.12 67.1579L166.135 68.1721L163.444 70.8632L163.476 70.948C164.042 72.426 164.361 74.094 164.361 75.86C164.361 76.1955 164.35 76.5274 164.327 76.8552L164.322 76.93H167.863V78.3643H164.142L164.132 78.4217C163.829 80.075 163.241 81.5825 162.44 82.851L162.38 82.9454L165.803 86.3852L164.786 87.3968L161.512 84.1063L161.413 84.2169C159.934 85.8712 158.018 86.8629 155.93 86.8629C153.81 86.8629 151.867 85.8402 150.378 84.1395L150.28 84.0268L147.071 87.2355L146.057 86.2213L149.423 82.8558L149.364 82.7615C148.592 81.5118 148.024 80.0363 147.728 78.4217L147.718 78.3643H144V76.93H147.538L147.533 76.8552C147.51 76.5274 147.499 76.1955 147.499 75.86C147.499 74.117 147.809 72.4695 148.362 71.006L148.394 70.9217L145.632 68.1462L146.649 67.1346L149.5 70H150.927V69.0029C150.927 66.2399 153.167 64 155.93 64C158.693 64 160.933 66.2399 160.933 69.0029ZM152.361 69.0029V70H159.499V69.0029C159.499 67.032 157.901 65.4343 155.93 65.4343C153.959 65.4343 152.361 67.032 152.361 69.0029ZM162.161 71.525L162.127 71.4343H149.733L149.699 71.525C149.213 72.816 148.933 74.2859 148.933 75.86C148.933 78.6199 149.795 81.061 151.117 82.7793C152.438 84.4962 154.153 85.4286 155.93 85.4286C157.707 85.4286 159.422 84.4962 160.743 82.7793C162.065 81.061 162.927 78.6199 162.927 75.86C162.927 74.2859 162.647 72.816 162.161 71.525Z" fill="white"/>
<path d="M4.52557 25L5.82102 21.0199H12.1193L13.4148 25H17.3693L11.3523 7.54545H6.59659L0.571023 25H4.52557ZM6.75852 18.1392L8.90625 11.5341H9.04261L11.1903 18.1392H6.75852ZM24.5874 25.2557C28.0732 25.2557 30.2635 23.2102 30.434 20.2017H27.0078C26.7948 21.5994 25.8743 22.3835 24.63 22.3835C22.934 22.3835 21.8345 20.9602 21.8345 18.4545C21.8345 15.983 22.9425 14.5682 24.63 14.5682C25.9595 14.5682 26.8118 15.446 27.0078 16.75H30.434C30.2806 13.7244 27.988 11.7386 24.5703 11.7386C20.5987 11.7386 18.1442 14.4915 18.1442 18.5057C18.1442 22.4858 20.5561 25.2557 24.5874 25.2557ZM39.6016 11.9091H37.1386V8.77273H33.5079V11.9091H31.7181V14.6364H33.5079V21.4545C33.4908 24.0199 35.238 25.2898 37.8715 25.179C38.809 25.1449 39.4738 24.9574 39.8403 24.8381L39.2692 22.1364C39.0903 22.1705 38.7067 22.2557 38.3658 22.2557C37.6414 22.2557 37.1386 21.983 37.1386 20.9773V14.6364H39.6016V11.9091ZM41.8467 25H45.4774V11.9091H41.8467V25ZM43.6705 10.2216C44.7529 10.2216 45.6393 9.39489 45.6393 8.38068C45.6393 7.375 44.7529 6.54829 43.6705 6.54829C42.5967 6.54829 41.7103 7.375 41.7103 8.38068C41.7103 9.39489 42.5967 10.2216 43.6705 10.2216ZM60.4703 11.9091H56.6265L53.9163 21.2756H53.7799L51.0612 11.9091H47.226L51.8027 25H55.8936L60.4703 11.9091ZM62.2082 25H65.8389V11.9091H62.2082V25ZM64.0321 10.2216C65.1145 10.2216 66.0009 9.39489 66.0009 8.38068C66.0009 7.375 65.1145 6.54829 64.0321 6.54829C62.9582 6.54829 62.0719 7.375 62.0719 8.38068C62.0719 9.39489 62.9582 10.2216 64.0321 10.2216ZM75.5904 11.9091H73.1273V8.77273H69.4966V11.9091H67.7068V14.6364H69.4966V21.4545C69.4796 24.0199 71.2267 25.2898 73.8603 25.179C74.7978 25.1449 75.4625 24.9574 75.829 24.8381L75.258 22.1364C75.079 22.1705 74.6955 22.2557 74.3546 22.2557C73.6301 22.2557 73.1273 21.983 73.1273 20.9773V14.6364H75.5904V11.9091ZM80.0769 29.8835C82.7786 29.8835 84.219 28.5114 84.9519 26.4148L90.04 11.9261L86.1962 11.9091L83.4604 21.5227H83.3241L80.6138 11.9091H76.7957L81.4917 25.375L81.2786 25.929C80.7672 27.1136 79.8894 27.1989 78.611 26.7983L77.7928 29.517C78.3127 29.7301 79.1565 29.8835 80.0769 29.8835ZM97.2808 25H104.738C108.659 25 110.747 22.9545 110.747 20.1761C110.747 17.5938 108.897 16.0341 106.911 15.9403V15.7699C108.727 15.3608 110.065 14.0739 110.065 12.0199C110.065 9.40341 108.122 7.54545 104.269 7.54545H97.2808V25ZM100.971 21.983V17.3466H104.065C105.838 17.3466 106.937 18.3693 106.937 19.8097C106.937 21.1222 106.042 21.983 103.98 21.983H100.971ZM100.971 14.8494V10.5284H103.775C105.411 10.5284 106.34 11.3722 106.34 12.6335C106.34 14.0142 105.215 14.8494 103.707 14.8494H100.971ZM116.693 25.2472C118.627 25.2472 119.88 24.4034 120.519 23.1847H120.622V25H124.065V16.1705C124.065 13.0511 121.423 11.7386 118.508 11.7386C115.372 11.7386 113.309 13.2386 112.806 15.625L116.164 15.8977C116.412 15.0284 117.187 14.3892 118.491 14.3892C119.727 14.3892 120.434 15.0114 120.434 16.0852V16.1364C120.434 16.9801 119.539 17.0909 117.264 17.3125C114.673 17.5511 112.346 18.4205 112.346 21.3438C112.346 23.9347 114.196 25.2472 116.693 25.2472ZM117.733 22.7415C116.616 22.7415 115.815 22.2216 115.815 21.2244C115.815 20.2017 116.659 19.6989 117.937 19.5199C118.73 19.4091 120.025 19.2216 120.46 18.9318V20.321C120.46 21.6932 119.326 22.7415 117.733 22.7415ZM126.762 25H130.392V17.5938C130.392 15.983 131.568 14.875 133.171 14.875C133.674 14.875 134.364 14.9602 134.705 15.071V11.8494C134.381 11.7727 133.929 11.7216 133.563 11.7216C132.097 11.7216 130.895 12.5739 130.418 14.1932H130.282V11.9091H126.762V25Z" fill="white" fill-opacity="0.8"/>
</svg>
