<svg width="16" height="16" viewBox="0 0 16 16" fill="none" xmlns="http://www.w3.org/2000/svg">
<path d="M14.9991 5.50088C15.0303 6.61916 14.6339 7.70725 13.8907 8.54339C13.1475 9.37953 12.1133 9.90077 10.9991 10.0009C10.9909 9.65848 10.9232 9.32011 10.7991 9.00088C11.6689 8.91143 12.4755 8.50545 13.0655 7.86014C13.6555 7.21482 13.9878 6.37518 13.9991 5.50088C13.9958 4.59898 13.6452 3.73302 13.0201 3.0829C12.3949 2.43279 11.5434 2.0485 10.6423 2.00989C9.74122 1.97127 8.85991 2.28129 8.18145 2.87553C7.50299 3.46978 7.07956 4.30257 6.99912 5.20088C6.67714 5.08646 6.34033 5.0191 5.99912 5.00088C6.14758 3.90647 6.68302 2.9014 7.50848 2.16766C8.33394 1.43392 9.39485 1.02001 10.4991 1.00088C11.0908 0.998366 11.6771 1.11305 12.2242 1.3383C12.7713 1.56356 13.2683 1.89493 13.6867 2.31329C14.1051 2.73166 14.4364 3.22873 14.6617 3.77583C14.887 4.32293 15.0016 4.90923 14.9991 5.50088ZM5.49912 6.00088C4.6091 6.00088 3.73907 6.2648 2.99905 6.75927C2.25903 7.25373 1.68225 7.95654 1.34166 8.7788C1.00106 9.60107 0.91195 10.5059 1.08558 11.3788C1.25922 12.2517 1.6878 13.0535 2.31714 13.6829C2.94647 14.3122 3.7483 14.7408 4.62121 14.9144C5.49413 15.088 6.39892 14.9989 7.22119 14.6583C8.04346 14.3177 8.74626 13.741 9.24073 13.0009C9.7352 12.2609 9.99912 11.3909 9.99912 10.5009C9.99912 9.90993 9.88272 9.32477 9.65658 8.7788C9.43043 8.23284 9.09896 7.73676 8.6811 7.3189C8.26323 6.90104 7.76716 6.56957 7.22119 6.34342C6.67523 6.11728 6.09007 6.00088 5.49912 6.00088Z" fill="#C5C5C5"/>
</svg>
