<svg width="16" height="16" viewBox="0 0 16 16" fill="none" xmlns="http://www.w3.org/2000/svg">
<path d="M13.4 10.6C13.1 9.8 13 9 13 8.2V6.2C13 4.9 12.6 3.7 11.7 2.8C10.9 1.8 9.7 1.2 8.5 1.1C7.8 0.999999 7.1 0.999999 6.4 1.3C5.7 1.6 5.1 1.8 4.6 2.3C4.1 2.8 3.7 3.3 3.4 4C3.1 4.6 3 5.3 3 6V8.2C3 9 2.8 9.8 2.6 10.6L2 12.3L2.5 13H6C6 13.5 6.2 14 6.6 14.4C6.9 14.8 7.4 15 8 15C8.6 15 9 14.8 9.4 14.4C9.8 14 10 13.5 10 13H13.5L14 12.3L13.4 10.6ZM8.7 13.7C8.5 13.9 8.2 14 8 14C7.8 14 7.5 13.9 7.3 13.7C7.1 13.5 7 13.3 7 13H8H9C9 13.3 8.9 13.5 8.7 13.7ZM9.4 12H9H7H6.6H3.2L3.6 10.9C3.8 10 4 9.1 4 8.2V6C4 5.4 4.1 4.9 4.3 4.4C4.5 3.9 4.9 3.4 5.3 3.1C5.7 2.7 6.2 2.4 6.7 2.3C7.3 2 7.8 2 8.4 2C9.4 2.1 10.3 2.6 11 3.4C11.7 4.2 12 5.2 12 6.2V8.2C12 9.1 12.1 10 12.4 10.9L12.8 12H9.4Z" fill="#C5C5C5"/>
</svg>
