<svg width="16" height="16" viewBox="0 0 16 16" fill="none" xmlns="http://www.w3.org/2000/svg">
<path fill-rule="evenodd" clip-rule="evenodd" d="M6.793 13L7.646 13.854H8.354L9.207 13H14.5L15 12.5V2.5L14.5 2H9L8.646 2.146L8 2.793L7.354 2.146L7 2H1.5L1 2.5V12.5L1.5 13H6.793ZM7 12H2V3H6.793L7.53198 3.73985V12.3243L7.354 12.146L7 12ZM8.51098 12.2812L8.646 12.146L9 12H14V3H9.207L8.51098 3.69683V12.2812ZM6 5H3V6H6V5ZM3 7H6V8H3V7ZM6 9H3V10H6V9ZM10 5H13V6H10V5ZM13 7H10V8H13V7ZM10 9H13V10H10V9Z" fill="#C5C5C5"/>
</svg>
