<svg width="16" height="16" viewBox="0 0 16 16" fill="none" xmlns="http://www.w3.org/2000/svg">
<path fill-rule="evenodd" clip-rule="evenodd" d="M13.6172 3.84363C13.5169 3.52917 13.3665 3.23979 13.166 2.97546L14.5195 1.61511L13.9043 0.999878L12.5439 2.35339C12.2796 2.15287 11.9902 2.00248 11.6758 1.90222C11.3659 1.7974 11.0446 1.745 10.7119 1.745C10.3063 1.745 9.91439 1.82247 9.53613 1.97742C9.16243 2.13236 8.83203 2.35339 8.54492 2.6405L7 4.19226L11.3271 8.51941L12.8789 6.97449C13.166 6.68738 13.387 6.35697 13.542 5.98328C13.6969 5.60502 13.7744 5.21309 13.7744 4.8075C13.7744 4.47481 13.722 4.15352 13.6172 3.84363ZM12.7285 5.64832C12.6191 5.91264 12.4619 6.14734 12.2568 6.35242L11.3271 7.2821L8.2373 4.19226L9.16699 3.26257C9.37207 3.0575 9.60677 2.90027 9.87109 2.79089C10.14 2.67696 10.4202 2.62 10.7119 2.62C11.0127 2.62 11.2952 2.67924 11.5596 2.79773C11.8239 2.91166 12.054 3.06889 12.25 3.26941C12.4505 3.46537 12.6077 3.69552 12.7217 3.95984C12.8402 4.22416 12.8994 4.50671 12.8994 4.8075C12.8994 5.09916 12.8424 5.37944 12.7285 5.64832ZM7.9043 10.6415L9.3877 9.09656L8.77246 8.47449L7.28223 10.0262L5.42285 8.16687L6.91309 6.61511L6.29102 5.99988L4.80762 7.5448L4.19238 6.92957L2.64062 8.47449C2.35352 8.7616 2.13249 9.09428 1.97754 9.47253C1.82259 9.84623 1.74512 10.2359 1.74512 10.6415C1.74512 10.9742 1.79525 11.2977 1.89551 11.6122C2.00033 11.9221 2.15299 12.2092 2.35352 12.4735L1 13.8339L1.61523 14.4491L2.97559 13.0956C3.23991 13.2961 3.52702 13.4488 3.83691 13.5536C4.15137 13.6538 4.47493 13.704 4.80762 13.704C5.21322 13.704 5.60286 13.6265 5.97656 13.4716C6.35482 13.3166 6.6875 13.0956 6.97461 12.8085L8.51953 11.2567L7.9043 10.6415ZM5.6416 12.6649C5.37728 12.7743 5.09928 12.829 4.80762 12.829C4.50684 12.829 4.22201 12.772 3.95312 12.6581C3.6888 12.5441 3.45638 12.3892 3.25586 12.1932C3.0599 11.9927 2.90495 11.7603 2.79102 11.496C2.67708 11.2271 2.62012 10.9423 2.62012 10.6415C2.62012 10.3498 2.6748 10.0718 2.78418 9.8075C2.89811 9.53861 3.05762 9.30164 3.2627 9.09656L4.19238 8.16687L7.28223 11.2567L6.35254 12.1864C6.14746 12.3915 5.91048 12.551 5.6416 12.6649Z" fill="#F48771"/>
</svg>
