<svg width="16" height="16" viewBox="0 0 16 16" fill="none" xmlns="http://www.w3.org/2000/svg">
<path fill-rule="evenodd" clip-rule="evenodd" d="M1 9.99988V8.99988H6.20703C6.11588 9.32216 6.05337 9.65647 6.02242 9.99988H1ZM7.25716 6.99988C7.57052 6.62045 7.93379 6.28376 8.33692 5.99988H1V6.99988H7.25716ZM6.59971 12.9999C6.43777 12.6831 6.30564 12.3485 6.20703 11.9999H1V12.9999H6.59971ZM15 2.99988V3.99988H1V2.99988H15ZM11.6406 13.0311C13.0386 13.0311 14.1719 11.8978 14.1719 10.4999C14.1719 9.10191 13.0386 7.96863 11.6406 7.96863C10.7037 7.96863 9.88567 8.47766 9.44801 9.23425H10.5156V10.078H8.54688L8.125 9.65613V7.40613H8.96875V8.43764C9.58599 7.6391 10.5533 7.12488 11.6406 7.12488C13.5046 7.12488 15.0156 8.63592 15.0156 10.4999C15.0156 12.3638 13.5046 13.8749 11.6406 13.8749C10.2564 13.8749 9.06689 13.0416 8.54621 11.8493L9.32848 11.5316C9.72341 12.4153 10.6101 13.0311 11.6406 13.0311Z" fill="#89D185"/>
</svg>
