<svg width="16" height="16" viewBox="0 0 16 16" fill="none" xmlns="http://www.w3.org/2000/svg">
<path fill-rule="evenodd" clip-rule="evenodd" d="M1.74997 5.75V1.75H3.24997V4.2916C4.39497 2.93303 6.16095 2.08334 8.0908 2.08334C11.2668 2.08334 14.0105 4.39036 14.2492 7.48075L14.27 7.75H12.7689L12.7471 7.5241C12.5345 5.32932 10.5449 3.58334 8.0908 3.58334C6.35474 3.58334 4.84714 4.45925 4.04121 5.75H6.87008V7.25H2.70796L1.74648 6.27493V5.75H1.74997ZM7.99997 14C6.8954 14 5.99997 13.1046 5.99997 12C5.99997 10.8954 6.8954 10 7.99997 10C9.10454 10 9.99997 10.8954 9.99997 12C9.99997 13.1046 9.10454 14 7.99997 14Z" fill="#75BEFF"/>
</svg>
