<svg width="16" height="16" viewBox="0 0 16 16" fill="none" xmlns="http://www.w3.org/2000/svg">
<path fill-rule="evenodd" clip-rule="evenodd" d="M11.3259 10.2222C11.7654 9.56436 12 8.791 12 7.99988C12.0001 7.47455 11.8968 6.95435 11.6958 6.46898C11.4948 5.98362 11.2002 5.5426 10.8287 5.17114C10.4573 4.79968 10.0163 4.50505 9.5309 4.30408C9.04553 4.10311 8.52533 3.99974 8 3.99988C7.20888 3.99988 6.43552 4.23447 5.77772 4.674C5.11992 5.11353 4.60723 5.73824 4.30448 6.46914C4.00173 7.20005 3.92252 8.00431 4.07686 8.78024C4.2312 9.55616 4.61216 10.2689 5.17157 10.8283C5.73098 11.3877 6.44372 11.7687 7.21964 11.923C7.99556 12.0774 8.79983 11.9981 9.53073 11.6954C10.2616 11.3926 10.8864 10.88 11.3259 10.2222ZM8.65 9.99988H7.4V10.9999H8.65V9.99988ZM7.4 8.99988V4.99988H8.65V8.99988H7.4Z" fill="#E51400"/>
</svg>
