<svg width="16" height="16" viewBox="0 0 16 16" fill="none" xmlns="http://www.w3.org/2000/svg">
<path d="M9.12994 15L8.59994 14.23C8.88894 13.8519 9.0211 13.3769 8.96895 12.9039C8.9168 12.4308 8.68436 11.9961 8.31994 11.69C7.70737 11.1781 7.28762 10.4726 7.12994 9.69C5.56994 11.92 6.37994 13.15 7.12994 14.24L6.57994 15C5.53554 14.8032 4.59766 14.2351 3.93959 13.4005C3.28152 12.566 2.94775 11.5215 2.99994 10.46C2.99994 10.46 2.78994 8.3 5.27994 6.19C5.27994 6.19 8.09994 3.58 7.11994 1.65L7.82994 1C8.91313 1.75952 9.7418 2.82836 10.2075 4.06664C10.6732 5.30491 10.7542 6.65492 10.4399 7.94C10.6771 7.70862 10.8672 7.43357 10.9999 7.13L11.8699 7.06C11.9399 7.18 13.7099 9.99 12.7599 12.36C12.4216 13.0668 11.9126 13.6782 11.2788 14.1391C10.6451 14.6 9.9066 14.8959 9.12994 15V15ZM7.12994 8.05L7.99994 8.44C7.95356 8.89619 8.01237 9.35695 8.17186 9.78687C8.33134 10.2168 8.58726 10.6044 8.91994 10.92C9.34857 11.2323 9.67322 11.6664 9.85159 12.1658C10.03 12.6653 10.0538 13.2068 9.91994 13.72C10.3333 13.5752 10.713 13.3482 11.0361 13.0526C11.3593 12.7569 11.6191 12.3989 11.7999 12C12.1395 10.7826 11.9924 9.48096 11.3899 8.37C11.2006 8.67719 10.9254 8.92228 10.5985 9.07509C10.2716 9.22789 9.90709 9.28174 9.54994 9.23L9.19994 8.55C9.63797 7.60276 9.78716 6.54744 9.62887 5.5159C9.47058 4.48435 9.01183 3.52232 8.30994 2.75C8.16994 4.87 5.99994 6.83 5.92994 6.94C3.85994 8.7 3.99994 10.33 3.99994 10.4C3.96089 11.0176 4.08772 11.6344 4.36729 12.1865C4.64686 12.7387 5.06899 13.2059 5.58994 13.54C4.99994 12.14 4.99994 10.46 7.15994 8.05H7.12994Z" fill="#C5C5C5"/>
</svg>
