<svg width="16" height="16" viewBox="0 0 16 16" fill="none" xmlns="http://www.w3.org/2000/svg">
<g clip-path="url(#clip0)">
<path fill-rule="evenodd" clip-rule="evenodd" d="M7.71014 3H14.5002L15.0102 3.5V8.00717C14.6997 7.77276 14.3611 7.57372 14.0002 7.41604V5.98999H7.69012L6.83014 6.84998L6.48016 7H1.99017V7.48999V11.49V13H7.1002C7.1708 13.3478 7.2775 13.6825 7.41623 14H1.51019L1.01019 13.5V6.5V2.5L1.51019 2H6.51019L6.86017 2.15002L7.71014 3ZM7.49017 5H13.9902L14.0002 4.01001H7.50018L7.1402 3.85999L6.29022 3.01001H2.00018V6.01001H6.28021L7.1402 5.15002L7.49017 5Z" fill="#C5C5C5"/>
<path fill-rule="evenodd" clip-rule="evenodd" d="M9.7779 8.67412C10.4357 8.2346 11.2091 8 12.0002 8C13.0607 8.0013 14.0773 8.42315 14.8272 9.17301C15.577 9.92287 15.9989 10.9395 16.0002 12C16.0002 12.7911 15.7656 13.5645 15.3261 14.2223C14.8865 14.8801 14.2618 15.3928 13.5309 15.6955C12.8 15.9983 11.9957 16.0775 11.2198 15.9231C10.4439 15.7688 9.73117 15.3878 9.17176 14.8284C8.61235 14.269 8.23138 13.5563 8.07704 12.7804C7.9227 12.0044 8.00192 11.2002 8.30467 10.4693C8.60742 9.73836 9.12011 9.11365 9.7779 8.67412ZM11.9089 13.6637L14.2952 10.4818L13.4952 9.88184L11.4184 12.651L10.1167 11.6096L9.49197 12.3905L11.1965 13.7541L11.9089 13.6637Z" fill="#388A34"/>
</g>
<defs>
<clipPath id="clip0">
<rect width="16" height="16" fill="white" transform="translate(0.000183105)"/>
</clipPath>
</defs>
</svg>
