<svg width="16" height="16" viewBox="0 0 16 16" fill="none" xmlns="http://www.w3.org/2000/svg">
<path fill-rule="evenodd" clip-rule="evenodd" d="M5.61588 4.92781C5.34298 5.33911 4.95312 5.66074 4.49699 5.84982C4.34885 5.91025 4.03891 5.98822 4.03891 5.98822V10.9959C4.1968 11.0271 4.3508 11.0739 4.49894 11.1363C4.95507 11.3273 5.34298 11.647 5.61783 12.0583C5.89073 12.4696 6.03693 12.953 6.03693 13.4462C6.04472 13.7893 5.9804 14.1304 5.84785 14.4462C5.72309 14.7483 5.53986 15.0232 5.30789 15.2551C5.07788 15.4871 4.80108 15.6703 4.49894 15.7951C4.18316 15.9276 3.84203 15.9919 3.49896 15.9842C3.00579 15.9861 2.52237 15.8399 2.11107 15.5651C1.69977 15.2922 1.37814 14.9023 1.18906 14.4462C1.00192 13.9881 0.953192 13.4852 1.04871 12.9998C1.14422 12.5144 1.38009 12.068 1.72901 11.7172C2.07793 11.3741 2.51847 11.1382 2.99799 11.0369V5.94923C2.52042 5.84592 2.07988 5.61201 1.72901 5.26893C1.38009 4.91806 1.14422 4.47168 1.04871 3.9863C0.951243 3.50093 0.999975 2.99802 1.18906 2.53993C1.37814 2.0838 1.69977 1.69394 2.11107 1.42105C2.52042 1.1462 3.00384 1 3.49896 1C3.84008 0.994152 4.18121 1.05848 4.49699 1.18908C4.79913 1.31383 5.07398 1.49707 5.30594 1.72903C5.53791 1.961 5.72114 2.2378 5.8459 2.53993C5.97845 2.85572 6.04277 3.19684 6.03498 3.53992C6.03693 4.03309 5.89073 4.51651 5.61588 4.92781ZM4.85956 12.7893C4.73091 12.5495 4.53988 12.3487 4.30791 12.2103C4.07595 12.07 3.80889 11.9959 3.53794 11.9998C3.24165 11.9998 2.95316 12.0856 2.70755 12.2493C2.45999 12.417 2.26506 12.6528 2.1481 12.9296C2.03699 13.2025 2.0097 13.5008 2.06818 13.7893C2.12471 14.0797 2.26701 14.3487 2.47753 14.5592C2.68806 14.7697 2.95511 14.912 3.2475 14.9686C3.53599 15.0271 3.83423 14.9998 4.10713 14.8887C4.38393 14.7717 4.6198 14.5768 4.78744 14.3292C4.93753 14.1031 5.0233 13.8399 5.03694 13.569C5.04864 13.298 4.98821 13.029 4.85956 12.7893ZM2.70755 4.74068C2.95511 4.90247 3.2436 4.99019 3.53794 4.99019C3.80889 4.99019 4.07595 4.91611 4.30791 4.77966C4.53988 4.63931 4.73091 4.44049 4.85956 4.20073C4.98821 3.96096 5.05059 3.69196 5.03694 3.42101C5.0233 3.15006 4.93753 2.88691 4.78744 2.66079C4.6198 2.41323 4.38393 2.2183 4.10713 2.10135C3.83423 1.99024 3.53599 1.96295 3.2475 2.02142C2.95706 2.07795 2.68806 2.22025 2.47753 2.43077C2.26701 2.6413 2.12471 2.90835 2.06818 3.20074C2.0097 3.48924 2.03699 3.78748 2.1481 4.06038C2.26506 4.33718 2.45999 4.57304 2.70755 4.74068ZM13.0368 11.0369C13.5163 11.1344 13.9588 11.3722 14.3058 11.7172C14.7716 12.187 15.0348 12.8244 15.0309 13.4832C15.0328 13.9764 14.8866 14.4598 14.6118 14.8711C14.3389 15.2824 13.949 15.6041 13.4929 15.7931C13.0368 15.9842 12.5319 16.0349 12.0465 15.9393C11.5612 15.8438 11.1148 15.606 10.7639 15.2551C10.415 14.9043 10.1752 14.4579 10.0797 13.9725C9.98419 13.4871 10.0349 12.9842 10.2259 12.5261C10.4189 12.0739 10.7386 11.684 11.146 11.4073C11.413 11.224 11.7171 11.0993 12.0348 11.0369V5.48922C12.0348 5.09157 11.8769 4.70951 11.5962 4.42881C11.3155 4.14811 10.9335 3.99022 10.5358 3.99022H8.68597L9.95495 5.25921L9.24541 5.96875L7.11679 3.84013V3.14033L9.24736 1.00977L9.9569 1.72125L8.68791 2.99024H10.5378C10.8653 2.98829 11.1908 3.05262 11.4949 3.17737C11.799 3.30212 12.0758 3.48731 12.3077 3.71927C12.5397 3.95124 12.7249 4.22803 12.8496 4.53212C12.9744 4.83426 13.0387 5.15979 13.0368 5.48922V11.0369ZM13.5943 14.5456C13.8399 14.3019 13.9919 13.9803 14.027 13.6353C14.0621 13.2922 13.9763 12.9452 13.7853 12.6567C13.6177 12.4092 13.3818 12.2143 13.105 12.0973C12.8321 11.9862 12.5339 11.9589 12.2454 12.0174C11.9549 12.0739 11.6859 12.2162 11.4754 12.4267C11.2649 12.6372 11.1226 12.9043 11.066 13.1967C11.0076 13.4852 11.0349 13.7834 11.146 14.0563C11.2629 14.3331 11.4578 14.569 11.7054 14.7366C11.9939 14.9277 12.3389 15.0134 12.6839 14.9783C13.027 14.9433 13.3506 14.7912 13.5943 14.5456Z" fill="#C5C5C5"/>
</svg>
