<svg width="16" height="16" viewBox="0 0 16 16" fill="none" xmlns="http://www.w3.org/2000/svg">
<path fill-rule="evenodd" clip-rule="evenodd" d="M3.04001 10H5.62001L6.27001 11H2.54001L2.04001 10.5V1.5L2.54001 1H14.54L15.04 1.5V6.27L14.04 4.52V2H3.04001V10ZM8.58001 11L7.17001 14.47H9.37001L15 8.7L14.27 7H12.64L13.46 5.54L12.63 4H9.76001L8.84001 4.59L6.56001 9.59L7.47001 11H8.58001ZM9.76001 5H12.63L10.76 8H14.27L8.51001 13.84L10.2 10H7.47001L9.76001 5ZM6.95001 7H4.04001V6H7.40001L6.95001 7ZM6.05001 9H4.04001V8H6.50001L6.05001 9Z" fill="#C5C5C5"/>
</svg>
