<svg width="16" height="16" viewBox="0 0 16 16" fill="none" xmlns="http://www.w3.org/2000/svg">
<path fill-rule="evenodd" clip-rule="evenodd" d="M3.04004 10H5.62004L6.27004 11H2.54004L2.04004 10.5V1.5L2.54004 1H14.54L15.04 1.5V6.27L14.04 4.52V2H3.04004V10ZM8.58004 11L7.17004 14.47H9.37004L15 8.7L14.27 7H12.64L13.46 5.54L12.63 4H9.76004L8.84004 4.59L6.56004 9.59L7.47004 11H8.58004ZM9.76004 5H12.63L10.76 8H14.27L8.51004 13.84L10.2 10H7.47004L9.76004 5ZM6.95004 7H4.04004V6H7.40004L6.95004 7ZM6.05004 9H4.04004V8H6.50004L6.05004 9Z" fill="#C5C5C5"/>
</svg>
