<svg width="16" height="16" viewBox="0 0 16 16" fill="none" xmlns="http://www.w3.org/2000/svg">
<path fill-rule="evenodd" clip-rule="evenodd" d="M6 5.9142L8.06065 3.85356L8.06065 3.14645L5.91421 1L5.2071 1.70711L5.25 1.75L5.24998 1.75002L5.49997 2H5.5L6.49999 3H3.5C2.83696 3 2.20107 3.2634 1.73223 3.73224C1.26339 4.20108 1 4.83696 1 5.5C1 6.16305 1.26339 6.79893 1.73223 7.26777C2.20107 7.73661 2.83696 8 3.5 8H4V7H3.5C3.10218 7 2.72064 6.84197 2.43934 6.56066C2.15804 6.27936 2 5.89783 2 5.5C2 5.10218 2.15804 4.72065 2.43934 4.43934C2.72064 4.15804 3.10218 4 3.5 4H5V4.00003H5.49996L5.49999 4H6.49999L5.2071 5.29289L5.20711 5.29291L5.2071 5.29292L5.91421 6.00003L6 5.91423V5.9142ZM11 2H8.32838L7.32839 1H12L12.71 1.29L15.71 4.29L16 5V14L15 15H6L5 14V9.00003V6.50003L6 7.34699V14H15V6H11V2ZM12 2V5H15L12 2Z" fill="#C5C5C5"/>
</svg>
