<svg width="16" height="16" viewBox="0 0 16 16" fill="none" xmlns="http://www.w3.org/2000/svg">
<path fill-rule="evenodd" clip-rule="evenodd" d="M2.1187 4.00003L2.99999 4.88131L2.38127 5.50003L0.7146 3.83336V3.21464L2.38127 1.54797L2.99999 2.16669L2.16665 3.00003H15V4.00003H2.1187ZM3.99999 14.5455V5.45457L4.49999 5.00003H6.49999L6.99999 5.45457V14.5455L6.49999 15H4.49999L3.99999 14.5455ZM5.99999 14.0909V5.90912H4.99999V14.0909H5.99999ZM7.99999 12.5556V5.44447L8.49999 5.00003H10.5L11 5.44447V12.5556L10.5 13H8.49999L7.99999 12.5556ZM9.99999 12.1111V5.88892H8.99999V12.1111H9.99999ZM12 5.4286V10.5715L12.5 11H14.5L15 10.5715V5.4286L14.5 5.00003H12.5L12 5.4286ZM14 5.85717V10.1429H13V5.85717H14Z" fill="#C5C5C5"/>
</svg>
