<svg width="360" height="24" viewBox="0 0 360 24" fill="none" xmlns="http://www.w3.org/2000/svg">
<path d="M117.007 8.22168C117.01 7.52792 116.821 6.84689 116.459 6.25485C116.097 5.66281 115.578 5.18315 114.959 4.86957C114.34 4.556 113.646 4.42091 112.955 4.47941C112.264 4.53793 111.602 4.78773 111.045 5.20085C110.487 5.61397 110.056 6.17409 109.799 6.8185C109.542 7.4629 109.469 8.16613 109.59 8.84944C109.71 9.53274 110.017 10.1692 110.479 10.6874C110.94 11.2056 111.536 11.5852 112.201 11.7836C111.956 12.2824 111.576 12.703 111.105 12.9979C110.633 13.2929 110.089 13.4505 109.533 13.4532H106.544C105.437 13.4571 104.371 13.8727 103.554 14.6191V7.39809C104.462 7.21288 105.268 6.69737 105.817 5.95151C106.366 5.20565 106.618 4.28256 106.525 3.36121C106.432 2.43987 106 1.5859 105.313 0.964873C104.626 0.343845 103.733 0 102.807 0C101.881 0 100.988 0.343845 100.301 0.964873C99.614 1.5859 99.1821 2.43987 99.0891 3.36121C98.996 4.28256 99.2483 5.20565 99.7972 5.95151C100.346 6.69737 101.152 7.21288 102.06 7.39809V16.5159C101.154 16.6891 100.343 17.1877 99.7797 17.9176C99.2164 18.6476 98.9397 19.5585 99.0018 20.4785C99.0638 21.3984 99.4604 22.2639 100.117 22.9115C100.773 23.5592 101.643 23.9444 102.564 23.9944C103.485 24.0445 104.392 23.7558 105.114 23.183C105.837 22.6102 106.325 21.7928 106.486 20.885C106.648 19.9771 106.471 19.0417 105.99 18.255C105.509 17.4683 104.757 16.8848 103.876 16.6145C104.122 16.1162 104.501 15.6963 104.973 15.4019C105.444 15.1074 105.988 14.9503 106.544 14.9479H109.533C110.466 14.9436 111.374 14.6486 112.131 14.1039C112.888 13.5592 113.457 12.792 113.757 11.9091C114.653 11.7914 115.476 11.3528 116.074 10.6748C116.671 9.9968 117.003 9.12533 117.007 8.22168ZM100.565 3.73752C100.565 3.29408 100.696 2.8606 100.943 2.4919C101.189 2.12319 101.539 1.83581 101.949 1.66611C102.359 1.49642 102.809 1.45202 103.244 1.53854C103.679 1.62504 104.079 1.83857 104.392 2.15214C104.706 2.4657 104.919 2.8652 105.006 3.30012C105.092 3.73504 105.048 4.18585 104.878 4.59553C104.709 5.00521 104.421 5.35539 104.053 5.60175C103.684 5.84811 103.25 5.9796 102.807 5.9796C102.212 5.9796 101.642 5.74339 101.222 5.32291C100.801 4.90245 100.565 4.33216 100.565 3.73752ZM105.049 20.1794C105.049 20.6229 104.918 21.0563 104.671 21.425C104.425 21.7937 104.075 22.0811 103.665 22.2508C103.255 22.4205 102.804 22.4649 102.37 22.3784C101.935 22.292 101.535 22.0784 101.222 21.7648C100.908 21.4512 100.694 21.0517 100.608 20.6169C100.521 20.1819 100.566 19.7311 100.736 19.3215C100.905 18.9117 101.193 18.5615 101.561 18.3152C101.93 18.0689 102.363 17.9373 102.807 17.9373C103.402 17.9373 103.972 18.1736 104.392 18.594C104.813 19.0145 105.049 19.5848 105.049 20.1794ZM113.27 10.4638C112.827 10.4638 112.393 10.3322 112.024 10.0859C111.656 9.83954 111.368 9.48937 111.199 9.07968C111.029 8.67 110.984 8.2192 111.071 7.78427C111.157 7.34935 111.371 6.94985 111.685 6.63629C111.998 6.32273 112.398 6.10919 112.833 6.02268C113.267 5.93617 113.718 5.98058 114.128 6.15027C114.538 6.31997 114.888 6.60734 115.134 6.97605C115.381 7.34476 115.512 7.77823 115.512 8.22168C115.512 8.81632 115.276 9.3866 114.855 9.80706C114.435 10.2275 113.865 10.4638 113.27 10.4638Z" fill="white"/>
<path fill-rule="evenodd" clip-rule="evenodd" d="M302.42 0L303.25 4.15289L306.774 1.80367L310.196 5.22578L307.847 8.74964L312 9.58022V14.4198L307.847 15.2504L310.196 18.7742L306.774 22.1963L303.25 19.8471L302.42 24H297.58L296.75 19.8471L293.226 22.1963L289.804 18.7742L292.153 15.2504L288 14.4198V9.58022L292.153 8.74964L289.804 5.2258L293.226 1.80369L296.75 4.15292L297.58 3.68124e-05L302.42 0ZM306.235 10.184L305.693 8.87549L307.979 5.44529L306.555 4.02052L303.125 6.30732L301.816 5.76534L301.007 1.72278L298.993 1.7228L298.184 5.76536L296.875 6.30734L293.445 4.02055L292.021 5.44531L294.307 8.87553L293.765 10.184L289.723 10.9926V13.0075L293.765 13.816L294.307 15.1245L292.021 18.5547L293.445 19.9795L296.876 17.6927L298.184 18.2347L298.993 22.2772H301.007L301.816 18.2347L303.125 17.6927L306.555 19.9795L307.979 18.5547L305.693 15.1245L306.235 13.816L310.277 13.0075V10.9926L306.235 10.184ZM301.714 12C301.714 12.9468 300.947 13.7143 300 13.7143C299.053 13.7143 298.286 12.9468 298.286 12C298.286 11.0532 299.053 10.2857 300 10.2857C300.947 10.2857 301.714 11.0532 301.714 12ZM303.429 12C303.429 13.8935 301.894 15.4286 300 15.4286C298.106 15.4286 296.571 13.8935 296.571 12C296.571 10.1065 298.106 8.57143 300 8.57143C301.894 8.57143 303.429 10.1065 303.429 12Z" fill="#F4F4F4"/>
<path fill-rule="evenodd" clip-rule="evenodd" d="M70 8.25C70 11.9779 66.9779 15 63.25 15C59.5221 15 56.5 11.9779 56.5 8.25C56.5 4.52208 59.5221 1.5 63.25 1.5C66.9779 1.5 70 4.52208 70 8.25ZM71.5 8.25C71.5 12.8063 67.8063 16.5 63.25 16.5C61.3323 16.5 59.5674 15.8457 58.1664 14.7481L50.1251 23.8677L49 22.8756L57.0735 13.7195C55.7833 12.2636 55 10.3483 55 8.25C55 3.69365 58.6937 0 63.25 0C67.8063 0 71.5 3.69365 71.5 8.25Z" fill="white"/>
<path fill-rule="evenodd" clip-rule="evenodd" d="M347.105 4.5613L343.675 7.98827L342.541 6.86834L344.611 4.78848H339.811C339.175 4.78848 338.564 5.04132 338.114 5.49138C337.664 5.94144 337.411 6.55184 337.411 7.18832C337.411 7.8248 337.664 8.43521 338.114 8.88526C338.564 9.33532 339.175 9.58816 339.811 9.58816H340.701V11.1881H339.821C338.792 11.142 337.821 10.7009 337.109 9.95661C336.397 9.21231 336 8.22216 336 7.19232C336 6.16249 336.397 5.17234 337.109 4.42803C337.821 3.68373 338.792 3.24263 339.821 3.19659H344.621L342.541 1.13112L343.675 0L347.105 3.43177V4.5613Z" fill="white"/>
<path d="M352.62 24H343.021L342.221 23.2001V10.4121L343.021 9.61218H352.62L353.42 10.4121V23.2001L352.62 24ZM343.821 22.4001H351.82V11.2121H343.821V22.4001Z" fill="white"/>
<path d="M359.02 1.6015H349.42L348.62 2.40145V7.98828H350.22V3.20139H358.22V14.3879H355.02V15.9877H359.02L359.82 15.1878V2.40145L359.02 1.6015Z" fill="white"/>
<path d="M350.22 12.788H345.421V14.3879H350.22V12.788Z" fill="white"/>
<path d="M350.22 15.9877H345.421V17.5876H350.22V15.9877Z" fill="white"/>
<path d="M350.22 19.1875H345.421V20.7874H350.22V19.1875Z" fill="white"/>
<path d="M356.62 4.78845H351.82V6.38835H356.62V4.78845Z" fill="white"/>
<path d="M356.62 11.188H355.02V12.7879H356.62V11.188Z" fill="white"/>
<path d="M353.282 7.98828V8.01228L354.858 9.58817H356.62V7.98828H353.282Z" fill="white"/>
<path d="M246 12C246 12.2967 245.912 12.5867 245.747 12.8334C245.582 13.08 245.348 13.2723 245.074 13.3858C244.8 13.4994 244.498 13.5291 244.207 13.4712C243.916 13.4133 243.649 13.2704 243.439 13.0607C243.23 12.8509 243.087 12.5836 243.029 12.2926C242.971 12.0017 243.001 11.7001 243.114 11.426C243.228 11.1519 243.42 10.9176 243.667 10.7528C243.913 10.588 244.203 10.5 244.5 10.5C244.898 10.5 245.279 10.658 245.561 10.9393C245.842 11.2206 246 11.6022 246 12Z" fill="white"/>
<path d="M253.5 12C253.5 12.2967 253.412 12.5867 253.247 12.8334C253.082 13.08 252.848 13.2723 252.574 13.3858C252.3 13.4994 251.998 13.5291 251.707 13.4712C251.416 13.4133 251.149 13.2704 250.939 13.0607C250.73 12.8509 250.587 12.5836 250.529 12.2926C250.471 12.0017 250.501 11.7001 250.614 11.426C250.728 11.1519 250.92 10.9176 251.167 10.7528C251.413 10.588 251.703 10.5 252 10.5C252.398 10.5 252.779 10.658 253.061 10.9393C253.342 11.2206 253.5 11.6022 253.5 12Z" fill="white"/>
<path d="M261 12C261 12.2967 260.912 12.5867 260.747 12.8334C260.582 13.08 260.348 13.2723 260.074 13.3858C259.8 13.4994 259.498 13.5291 259.207 13.4712C258.916 13.4133 258.649 13.2704 258.439 13.0607C258.23 12.8509 258.087 12.5836 258.029 12.2926C257.971 12.0017 258.001 11.7001 258.114 11.426C258.228 11.1519 258.42 10.9176 258.667 10.7528C258.913 10.588 259.203 10.5 259.5 10.5C259.898 10.5 260.279 10.658 260.561 10.9393C260.842 11.2206 261 11.6022 261 12Z" fill="white"/>
<path fill-rule="evenodd" clip-rule="evenodd" d="M8.50001 0L17.5 3.57628e-07L22 4.5V16.5682L20.7046 18H16V22.5682L14.5682 24H2.5L1 22.5682L1 7.50001L2.5 6.00001L7.00001 5.99999V1.5L8.50001 0ZM16 1.5V6.00001H20.5L20.5 16.5H8.50001L8.50001 1.5L16 1.5ZM19.8787 4.5L17.5 2.12132V4.5H19.8787ZM7.00001 7.50001V16.5682L8.50001 18H14.5V22.5H2.5L2.5 7.50001H7.00001Z" fill="white"/>
<path fill-rule="evenodd" clip-rule="evenodd" d="M205.5 1.5L207 0H214.5L216 1.5V9L214.5 10.5H207L205.5 9V1.5ZM207 1.5V9H214.5V1.5H207ZM192 15V6L193.5 4.5H201L202.5 6V13.5H210L211.5 15V22.5L210 24H202.5H201H193.5L192 22.5V15ZM201 13.5V6H193.5V13.5H201ZM201 15H193.5V22.5H201V15ZM202.5 22.5H210V15H202.5V22.5Z" fill="white"/>
<path d="M147.463 12.86L147.458 12.79C147.46 12.8134 147.461 12.8367 147.463 12.86Z" fill="white"/>
<path d="M154.727 13.5509L151.693 10.501L152.707 9.4868L155.916 12.7117L159.079 9.54875L160.093 10.5629L157.059 13.5972L160.093 16.647L159.079 17.6612L155.87 14.4362L152.707 17.5993L151.693 16.5851L154.727 13.5509Z" fill="white"/>
<path fill-rule="evenodd" clip-rule="evenodd" d="M160.933 5.00286V6H162.278L165.12 3.15788L166.135 4.17207L163.444 6.86321L163.476 6.94805C164.042 8.42597 164.361 10.094 164.361 11.86C164.361 12.1955 164.35 12.5274 164.327 12.8552L164.322 12.93H167.863V14.3643H164.142L164.132 14.4217C163.829 16.075 163.241 17.5825 162.44 18.851L162.38 18.9454L165.803 22.3852L164.786 23.3968L161.512 20.1063L161.413 20.2169C159.934 21.8712 158.018 22.8629 155.93 22.8629C153.81 22.8629 151.867 21.8402 150.378 20.1395L150.28 20.0268L147.071 23.2355L146.057 22.2213L149.423 18.8558L149.364 18.7615C148.592 17.5118 148.024 16.0363 147.728 14.4217L147.718 14.3643H144V12.93H147.538L147.533 12.8552C147.51 12.5274 147.499 12.1955 147.499 11.86C147.499 10.117 147.809 8.46951 148.362 7.00599L148.394 6.92168L145.632 4.14621L146.649 3.13457L149.5 6H150.927V5.00286C150.927 2.23986 153.167 0 155.93 0C158.693 0 160.933 2.23986 160.933 5.00286ZM152.361 5.00286V6H159.499V5.00286C159.499 3.03199 157.901 1.43429 155.93 1.43429C153.959 1.43429 152.361 3.03199 152.361 5.00286ZM162.161 7.52498L162.127 7.43429H149.733L149.699 7.52498C149.213 8.81605 148.933 10.2859 148.933 11.86C148.933 14.6199 149.795 17.061 151.117 18.7793C152.438 20.4962 154.153 21.4286 155.93 21.4286C157.707 21.4286 159.422 20.4962 160.743 18.7793C162.065 17.061 162.927 14.6199 162.927 11.86C162.927 10.2859 162.647 8.81605 162.161 7.52498Z" fill="white"/>
</svg>
