<svg width="624" height="112" viewBox="0 0 624 112" fill="none" xmlns="http://www.w3.org/2000/svg">
<path fill-rule="evenodd" clip-rule="evenodd" d="M1.5 68L1 68.5V76.5L1.5 77H4V76H2V69H4V68H1.5ZM14.5 77L15 76.5L15 68.5L14.5 68H12V69L14 69L14 76H12V77H14.5ZM8.79693 69L4.29693 71L4 71.4569V73.9569L4.24275 74.3857L6.74275 75.8857L7.20307 75.9138L11.7031 73.9138L12 73.4569V70.9569L11.7572 70.5282L9.25725 69.0282L8.79693 69ZM5 72.34V73.6738L6.5 74.5738V73.24L5 72.34ZM7.5 73.2818V74.6875L11 73.132V71.7263L7.5 73.2818ZM10.4178 70.8907L8.96559 70.0194L5.58216 71.5231L7.03441 72.3945L10.4178 70.8907Z" fill="#75BEFF"/>
<path fill-rule="evenodd" clip-rule="evenodd" d="M352 66L351 67V70L352 71H364L365 70V67L364 66H352ZM352 67H353H363H364V68V69V70H363H353H352V69V68V67ZM351 74L352 73H355L356 74V77L355 78H352L351 77V74ZM353 74H352V75V76V77H353H354H355V76V75V74H354H353ZM360 74L361 73H364L365 74V77L364 78H361L360 77V74ZM362 74H361V75V76V77H362H363H364V76V75V74H363H362Z" fill="#C5C5C5"/>
<path fill-rule="evenodd" clip-rule="evenodd" d="M544 66L543 67V76L544 77H556L557 76V67L556 66H544ZM544 76V67H556V76H544ZM547.356 72.9302H548V71.2207C548 70.4069 547.685 70 547.056 70C546.921 70 546.771 70.0242 546.606 70.0726C546.442 70.121 546.312 70.1769 546.218 70.2402V70.905C546.455 70.702 546.705 70.6006 546.968 70.6006C547.229 70.6006 547.36 70.757 547.36 71.0698L546.761 71.1732C546.254 71.2588 546 71.5791 546 72.1341C546 72.3966 546.061 72.6071 546.183 72.7654C546.307 72.9218 546.476 73 546.69 73C546.98 73 547.199 72.8399 547.347 72.5196H547.356V72.9302ZM547.36 71.5754V71.7682C547.36 71.9432 547.32 72.0885 547.239 72.2039C547.159 72.3175 547.055 72.3743 546.927 72.3743C546.835 72.3743 546.761 72.3426 546.707 72.2793C546.654 72.2142 546.627 72.1313 546.627 72.0307C546.627 71.8091 546.738 71.6797 546.959 71.6425L547.36 71.5754ZM549.601 72.6262H549.593V72.9351H549V69H549.593V70.6768H549.601C549.747 70.3671 549.956 70.2122 550.226 70.2122C550.474 70.2122 550.665 70.3299 550.799 70.5652C550.933 70.8006 551 71.1224 551 71.5308C551 71.9738 550.922 72.3294 550.765 72.5977C550.609 72.8659 550.4 73 550.138 73C549.901 73 549.722 72.8754 549.601 72.6262ZM549.584 71.5049V71.7774C549.584 71.9487 549.62 72.0906 549.691 72.2031C549.762 72.3156 549.854 72.3718 549.965 72.3718C550.1 72.3718 550.205 72.3 550.279 72.1564C550.354 72.011 550.392 71.806 550.392 71.5412C550.392 71.3214 550.357 71.1501 550.288 71.0273C550.221 70.9027 550.124 70.8404 549.997 70.8404C549.878 70.8404 549.779 70.9018 549.7 71.0247C549.623 71.1475 549.584 71.3076 549.584 71.5049ZM553.262 73C553.583 73 553.83 72.9423 554 72.8268V72.1173C553.82 72.2551 553.636 72.324 553.448 72.324C553.236 72.324 553.07 72.2523 552.949 72.1089C552.828 71.9637 552.767 71.7644 552.767 71.5112C552.767 71.2505 552.83 71.0466 552.956 70.8994C553.083 70.7505 553.255 70.676 553.472 70.676C553.666 70.676 553.842 70.7449 554 70.8827V70.1341C553.871 70.0447 553.662 70 553.374 70C552.957 70 552.623 70.1406 552.373 70.4218C552.124 70.7011 552 71.0838 552 71.5698C552 71.9907 552.116 72.3343 552.349 72.6006C552.581 72.8669 552.886 73 553.262 73Z" fill="#C5C5C5"/>
<path fill-rule="evenodd" clip-rule="evenodd" d="M162.5 65L162 65.5V77H163V66H174V77H175V65.5L174.5 65H162.5ZM162 79V78H163V79H162ZM165 78.0001H164V79.0001H165V78.0001ZM166 78.0001H167V79.0001H166V78.0001ZM169 78.0001H168V79.0001H169V78.0001ZM170 78.0001H171V79.0001H170V78.0001ZM175 79.0001V78.0001H174V79.0001H175ZM172 78.0001H173V79.0001H172V78.0001Z" fill="#C5C5C5"/>
<path fill-rule="evenodd" clip-rule="evenodd" d="M450 65L449 66V78L450 79H458L459 78V66L458 65H450ZM450 67V66H458V78H450V77H452V76H450V74H454V73H450V71H452V70H450V68H454V67H450Z" fill="#C5C5C5"/>
<path d="M416.807 78.9754C416.571 78.9721 416.338 78.9211 416.122 78.8254C415.907 78.7297 415.712 78.5913 415.552 78.4186C415.239 78.1334 415.044 77.7408 415.008 77.3189C414.966 76.8828 415.093 76.4473 415.361 76.1013C416.568 74.8289 418.947 72.4494 420.678 70.7548C420.31 69.7589 420.327 68.6613 420.726 67.6774C421.055 66.8588 421.639 66.1681 422.391 65.7081C422.982 65.3171 423.66 65.0794 424.366 65.0167C425.071 64.954 425.781 65.0682 426.431 65.3489L427.048 65.6162L424.182 68.5674L425.437 69.8258L428.381 66.9489L428.648 67.5679C428.874 68.0898 428.993 68.6512 429 69.2196C429.006 69.788 428.9 70.3521 428.687 70.8791C428.476 71.4003 428.162 71.8737 427.765 72.2712C427.539 72.4917 427.29 72.6865 427.022 72.8522C426.467 73.2228 425.832 73.4564 425.17 73.5338C424.507 73.6112 423.835 73.5303 423.21 73.2976C422.112 74.4113 419.371 77.1704 417.891 78.5522C417.594 78.8219 417.208 78.9726 416.807 78.9754ZM424.745 65.928C424.087 65.9264 423.444 66.1202 422.896 66.4848C422.683 66.6152 422.484 66.769 422.305 66.9433C421.828 67.4242 421.509 68.0395 421.392 68.7067C421.274 69.3739 421.364 70.061 421.648 70.6759L421.783 70.9729L421.55 71.2003C419.812 72.8967 417.281 75.4201 416.065 76.7045C415.956 76.8658 415.91 77.0608 415.934 77.2535C415.959 77.4463 416.052 77.6238 416.197 77.7532C416.28 77.8462 416.382 77.9211 416.495 77.9731C416.596 78.0184 416.704 78.043 416.814 78.0455C416.981 78.0413 417.14 77.977 417.264 77.8646C418.837 76.3964 421.876 73.3264 422.768 72.4243L422.997 72.1933L423.292 72.3278C423.806 72.5673 424.373 72.6698 424.938 72.6255C425.503 72.5811 426.047 72.3913 426.517 72.0745C426.731 71.9426 426.93 71.7869 427.109 71.6105C427.418 71.3015 427.663 70.9337 427.829 70.5287C427.994 70.1237 428.077 69.6897 428.072 69.2523C428.072 69.0366 428.05 68.8215 428.008 68.6101L425.431 71.1251L422.879 68.5776L425.394 65.9883C425.18 65.9467 424.963 65.9265 424.745 65.928Z" fill="#C5C5C5"/>
<path fill-rule="evenodd" clip-rule="evenodd" d="M393 70H392V69.5C392 69.2239 391.776 69 391.5 69H390.479V74.5C390.479 74.7761 390.703 75 390.979 75H391.479V76H388.479V75H388.979C389.255 75 389.479 74.7761 389.479 74.5V69H388.5C388.224 69 388 69.2239 388 69.5V70H387V68H393V70ZM395.914 72.0481L394.452 70.5858L395.159 69.8787L396.975 71.6945V72.4016L395.207 74.1694L394.5 73.4623L395.914 72.0481ZM385.548 73.4623L384.086 72L385.5 70.5858L384.793 69.8787L383.025 71.6465V72.3536L384.841 74.1694L385.548 73.4623Z" fill="#C5C5C5"/>
<path fill-rule="evenodd" clip-rule="evenodd" d="M258.873 65.1002C259.208 65.2358 259.475 65.498 259.618 65.8299C259.69 65.9996 259.727 66.1824 259.725 66.3669C259.726 66.55 259.69 66.7314 259.618 66.8999C259.513 67.1457 259.338 67.355 259.114 67.5018C258.891 67.6485 258.629 67.7261 258.362 67.7249C258.179 67.7259 257.998 67.6895 257.83 67.6179C257.583 67.5141 257.372 67.3393 257.225 67.1158C257.077 66.8922 256.999 66.6298 257 66.3619C256.999 66.1792 257.035 65.9983 257.106 65.8299C257.243 65.5031 257.503 65.2432 257.83 65.1059C258.163 64.9667 258.538 64.9647 258.873 65.1002ZM258.575 66.8649C258.705 66.8091 258.809 66.7053 258.865 66.5749C258.893 66.5084 258.907 66.437 258.907 66.3649C258.908 66.2654 258.882 66.1675 258.832 66.0817C258.782 65.9958 258.709 65.9253 258.622 65.8777C258.534 65.83 258.436 65.807 258.336 65.8112C258.237 65.8154 258.14 65.8465 258.057 65.9013C257.974 65.9561 257.908 66.0324 257.865 66.1221C257.822 66.2119 257.804 66.3116 257.814 66.4106C257.823 66.5097 257.859 66.6043 257.918 66.6843C257.977 66.7643 258.057 66.8267 258.149 66.8649C258.285 66.9209 258.439 66.9209 258.575 66.8649ZM262.43 65.1095L257.11 70.4298L257.796 71.1157L263.116 65.7954L262.43 65.1095ZM267.5 73H268.5V75.5H271V76.5H268.5V79H267.5V76.5H265V75.5H267.5V73ZM261.768 73.5251L262.475 74.2322L260.707 76L262.475 77.7677L261.768 78.4748L260 76.7071L258.232 78.4748L257.525 77.7677L259.293 76L257.525 74.2322L258.232 73.5251L260 75.2929L261.768 73.5251ZM263.118 69.3299C263.014 69.0827 262.84 68.8718 262.616 68.7241C262.393 68.5763 262.13 68.4983 261.862 68.4999C261.679 68.499 261.498 68.535 261.33 68.6059C261.003 68.7432 260.743 69.0031 260.606 69.3299C260.536 69.4948 260.499 69.6719 260.497 69.8511C260.496 70.0303 260.53 70.208 260.597 70.3741C260.664 70.5402 260.764 70.6914 260.889 70.8191C261.015 70.9467 261.165 71.0482 261.33 71.1179C261.499 71.1885 261.68 71.2248 261.863 71.2248C262.045 71.2248 262.226 71.1885 262.395 71.1179C262.642 71.0139 262.853 70.8391 263.001 70.6156C263.148 70.3921 263.227 70.1299 263.226 69.8619C263.227 69.679 263.19 69.498 263.118 69.3299ZM262.365 70.0749C262.338 70.1394 262.298 70.1981 262.249 70.2479C262.199 70.2972 262.14 70.3369 262.076 70.3649C262.009 70.393 261.936 70.4072 261.863 70.4069C261.79 70.4074 261.717 70.3932 261.65 70.3649C261.585 70.3373 261.527 70.2976 261.477 70.2479C261.427 70.1986 261.387 70.1397 261.36 70.0749C261.304 69.9384 261.304 69.7854 261.36 69.6489C261.415 69.5185 261.519 69.4148 261.65 69.3599C261.717 69.3313 261.79 69.3166 261.863 69.3169C261.936 69.3168 262.009 69.3315 262.076 69.3599C262.14 69.3875 262.199 69.4268 262.249 69.4759C262.298 69.526 262.337 69.5847 262.365 69.6489C262.393 69.7163 262.408 69.7887 262.408 69.8619C262.408 69.935 262.393 70.0075 262.365 70.0749ZM270 67H266V68H270V67Z" fill="#C5C5C5"/>
<path fill-rule="evenodd" clip-rule="evenodd" d="M139 97V101H143V102H139L139 106H143V107H139V111H138V107H134V111H133L133 107H129V106H133L133 102H129V101H133L133 97H134V101H138V97H139ZM134 102L134 106H138L138 102H134Z" fill="#C5C5C5"/>
<path fill-rule="evenodd" clip-rule="evenodd" d="M134 66.9836V66.9718V66H133.911C133.597 66 133.294 66.0616 133.001 66.1847C132.708 66.308 132.449 66.4847 132.226 66.715C132.003 66.9442 131.838 67.195 131.733 67.4677L131.732 67.469C131.634 67.7352 131.568 68.012 131.535 68.2992L131.535 68.3005C131.507 68.5805 131.499 68.8684 131.511 69.1643C131.523 69.4538 131.529 69.7433 131.529 70.0328C131.529 70.2356 131.49 70.4259 131.412 70.6051L131.412 70.606C131.337 70.783 131.234 70.9387 131.103 71.0736C130.976 71.2041 130.825 71.3106 130.647 71.3925C130.471 71.4695 130.285 71.5082 130.089 71.5082H130V71.6V72.4V72.4918H130.089C130.285 72.4918 130.47 72.5324 130.646 72.6133L130.647 72.614C130.825 72.6916 130.976 72.7976 131.102 72.9316L131.104 72.9335C131.234 73.0637 131.337 73.2187 131.411 73.3994L131.412 73.4011C131.49 73.5805 131.529 73.7688 131.529 73.9672C131.529 74.2567 131.523 74.5462 131.511 74.8357C131.499 75.1316 131.507 75.4215 131.535 75.7055L131.535 75.7072C131.568 75.9903 131.634 76.265 131.732 76.531L131.733 76.5323C131.838 76.805 132.003 77.0558 132.226 77.285C132.449 77.5153 132.708 77.692 133.001 77.8153C133.294 77.9384 133.597 78 133.911 78H134V77.2V77.0164H133.911C133.711 77.0164 133.523 76.9777 133.348 76.9008C133.174 76.8191 133.022 76.7126 132.891 76.5818C132.764 76.4469 132.661 76.2911 132.582 76.1137C132.508 75.9346 132.471 75.744 132.471 75.541C132.471 75.3127 132.475 75.0885 132.483 74.8686C132.491 74.6411 132.491 74.4195 132.483 74.2039C132.479 73.9825 132.461 73.7688 132.428 73.5631C132.395 73.3502 132.339 73.1476 132.26 72.9554C132.181 72.7616 132.073 72.5775 131.936 72.403C131.823 72.2588 131.685 72.1246 131.523 72C131.685 71.8754 131.823 71.7412 131.936 71.597C132.073 71.4225 132.181 71.2384 132.26 71.0446C132.339 70.8526 132.395 70.6517 132.428 70.4428C132.461 70.2333 132.479 70.0197 132.483 69.8022C132.491 69.5826 132.491 69.3611 132.483 69.1375C132.475 68.9134 132.471 68.6872 132.471 68.459C132.471 68.2602 132.508 68.0715 132.582 67.8921C132.661 67.7103 132.764 67.5548 132.891 67.4244C133.022 67.2894 133.175 67.1827 133.348 67.1051C133.524 67.0243 133.711 66.9836 133.911 66.9836H134ZM138 77.0164V77.0282V78H138.089C138.403 78 138.706 77.9384 138.999 77.8153C139.292 77.692 139.551 77.5153 139.774 77.285C139.997 77.0558 140.162 76.805 140.267 76.5323L140.268 76.531C140.366 76.2648 140.432 75.988 140.465 75.7008L140.465 75.6995C140.493 75.4195 140.501 75.1316 140.489 74.8357C140.477 74.5462 140.471 74.2567 140.471 73.9672C140.471 73.7644 140.51 73.5741 140.588 73.3949L140.588 73.394C140.663 73.217 140.766 73.0613 140.897 72.9264C141.024 72.7959 141.175 72.6894 141.353 72.6075C141.529 72.5305 141.715 72.4918 141.911 72.4918H142V72.4V71.6V71.5082H141.911C141.715 71.5082 141.53 71.4676 141.354 71.3867L141.353 71.386C141.175 71.3084 141.024 71.2024 140.898 71.0684L140.896 71.0665C140.766 70.9363 140.663 70.7813 140.589 70.6006L140.588 70.5989C140.51 70.4195 140.471 70.2312 140.471 70.0328C140.471 69.7433 140.477 69.4538 140.489 69.1643C140.501 68.8684 140.493 68.5785 140.465 68.2945L140.465 68.2928C140.432 68.0097 140.366 67.735 140.268 67.469L140.267 67.4677C140.162 67.195 139.997 66.9442 139.774 66.715C139.551 66.4847 139.292 66.308 138.999 66.1847C138.706 66.0616 138.403 66 138.089 66H138V66.8V66.9836H138.089C138.289 66.9836 138.477 67.0223 138.652 67.0992C138.826 67.1809 138.978 67.2874 139.109 67.4182C139.236 67.5531 139.339 67.7089 139.418 67.8863C139.492 68.0654 139.529 68.256 139.529 68.459C139.529 68.6873 139.525 68.9115 139.517 69.1314C139.509 69.3589 139.509 69.5805 139.517 69.7961C139.521 70.0175 139.539 70.2312 139.572 70.4369C139.605 70.6498 139.661 70.8524 139.74 71.0446C139.819 71.2384 139.927 71.4225 140.064 71.597C140.177 71.7412 140.315 71.8754 140.477 72C140.315 72.1246 140.177 72.2588 140.064 72.403C139.927 72.5775 139.819 72.7616 139.74 72.9554C139.661 73.1474 139.605 73.3483 139.572 73.5572C139.539 73.7667 139.521 73.9803 139.517 74.1978C139.509 74.4174 139.509 74.6389 139.517 74.8625C139.525 75.0866 139.529 75.3128 139.529 75.541C139.529 75.7398 139.492 75.9285 139.418 76.1079C139.339 76.2897 139.236 76.4452 139.109 76.5756C138.978 76.7106 138.825 76.8173 138.652 76.8949C138.476 76.9757 138.289 77.0164 138.089 77.0164H138Z" fill="#C5C5C5"/>
<path fill-rule="evenodd" clip-rule="evenodd" d="M4 98H12V102.027C12.3467 102.066 12.6816 102.144 13 102.256V98V97H12H4H3V98V105.484L4 103.734V98ZM4 105.75L3.28571 107L1 111H9L6.71429 107L6.14286 106L5 104L4 105.75ZM5.56254 107L5 106.016L4.43747 107L2.72318 110H7.27682L5.56254 107ZM11.5 109C12.8807 109 14 107.881 14 106.5C14 105.119 12.8807 104 11.5 104C10.1193 104 9 105.119 9 106.5C9 107.881 10.1193 109 11.5 109ZM11.5 110C13.433 110 15 108.433 15 106.5C15 104.567 13.433 103 11.5 103C9.567 103 8 104.567 8 106.5C8 108.433 9.567 110 11.5 110Z" fill="#C5C5C5"/>
<path fill-rule="evenodd" clip-rule="evenodd" d="M66 68.8575L66.4855 68L71.4855 65H72.5145L77.5145 68L78 68.8575V74.8575L77.5145 75.715L72.5145 78.715H71.4855L66.4855 75.715L66 74.8575V68.8575ZM71.5 77.5575L67 74.8575V69.6998L71.5 72.1543V77.5575ZM72.5 77.5575L77 74.8575V69.6998L72.5 72.1543V77.5575ZM72 65.8575L67.2591 68.702L72 71.2879L76.7409 68.702L72 65.8575Z" fill="#B180D7"/>
<path fill-rule="evenodd" clip-rule="evenodd" d="M204 105C202.33 105 201 106.33 201 108C201 109.67 202.33 111 204 111C205.67 111 207 109.67 207 108C207 106.33 205.67 105 204 105ZM203.203 108.471L202.704 110L204 109.024L205.305 110L204.797 108.471L206 107.639H204.536L204 106L203.473 107.639H202L203.203 108.471Z" fill="#75BEFF"/>
<path fill-rule="evenodd" clip-rule="evenodd" d="M203.171 104.085C201.851 104.359 200.777 105.277 200.287 106.5H198.409V108.701C198.409 108.782 198.437 108.851 198.499 108.913C198.561 108.974 198.63 109.003 198.712 109.003H200.125C200.214 109.351 200.348 109.681 200.521 109.985C200.455 109.995 200.387 110 200.318 110H198.712C198.532 110 198.362 109.966 198.203 109.898C198.046 109.831 197.908 109.739 197.79 109.621C197.672 109.504 197.579 109.366 197.511 109.209C197.443 109.05 197.409 108.881 197.409 108.701V107.101C197.409 106.622 197.318 106.18 197.136 105.772C196.957 105.363 196.698 104.992 196.36 104.658C195.925 104.229 195.589 103.75 195.354 103.221C195.118 102.691 195 102.117 195 101.5C195 101.087 195.053 100.688 195.16 100.304C195.267 99.9209 195.419 99.5629 195.616 99.2302C195.813 98.8938 196.048 98.5891 196.321 98.3164C196.595 98.0438 196.899 97.8095 197.232 97.6136C197.57 97.4176 197.931 97.2662 198.316 97.1598C198.701 97.0532 199.101 97 199.515 97C199.929 97 200.329 97.0532 200.715 97.1598C201.099 97.2662 201.458 97.4174 201.792 97.6135C202.129 97.8094 202.435 98.0437 202.709 98.3164C202.983 98.5891 203.218 98.8938 203.414 99.2302C203.611 99.5628 203.763 99.9209 203.87 100.304C203.977 100.688 204.03 101.087 204.03 101.5C204.03 102.117 203.913 102.691 203.677 103.221C203.541 103.526 203.373 103.813 203.171 104.085Z" fill="#75BEFF"/>
<path fill-rule="evenodd" clip-rule="evenodd" d="M171.671 104.658C171.332 104.992 171.072 105.363 170.889 105.772C170.711 106.179 170.621 106.622 170.621 107.101V108.701C170.621 108.881 170.587 109.05 170.519 109.209C170.451 109.366 170.359 109.504 170.241 109.621C170.123 109.739 169.985 109.831 169.827 109.898C169.668 109.966 169.498 110 169.318 110H167.712C167.532 110 167.362 109.966 167.203 109.898C167.046 109.831 166.908 109.739 166.79 109.621C166.672 109.504 166.579 109.366 166.511 109.209C166.443 109.05 166.409 108.881 166.409 108.701V107.101C166.409 106.622 166.318 106.18 166.136 105.772C165.957 105.363 165.698 104.992 165.36 104.658C164.925 104.229 164.589 103.75 164.354 103.221C164.118 102.691 164 102.117 164 101.5C164 101.087 164.053 100.688 164.16 100.304C164.267 99.9209 164.419 99.5629 164.616 99.2302C164.813 98.8938 165.048 98.5891 165.321 98.3164C165.595 98.0438 165.899 97.8095 166.232 97.6136C166.57 97.4176 166.931 97.2662 167.316 97.1598C167.701 97.0532 168.101 97 168.515 97C168.929 97 169.329 97.0532 169.715 97.1598C170.099 97.2662 170.458 97.4174 170.792 97.6135C171.129 97.8094 171.435 98.0437 171.709 98.3164C171.983 98.5891 172.218 98.8938 172.414 99.2302C172.611 99.5628 172.763 99.9209 172.87 100.304C172.977 100.688 173.03 101.087 173.03 101.5C173.03 102.117 172.913 102.691 172.677 103.221C172.441 103.75 172.106 104.229 171.671 104.658ZM169.622 106.5H167.409V108.701C167.409 108.782 167.437 108.851 167.499 108.913C167.561 108.974 167.63 109.003 167.712 109.003H169.318C169.4 109.003 169.47 108.974 169.531 108.913C169.593 108.851 169.622 108.782 169.622 108.701V106.5Z" fill="#FFCC00"/>
<path d="M111 68H106V67H111V68ZM110 71H108V72H110V71ZM106 71H97V72H106V71ZM108 77H97V78H108V77ZM103 74H97V75H103V74ZM111 74H106V75H111V74ZM104 66V69H97V66H104ZM103 67H98V68H103V67Z" fill="#C5C5C5"/>
<path fill-rule="evenodd" clip-rule="evenodd" d="M103.223 106.933C103.549 107.125 103.922 107.223 104.3 107.215C104.638 107.222 104.973 107.149 105.277 107.003C105.582 106.857 105.848 106.641 106.054 106.373C106.509 105.765 106.74 105.019 106.708 104.26C106.741 103.586 106.537 102.922 106.132 102.383C105.936 102.142 105.686 101.95 105.402 101.822C105.118 101.695 104.809 101.636 104.498 101.65C104.075 101.647 103.66 101.761 103.298 101.979C103.183 102.048 103.075 102.128 102.975 102.217V99.475H101.984V107.1H102.979V106.756C103.055 106.822 103.137 106.881 103.223 106.933ZM103.85 102.7C104.036 102.621 104.238 102.587 104.44 102.6C104.613 102.595 104.784 102.631 104.94 102.705C105.096 102.779 105.232 102.89 105.336 103.028C105.593 103.391 105.718 103.83 105.693 104.273C105.72 104.797 105.58 105.317 105.293 105.757C105.188 105.915 105.045 106.045 104.878 106.134C104.71 106.222 104.523 106.267 104.333 106.265C104.149 106.273 103.966 106.24 103.797 106.168C103.628 106.096 103.478 105.986 103.357 105.848C103.102 105.56 102.965 105.185 102.975 104.8V104.2C102.963 103.783 103.103 103.376 103.368 103.055C103.499 102.901 103.664 102.779 103.85 102.7ZM99.289 101.675C98.9701 101.679 98.6539 101.734 98.352 101.837C98.0642 101.923 97.7935 102.058 97.552 102.237L97.452 102.314V103.514L97.875 103.155C98.2458 102.805 98.7313 102.601 99.241 102.583C99.3659 102.572 99.4917 102.591 99.6071 102.641C99.7224 102.69 99.8238 102.767 99.902 102.865C100.052 103.097 100.132 103.368 100.133 103.644L98.9 103.825C98.3943 103.878 97.9153 104.078 97.522 104.4C97.367 104.552 97.2434 104.733 97.1583 104.932C97.0733 105.132 97.0285 105.346 97.0264 105.563C97.0244 105.78 97.0652 105.996 97.1464 106.197C97.2277 106.398 97.3479 106.581 97.5 106.736C97.6687 106.89 97.8662 107.01 98.0812 107.088C98.2963 107.166 98.5246 107.201 98.753 107.19C99.147 107.193 99.5328 107.077 99.86 106.858C99.9615 106.79 100.057 106.713 100.146 106.629V107.073H101.087V103.715C101.121 103.174 100.954 102.64 100.618 102.215C100.45 102.033 100.243 101.89 100.014 101.797C99.7841 101.703 99.5366 101.662 99.289 101.675ZM100.146 104.716C100.166 105.134 100.026 105.545 99.755 105.864C99.6369 106.001 99.49 106.109 99.3249 106.182C99.1597 106.255 98.9805 106.291 98.8 106.286C98.6905 106.295 98.5804 106.281 98.476 106.247C98.3716 106.213 98.2751 106.158 98.192 106.086C98.0608 105.935 97.9886 105.741 97.9886 105.54C97.9886 105.34 98.0608 105.146 98.192 104.995C98.4732 104.821 98.7923 104.718 99.122 104.695L100.142 104.547L100.146 104.716ZM108.459 107.032C108.766 107.164 109.098 107.226 109.432 107.215C109.927 107.227 110.415 107.101 110.842 106.85L110.965 106.775L110.978 106.768V105.615L110.532 105.935C110.216 106.159 109.836 106.275 109.448 106.264C109.25 106.272 109.052 106.234 108.87 106.154C108.689 106.073 108.528 105.952 108.4 105.8C108.114 105.425 107.973 104.959 108 104.488C107.974 103.987 108.135 103.495 108.453 103.107C108.593 102.941 108.77 102.809 108.968 102.721C109.167 102.633 109.383 102.592 109.6 102.6C109.944 102.598 110.281 102.695 110.571 102.879L111 103.144V101.97L110.831 101.897C110.463 101.734 110.064 101.65 109.661 101.65C109.3 101.64 108.941 101.708 108.608 101.849C108.275 101.99 107.976 102.2 107.732 102.467C107.226 103.027 106.958 103.762 106.985 104.516C106.957 105.223 107.196 105.916 107.654 106.455C107.877 106.704 108.152 106.901 108.459 107.032Z" fill="#C5C5C5"/>
<path fill-rule="evenodd" clip-rule="evenodd" d="M329.5 69C328.119 69 327 70.1193 327 71.5C327 72.8807 328.119 74 329.5 74C330.881 74 332 72.8807 332 71.5C332 70.1193 330.881 69 329.5 69ZM326.035 72C326.278 73.6961 327.737 75 329.5 75C331.433 75 333 73.433 333 71.5C333 69.567 331.433 68 329.5 68C327.737 68 326.278 69.3039 326.035 71H322.937C322.715 70.1374 321.932 69.5 321 69.5C319.895 69.5 319 70.3954 319 71.5C319 72.6046 319.895 73.5 321 73.5C321.932 73.5 322.715 72.8626 322.937 72H326.035Z" fill="#75BEFF"/>
<path d="M619.85 68.44L616.57 65.14L616.22 65H608.5L608 65.5V78.5L608.5 79H619.5L620 78.5V68.8L619.85 68.44ZM619 69H616V66L619 69ZM609 78V66H615V69.5L615.5 70H619V78H609Z" fill="#C5C5C5"/>
<path fill-rule="evenodd" clip-rule="evenodd" d="M193 70.3944L193.553 69.5L200.553 66H201.447L206.447 68.5L207 69.3944V73.8944L206.447 74.7889L199.447 78.2889H198.553L193.553 75.7889L193 74.8944V70.3944ZM198.5 77.1444L194 74.8944V71.1709L198.5 73.2164V77.1444ZM199.5 77.1444L206 73.8944V70.1795L199.5 73.2129V77.1444ZM201 66.8944L194.337 70.2258L198.997 72.344L205.671 69.2297L201 66.8944Z" fill="#75BEFF"/>
<path fill-rule="evenodd" clip-rule="evenodd" d="M231.414 65.56L232.312 65H235.606L236.424 66.5747L234.236 70H236.017L236.736 71.6951L229.619 79L228.017 77.837L230.119 74H228.898L228 72.56L231.414 65.56ZM231.78 73L228.901 78.3049L236.017 71H232.312L235.606 66H232.312L228.898 73H231.78Z" fill="#EE9D28"/>
<path fill-rule="evenodd" clip-rule="evenodd" d="M517 67L518 66H524L525 67V72L524 73H520V72H524V67H518V70H517V67ZM518 71L519 72V73V77L518 78H512L511 77V72L512 71H517H518ZM518 72V73V77H512V72H517H518ZM519.414 71L519 70.5858V70H523V71H519.414ZM519 68H523V69H519V68ZM517 74H513V75H517V74Z" fill="#75BEFF"/>
<path fill-rule="evenodd" clip-rule="evenodd" d="M486 66L485 67V70H486V67H492V72H488V73H492L493 72V67L492 66H486ZM487 72L486 71H485H480L479 72V77L480 78H486L487 77V73V72ZM486 73V72H485H480V77H486V73ZM487 70.5858L487.414 71H491V70H487V70.5858ZM491 68H487V69H491V68ZM485 73H481V74H485V73ZM481 75H485V76H481V75Z" fill="#EE9D28"/>
<path fill-rule="evenodd" clip-rule="evenodd" d="M36 70H44V71H36V70ZM44 73H36V74H44V73Z" fill="#C5C5C5"/>
<path fill-rule="evenodd" clip-rule="evenodd" d="M33 68L34 67H46L47 68V76L46 77H34L33 76V68ZM34 68V76H46V68H34Z" fill="#C5C5C5"/>
<path fill-rule="evenodd" clip-rule="evenodd" d="M580.6 75.7673C581.329 75.0383 581.329 73.8564 580.6 73.1274C579.871 72.3984 578.689 72.3984 577.96 73.1274C576.918 74.2249 575.104 73.939 575.013 72.4285C575.004 72.2868 575 72.1439 575 72C575 68.134 578.134 65 582 65C585.866 65 589 68.134 589 72C589 75.866 585.866 79 582 79C581.798 79 581.597 78.9914 581.4 78.9746C579.806 78.8393 579.499 76.9263 580.6 75.7673ZM580.967 77.5434C580.903 77.2464 580.988 76.815 581.318 76.4632C582.426 75.3429 582.423 73.5362 581.307 72.4204L581.307 72.4202C580.187 71.3009 578.373 71.3009 577.253 72.4202L577.244 72.4295L577.235 72.4389C576.939 72.7504 576.571 72.826 576.332 72.7767C576.219 72.7533 576.15 72.7067 576.11 72.6616C576.074 72.6216 576.021 72.5402 576.011 72.3683C576.004 72.2466 576 72.1238 576 72C576 68.6863 578.686 66 582 66C585.314 66 588 68.6863 588 72C588 75.3137 585.314 78 582 78C581.826 78 581.654 77.9926 581.484 77.9782C581.29 77.9617 581.185 77.8987 581.124 77.8429C581.058 77.7824 580.998 77.6864 580.967 77.5434ZM579 70C579.552 70 580 69.5523 580 69C580 68.4477 579.552 68 579 68C578.448 68 578 68.4477 578 69C578 69.5523 578.448 70 579 70ZM586 75C586 75.5523 585.552 76 585 76C584.448 76 584 75.5523 584 75C584 74.4477 584.448 74 585 74C585.552 74 586 74.4477 586 75ZM582 69C582.552 69 583 68.5523 583 68C583 67.4477 582.552 67 582 67C581.448 67 581 67.4477 581 68C581 68.5523 581.448 69 582 69ZM587 72C587 72.5523 586.552 73 586 73C585.448 73 585 72.5523 585 72C585 71.4477 585.448 71 586 71C586.552 71 587 71.4477 587 72ZM585 70C585.552 70 586 69.5523 586 69C586 68.4477 585.552 68 585 68C584.448 68 584 68.4477 584 69C584 69.5523 584.448 70 585 70Z" fill="#C5C5C5"/>
<path fill-rule="evenodd" clip-rule="evenodd" d="M291.354 70.6464L290.061 69.3535L293.354 66.0607L294.646 67.3535L291.354 70.6464ZM293 65L289 69V69.7071L291 71.7071H291.707L292.854 70.5606V76.3535L293.354 76.8535H298.01V77.3741L299.343 78.7074H300.05L302.717 76.0407V75.3336L301.383 74.0003H300.676L298.823 75.8535H293.854V71.8935H298.01V72.374L299.343 73.7073H300.05L302.717 71.0407V70.3336L301.383 69.0002H300.676L298.863 70.8136H293.854V69.5606L295.707 67.7071V67L293.707 65H293ZM299.07 72.0205L299.697 72.6467L301.656 70.6871L301.03 70.0609L299.07 72.0205ZM299.07 77.0205L299.697 77.6467L301.656 75.6872L301.03 75.061L299.07 77.0205Z" fill="#EE9D28"/>
<path fill-rule="evenodd" clip-rule="evenodd" d="M33 99.5L33.5 99H46.5L47 99.5L47 108.5L46.5 109H33.5L33 108.5V99.5ZM46 100H40L40 103.493L39.8979 103.493L39.5 103.492V103.492L35.9261 103.488L38.0164 101.398L37.3093 100.691L34.3536 103.646L34.3536 104.354L37.3093 107.309L38.0164 106.602L35.9023 104.488L39.8992 104.493L40 104.493V103.507L43.9073 103.512L41.7929 101.398L42.5 100.691L45.4557 103.646V104.354L42.5 107.309L41.7929 106.602L43.8828 104.512L40 104.507V108H46V100Z" fill="#C5C5C5"/>
<path fill-rule="evenodd" clip-rule="evenodd" d="M65.5 98L65 98.5V109.5L65.5 110H68V109H66V99H68V98H65.5ZM78.5 110L79 109.5L79 98.5L78.5 98H76V99L78 99L78 109H76V110H78.5Z" fill="#C5C5C5"/>
<path d="M5.20739 7.54545H1.51705V25H5.20739V7.54545ZM11.6861 17.4318C11.6946 15.7443 12.7003 14.7557 14.1662 14.7557C15.6236 14.7557 16.5014 15.7102 16.4929 17.3125V25H20.1236V16.6648C20.1236 13.6136 18.3338 11.7386 15.6066 11.7386C13.6634 11.7386 12.2571 12.6932 11.6691 14.2188H11.5157V11.9091H8.05543V25H11.6861V17.4318ZM29.8282 11.9091H27.3651V8.77273H23.7344V11.9091H21.9447V14.6364H23.7344V21.4545C23.7174 24.0199 25.4645 25.2898 28.0981 25.179C29.0356 25.1449 29.7003 24.9574 30.0668 24.8381L29.4958 22.1364C29.3168 22.1705 28.9333 22.2557 28.5924 22.2557C27.868 22.2557 27.3651 21.983 27.3651 20.9773V14.6364H29.8282V11.9091ZM37.8985 25.2557C41.1372 25.2557 43.319 23.679 43.8303 21.25L40.4724 21.0284C40.1059 22.0256 39.1684 22.5455 37.9582 22.5455C36.1428 22.5455 34.9923 21.3438 34.9923 19.392V19.3835H43.907V18.3864C43.907 13.9375 41.2139 11.7386 37.7536 11.7386C33.9014 11.7386 31.4042 14.4744 31.4042 18.5142C31.4042 22.6648 33.8673 25.2557 37.8985 25.2557ZM34.9923 17.1335C35.069 15.642 36.2025 14.4489 37.8133 14.4489C39.39 14.4489 40.4809 15.5739 40.4894 17.1335H34.9923ZM49.787 7.54545H46.1564V25H49.787V7.54545ZM56.2061 7.54545H52.5754V25H56.2061V7.54545ZM58.9945 25H62.6252V11.9091H58.9945V25ZM60.8184 10.2216C61.9007 10.2216 62.7871 9.39489 62.7871 8.38068C62.7871 7.375 61.9007 6.54829 60.8184 6.54829C59.7445 6.54829 58.8581 7.375 58.8581 8.38068C58.8581 9.39489 59.7445 10.2216 60.8184 10.2216ZM74.9505 12.5653H78.4874C78.4363 9.45454 75.8795 7.30682 71.9931 7.30682C68.1664 7.30682 65.3624 9.42045 65.3795 12.5909C65.3709 15.1648 67.1863 16.6392 70.1351 17.3466L72.0357 17.8239C73.9363 18.2841 74.9931 18.8295 75.0016 20.0057C74.9931 21.2841 73.7829 22.1534 71.9079 22.1534C69.9903 22.1534 68.6096 21.267 68.4903 19.5199H64.9192C65.013 23.2955 67.7147 25.2472 71.9505 25.2472C76.2118 25.2472 78.7175 23.2102 78.7261 20.0142C78.7175 17.108 76.5272 15.5653 73.4931 14.8835L71.9249 14.5085C70.4079 14.1591 69.138 13.5966 69.1636 12.3438C69.1636 11.2188 70.1607 10.392 71.9675 10.392C73.7317 10.392 74.8141 11.1932 74.9505 12.5653ZM86.986 25.2557C90.2247 25.2557 92.4065 23.679 92.9178 21.25L89.5599 21.0284C89.1934 22.0256 88.2559 22.5455 87.0457 22.5455C85.2303 22.5455 84.0798 21.3438 84.0798 19.392V19.3835H92.9945V18.3864C92.9945 13.9375 90.3014 11.7386 86.8411 11.7386C82.9889 11.7386 80.4917 14.4744 80.4917 18.5142C80.4917 22.6648 82.9548 25.2557 86.986 25.2557ZM84.0798 17.1335C84.1565 15.642 85.29 14.4489 86.9008 14.4489C88.4775 14.4489 89.5684 15.5739 89.5769 17.1335H84.0798ZM98.8745 17.4318C98.8831 15.7443 99.8887 14.7557 101.355 14.7557C102.812 14.7557 103.69 15.7102 103.681 17.3125V25H107.312V16.6648C107.312 13.6136 105.522 11.7386 102.795 11.7386C100.852 11.7386 99.4456 12.6932 98.8575 14.2188H98.7041V11.9091H95.2439V25H98.8745V17.4318ZM120.946 15.642C120.622 13.2301 118.679 11.7386 115.372 11.7386C112.022 11.7386 109.815 13.2898 109.823 15.8125C109.815 17.7727 111.051 19.0426 113.608 19.554L115.875 20.0057C117.017 20.2358 117.537 20.6534 117.554 21.3097C117.537 22.0852 116.693 22.6392 115.423 22.6392C114.127 22.6392 113.267 22.0852 113.045 21.0199L109.474 21.2074C109.815 23.7131 111.946 25.2557 115.414 25.2557C118.806 25.2557 121.235 23.5256 121.244 20.9432C121.235 19.0511 120 17.9176 117.46 17.3977L115.09 16.9205C113.872 16.6562 113.42 16.2386 113.429 15.608C113.42 14.8239 114.306 14.3125 115.431 14.3125C116.693 14.3125 117.443 15.0028 117.622 15.8466L120.946 15.642ZM129.376 25.2557C132.615 25.2557 134.796 23.679 135.308 21.25L131.95 21.0284C131.583 22.0256 130.646 22.5455 129.436 22.5455C127.62 22.5455 126.47 21.3438 126.47 19.392V19.3835H135.385V18.3864C135.385 13.9375 132.691 11.7386 129.231 11.7386C125.379 11.7386 122.882 14.4744 122.882 18.5142C122.882 22.6648 125.345 25.2557 129.376 25.2557ZM126.47 17.1335C126.546 15.642 127.68 14.4489 129.291 14.4489C130.868 14.4489 131.958 15.5739 131.967 17.1335H126.47Z" fill="white" fill-opacity="0.8"/>
</svg>
