<svg width="16" height="16" viewBox="0 0 16 16" fill="none" xmlns="http://www.w3.org/2000/svg">
<path fill-rule="evenodd" clip-rule="evenodd" d="M11.351 1.09104C12.2239 1.26878 13.025 1.70005 13.654 2.33087C14.1858 2.86723 14.5765 3.52696 14.7911 4.25113C15.0057 4.9753 15.0376 5.74136 14.884 6.48087C14.6614 7.49471 14.1012 8.40296 13.2952 9.05696C12.4891 9.71095 11.485 10.072 10.447 10.0809C10.0091 10.0816 9.5734 10.0179 9.154 9.89187L8.354 10.8289L7.975 11.0039H7V12.5039L6.5 13.0039H5V14.5039L4.5 15.0039H1.5L1 14.5039V12.1969L1.146 11.8439L6.12 6.87087C5.97884 6.4162 5.91132 5.94187 5.92 5.46587C5.93222 4.57513 6.20692 3.70779 6.70969 2.97241C7.21247 2.23703 7.92099 1.66629 8.74657 1.33164C9.57215 0.996995 10.4781 0.913301 11.351 1.09104ZM12.6693 8.29061C13.2973 7.78193 13.7341 7.07512 13.908 6.28587L13.912 6.29087C14.0355 5.71381 14.0129 5.11505 13.8463 4.54894C13.6796 3.98283 13.3742 3.4673 12.9578 3.04918C12.5414 2.63105 12.0271 2.32357 11.4617 2.15464C10.8962 1.98572 10.2976 1.9607 9.72 2.08187C8.94078 2.25482 8.24183 2.68349 7.73442 3.29963C7.22701 3.91577 6.94032 4.68395 6.92 5.48187C6.90919 5.93678 6.99049 6.38918 7.159 6.81187L7.049 7.35387L2 12.4039V14.0039H4V12.5039L4.5 12.0039H6V10.5039L6.5 10.0039H7.745L8.621 8.98787L9.182 8.84787C9.58639 9.00589 10.0168 9.08662 10.451 9.08587C11.2592 9.07967 12.0413 8.79928 12.6693 8.29061ZM11.8315 5.55947C11.9414 5.39502 12 5.20168 12 5.0039C12 4.73868 11.8946 4.48433 11.7071 4.29679C11.5196 4.10926 11.2652 4.0039 11 4.0039C10.8022 4.0039 10.6089 4.06255 10.4444 4.17243C10.28 4.28231 10.1518 4.43849 10.0761 4.62122C10.0004 4.80394 9.98063 5.00501 10.0192 5.19899C10.0578 5.39297 10.153 5.57116 10.2929 5.71101C10.4327 5.85086 10.6109 5.9461 10.8049 5.98469C10.9989 6.02327 11.2 6.00347 11.3827 5.92778C11.5654 5.85209 11.7216 5.72392 11.8315 5.55947Z" fill="#C5C5C5"/>
</svg>
