<svg width="16" height="16" viewBox="0 0 16 16" fill="none" xmlns="http://www.w3.org/2000/svg">
<path fill-rule="evenodd" clip-rule="evenodd" d="M4.4 3H7.485C8.38674 3 9.25154 3.35821 9.88916 3.99584C10.5268 4.63346 10.885 5.49826 10.885 6.4V6.605C10.8837 7.50587 10.5249 8.36939 9.8874 9.00593C9.24992 9.64247 8.38587 10 7.485 10H7V9H7.485C8.11892 8.99868 8.72658 8.74662 9.1753 8.29883C9.62402 7.85105 9.87736 7.24392 9.88 6.61V6.4C9.88001 5.76521 9.62852 5.15627 9.1806 4.70647C8.73267 4.25667 8.12478 4.00265 7.49 4H4.4C3.76348 4 3.15303 4.25286 2.70294 4.70294C2.48008 4.9258 2.3033 5.19038 2.18269 5.48156C2.06208 5.77274 2 6.08483 2 6.4V6.605C2.0015 7.17053 2.20316 7.71727 2.56924 8.14833C2.93532 8.57938 3.44218 8.86693 4 8.96V9.96C3.17781 9.86262 2.4194 9.46858 1.86707 8.85181C1.31473 8.23503 1.00643 7.43791 1 6.61V6.4C1.00132 5.49867 1.35996 4.63463 1.9973 3.9973C2.63463 3.35996 3.49867 3.00132 4.4 3ZM12.0001 7.04V6.04C12.824 6.1376 13.5838 6.53307 14.1363 7.15194C14.6889 7.77081 14.9961 8.57036 15.0001 9.4V9.605C14.9975 10.5046 14.6389 11.3666 14.0028 12.0027C13.3667 12.6388 12.5047 12.9974 11.6051 13H8.51512C7.61598 12.9987 6.75397 12.6413 6.11771 12.0059C5.48146 11.3706 5.12276 10.5091 5.12012 9.61V9.4C5.12012 8.49913 5.47764 7.63508 6.11419 6.9976C6.75073 6.36012 7.61425 6.00132 8.51512 6H9.00012V7H8.51512C7.87946 7.00132 7.2703 7.25477 6.82129 7.70471C6.37229 8.15465 6.12012 8.76435 6.12012 9.4V9.605C6.12144 10.2398 6.37419 10.8482 6.82306 11.2971C7.27192 11.7459 7.88033 11.9987 8.51512 12H11.6051C12.239 11.9987 12.8467 11.7466 13.2954 11.2988C13.7441 10.851 13.9975 10.2439 14.0001 9.61V9.4C13.9998 8.83361 13.7987 8.28568 13.4325 7.85358C13.0663 7.42149 12.5588 7.13321 12.0001 7.04Z" fill="#C5C5C5"/>
</svg>
