<svg width="16" height="16" viewBox="0 0 16 16" fill="none" xmlns="http://www.w3.org/2000/svg">
<path fill-rule="evenodd" clip-rule="evenodd" d="M2.28711 2.326L2.69211 2H3.36911V5H2.66111V2.792L2.28711 3.073V2.326ZM5 3H15V4H5V3ZM5 7H15V8H5V7ZM15 11H5V12H15V11ZM3.742 7.62606L3.77055 7.58715C3.79289 7.55685 3.81494 7.52695 3.836 7.49606C3.86778 7.45161 3.89492 7.40403 3.917 7.35406C3.94099 7.30111 3.95942 7.24581 3.972 7.18906C3.98597 7.12332 3.99268 7.05625 3.992 6.98906C3.99211 6.86909 3.97287 6.74989 3.935 6.63606C3.897 6.51709 3.8332 6.40799 3.74815 6.31654C3.6631 6.2251 3.5589 6.15356 3.443 6.10706C3.29959 6.04887 3.14571 6.02095 2.991 6.02506C2.83386 6.02081 2.67764 6.05049 2.533 6.11206C2.41607 6.16344 2.31142 6.23911 2.226 6.33406C2.1491 6.42149 2.09061 6.52352 2.054 6.63406C2.01902 6.73819 2.0008 6.84721 2 6.95706V7.00606H2.81V6.95706C2.81037 6.92997 2.81441 6.90306 2.822 6.87706C2.82825 6.84943 2.83979 6.82328 2.856 6.80006C2.87064 6.77795 2.89013 6.75948 2.913 6.74606C2.93965 6.73253 2.96911 6.72548 2.999 6.72548C3.02889 6.72548 3.05835 6.73253 3.085 6.74606C3.10786 6.76169 3.12698 6.78218 3.141 6.80606C3.15617 6.83095 3.16667 6.8584 3.172 6.88706C3.17759 6.91438 3.18061 6.94217 3.181 6.97006C3.183 7.04136 3.16755 7.11208 3.136 7.17606C3.10118 7.2403 3.06104 7.30152 3.016 7.35906L2.016 8.49706L2.004 8.51006V9.05006H3.992V8.35006H3.092L3.742 7.62606ZM3.705 11.443C3.75065 11.4745 3.79113 11.513 3.825 11.557C3.8733 11.6218 3.91203 11.6931 3.94 11.769C3.97799 11.8775 3.99562 11.9921 3.992 12.107C3.99153 12.2136 3.97466 12.3195 3.942 12.421C3.90674 12.5287 3.84876 12.6276 3.772 12.711C3.68292 12.8033 3.57472 12.8749 3.455 12.921C3.30148 12.9776 3.13857 13.0044 2.975 13C2.85954 13.0005 2.74463 12.984 2.634 12.951C2.54221 12.9234 2.4552 12.8819 2.376 12.828C2.3057 12.7797 2.24415 12.7199 2.194 12.651C2.14817 12.5887 2.10927 12.5217 2.078 12.451C2.05097 12.3865 2.03054 12.3195 2.017 12.251C2.00624 12.1939 2.00055 12.136 2 12.078V12.029H2.814V12.078C2.81417 12.1055 2.81718 12.133 2.823 12.16C2.82808 12.1863 2.83827 12.2115 2.853 12.234C2.86562 12.2558 2.88395 12.2738 2.906 12.286C2.93027 12.2978 2.9567 12.3047 2.98368 12.306C3.01066 12.3074 3.03765 12.3033 3.063 12.294C3.08428 12.2852 3.1034 12.2719 3.119 12.255C3.1378 12.233 3.15207 12.2075 3.161 12.18C3.17307 12.1391 3.17881 12.0966 3.178 12.054C3.18004 11.9988 3.1726 11.9436 3.156 11.891C3.14566 11.8606 3.12817 11.8332 3.105 11.811C3.08765 11.7966 3.06706 11.7866 3.045 11.782C3.01953 11.7778 2.9938 11.7755 2.968 11.775H2.807V11.13H2.975C2.99842 11.1297 3.02167 11.126 3.044 11.119C3.06797 11.1127 3.0902 11.1011 3.109 11.085C3.13011 11.0668 3.14656 11.0438 3.157 11.018C3.17268 10.9796 3.17984 10.9383 3.178 10.897C3.17879 10.8629 3.17337 10.829 3.162 10.797C3.15362 10.7732 3.13994 10.7517 3.122 10.734C3.10589 10.7179 3.08643 10.7056 3.065 10.698C3.03986 10.6886 3.01309 10.6844 2.98629 10.6856C2.95949 10.6868 2.9332 10.6934 2.909 10.705C2.88675 10.7181 2.86791 10.7362 2.854 10.758C2.84002 10.7812 2.82989 10.8065 2.824 10.833C2.81746 10.8595 2.81411 10.8867 2.814 10.914V10.963H2V10.914C2.00261 10.796 2.02632 10.6795 2.07 10.57C2.0992 10.4995 2.13609 10.4324 2.18 10.37C2.2292 10.2987 2.28966 10.2359 2.359 10.184C2.43818 10.1251 2.52677 10.0802 2.621 10.051C2.73545 10.0149 2.85501 9.99764 2.975 9.99996C3.09067 9.99866 3.20611 10.0107 3.319 10.036C3.41072 10.0575 3.49916 10.0911 3.582 10.136C3.65408 10.1739 3.71959 10.2232 3.776 10.282C3.82549 10.3334 3.86786 10.3913 3.902 10.454C3.93274 10.5103 3.95594 10.5705 3.971 10.633C3.98456 10.6879 3.99161 10.7443 3.992 10.801C3.99512 10.911 3.97713 11.0207 3.939 11.124C3.91116 11.1975 3.87276 11.2665 3.825 11.329C3.79087 11.3727 3.75043 11.4111 3.705 11.443Z" fill="#C5C5C5"/>
</svg>
