<svg width="16" height="16" viewBox="0 0 16 16" fill="none" xmlns="http://www.w3.org/2000/svg">
<path fill-rule="evenodd" clip-rule="evenodd" d="M10.8325 2.68759C10.0855 1.94057 9.07645 1.51449 8.02009 1.5H7.98009C6.92374 1.51449 5.91472 1.94057 5.16769 2.68759C4.42066 3.43462 3.99458 4.44364 3.9801 5.5C3.96667 6.25028 4.17769 6.98747 4.58609 7.617L7.73355 14H8.26664L11.4141 7.617C11.8225 6.98747 12.0335 6.25028 12.0201 5.5C12.0056 4.44364 11.5795 3.43462 10.8325 2.68759ZM7.9241 2.5L8.00609 2.51L8.0801 2.5C8.86566 2.53421 9.60828 2.86807 10.1553 3.43293C10.7023 3.99779 11.0121 4.75074 11.0211 5.537C11.0287 6.09502 10.8658 6.64206 10.5541 7.105L10.5341 7.139L10.5171 7.174L8.0001 12.279L5.4831 7.179L5.46609 7.14L5.4461 7.106C5.13443 6.64306 4.97151 6.09602 4.9791 5.538C4.98762 4.75083 5.29782 3.99693 5.84575 3.4317C6.39367 2.86647 7.13757 2.53299 7.9241 2.5ZM8.53555 4.66853C8.3711 4.55865 8.17776 4.5 7.97998 4.5C7.71477 4.5 7.46041 4.60536 7.27288 4.79289C7.08534 4.98043 6.97998 5.23478 6.97998 5.5C6.97998 5.69778 7.03863 5.89112 7.14851 6.05557C7.25839 6.22002 7.41457 6.34819 7.5973 6.42388C7.78002 6.49957 7.98109 6.51937 8.17507 6.48079C8.36905 6.4422 8.54724 6.34696 8.68709 6.20711C8.82694 6.06725 8.92218 5.88907 8.96077 5.69509C8.99935 5.50111 8.97955 5.30004 8.90386 5.11732C8.82817 4.93459 8.7 4.77841 8.53555 4.66853ZM6.86884 3.83706C7.19774 3.6173 7.58442 3.5 7.97998 3.5C8.51041 3.5 9.01912 3.71071 9.3942 4.08579C9.76927 4.46086 9.97998 4.96957 9.97998 5.5C9.97998 5.89556 9.86268 6.28224 9.64292 6.61114C9.42316 6.94004 9.1108 7.19638 8.74535 7.34776C8.3799 7.49913 7.97776 7.53874 7.5898 7.46157C7.20184 7.3844 6.84547 7.19392 6.56577 6.91421C6.28606 6.63451 6.09558 6.27814 6.01841 5.89018C5.94124 5.50222 5.98085 5.10009 6.13222 4.73463C6.2836 4.36918 6.53994 4.05682 6.86884 3.83706Z" fill="#C5C5C5"/>
</svg>
