<svg width="16" height="16" viewBox="0 0 16 16" fill="none" xmlns="http://www.w3.org/2000/svg">
<path fill-rule="evenodd" clip-rule="evenodd" d="M1.99976 6.77002L14.3298 3.33997L14.9998 3.86997V12.47L14.3298 13L8.24149 11.4051C8.19496 11.5852 8.12521 11.7591 8.03357 11.9223C7.87283 12.2085 7.64895 12.4543 7.37895 12.6411C7.10895 12.8279 6.79993 12.9506 6.47538 13C6.15083 13.0495 5.81928 13.0242 5.50593 12.9263C5.19258 12.8284 4.90567 12.6603 4.66701 12.4349C4.42835 12.2095 4.24421 11.9326 4.12859 11.6254C4.01297 11.3181 3.96891 10.9885 3.99976 10.6617C4.01099 10.5427 4.03204 10.4252 4.06253 10.3104L1.99976 9.77002L1.57976 9.24002V7.30002L1.99976 6.77002ZM5.0059 10.5575C4.98425 10.6358 4.97095 10.7168 4.96661 10.7991C4.96661 11.1094 5.08988 11.407 5.3093 11.6265C5.52872 11.8459 5.82631 11.9691 6.13661 11.9691C6.44692 11.9691 6.74451 11.8459 6.96393 11.6265C7.09931 11.4911 7.19809 11.3259 7.25389 11.1464L5.0059 10.5575ZM2.57976 8.82002L13.9998 11.83V4.49997L2.57976 7.72002V8.82002Z" fill="#C5C5C5"/>
</svg>
