<svg width="16" height="16" viewBox="0 0 16 16" fill="none" xmlns="http://www.w3.org/2000/svg">
<path fill-rule="evenodd" clip-rule="evenodd" d="M1.99971 6.77002L14.3297 3.33997L14.9997 3.86997V12.47L14.3297 13L8.24145 11.4051C8.19491 11.5852 8.12516 11.7591 8.03352 11.9223C7.87278 12.2085 7.6489 12.4543 7.3789 12.6411C7.1089 12.8279 6.79989 12.9506 6.47533 13C6.15078 13.0495 5.81923 13.0242 5.50588 12.9263C5.19253 12.8284 4.90563 12.6603 4.66697 12.4349C4.4283 12.2095 4.24417 11.9326 4.12855 11.6254C4.01293 11.3181 3.96887 10.9885 3.99971 10.6617C4.01094 10.5427 4.032 10.4252 4.06248 10.3104L1.99971 9.77002L1.57971 9.24002V7.30002L1.99971 6.77002ZM5.00586 10.5575C4.9842 10.6358 4.97091 10.7168 4.96657 10.7991C4.96657 11.1094 5.08984 11.407 5.30925 11.6265C5.52867 11.8459 5.82626 11.9691 6.13657 11.9691C6.44687 11.9691 6.74447 11.8459 6.96388 11.6265C7.09927 11.4911 7.19804 11.3259 7.25385 11.1464L5.00586 10.5575ZM2.57971 8.82002L13.9997 11.83V4.49997L2.57971 7.72002V8.82002Z" fill="#C5C5C5"/>
</svg>
