<svg width="16" height="16" viewBox="0 0 16 16" fill="none" xmlns="http://www.w3.org/2000/svg">
<path d="M10.4653 12.36C9.54043 12.896 8.47975 13.1517 7.41226 13.096C6.8027 13.1419 6.19038 13.0561 5.6169 12.8445C5.04343 12.6328 4.52222 12.3002 4.08869 11.8692C3.65516 11.4382 3.31946 10.919 3.10439 10.3468C2.88932 9.77457 2.79992 9.16278 2.84226 8.55295C2.8167 7.82964 2.93733 7.10861 3.19691 6.433C3.45649 5.75739 3.8497 5.14109 4.35301 4.62098C4.85631 4.10086 5.45937 3.68763 6.12609 3.40601C6.79282 3.12438 7.5095 2.98015 8.23326 2.98195C10.6103 2.98195 12.6463 4.35695 12.6463 6.98795C12.6463 9.16995 11.3543 10.648 9.74626 10.648C9.07026 10.648 8.64626 10.374 8.62026 9.73095C8.43106 10.0216 8.16995 10.2583 7.86228 10.4183C7.55462 10.5783 7.21082 10.656 6.86426 10.644C5.89526 10.644 5.23526 9.99895 5.23526 8.72095C5.23526 6.95795 6.38326 5.32095 7.85526 5.32095C8.16481 5.28125 8.47839 5.35303 8.73985 5.52343C9.00132 5.69383 9.19359 5.95172 9.28226 6.25095L9.49326 5.44195H10.3933L9.60026 8.64595C9.37426 9.56195 9.47026 9.86095 9.94226 9.86095C10.9263 9.86095 11.7753 8.65095 11.7753 7.03595C11.7753 4.96795 10.3303 3.77095 8.16426 3.77095C5.52226 3.77095 3.79126 5.90295 3.78326 8.55695C3.74231 9.05277 3.80929 9.55158 3.97961 10.019C4.14992 10.4865 4.41952 10.9115 4.76983 11.2647C5.12015 11.618 5.54287 11.8911 6.00887 12.0654C6.47488 12.2396 6.97311 12.3108 7.46926 12.274C8.44226 12.3142 9.40852 12.0954 10.2693 11.64L10.4653 12.36ZM6.21726 8.63895C6.21726 9.42695 6.52426 9.84495 7.13026 9.84495C7.88826 9.84495 8.51026 9.24495 8.81326 8.01395C9.13626 6.74595 8.84926 6.09995 7.94026 6.09995C6.90026 6.09995 6.21726 7.43895 6.21726 8.63895Z" fill="#C5C5C5"/>
</svg>
