<svg width="16" height="16" viewBox="0 0 16 16" fill="none" xmlns="http://www.w3.org/2000/svg">
<path fill-rule="evenodd" clip-rule="evenodd" d="M10.5 4.64639L8.35364 2.5H7.64653L5.50009 4.64639L6.2072 5.35349L7.30006 4.26066V5.27972H7.28057V5.73617L7.30543 5.73717C7.30744 5.84794 7.30944 5.95412 7.31144 6.05572C7.31514 6.24322 7.33177 6.43462 7.36133 6.62994C7.3909 6.82525 7.4297 7.02056 7.47774 7.21587C7.52578 7.41119 7.5923 7.62017 7.6773 7.84283C7.83252 8.22173 8.02099 8.56548 8.24273 8.87408C8.46446 9.18267 8.70283 9.47173 8.95782 9.74127C9.21282 10.0108 9.46596 10.2764 9.71726 10.5381C9.96856 10.7999 10.1958 11.0792 10.3991 11.376C10.6024 11.6729 10.7668 11.9971 10.8925 12.3487C11.0181 12.7002 11.0809 13.1045 11.0809 13.5616V14.4463H12.5V13.5616C12.4926 13.042 12.4372 12.5792 12.3337 12.1729C12.2303 11.7667 12.088 11.3995 11.9069 11.0713C11.7258 10.7432 11.5244 10.4444 11.3027 10.1749C11.0809 9.90533 10.85 9.64752 10.6097 9.40142C10.3695 9.15533 10.1386 8.90923 9.91682 8.66314C9.69509 8.41705 9.49368 8.15533 9.3126 7.87798C9.13151 7.60064 8.98738 7.29595 8.88021 6.96392C8.77304 6.63189 8.71946 6.25494 8.71946 5.83306V5.27972H8.71876V4.27935L9.7929 5.3535L10.5 4.64639ZM7.04221 9.74127C7.15493 9.62213 7.26439 9.49917 7.37061 9.3724C7.1264 9.01878 6.92084 8.63423 6.75193 8.22189L6.74293 8.19952C6.70926 8.11134 6.6777 8.02386 6.64835 7.93713C6.4775 8.19261 6.28912 8.43461 6.08321 8.66314C5.86147 8.90923 5.6305 9.15533 5.39029 9.40142C5.15007 9.64752 4.9191 9.90533 4.69737 10.1749C4.47563 10.4444 4.27422 10.7432 4.09314 11.0713C3.91206 11.3995 3.76978 11.7667 3.6663 12.1729C3.56282 12.5792 3.50739 13.042 3.5 13.5616V14.4463H4.9191V13.5616C4.9191 13.1045 4.98193 12.7002 5.10758 12.3487C5.23323 11.9971 5.39768 11.6729 5.60094 11.376C5.80419 11.0792 6.03147 10.7999 6.28277 10.5381C6.53407 10.2764 6.78722 10.0108 7.04221 9.74127Z" fill="#C5C5C5"/>
</svg>
