<svg width="16" height="16" viewBox="0 0 16 16" fill="none" xmlns="http://www.w3.org/2000/svg">
<path fill-rule="evenodd" clip-rule="evenodd" d="M8.56976 1L14.7698 5L14.9998 5.38V14.58L14.2398 15L7.99976 11L1.75976 15L0.999756 14.58V5.38L1.22976 5L7.42976 1H8.56976ZM8.50976 10.13L13.9998 13.67V5.65L8.50976 2.15V5H7.50976V2.13L1.99976 5.67V13.67L7.50976 10.11V10.13H8.50976ZM9.40976 5.35002L10.1198 4.65002L12.5898 7.13002V7.84002L10.1298 10.3L9.42976 9.60003L11.0198 8.00002H8.94976H7.07976H5.01976L6.59976 9.60003L5.89976 10.3L3.43976 7.84002V7.13002L5.91976 4.65002L6.61976 5.35002L4.97976 7.00002H7.07976H8.94976H11.0598L9.40976 5.35002Z" fill="#C5C5C5"/>
</svg>
