<svg width="16" height="16" viewBox="0 0 16 16" fill="none" xmlns="http://www.w3.org/2000/svg">
<path fill-rule="evenodd" clip-rule="evenodd" d="M4 2H12V6.02746C12.3467 6.06579 12.6816 6.14352 13 6.25606V2V1H12H4H3V2V9.48444L4 7.73444V2ZM4 9.75L3.28571 11L1 15H9L6.71429 11L6.14286 10L5 8L4 9.75ZM5.56254 11L5 10.0156L4.43747 11L2.72318 14H7.27682L5.56254 11ZM11.5 13C12.8807 13 14 11.8807 14 10.5C14 9.11929 12.8807 8 11.5 8C10.1193 8 9 9.11929 9 10.5C9 11.8807 10.1193 13 11.5 13ZM11.5 14C13.433 14 15 12.433 15 10.5C15 8.567 13.433 7 11.5 7C9.567 7 8 8.567 8 10.5C8 12.433 9.567 14 11.5 14Z" fill="#C5C5C5"/>
</svg>
