<svg width="16" height="16" viewBox="0 0 16 16" fill="none" xmlns="http://www.w3.org/2000/svg">
<path fill-rule="evenodd" clip-rule="evenodd" d="M13.8625 5.67248C13.9762 5.39248 14.3438 4.28123 13.7487 2.77623C13.7487 2.77623 12.83 2.48748 10.7388 3.91373C9.86375 3.66873 8.9275 3.63373 8 3.63373C7.0725 3.63373 6.13625 3.66873 5.26125 3.91373C3.17 2.47873 2.25125 2.77623 2.25125 2.77623C1.65625 4.28123 2.02375 5.39248 2.1375 5.67248C1.42875 6.43373 1 7.41373 1 8.60373C1 13.11 3.91375 14.125 7.9825 14.125C12.0513 14.125 15 13.11 15 8.60373C15 7.41373 14.5712 6.43373 13.8625 5.67248ZM8 13.2675C5.1125 13.2675 2.7675 13.1362 2.7675 10.3362C2.7675 9.67123 3.1 9.04123 3.66 8.52498C4.59625 7.66748 6.1975 8.12248 8 8.12248C9.81125 8.12248 11.395 7.66748 12.34 8.52498C12.9087 9.04123 13.2325 9.66248 13.2325 10.3362C13.2325 13.1275 10.8875 13.2675 8 13.2675ZM5.80375 8.88373C5.22625 8.88373 4.75375 9.58373 4.75375 10.4412C4.75375 11.2987 5.22625 12.0075 5.80375 12.0075C6.38125 12.0075 6.85375 11.3075 6.85375 10.4412C6.85375 9.57498 6.38125 8.88373 5.80375 8.88373ZM10.1962 8.88373C9.61875 8.88373 9.14625 9.57498 9.14625 10.4412C9.14625 11.3075 9.61875 12.0075 10.1962 12.0075C10.7738 12.0075 11.2463 11.3075 11.2463 10.4412C11.2463 9.57498 10.7825 8.88373 10.1962 8.88373Z" fill="#C5C5C5"/>
</svg>
