<svg width="16" height="16" viewBox="0 0 16 16" fill="none" xmlns="http://www.w3.org/2000/svg">
<path fill-rule="evenodd" clip-rule="evenodd" d="M9.11121 4.66295C8.78231 4.88272 8.39562 4.99999 8.00006 4.99999C7.46963 4.99999 6.96095 4.78925 6.58588 4.41417C6.2108 4.0391 6.00006 3.53042 6.00006 2.99999C6.00006 2.60443 6.11733 2.2178 6.3371 1.88891C6.55686 1.56001 6.86923 1.30359 7.23468 1.15221C7.60013 1.00084 8.0023 0.961271 8.39026 1.03844C8.77822 1.11561 9.13454 1.3061 9.41425 1.5858C9.69395 1.86551 9.88444 2.22189 9.96161 2.60985C10.0388 2.99781 9.99921 3.39992 9.84784 3.76537C9.69646 4.13082 9.4401 4.44319 9.11121 4.66295ZM8.5556 2.16857C8.39115 2.05869 8.19784 1.99999 8.00006 1.99999C7.73484 1.99999 7.48051 2.1053 7.29297 2.29284C7.10543 2.48037 7.00006 2.73477 7.00006 2.99999C7.00006 3.19777 7.0587 3.39108 7.16858 3.55553C7.27846 3.71998 7.43464 3.84813 7.61737 3.92382C7.8001 3.9995 8.00115 4.01941 8.19513 3.98082C8.38911 3.94224 8.5673 3.84699 8.70715 3.70714C8.84701 3.56729 8.94225 3.38904 8.98083 3.19506C9.01942 3.00108 8.99964 2.80002 8.92395 2.6173C8.84826 2.43457 8.72005 2.27845 8.5556 2.16857ZM11.1667 2.19968C11.4134 2.03391 11.7034 1.94543 12.0001 1.94543C12.3979 1.94543 12.7794 2.10438 13.0607 2.3873C13.342 2.67022 13.5001 3.05394 13.5001 3.45406C13.5001 3.75243 13.4121 4.04411 13.2473 4.2922C13.0824 4.54029 12.8482 4.73366 12.5741 4.84784C12.3 4.96202 11.9984 4.9919 11.7074 4.93369C11.4165 4.87548 11.1492 4.7318 10.9394 4.52081C10.7296 4.30983 10.5868 4.04102 10.5289 3.74837C10.471 3.45573 10.5007 3.1524 10.6142 2.87673C10.7278 2.60107 10.92 2.36545 11.1667 2.19968ZM11.6465 3.80964C11.7403 3.90395 11.8675 3.95693 12.0001 3.95693C12.1327 3.95693 12.2598 3.90395 12.3536 3.80964C12.4474 3.71533 12.5001 3.58743 12.5001 3.45406C12.4975 3.32149 12.444 3.19507 12.3508 3.10132C12.2576 3.00756 12.1319 2.95376 12.0001 2.95118C11.8675 2.95118 11.7403 3.00416 11.6465 3.09847C11.5527 3.19278 11.5001 3.32068 11.5001 3.45406C11.5001 3.58743 11.5527 3.71533 11.6465 3.80964ZM3.19008 12.4857H5.00008V13.4914H3.19008C2.87356 13.4888 2.57089 13.3604 2.34801 13.1344C2.12512 12.9083 2.00007 12.6029 2.00008 12.2845V10.4742C1.86562 10.4697 1.73344 10.438 1.61144 10.381C1.48944 10.324 1.38014 10.2428 1.29008 10.1423C1.19497 10.0459 1.12024 9.93119 1.0704 9.80501C1.02056 9.67883 0.996642 9.54381 1.00008 9.40808V7.22561C1.00308 6.75424 1.18978 6.30286 1.52008 5.96842C1.84892 5.63683 2.29444 5.44893 2.76008 5.44543H4.60008C4.3521 5.74058 4.16512 6.0825 4.05008 6.45118H2.76008C2.55744 6.4567 2.36444 6.53937 2.22008 6.6825C2.07879 6.82753 1.99979 7.02257 2.00008 7.22561V9.45836H3.00008V12.2845C2.99778 12.3118 3.00103 12.3392 3.00963 12.3651C3.01822 12.3911 3.03199 12.415 3.05008 12.4354C3.09028 12.4666 3.1393 12.4842 3.19008 12.4857ZM10.4901 5.96842C10.1588 5.63438 9.70919 5.44628 9.24007 5.44543H6.76008C6.29443 5.44893 5.84892 5.63683 5.52008 5.96842C5.18978 6.30286 5.00308 6.75424 5.00008 7.22561V10.4038C4.99866 10.677 5.1026 10.9402 5.29008 11.138C5.38014 11.2385 5.48944 11.3197 5.61144 11.3767C5.73343 11.4337 5.86562 11.4654 6.00008 11.4699V13.7931C5.99914 13.9519 6.0296 14.1092 6.08969 14.2559C6.14978 14.4027 6.23829 14.536 6.35008 14.648C6.52989 14.8164 6.75678 14.9253 7.00008 14.9598H9.00007C9.28103 14.9249 9.53904 14.7862 9.72388 14.5705C9.90872 14.3549 10.0072 14.0778 10.0001 13.7931V11.4699C10.1345 11.4654 10.2667 11.4337 10.3887 11.3767C10.5107 11.3197 10.62 11.2385 10.7101 11.138C10.8052 11.0416 10.8799 10.9269 10.9298 10.8007C10.9796 10.6745 11.0035 10.5395 11.0001 10.4038V7.22561C11.0008 6.75545 10.8176 6.30387 10.4901 5.96842ZM10.0001 10.4541H9.00007V13.7931C8.99932 13.8462 8.97776 13.8968 8.94007 13.9339C8.92301 13.9543 8.90147 13.9703 8.87717 13.9808C8.85287 13.9912 8.82647 13.9959 8.80008 13.9943H7.19007C7.13782 13.9918 7.08835 13.9699 7.05136 13.9327C7.01436 13.8954 6.99251 13.8457 6.99008 13.7931V10.4541H6.00008V7.22561C5.99978 7.02257 6.07879 6.82753 6.22008 6.6825C6.36443 6.53937 6.55744 6.4567 6.76008 6.45118H9.24007C9.44316 6.45464 9.63689 6.53763 9.78008 6.6825C9.85141 6.75333 9.90769 6.83798 9.94551 6.93134C9.98332 7.0247 10.0019 7.12481 10.0001 7.22561V10.4541ZM12.8101 13.4914H11.0001V12.4857H12.8001C12.8508 12.4842 12.8999 12.4666 12.9401 12.4354C12.9599 12.4158 12.9755 12.3923 12.9859 12.3663C12.9962 12.3403 13.001 12.3125 13.0001 12.2845V9.45836H14.0001V7.22561C14.0004 7.02257 13.9213 6.82753 13.7801 6.6825C13.6357 6.53937 13.4427 6.4567 13.2401 6.45118H11.9501C11.835 6.0825 11.648 5.74058 11.4001 5.44543H13.2401C13.7057 5.44893 14.1512 5.63683 14.4801 5.96842C14.8104 6.30286 14.9971 6.75424 15.0001 7.22561V9.40808C15.0005 9.68067 14.8971 9.94308 14.7111 10.1414C14.5251 10.3396 14.2707 10.4587 14.0001 10.4742V12.2845C14.0001 12.6029 13.875 12.9083 13.6521 13.1344C13.4292 13.3604 13.1266 13.4888 12.8101 13.4914ZM4.00006 1.94543C3.70339 1.94543 3.41338 2.03391 3.16671 2.19968C2.92003 2.36545 2.72777 2.60107 2.61424 2.87673C2.50071 3.1524 2.47101 3.45573 2.52888 3.74837C2.58676 4.04102 2.72962 4.30983 2.9394 4.52081C3.14918 4.7318 3.41645 4.87548 3.70743 4.93369C3.9984 4.9919 4.3 4.96202 4.57409 4.84784C4.84818 4.73366 5.08244 4.54029 5.24727 4.2922C5.41209 4.04411 5.50006 3.75243 5.50006 3.45406C5.50006 3.05394 5.34203 2.67022 5.06072 2.3873C4.77942 2.10438 4.39789 1.94543 4.00006 1.94543ZM4.00006 3.95693C3.86745 3.95693 3.74028 3.90395 3.64651 3.80964C3.55274 3.71533 3.50006 3.58743 3.50006 3.45406C3.50006 3.32068 3.55274 3.19278 3.64651 3.09847C3.74028 3.00416 3.86745 2.95118 4.00006 2.95118C4.13187 2.95376 4.25756 3.00756 4.35078 3.10132C4.444 3.19507 4.4975 3.32149 4.50006 3.45406C4.50006 3.58743 4.44738 3.71533 4.35362 3.80964C4.25985 3.90395 4.13267 3.95693 4.00006 3.95693Z" fill="#C5C5C5"/>
</svg>
