<svg width="16" height="16" viewBox="0 0 16 16" fill="none" xmlns="http://www.w3.org/2000/svg">
<path d="M14.5406 11.8111L13.4006 8.69097V8.63103L8.49062 3.721V2.48101C8.4889 2.28265 8.45166 2.08626 8.38063 1.90105C8.30283 1.71896 8.18928 1.55434 8.04671 1.41692C7.90414 1.2795 7.73544 1.17204 7.55061 1.101C7.36639 1.02753 7.16879 0.993488 6.9706 1.00103C6.77495 0.996863 6.58064 1.03434 6.40059 1.11101C6.22101 1.18491 6.05786 1.29365 5.92055 1.43096C5.78324 1.56827 5.6745 1.73148 5.6006 1.91106C5.52393 2.09111 5.48645 2.28536 5.49062 2.48101V5.74102L2.43062 8.74102C2.15451 9.02478 2.00002 9.40515 2.00002 9.80107C2.00002 10.197 2.15451 10.5772 2.43062 10.861L6.06062 14.491C6.20064 14.6322 6.36715 14.7443 6.55061 14.821C6.91643 14.9678 7.32482 14.9678 7.69063 14.821C7.8741 14.7443 8.04061 14.6322 8.18062 14.491L13.1106 9.57097L12.4506 11.771C12.4207 11.9229 12.4207 12.0791 12.4506 12.231C12.4827 12.3831 12.5475 12.5265 12.6406 12.6511C12.7375 12.772 12.8562 12.8737 12.9906 12.951C13.131 13.021 13.2841 13.0618 13.4406 13.071C13.6056 13.0811 13.7705 13.0502 13.9206 12.981C14.0699 12.9135 14.203 12.8145 14.3106 12.691C14.4195 12.5649 14.495 12.4137 14.5306 12.251C14.562 12.1063 14.5654 11.957 14.5406 11.8111ZM6.5406 2.48101C6.52594 2.41515 6.52594 2.34692 6.5406 2.28106C6.56874 2.21688 6.60955 2.15901 6.6606 2.11101C6.71481 2.06818 6.77559 2.03444 6.84059 2.01104C6.9098 1.99617 6.9814 1.99617 7.05061 2.01104C7.17198 2.02042 7.28577 2.07377 7.37062 2.16106C7.4492 2.25294 7.49183 2.37013 7.49062 2.49102V3.75103L6.49062 4.75103L6.5406 2.48101ZM7.5406 13.831C7.49835 13.8816 7.44303 13.9196 7.38063 13.941C7.32078 13.9674 7.25606 13.9811 7.19063 13.9811C7.12519 13.9811 7.06048 13.9674 7.00063 13.941C6.93822 13.9196 6.88284 13.8816 6.84059 13.831L3.21059 10.211C3.16504 10.1643 3.12785 10.1103 3.1006 10.0511C3.07447 9.98938 3.06105 9.923 3.06105 9.85601C3.06105 9.78901 3.07447 9.72275 3.1006 9.66106C3.12785 9.60183 3.16504 9.54768 3.21059 9.50103L7.56062 5.15105V8.00103C7.48443 8.07086 7.42368 8.15593 7.38234 8.25066C7.341 8.34539 7.32001 8.44772 7.32063 8.55108C7.30844 8.68269 7.33124 8.81515 7.38673 8.93511C7.44223 9.05507 7.52842 9.15826 7.63661 9.23418C7.74481 9.3101 7.87114 9.3561 8.00282 9.36748C8.13451 9.37886 8.26687 9.35523 8.38649 9.299C8.50611 9.24277 8.60872 9.15595 8.68398 9.04729C8.75923 8.93863 8.80445 8.81198 8.81502 8.68023C8.82559 8.54847 8.80112 8.41619 8.74416 8.29693C8.68719 8.17766 8.59974 8.07561 8.49062 8.00103V5.17107L12.3406 9.04107L7.5406 13.831Z" fill="#C5C5C5"/>
</svg>
