<svg width="16" height="16" viewBox="0 0 16 16" fill="none" xmlns="http://www.w3.org/2000/svg">
<path d="M7.99996 2C8.19775 2 8.39109 2.05865 8.55554 2.16853C8.71998 2.27841 8.84816 2.43459 8.92384 2.61732C8.99953 2.80004 9.01934 3.00111 8.98075 3.19509C8.94217 3.38907 8.84692 3.56725 8.70707 3.70711C8.56722 3.84696 8.38904 3.9422 8.19506 3.98079C8.00107 4.01937 7.80001 3.99957 7.61728 3.92388C7.43456 3.84819 7.27838 3.72002 7.1685 3.55557C7.05861 3.39112 6.99996 3.19778 6.99996 3C6.99996 2.73478 7.10532 2.48043 7.29286 2.29289C7.48039 2.10536 7.73475 2 7.99996 2V2ZM7.99996 1C7.6044 1 7.21772 1.1173 6.88882 1.33706C6.55993 1.55682 6.30358 1.86918 6.15221 2.23463C6.00083 2.60009 5.96122 3.00222 6.03839 3.39018C6.11557 3.77814 6.30605 4.13451 6.58575 4.41421C6.86546 4.69392 7.22182 4.8844 7.60978 4.96157C7.99775 5.03874 8.39988 4.99913 8.76533 4.84776C9.13078 4.69638 9.44314 4.44004 9.6629 4.11114C9.88267 3.78224 9.99997 3.39556 9.99997 3C9.99997 2.46957 9.78925 1.96086 9.41418 1.58579C9.03911 1.21071 8.5304 1 7.99996 1V1ZM9.22997 5.49H6.76997C6.30053 5.49 5.85033 5.67648 5.51839 6.00842C5.18645 6.34036 4.99997 6.79057 4.99997 7.26V9.9C4.98904 10.1779 5.08775 10.4489 5.27481 10.6547C5.46187 10.8605 5.72231 10.9845 5.99997 11V13.33C5.99997 13.6483 6.12639 13.9535 6.35144 14.1785C6.57648 14.4036 6.88171 14.53 7.19997 14.53H8.79996C8.96097 14.5301 9.12036 14.4978 9.26862 14.435C9.41688 14.3722 9.55099 14.2802 9.66295 14.1645C9.77492 14.0488 9.86246 13.9118 9.92036 13.7615C9.97826 13.6113 10.0053 13.4509 9.99997 13.29V11C10.2776 10.9845 10.5381 10.8605 10.7251 10.6547C10.9122 10.4489 11.0109 10.1779 11 9.9V7.26C11 6.79057 10.8135 6.34036 10.4815 6.00842C10.1496 5.67648 9.6994 5.49 9.22997 5.49V5.49ZM5.99997 10V7.26C5.99862 7.15851 6.01762 7.05778 6.05584 6.96375C6.09406 6.86972 6.15073 6.7843 6.2225 6.71253C6.29427 6.64076 6.37969 6.58409 6.47372 6.54587C6.56774 6.50765 6.66847 6.48866 6.76997 6.49H9.22997C9.33146 6.48866 9.43219 6.50765 9.52621 6.54587C9.62024 6.58409 9.70566 6.64076 9.77743 6.71253C9.8492 6.7843 9.90587 6.86972 9.94409 6.96375C9.98231 7.05778 10.0013 7.15851 9.99997 7.26V10H8.99997V13.31C8.99997 13.363 8.97889 13.4139 8.94139 13.4514C8.90388 13.4889 8.85301 13.51 8.79996 13.51H7.19997C7.14692 13.51 7.09605 13.4889 7.05854 13.4514C7.02104 13.4139 6.99996 13.363 6.99996 13.31V10H5.99997Z" fill="#C5C5C5"/>
</svg>
