<svg width="16" height="16" viewBox="0 0 16 16" fill="none" xmlns="http://www.w3.org/2000/svg">
<path d="M4.10002 1.08186L3.72499 1.94778L5.18409 3.40687L4.53635 7.42274C4.01662 7.60746 3.55856 7.93327 3.21358 8.36365C2.87267 8.79115 2.65993 9.30651 2.59998 9.85L3.09777 10.3478L6.91588 10.2932L6.9091 16L7.94543 14.9637L7.94548 10.2728L11.3 10.2319L11.8181 9.71367C11.7748 9.17983 11.5742 8.67084 11.2417 8.25096C10.9092 7.83107 10.4597 7.51912 9.95002 7.35457L9.42496 3.35227L10.925 1.85227L10.5772 1L4.10002 1.08186ZM8.5523 2.80687L8.40224 3.24324L9.00224 7.75686L9.30907 8.1455C9.88043 8.32423 10.369 8.70152 10.6864 9.20914L7.95912 9.20914L3.77272 9.26369C4.10766 8.75069 4.60442 8.36429 5.18409 8.16594L5.5046 7.76369L6.23411 3.22959L6.0977 2.80687L5.31359 2.02277L9.34997 1.96825L8.5523 2.80687Z" fill="#C5C5C5"/>
</svg>
