<svg width="16" height="16" viewBox="0 0 16 16" fill="none" xmlns="http://www.w3.org/2000/svg">
<path fill-rule="evenodd" clip-rule="evenodd" d="M7.16 3.49997C4.73 5.05997 3.55 6.66997 3.55 9.35997C3.71 9.30997 3.85 9.30997 3.99 9.30997C5.26 9.30997 6.49 10.17 6.49 11.72C6.49 13.33 5.46 14.33 3.99 14.33C2.09 14.33 1 12.81 1 10.08C1 6.27997 2.75 3.54997 6.02 1.65997L7.16 3.49997ZM14.16 3.49997C11.73 5.05997 10.55 6.66997 10.55 9.35997C10.71 9.30997 10.85 9.30997 10.99 9.30997C12.26 9.30997 13.49 10.17 13.49 11.72C13.49 13.33 12.46 14.33 10.99 14.33C9.1 14.33 8.01 12.81 8.01 10.08C8.01 6.27997 9.76 3.54997 13.03 1.65997L14.17 3.49997H14.16Z" fill="#C5C5C5"/>
</svg>
