<svg width="16" height="16" viewBox="0 0 16 16" fill="none" xmlns="http://www.w3.org/2000/svg">
<path fill-rule="evenodd" clip-rule="evenodd" d="M14 10V1.5L13.5 1H3.74C3.51065 1.00254 3.28366 1.04658 3.07 1.13C2.85463 1.22571 2.66055 1.36346 2.49913 1.53518C2.33771 1.7069 2.21222 1.90913 2.13 2.13C2.0482 2.3267 2.0041 2.53701 2 2.75V12.25C1.9976 12.4798 2.04182 12.7078 2.13 12.92C2.30715 13.3473 2.64456 13.6883 3.07 13.87C3.28366 13.9534 3.51065 13.9975 3.74 14H4V13H3.74C3.64022 13.0003 3.54146 12.9799 3.45 12.94C3.26895 12.8649 3.1251 12.721 3.05 12.54C3.01805 12.4466 3.00117 12.3487 3 12.25V11.75C3.00117 11.6513 3.01805 11.5534 3.05 11.46C3.1251 11.279 3.26895 11.1351 3.45 11.06C3.54009 11.0207 3.63726 11.0003 3.73551 11H3.74H4H13V13H9V14H13.5L14 13.5V11V10ZM4 10V2H13V10H4ZM5 3H6V4H5V3ZM5 5H6V6H5V5ZM6 7H5V8H6V7ZM6.5 13.49L5.28 15H5V12H8V15H7.72L6.5 13.49Z" fill="#C5C5C5"/>
</svg>
