<svg width="16" height="16" viewBox="0 0 16 16" fill="none" xmlns="http://www.w3.org/2000/svg">
<path d="M14 3.99996C14.0007 3.62441 13.8957 3.25624 13.697 2.93758C13.4982 2.61893 13.2138 2.36267 12.8762 2.19813C12.5386 2.0336 12.1615 1.96744 11.7881 2.00723C11.4146 2.04702 11.06 2.19114 10.7646 2.42312C10.4693 2.65509 10.2452 2.96553 10.1181 3.3189C9.99093 3.67228 9.96585 4.05431 10.0457 4.42127C10.1256 4.78823 10.3071 5.12529 10.5696 5.39388C10.8321 5.66246 11.1649 5.85171 11.53 5.93996V6.99996C11.5316 7.09141 11.507 7.1814 11.4592 7.25935C11.4113 7.3373 11.3422 7.39996 11.26 7.43996L8.48997 8.87996L5.72997 7.47996C5.64204 7.43622 5.56929 7.36707 5.52115 7.28148C5.47301 7.19589 5.45169 7.09781 5.45997 6.99996V5.93996C5.9313 5.81827 6.34206 5.52885 6.61527 5.12596C6.88847 4.72307 7.00536 4.23437 6.94403 3.75146C6.88269 3.26856 6.64734 2.8246 6.28208 2.5028C5.91683 2.18101 5.44675 2.00347 4.95997 2.00347C4.47318 2.00347 4.0031 2.18101 3.63785 2.5028C3.2726 2.8246 3.03724 3.26856 2.97591 3.75146C2.91457 4.23437 3.03146 4.72307 3.30466 5.12596C3.57787 5.52885 3.98864 5.81827 4.45997 5.93996V6.99996C4.46054 7.27705 4.53735 7.54865 4.68198 7.785C4.82662 8.02135 5.03349 8.21334 5.27997 8.33996L7.99997 9.73996V11.06C7.52864 11.1817 7.11787 11.4711 6.84466 11.874C6.57146 12.2769 6.45457 12.7656 6.51591 13.2485C6.57724 13.7314 6.8126 14.1753 7.17785 14.4971C7.5431 14.8189 8.01318 14.9965 8.49997 14.9965C8.98675 14.9965 9.45683 14.8189 9.82208 14.4971C10.1873 14.1753 10.4227 13.7314 10.484 13.2485C10.5454 12.7656 10.4285 12.2769 10.1553 11.874C9.88206 11.4711 9.47129 11.1817 8.99997 11.06V9.73996L11.7 8.37996C11.9541 8.25221 12.1664 8.05437 12.3117 7.80983C12.457 7.56529 12.5293 7.28426 12.52 6.99996V5.91996C12.9428 5.80611 13.3167 5.5566 13.584 5.20975C13.8514 4.8629 13.9975 4.43789 14 3.99996ZM3.99997 3.99996C3.99997 3.80218 4.05861 3.60884 4.1685 3.44439C4.27838 3.27994 4.43456 3.15177 4.61728 3.07608C4.80001 3.0004 5.00108 2.98059 5.19506 3.01918C5.38904 3.05776 5.56722 3.153 5.70707 3.29286C5.84693 3.43271 5.94217 3.61089 5.98075 3.80487C6.01934 3.99885 5.99953 4.19992 5.92385 4.38265C5.84816 4.56537 5.71999 4.72155 5.55554 4.83143C5.39109 4.94131 5.19775 4.99996 4.99997 4.99996C4.73475 4.99996 4.4804 4.89461 4.29286 4.70707C4.10532 4.51953 3.99997 4.26518 3.99997 3.99996ZM9.46997 13C9.46997 13.1977 9.41132 13.3911 9.30144 13.5555C9.19155 13.72 9.03538 13.8482 8.85265 13.9238C8.66992 13.9995 8.46886 14.0193 8.27488 13.9807C8.08089 13.9422 7.90271 13.8469 7.76286 13.7071C7.62301 13.5672 7.52777 13.389 7.48918 13.1951C7.4506 13.0011 7.4704 12.8 7.54609 12.6173C7.62177 12.4346 7.74995 12.2784 7.9144 12.1685C8.07884 12.0586 8.27218 12 8.46997 12C8.60129 12 8.73132 12.0258 8.85265 12.0761C8.97397 12.1263 9.08421 12.2 9.17707 12.2929C9.26993 12.3857 9.34359 12.496 9.39385 12.6173C9.4441 12.7386 9.46997 12.8686 9.46997 13V13ZM12 4.99996C11.8022 4.99996 11.6088 4.94131 11.4444 4.83143C11.2799 4.72155 11.1518 4.56537 11.0761 4.38265C11.0004 4.19992 10.9806 3.99885 11.0192 3.80487C11.0578 3.61089 11.153 3.43271 11.2929 3.29286C11.4327 3.153 11.6109 3.05776 11.8049 3.01918C11.9989 2.98059 12.1999 3.0004 12.3826 3.07608C12.5654 3.15177 12.7216 3.27994 12.8314 3.44439C12.9413 3.60884 13 3.80218 13 3.99996C13 4.26518 12.8946 4.51953 12.7071 4.70707C12.5195 4.89461 12.2652 4.99996 12 4.99996Z" fill="#C5C5C5"/>
</svg>
