<svg width="16" height="16" viewBox="0 0 16 16" fill="none" xmlns="http://www.w3.org/2000/svg">
<path d="M14 4.00002C14.0007 3.62447 13.8957 3.2563 13.697 2.93765C13.4983 2.61899 13.2138 2.36273 12.8762 2.1982C12.5386 2.03366 12.1615 1.9675 11.7881 2.00729C11.4147 2.04708 11.06 2.19121 10.7646 2.42318C10.4693 2.65515 10.2452 2.96559 10.1181 3.31896C9.99096 3.67234 9.96588 4.05437 10.0457 4.42133C10.1256 4.78829 10.3072 5.12535 10.5697 5.39394C10.8322 5.66252 11.165 5.85177 11.53 5.94002V7.00002C11.5316 7.09147 11.507 7.18146 11.4592 7.25941C11.4114 7.33736 11.3422 7.40002 11.26 7.44002L8.49 8.88002L5.73 7.48002C5.64208 7.43628 5.56933 7.36713 5.52118 7.28154C5.47304 7.19595 5.45172 7.09787 5.46 7.00002V5.94002C5.93133 5.81833 6.34209 5.52891 6.6153 5.12602C6.8885 4.72313 7.00539 4.23443 6.94406 3.75152C6.88272 3.26862 6.64737 2.82466 6.28211 2.50286C5.91686 2.18107 5.44678 2.00353 4.96 2.00353C4.47321 2.00353 4.00313 2.18107 3.63788 2.50286C3.27263 2.82466 3.03727 3.26862 2.97594 3.75152C2.9146 4.23443 3.03149 4.72313 3.3047 5.12602C3.5779 5.52891 3.98867 5.81833 4.46 5.94002V7.00002C4.46057 7.27712 4.53738 7.54871 4.68201 7.78506C4.82665 8.02141 5.03352 8.21341 5.28 8.34002L8 9.74002V11.06C7.52867 11.1817 7.1179 11.4711 6.8447 11.874C6.57149 12.2769 6.4546 12.7656 6.51594 13.2485C6.57727 13.7314 6.81263 14.1754 7.17788 14.4972C7.54313 14.819 8.01321 14.9965 8.5 14.9965C8.98678 14.9965 9.45686 14.819 9.82211 14.4972C10.1874 14.1754 10.4227 13.7314 10.4841 13.2485C10.5454 12.7656 10.4285 12.2769 10.1553 11.874C9.88209 11.4711 9.47133 11.1817 9 11.06V9.74002L11.7 8.38002C11.9541 8.25227 12.1664 8.05443 12.3117 7.80989C12.457 7.56535 12.5293 7.28433 12.52 7.00002V5.92002C12.9429 5.80617 13.3167 5.55666 13.584 5.20981C13.8514 4.86297 13.9975 4.43795 14 4.00002ZM4 4.00002C4 3.80224 4.05865 3.6089 4.16853 3.44445C4.27841 3.28 4.43459 3.15183 4.61731 3.07614C4.80004 3.00046 5.00111 2.98065 5.19509 3.01924C5.38907 3.05782 5.56725 3.15306 5.7071 3.29292C5.84696 3.43277 5.9422 3.61095 5.98078 3.80493C6.01937 3.99891 5.99956 4.19998 5.92388 4.38271C5.84819 4.56543 5.72002 4.72161 5.55557 4.83149C5.39112 4.94137 5.19778 5.00002 5 5.00002C4.73478 5.00002 4.48043 4.89467 4.29289 4.70713C4.10535 4.51959 4 4.26524 4 4.00002ZM9.47 13C9.47 13.1978 9.41135 13.3911 9.30147 13.5556C9.19158 13.72 9.03541 13.8482 8.85268 13.9239C8.66995 13.9996 8.46889 14.0194 8.27491 13.9808C8.08092 13.9422 7.90274 13.847 7.76289 13.7071C7.62304 13.5673 7.5278 13.3891 7.48921 13.1951C7.45063 13.0011 7.47043 12.8001 7.54612 12.6173C7.6218 12.4346 7.74998 12.2784 7.91443 12.1686C8.07888 12.0587 8.27221 12 8.47 12C8.60132 12 8.73135 12.0259 8.85268 12.0761C8.97401 12.1264 9.08424 12.2001 9.1771 12.2929C9.26996 12.3858 9.34362 12.496 9.39388 12.6173C9.44413 12.7387 9.47 12.8687 9.47 13ZM12 5.00002C11.8022 5.00002 11.6089 4.94137 11.4444 4.83149C11.28 4.72161 11.1518 4.56543 11.0761 4.38271C11.0004 4.19998 10.9806 3.99891 11.0192 3.80493C11.0578 3.61095 11.153 3.43277 11.2929 3.29292C11.4327 3.15306 11.6109 3.05782 11.8049 3.01924C11.9989 2.98065 12.2 3.00046 12.3827 3.07614C12.5654 3.15183 12.7216 3.28 12.8315 3.44445C12.9413 3.6089 13 3.80224 13 4.00002C13 4.26524 12.8946 4.51959 12.7071 4.70713C12.5196 4.89467 12.2652 5.00002 12 5.00002Z" fill="#C5C5C5"/>
</svg>
