<svg width="16" height="16" viewBox="0 0 16 16" fill="none" xmlns="http://www.w3.org/2000/svg">
<path fill-rule="evenodd" clip-rule="evenodd" d="M13.5 1H3.74003C3.51068 0.999996 3.2836 1.04533 3.07184 1.1334C2.86008 1.22147 2.66782 1.35053 2.50611 1.51316C2.34441 1.6758 2.21645 1.8688 2.1296 2.08106C2.04274 2.29332 1.99871 2.52066 2.00003 2.75V12.25C1.99871 12.4793 2.04274 12.7067 2.1296 12.9189C2.21645 13.1312 2.34441 13.3242 2.50611 13.4868C2.66782 13.6495 2.86008 13.7785 3.07184 13.8666C3.2836 13.9547 3.51068 14 3.74003 14H7.00003V13H3.74003C3.642 13 3.54495 12.9805 3.45451 12.9427C3.36408 12.9049 3.28205 12.8495 3.2132 12.7797C3.14435 12.71 3.09006 12.6272 3.05346 12.5363C3.01687 12.4453 2.9987 12.348 3.00003 12.25V11.75C2.9987 11.652 3.01687 11.5547 3.05346 11.4637C3.09006 11.3728 3.14435 11.29 3.2132 11.2203C3.28205 11.1505 3.36408 11.0951 3.45451 11.0573C3.54491 11.0195 3.64192 11 3.7399 11C3.73994 11 3.73999 11 3.74003 11H4.00003H7.00003V10H4.00003V2H13V10H10V11H13V13H10V14H13.5L14 13.5V1.5L13.5 1ZM3.00003 2.72987C2.99994 2.73657 2.99994 2.74329 3.00003 2.75V10.17L3.00003 2.72987ZM6.00003 3H5.00003V4H6.00003V3ZM5.38004 8.64995L6.09004 9.34995L8.01004 7.42994V15H9.01004V7.32814L11.04 9.34995L11.74 8.64995L8.92004 5.81995H8.21004L5.38004 8.64995ZM5.00003 5H6.00003V6H5.00003V5Z" fill="#C5C5C5"/>
</svg>
