<svg width="16" height="16" viewBox="0 0 16 16" fill="none" xmlns="http://www.w3.org/2000/svg">
<path fill-rule="evenodd" clip-rule="evenodd" d="M1 6.25721V2.5L1.5 2H6.5L6.84998 2.15002L7.70996 3H13.5L14 3.5V6H15.13L15.61 6.63L12.98 13.63L12.5 14H8.7429C8.99653 13.6929 9.21745 13.3578 9.40035 13H12.13L14.5 7H8.7429C8.52568 6.73698 8.28448 6.49451 8.02265 6.27592L8.15002 6.15002L8.5 6H13V4H7.5L7.15002 3.84998L6.29004 3H2L2.0105 5.59439C1.64877 5.77833 1.31011 6.0011 1 6.25721Z" fill="#C5C5C5"/>
<path d="M6 10.5C6 11.3284 5.32843 12 4.5 12C3.67157 12 3 11.3284 3 10.5C3 9.67157 3.67157 9 4.5 9C5.32843 9 6 9.67157 6 10.5Z" fill="#C5C5C5"/>
<path fill-rule="evenodd" clip-rule="evenodd" d="M8 10.5C8 12.433 6.433 14 4.5 14C2.567 14 1 12.433 1 10.5C1 8.567 2.567 7 4.5 7C6.433 7 8 8.567 8 10.5ZM4.5 13C5.88071 13 7 11.8807 7 10.5C7 9.11929 5.88071 8 4.5 8C3.11929 8 2 9.11929 2 10.5C2 11.8807 3.11929 13 4.5 13Z" fill="#C5C5C5"/>
</svg>
