<svg width="624" height="80" viewBox="0 0 624 80" fill="none" xmlns="http://www.w3.org/2000/svg">
<path fill-rule="evenodd" clip-rule="evenodd" d="M102.5 65H104H105H106H107H108V66H107V77H108V78H107H106H105H104H103V77H104V72H102.5C100.567 72 99 70.433 99 68.5C99 66.567 100.567 65 102.5 65ZM105 77H106V66H105V71V72V77ZM102.5 66H104V71H102.5C101.119 71 100 69.8807 100 68.5C100 67.1193 101.119 66 102.5 66Z" fill="#C5C5C5"/>
<path d="M15 72H1V71H15V72Z" fill="#C5C5C5"/>
<path fill-rule="evenodd" clip-rule="evenodd" d="M35.5 66V69.5L36 70H39.5V69H36.979L37.9204 68.0587C39.3076 66.6716 41.5566 66.6716 42.9434 68.0587C44.3306 69.4458 44.3306 71.6948 42.9434 73.0819L37.7456 78.2799L38.4658 78.9999L43.6636 73.8019C45.4482 72.0172 45.4482 69.1234 43.6636 67.3386C41.8789 65.5538 38.9849 65.5538 37.2002 67.3386L36.5 68.0388V66H35.5Z" fill="#C5C5C5"/>
<path fill-rule="evenodd" clip-rule="evenodd" d="M136.885 65.6944L135.572 67H138.346C138.566 67 138.783 67.0433 138.986 67.1273C139.189 67.2114 139.373 67.3346 139.528 67.4899C139.683 67.6452 139.806 67.8296 139.89 68.0325C139.974 68.2354 140.017 68.4529 140.017 68.6724L139.517 68.672H140.017V68.6724V74.4539C140.882 74.6794 141.521 75.4661 141.521 76.402C141.521 77.5138 140.62 78.415 139.508 78.415C138.396 78.415 137.495 77.5138 137.495 76.402C137.495 75.4596 138.143 74.6685 139.017 74.4493V68.672V68.6716C139.017 68.5834 139 68.4961 138.966 68.4146C138.932 68.3331 138.883 68.2591 138.821 68.1967C138.758 68.1344 138.684 68.0849 138.603 68.0511C138.521 68.0174 138.434 68 138.346 68H135.539L136.838 69.3433L136.12 70.0387L134.001 67.8487L134.007 67.1465L136.179 64.9855L136.885 65.6944ZM138.495 76.402C138.495 75.8425 138.949 75.389 139.508 75.389C140.067 75.389 140.521 75.8425 140.521 76.402C140.521 76.9615 140.067 77.415 139.508 77.415C138.949 77.415 138.495 76.9615 138.495 76.402ZM129.499 67.513C129.499 66.9535 129.953 66.5 130.512 66.5C131.071 66.5 131.525 66.9535 131.525 67.513C131.525 68.0725 131.071 68.526 130.512 68.526C129.953 68.526 129.499 68.0725 129.499 67.513ZM130.512 65.5C129.4 65.5 128.499 66.4013 128.499 67.513C128.499 68.4478 129.136 69.2338 130 69.4603V75.307C130 75.7502 130.176 76.1752 130.489 76.4886C130.803 76.802 131.228 76.978 131.671 76.978H134.448L133.135 78.2835L133.841 78.9925L136.013 76.8325L136.019 76.1304L133.9 73.9394L133.182 74.6346L134.481 75.978H131.671C131.493 75.978 131.322 75.9073 131.197 75.7815C131.071 75.6556 131 75.485 131 75.307V69.4664C131.876 69.2483 132.525 68.4565 132.525 67.513C132.525 66.4013 131.624 65.5 130.512 65.5Z" fill="#C5C5C5"/>
<path fill-rule="evenodd" clip-rule="evenodd" d="M78.4315 67.3232L69.9615 77.3232L69.1708 77.2874L65.8208 72.5174L66.6392 71.9426L69.617 76.1827L77.6685 66.6768L78.4315 67.3232Z" fill="#C5C5C5"/>
<path d="M10.9858 12.5653H14.5227C14.4716 9.45454 11.9148 7.30682 8.02841 7.30682C4.2017 7.30682 1.39773 9.42045 1.41477 12.5909C1.40625 15.1648 3.22159 16.6392 6.17045 17.3466L8.07102 17.8239C9.97159 18.2841 11.0284 18.8295 11.0369 20.0057C11.0284 21.2841 9.81818 22.1534 7.94318 22.1534C6.02557 22.1534 4.64489 21.267 4.52557 19.5199H0.954545C1.0483 23.2955 3.75 25.2472 7.9858 25.2472C12.2472 25.2472 14.7528 23.2102 14.7614 20.0142C14.7528 17.108 12.5625 15.5653 9.52841 14.8835L7.96023 14.5085C6.44318 14.1591 5.1733 13.5966 5.19886 12.3438C5.19886 11.2188 6.19602 10.392 8.00284 10.392C9.76705 10.392 10.8494 11.1932 10.9858 12.5653ZM22.9702 25.2557C26.9418 25.2557 29.4134 22.5369 29.4134 18.5057C29.4134 14.4489 26.9418 11.7386 22.9702 11.7386C18.9986 11.7386 16.527 14.4489 16.527 18.5057C16.527 22.5369 18.9986 25.2557 22.9702 25.2557ZM22.9872 22.4432C21.1549 22.4432 20.2174 20.7642 20.2174 18.4801C20.2174 16.196 21.1549 14.5085 22.9872 14.5085C24.7855 14.5085 25.723 16.196 25.723 18.4801C25.723 20.7642 24.7855 22.4432 22.9872 22.4432ZM40.0491 19.4261C40.0576 21.1818 38.8559 22.1023 37.5519 22.1023C36.1797 22.1023 35.2934 21.1392 35.2849 19.5966V11.9091H31.6542V20.2443C31.6627 23.304 33.4525 25.1705 36.086 25.1705C38.0547 25.1705 39.4695 24.1562 40.0576 22.6222H40.1939V25H43.6797V11.9091H40.0491V19.4261ZM46.4639 25H50.0945V17.5938C50.0945 15.983 51.2707 14.875 52.873 14.875C53.3758 14.875 54.0661 14.9602 54.407 15.071V11.8494C54.0832 11.7727 53.6315 11.7216 53.265 11.7216C51.7991 11.7216 50.5974 12.5739 50.1201 14.1932H49.9837V11.9091H46.4639V25ZM61.4696 25.2557C64.9554 25.2557 67.1457 23.2102 67.3162 20.2017H63.89C63.677 21.5994 62.7565 22.3835 61.5122 22.3835C59.8162 22.3835 58.7167 20.9602 58.7167 18.4545C58.7167 15.983 59.8247 14.5682 61.5122 14.5682C62.8417 14.5682 63.694 15.446 63.89 16.75H67.3162C67.1628 13.7244 64.8701 11.7386 61.4525 11.7386C57.4809 11.7386 55.0264 14.4915 55.0264 18.5057C55.0264 22.4858 57.4383 25.2557 61.4696 25.2557ZM75.4866 25.2557C78.7253 25.2557 80.9071 23.679 81.4185 21.25L78.0605 21.0284C77.694 22.0256 76.7565 22.5455 75.5463 22.5455C73.731 22.5455 72.5804 21.3438 72.5804 19.392V19.3835H81.4952V18.3864C81.4952 13.9375 78.802 11.7386 75.3418 11.7386C71.4895 11.7386 68.9923 14.4744 68.9923 18.5142C68.9923 22.6648 71.4554 25.2557 75.4866 25.2557ZM72.5804 17.1335C72.6571 15.642 73.7906 14.4489 75.4014 14.4489C76.9781 14.4489 78.069 15.5739 78.0776 17.1335H72.5804ZM104.648 13.6562C104.162 9.625 101.111 7.30682 97.0712 7.30682C92.4604 7.30682 88.9405 10.5625 88.9405 16.2727C88.9405 21.9659 92.4008 25.2386 97.0712 25.2386C101.546 25.2386 104.247 22.2642 104.648 19.0511L100.915 19.0341C100.566 20.9006 99.0996 21.9744 97.1309 21.9744C94.4803 21.9744 92.682 20.0057 92.682 16.2727C92.682 12.642 94.4547 10.571 97.1565 10.571C99.1763 10.571 100.634 11.7386 100.915 13.6562H104.648ZM113.021 25.2557C116.992 25.2557 119.464 22.5369 119.464 18.5057C119.464 14.4489 116.992 11.7386 113.021 11.7386C109.049 11.7386 106.578 14.4489 106.578 18.5057C106.578 22.5369 109.049 25.2557 113.021 25.2557ZM113.038 22.4432C111.205 22.4432 110.268 20.7642 110.268 18.4801C110.268 16.196 111.205 14.5085 113.038 14.5085C114.836 14.5085 115.774 16.196 115.774 18.4801C115.774 20.7642 114.836 22.4432 113.038 22.4432ZM125.335 17.4318C125.344 15.7443 126.35 14.7557 127.816 14.7557C129.273 14.7557 130.151 15.7102 130.142 17.3125V25H133.773V16.6648C133.773 13.6136 131.983 11.7386 129.256 11.7386C127.313 11.7386 125.907 12.6932 125.318 14.2188H125.165V11.9091H121.705V25H125.335V17.4318ZM143.478 11.9091H141.014V8.77273H137.384V11.9091H135.594V14.6364H137.384V21.4545C137.367 24.0199 139.114 25.2898 141.747 25.179C142.685 25.1449 143.35 24.9574 143.716 24.8381L143.145 22.1364C142.966 22.1705 142.583 22.2557 142.242 22.2557C141.517 22.2557 141.014 21.983 141.014 20.9773V14.6364H143.478V11.9091ZM145.723 25H149.353V17.5938C149.353 15.983 150.529 14.875 152.132 14.875C152.635 14.875 153.325 14.9602 153.666 15.071V11.8494C153.342 11.7727 152.89 11.7216 152.524 11.7216C151.058 11.7216 149.856 12.5739 149.379 14.1932H149.242V11.9091H145.723V25ZM160.728 25.2557C164.7 25.2557 167.172 22.5369 167.172 18.5057C167.172 14.4489 164.7 11.7386 160.728 11.7386C156.757 11.7386 154.285 14.4489 154.285 18.5057C154.285 22.5369 156.757 25.2557 160.728 25.2557ZM160.745 22.4432C158.913 22.4432 157.975 20.7642 157.975 18.4801C157.975 16.196 158.913 14.5085 160.745 14.5085C162.544 14.5085 163.481 16.196 163.481 18.4801C163.481 20.7642 162.544 22.4432 160.745 22.4432ZM173.043 7.54545H169.412V25H173.043V7.54545Z" fill="white" fill-opacity="0.8"/>
</svg>
