<svg width="16" height="16" viewBox="0 0 16 16" fill="none" xmlns="http://www.w3.org/2000/svg">
<path fill-rule="evenodd" clip-rule="evenodd" d="M2.00583 8.76691L0.78 10L0 9.23003L2.09 7.16003L2.85 7.17003L4.94 9.29003L4.18 10.05L3.01348 8.86995C3.2028 11.4586 5.363 13.5 8 13.5C9.91062 13.5 11.571 12.4283 12.4127 10.8533L13.226 11.4499C12.1959 13.2709 10.2415 14.5 8 14.5C4.77573 14.5 2.14547 11.9568 2.00583 8.76691ZM12.9961 8.30051L11.76 7.05005L11 7.81005L13.09 9.92005L13.85 9.93005L15.94 7.86005L15.19 7.10005L13.996 8.28004C13.8803 5.06823 11.2401 2.5 8 2.5C5.83727 2.5 3.94179 3.64427 2.88597 5.36043L3.69563 5.95436C4.56647 4.48506 6.1682 3.5 8 3.5C10.6946 3.5 12.8914 5.63157 12.9961 8.30051Z" fill="#C5C5C5"/>
</svg>
