<svg width="16" height="16" viewBox="0 0 16 16" fill="none" xmlns="http://www.w3.org/2000/svg">
<path d="M10.5401 1.99999C10.8288 2.00138 11.1107 2.08838 11.3501 2.24999C11.6087 2.43634 11.7949 2.70652 11.8769 3.0146C11.959 3.32268 11.9318 3.64967 11.8001 3.93998L10.8301 6.10998L13.6201 6.10999C13.8491 6.10572 14.0756 6.15939 14.2784 6.26604C14.4812 6.37268 14.6537 6.52883 14.7801 6.71999C14.9071 6.91379 14.9821 7.13702 14.9978 7.3682C15.0136 7.59939 14.9696 7.83074 14.8701 8.03999C14.2001 9.48999 13.0001 12.11 12.6001 13.21C12.5023 13.4735 12.3264 13.7009 12.0958 13.8618C11.8653 14.0226 11.5912 14.1092 11.3101 14.11L2.38006 14.11C2.01223 14.1047 1.66125 13.9549 1.40301 13.6929C1.14477 13.4309 1.00002 13.0778 1.00006 12.71L1.00006 9.19998C1.00006 9.01876 1.03575 8.83931 1.1051 8.67188C1.17446 8.50445 1.27611 8.35232 1.40425 8.22418C1.5324 8.09603 1.68453 7.99438 1.85196 7.92503C2.01938 7.85568 2.19883 7.81998 2.38006 7.81998L3.76006 7.81998L9.60006 2.35998C9.85843 2.12842 10.1931 2.00025 10.5401 1.99999V1.99999ZM11.3101 13.11C11.3882 13.1092 11.4643 13.0849 11.5285 13.0403C11.5927 12.9958 11.642 12.9329 11.6701 12.86C12.0701 11.77 13.1401 9.40999 14.0001 7.61999C14.029 7.56439 14.0441 7.50265 14.0441 7.43999C14.0441 7.37732 14.029 7.31558 14.0001 7.25999C13.9584 7.20044 13.9002 7.15446 13.8326 7.12778C13.7651 7.10111 13.6911 7.09492 13.6201 7.10999L10.3201 7.10998L9.80006 6.42999L9.80006 5.96998L10.8901 3.52999C10.9263 3.45032 10.9331 3.36039 10.9093 3.27617C10.8855 3.19196 10.8326 3.1189 10.7601 3.06999C10.6923 3.01476 10.6075 2.9846 10.5201 2.9846C10.4326 2.9846 10.3479 3.01476 10.2801 3.06998L4.22006 8.65998L3.75006 8.78998L2.38006 8.78998C2.32753 8.78982 2.27553 8.80055 2.22736 8.82149C2.17918 8.84244 2.13588 8.87314 2.10017 8.91167C2.06446 8.9502 2.03713 8.99571 2.0199 9.04534C2.00267 9.09496 1.99591 9.14762 2.00006 9.19998L2.00006 12.71C1.99993 12.8127 2.03932 12.9115 2.11006 12.986C2.1808 13.0604 2.27748 13.1048 2.38006 13.11L11.3101 13.11Z" fill="#C5C5C5"/>
</svg>
