<svg width="16" height="16" viewBox="0 0 16 16" fill="none" xmlns="http://www.w3.org/2000/svg">
<path fill-rule="evenodd" clip-rule="evenodd" d="M14.7724 3.48501L13.9937 3.30124L11.8849 5.39688L10.6906 4.18062L12.7468 2.02372L12.5674 1.23187C12.1328 1.08662 11.6782 1.00986 11.2199 1.00436C10.7202 0.996443 10.2243 1.09177 9.76308 1.28437C9.31782 1.48601 8.91531 1.77113 8.57742 2.12433C8.20125 2.48057 7.90327 2.91115 7.70242 3.38872C7.31575 4.33966 7.31575 5.40403 7.70242 6.35498C5.91304 8.10498 2.95993 11.0931 1.5293 12.5894C1.31956 12.8644 1.21839 13.207 1.24497 13.5518C1.25427 13.7356 1.30036 13.9156 1.38057 14.0812C1.46022 14.2472 1.5717 14.3958 1.70869 14.5187C1.83279 14.6544 1.98117 14.7657 2.14619 14.8469C2.31626 14.9218 2.49866 14.9648 2.68431 14.9737C2.99994 14.9677 3.30286 14.8481 3.53746 14.6369C5.08621 13.18 8.05243 10.1875 9.73681 8.4331C10.1934 8.62691 10.6845 8.72663 11.1806 8.72625C11.6799 8.72589 12.1742 8.62543 12.6341 8.43081C13.094 8.23618 13.5102 7.9513 13.8581 7.59308C14.5727 6.86438 14.9719 5.88373 14.9693 4.86309C14.9806 4.39597 14.914 3.93029 14.7724 3.48501ZM2.93371 13.9281C2.89503 13.9624 2.84839 13.9864 2.79806 13.9981C2.74884 14.0066 2.69855 14.0066 2.64933 13.9981C2.59751 13.9903 2.54811 13.9709 2.50492 13.9412C2.45888 13.9143 2.41994 13.8768 2.39122 13.8318C2.25122 13.6875 2.11994 13.4162 2.25119 13.2631C3.62056 11.8062 6.44243 8.95809 8.20556 7.21684C8.30659 7.3493 8.4162 7.47498 8.53368 7.59308C8.65214 7.71588 8.77935 7.82994 8.9143 7.93435C7.20805 9.68435 4.42559 12.4975 2.93371 13.9281ZM14.0505 4.86309C14.0531 5.62826 13.7545 6.36373 13.2193 6.91061C12.6844 7.4354 11.9649 7.72938 11.2156 7.72938C10.4662 7.72938 9.74676 7.4354 9.21183 6.91061C8.81999 6.50142 8.55236 5.98941 8.44006 5.4341C8.32776 4.8788 8.37538 4.30301 8.57742 3.77372C8.71194 3.41382 8.92047 3.08613 9.1895 2.81183C9.45853 2.53752 9.78211 2.32269 10.1393 2.18121C10.4786 2.03857 10.8431 1.96567 11.2112 1.96684H11.465L9.64933 3.83935V4.53496L11.5437 6.42061H12.2043L14.0505 4.60498V4.86309ZM3.23992 6.68751H4.77117L5.47554 7.40501L6.15369 6.73125L5.48868 6.05315V6.00936L5.54556 4.36003L5.32681 3.92253L2.46554 2.04126L1.87492 2.1069L1.04366 2.95562L0.978027 3.55499L2.81556 6.47314L3.23992 6.68751ZM2.29491 3.05624L4.6093 4.57878L4.56994 5.70313H3.49365L2.00182 3.34062L2.29491 3.05624ZM9.39991 10.0169L10.0737 9.34314L13.1799 12.5282C13.4415 12.8031 13.5875 13.1681 13.5875 13.5476C13.5875 13.9271 13.4415 14.292 13.1799 14.5669C12.9832 14.7688 12.7303 14.9068 12.4541 14.963C12.1779 15.0192 11.8912 14.9909 11.6312 14.8819C11.4651 14.8083 11.3162 14.7011 11.1937 14.5669L8.05243 11.3644L8.73058 10.6863L11.863 13.88C11.9052 13.9265 11.9577 13.9625 12.0162 13.9851C12.1312 14.0318 12.2599 14.0318 12.3749 13.9851C12.4335 13.9625 12.4859 13.9265 12.528 13.88C12.572 13.8366 12.6063 13.7845 12.6287 13.7269C12.6512 13.6682 12.6631 13.606 12.6637 13.5432C12.6627 13.4804 12.6508 13.4182 12.6287 13.3594C12.6063 13.3018 12.572 13.2497 12.528 13.2063L9.39991 10.0169Z" fill="#C5C5C5"/>
</svg>
