<svg width="16" height="16" viewBox="0 0 16 16" fill="none" xmlns="http://www.w3.org/2000/svg">
<path fill-rule="evenodd" clip-rule="evenodd" d="M2.86001 1L4.93001 3.08L4.23001 3.78L3.00001 2.56V7H2.00001V2.55L0.790007 3.78L0.0800073 3.07L2.15001 1H2.86001ZM15 3V7H11V6H9.00001V7H6.00001V4H9.00001V5H11V3H15ZM8.00001 5H7.00001V6H8.00001V5ZM14 4H12V6H14V4ZM11 9H15V13H11V11H9.00001V12H6.00001V9H9.00001V10H11V9ZM8.00001 10H7.00001V11H8.00001V10ZM12 12H14V10H12V12ZM3.00001 13.45V9H2.00001V13.44L0.780007 12.22L0.0700073 12.92L2.15001 15H2.85001L4.92001 12.93L4.22001 12.22L3.00001 13.45Z" fill="#C5C5C5"/>
</svg>
