<svg width="16" height="16" viewBox="0 0 16 16" fill="none" xmlns="http://www.w3.org/2000/svg">
<path fill-rule="evenodd" clip-rule="evenodd" d="M1.5 2H14.5L15 2.5V8.00305C14.6892 7.76964 14.3534 7.57413 14 7.41955V3H2V12H7C7 12.326 7.03187 12.6527 7.09608 12.9755C7.24266 13.7124 7.55277 14.4037 8 15H4V14H7V13H1.5L1 12.5V2.5L1.5 2Z" fill="#C5C5C5"/>
<path fill-rule="evenodd" clip-rule="evenodd" d="M11.9994 9C11.4063 9.00012 10.8265 9.17606 10.3333 9.50559C9.83994 9.83524 9.45543 10.3038 9.22836 10.8519C9.0013 11.4001 8.94189 12.0033 9.05765 12.5853C9.1734 13.1672 9.45912 13.7018 9.87868 14.1213C10.2982 14.5409 10.8328 14.8266 11.4147 14.9424C11.9967 15.0581 12.5999 14.9987 13.1481 14.7716C13.6962 14.5446 14.1648 14.1601 14.4944 13.6667C14.824 13.1735 14.9999 12.5937 15 12.0005C14.9988 11.2051 14.6823 10.4426 14.1199 9.88012C13.5574 9.31764 12.7948 9.00114 11.9994 9ZM12 8C11.2089 8 10.4355 8.2346 9.77772 8.67412C9.11992 9.11365 8.60723 9.73836 8.30448 10.4693C8.00173 11.2002 7.92252 12.0044 8.07686 12.7804C8.2312 13.5563 8.61216 14.269 9.17157 14.8284C9.73098 15.3878 10.4437 15.7688 11.2196 15.9231C11.9956 16.0775 12.7998 15.9983 13.5307 15.6955C14.2616 15.3928 14.8864 14.8801 15.3259 14.2223C15.7654 13.5645 16 12.7911 16 12C15.9987 10.9395 15.5769 9.92287 14.827 9.17301C14.0771 8.42315 13.0605 8.0013 12 8Z" fill="#C5C5C5"/>
</svg>
