<svg width="16" height="16" viewBox="0 0 16 16" fill="none" xmlns="http://www.w3.org/2000/svg">
<path fill-rule="evenodd" clip-rule="evenodd" d="M10.724 10.0171L14.9849 14.2771L14.277 14.985L10.017 10.7241C8.92765 11.6315 7.53042 12.0839 6.11595 11.9874C4.70148 11.8908 3.37869 11.2527 2.42275 10.2057C1.46682 9.15867 0.951334 7.78343 0.98354 6.36604C1.01575 4.94864 1.59316 3.59823 2.59567 2.59573C3.59817 1.59322 4.94858 1.01581 6.36598 0.983601C7.78337 0.951395 9.15861 1.46688 10.2056 2.42282C11.2526 3.37875 11.8908 4.70154 11.9873 6.11601C12.0839 7.53048 11.6314 8.92771 10.724 10.0171ZM6.5 11.0001C5.60998 11.0001 4.73995 10.7361 3.99993 10.2417C3.25991 9.7472 2.68313 9.0444 2.34254 8.22213C2.00194 7.39987 1.91283 6.49507 2.08646 5.62215C2.2601 4.74924 2.68868 3.94741 3.31802 3.31808C3.94735 2.68874 4.74918 2.26016 5.62209 2.08652C6.495 1.91289 7.3998 2.00201 8.22207 2.3426C9.04434 2.68319 9.74714 3.25997 10.2416 3.99999C10.7361 4.74001 11 5.61004 11 6.50006C10.9987 7.69313 10.5241 8.83695 9.68052 9.68058C8.83689 10.5242 7.69306 10.9987 6.5 11.0001ZM9 7V6H4V7H9Z" fill="#C5C5C5"/>
</svg>
