<svg width="16" height="16" viewBox="0 0 16 16" fill="none" xmlns="http://www.w3.org/2000/svg">
<path d="M14.9994 5.5009C15.0306 6.61917 14.6342 7.70727 13.891 8.54341C13.1477 9.37954 12.1136 9.90079 10.9994 10.0009C10.9911 9.65849 10.9235 9.32013 10.7994 9.00089C11.6692 8.91145 12.4758 8.50547 13.0658 7.86015C13.6558 7.21484 13.988 6.3752 13.9994 5.5009C13.9961 4.599 13.6455 3.73303 13.0203 3.08292C12.3952 2.4328 11.5437 2.04852 10.6426 2.0099C9.7415 1.97128 8.86018 2.2813 8.18172 2.87555C7.50327 3.4698 7.07983 4.30258 6.99939 5.20089C6.67741 5.08647 6.34061 5.01911 5.99939 5.0009C6.14785 3.90649 6.68329 2.90142 7.50875 2.16768C8.33421 1.43393 9.39513 1.02002 10.4994 1.00089C11.091 0.998381 11.6773 1.11306 12.2244 1.33832C12.7715 1.56357 13.2686 1.89494 13.687 2.31331C14.1053 2.73167 14.4367 3.22875 14.662 3.77585C14.8872 4.32295 15.0019 4.90924 14.9994 5.5009ZM5.49939 6.0009C4.60938 6.0009 3.73935 6.26482 2.99933 6.75928C2.2593 7.25375 1.68253 7.95655 1.34193 8.77882C1.00134 9.60109 0.912224 10.5059 1.08586 11.3788C1.25949 12.2517 1.68807 13.0535 2.31741 13.6829C2.94675 14.3122 3.74857 14.7408 4.62149 14.9144C5.4944 15.0881 6.3992 14.9989 7.22147 14.6584C8.04373 14.3178 8.74654 13.741 9.241 13.001C9.73547 12.2609 9.99939 11.3909 9.99939 10.5009C9.99939 9.90995 9.883 9.32478 9.65685 8.77882C9.4307 8.23285 9.09924 7.73678 8.68137 7.31891C8.26351 6.90105 7.76743 6.56958 7.22147 6.34344C6.6755 6.11729 6.09034 6.0009 5.49939 6.0009Z" fill="#424242"/>
</svg>
