<svg width="16" height="16" viewBox="0 0 16 16" fill="none" xmlns="http://www.w3.org/2000/svg">
<path d="M14.9991 5.50089C15.0303 6.61917 14.6339 7.70726 13.8907 8.5434C13.1474 9.37954 12.1133 9.90078 10.9991 10.0009C10.9908 9.65849 10.9232 9.32012 10.7991 9.00089C11.6689 8.91144 12.4755 8.50546 13.0655 7.86014C13.6555 7.21483 13.9877 6.37519 13.9991 5.50089C13.9958 4.59899 13.6452 3.73303 13.02 3.08291C12.3949 2.4328 11.5434 2.04851 10.6423 2.00989C9.74119 1.97128 8.85988 2.28129 8.18142 2.87554C7.50296 3.46979 7.07953 4.30258 6.99909 5.20089C6.67711 5.08647 6.3403 5.01911 5.99909 5.00089C6.14755 3.90648 6.68299 2.90141 7.50845 2.16767C8.33391 1.43392 9.39482 1.02002 10.4991 1.00089C11.0907 0.998373 11.677 1.11305 12.2241 1.33831C12.7712 1.56356 13.2683 1.89494 13.6867 2.3133C14.105 2.73167 14.4364 3.22874 14.6617 3.77584C14.8869 4.32294 15.0016 4.90924 14.9991 5.50089ZM5.49909 6.00089C4.60907 6.00089 3.73904 6.26481 2.99902 6.75927C2.259 7.25374 1.68222 7.95654 1.34163 8.77881C1.00103 9.60108 0.911919 10.5059 1.08555 11.3788C1.25919 12.2517 1.68777 13.0535 2.31711 13.6829C2.94644 14.3122 3.74827 14.7408 4.62118 14.9144C5.49409 15.0881 6.39889 14.9989 7.22116 14.6583C8.04343 14.3178 8.74623 13.741 9.2407 13.001C9.73517 12.2609 9.99909 11.3909 9.99909 10.5009C9.99909 9.90994 9.88269 9.32478 9.65654 8.77881C9.4304 8.23285 9.09893 7.73677 8.68107 7.31891C8.2632 6.90104 7.76713 6.56958 7.22116 6.34343C6.6752 6.11728 6.09003 6.00089 5.49909 6.00089Z" fill="#424242"/>
</svg>
