<svg width="16" height="16" viewBox="0 0 16 16" fill="none" xmlns="http://www.w3.org/2000/svg">
<path fill-rule="evenodd" clip-rule="evenodd" d="M13.0002 8.9C13.1002 9.5 13.2002 10 13.4002 10.6L14.0002 12.3L13.5002 13H10.0002C10.0002 13.5 9.80024 14 9.40024 14.4C9.00024 14.8 8.50024 15 8.00024 15C7.50024 15 6.90024 14.8 6.60024 14.4C6.20024 14 6.00024 13.5 6.00024 13H2.50024L2.00024 12.3L2.60024 10.6C2.80024 9.8 3.00024 9 3.00024 8.2V6C3.00024 5.3 3.10024 4.6 3.40024 4C3.70024 3.3 4.10024 2.8 4.60024 2.3C5.10024 1.8 5.70024 1.5 6.40024 1.3C6.90024 1.1 7.50024 1 8.00024 1C7.80024 1.3 7.60024 1.7 7.40024 2.1C7.20024 2.1 7.00024 2.1 6.70024 2.3C6.20024 2.4 5.70024 2.7 5.30024 3.1C4.90024 3.4 4.50024 3.9 4.30024 4.4C4.10024 4.9 4.00024 5.4 4.00024 6V8.2C4.00024 9.1 3.80024 10 3.60024 10.9L3.20024 12H12.8002L12.4002 10.9C12.2249 10.3739 12.1264 9.77084 12.0374 9.22577C12.0249 9.14925 12.0126 9.07387 12.0002 9C12.4002 9 12.7002 9 13.0002 8.9ZM8.00024 14C8.20024 14 8.50024 13.9 8.70024 13.7C8.90024 13.5 9.00024 13.3 9.00024 13H7.00024C7.00024 13.3 7.10024 13.5 7.30024 13.7C7.50024 13.9 7.80024 14 8.00024 14ZM15.0002 4C15.0002 5.65685 13.6571 7 12.0002 7C10.3434 7 9.00024 5.65685 9.00024 4C9.00024 2.34315 10.3434 1 12.0002 1C13.6571 1 15.0002 2.34315 15.0002 4Z" fill="#424242"/>
</svg>
