<svg width="16" height="16" viewBox="0 0 16 16" fill="none" xmlns="http://www.w3.org/2000/svg">
<path fill-rule="evenodd" clip-rule="evenodd" d="M8.00027 1C9.61975 1.00012 11.1891 1.56176 12.4409 2.58924C13.6927 3.61671 14.5495 5.04644 14.8654 6.63483C15.1812 8.22321 14.9365 9.87197 14.173 11.3002C13.4095 12.7284 12.1744 13.8477 10.6782 14.4673C9.18191 15.087 7.5171 15.1687 5.96738 14.6985C4.41766 14.2283 3.07892 13.2353 2.17926 11.8887C1.2796 10.5421 0.874687 8.92518 1.03351 7.31351C1.19233 5.70183 1.90507 4.19509 3.05027 3.05C3.70033 2.40001 4.47206 1.88442 5.32138 1.53268C6.1707 1.18094 7.08099 0.999934 8.00027 1V1ZM2.00027 8C2.0017 9.41722 2.50474 10.7882 3.42027 11.87L11.8703 3.42C10.9984 2.68012 9.93325 2.20479 8.80027 2.05C7.95211 1.93589 7.08935 2.00455 6.26991 2.25136C5.45046 2.49817 4.6933 2.91742 4.04924 3.48097C3.40518 4.04452 2.88914 4.73933 2.53574 5.51876C2.18234 6.29818 1.99976 7.1442 2.00027 8V8ZM14.0003 8C13.9988 6.58278 13.4958 5.21181 12.5803 4.13L4.13027 12.58C4.99625 13.338 6.06193 13.8309 7.20027 14C8.05263 14.1147 8.91969 14.0448 9.74268 13.7951C10.5657 13.5454 11.3253 13.1217 11.9702 12.5526C12.6151 11.9836 13.1302 11.2826 13.4804 10.4971C13.8307 9.71162 14.008 8.86001 14.0003 8V8Z" fill="#424242"/>
</svg>
