<svg width="16" height="16" viewBox="0 0 16 16" fill="none" xmlns="http://www.w3.org/2000/svg">
<path d="M5.00024 13V3H8.3625C9.47855 3 10.3168 3.22436 10.8771 3.67308C11.4422 4.12179 11.7248 4.78571 11.7248 5.66484C11.7248 6.13187 11.5882 6.54625 11.3151 6.90797C11.042 7.26511 10.6699 7.54212 10.199 7.73901C10.7547 7.89011 11.1926 8.17857 11.5129 8.6044C11.8378 9.02564 12.0002 9.5293 12.0002 10.1154C12.0002 11.0128 11.7012 11.7179 11.1032 12.2308C10.5051 12.7436 9.65985 13 8.56735 13H5.00024ZM6.35645 8.3228V11.9217H8.5956C9.22661 11.9217 9.72342 11.7637 10.086 11.4478C10.4533 11.1273 10.637 10.6877 10.637 10.1291C10.637 8.92491 9.96358 8.3228 8.61679 8.3228H6.35645ZM6.35645 7.26511H8.40489C8.99823 7.26511 9.47149 7.12088 9.82466 6.83242C10.1826 6.54396 10.3615 6.15247 10.3615 5.65797C10.3615 5.10852 10.1967 4.71016 9.86705 4.46291C9.53741 4.21108 9.0359 4.08516 8.3625 4.08516H6.35645V7.26511Z" fill="#424242"/>
</svg>
