<svg width="16" height="16" viewBox="0 0 16 16" fill="none" xmlns="http://www.w3.org/2000/svg">
<path fill-rule="evenodd" clip-rule="evenodd" d="M14.5002 2H9.00024L8.65027 2.15002L8.00024 2.79004L7.35022 2.15002L7.00024 2H1.50024L1.00024 2.5V12.5L1.50024 13H6.79022L7.65027 13.85H8.35022L9.21027 13H14.5002L15.0002 12.5V2.5L14.5002 2ZM7.50024 12.3199L7.32025 12.15L7.00024 12H2.00024V3H6.79022L7.53027 3.73999L7.50024 12.3199ZM14.0002 12H9.00024L8.65027 12.15L8.51025 12.28V3.69995L9.21027 3H14.0002V12ZM6.00024 5H3.00024V6H6.00024V5ZM6.00024 9H3.00024V10H6.00024V9ZM3.00024 7H6.00024V8H3.00024V7ZM13.0002 5H10.0002V6H13.0002V5ZM10.0002 7H13.0002V8H10.0002V7ZM10.0002 9H13.0002V10H10.0002V9Z" fill="#424242"/>
</svg>
