<svg width="16" height="16" viewBox="0 0 16 16" fill="none" xmlns="http://www.w3.org/2000/svg">
<path fill-rule="evenodd" clip-rule="evenodd" d="M5.77778 4.67407C6.43558 4.23455 7.20894 4 8.00007 4C9.06093 4 10.0784 4.42149 10.8285 5.17163C11.5786 5.92178 12.0001 6.93913 12.0001 8C12.0001 8.79113 11.7655 9.56449 11.3259 10.2223C10.8864 10.8801 10.2617 11.3928 9.53083 11.6956C8.79993 11.9983 7.99566 12.0774 7.21973 11.9231C6.44381 11.7688 5.73105 11.3878 5.17164 10.8284C4.61223 10.269 4.23125 9.55632 4.07691 8.7804C3.92257 8.00447 4.00182 7.20014 4.30457 6.46924C4.60732 5.73833 5.11998 5.1136 5.77778 4.67407ZM6.47224 10.2865C6.92447 10.5887 7.45617 10.75 8.00007 10.75C8.72941 10.75 9.42886 10.4603 9.94459 9.94458C10.4603 9.42885 10.7501 8.72935 10.7501 8C10.7501 7.4561 10.5888 6.9244 10.2866 6.47217C9.98445 6.01993 9.55493 5.66749 9.05244 5.45935C8.54994 5.25121 7.99702 5.19675 7.46357 5.30286C6.93012 5.40897 6.44014 5.67083 6.05555 6.05542C5.67096 6.44001 5.40903 6.93005 5.30292 7.4635C5.19682 7.99695 5.25128 8.54987 5.45942 9.05237C5.66756 9.55486 6.02 9.98432 6.47224 10.2865ZM9.50006 6.5H6.50006V7.5H9.50006V6.5ZM9.50006 8.5H6.50006V9.5H9.50006V8.5Z" fill="#848484"/>
</svg>
