<svg width="16" height="16" viewBox="0 0 16 16" fill="none" xmlns="http://www.w3.org/2000/svg">
<path d="M4.66683 2.01118C5.65352 1.35189 6.81356 1 8.00025 1C9.591 1.00178 11.1161 1.63449 12.2409 2.75932C13.3658 3.88416 13.9985 5.40925 14.0002 7C14.0002 8.18669 13.6484 9.34672 12.9891 10.3334C12.3298 11.3201 11.3927 12.0891 10.2963 12.5433C10.1997 12.5833 10.1022 12.6207 10.004 12.6555V12.6109C10.0198 12.5965 10.0353 12.5816 10.0505 12.5664C10.328 12.2888 10.484 11.9124 10.484 11.5199V11.3831C10.8754 11.1611 11.2386 10.8859 11.5624 10.5621C12.5072 9.61728 13.0387 8.33622 13.0402 7C13.0402 6.00318 12.7447 5.02875 12.1909 4.19993C11.637 3.3711 10.8499 2.72511 9.92897 2.34365C9.00803 1.96218 7.99465 1.86237 7.01699 2.05684C6.03933 2.25131 5.14128 2.73132 4.43643 3.43618C3.73157 4.14104 3.25156 5.03908 3.05709 6.01674C2.86262 6.99441 2.96243 8.00778 3.34389 8.92872C3.72536 9.84966 4.37135 10.6368 5.20017 11.1906C5.29823 11.2561 5.39832 11.318 5.50024 11.3763V11.5199C5.50024 11.9124 5.65617 12.2888 5.93372 12.5664C5.94894 12.5816 5.96445 12.5965 5.98024 12.6109V12.6497C5.14782 12.3521 4.38784 11.8729 3.75761 11.2426C2.91849 10.4035 2.34705 9.33443 2.11554 8.17054C1.88402 7.00665 2.00284 5.80025 2.45697 4.7039C2.9111 3.60754 3.68013 2.67047 4.66683 2.01118Z" fill="#424242"/>
<path d="M9.34337 11.8593C9.25336 11.9493 9.13126 11.9999 9.00396 11.9999V14.5199C9.00396 14.6472 8.95339 14.7693 8.86337 14.8593C8.77335 14.9493 8.65127 14.9999 8.52396 14.9999H7.46024C7.47172 14.9999 7.45614 14.9957 7.42595 14.9877C7.35076 14.9676 7.18504 14.9235 7.12083 14.8593C7.03082 14.7693 6.98024 14.6472 6.98024 14.5199V11.9999C6.85294 11.9999 6.73085 11.9493 6.64083 11.8593C6.63807 11.8565 6.63535 11.8537 6.63266 11.8509C6.54776 11.7618 6.50024 11.6433 6.50024 11.5199V9.5C6.50024 9.3965 6.51597 9.29667 6.54516 9.20278C6.67172 8.79563 7.05146 8.5 7.50024 8.5H8.48396C8.93573 8.5 9.31752 8.79957 9.44153 9.2109C9.46913 9.30242 9.48396 9.39948 9.48396 9.5V11.5199C9.48396 11.6453 9.43487 11.7657 9.34734 11.8553L9.34337 11.8593Z" fill="#424242"/>
<path d="M10.6402 6.99995C10.6398 7.52524 10.483 8.03431 10.1956 8.46487C10.3786 8.76684 10.484 9.12111 10.484 9.5V9.60589C10.6746 9.42419 10.8457 9.22121 10.9935 9C11.3891 8.40799 11.6002 7.71196 11.6002 6.99995C11.5989 6.04556 11.2192 5.13063 10.5444 4.45577C9.86952 3.78091 8.95459 3.40122 8.0002 3.39995C7.28818 3.39995 6.59216 3.61109 6.00014 4.00666C5.40813 4.40223 4.94671 4.96448 4.67423 5.62229C4.40176 6.2801 4.33046 7.00394 4.46937 7.70228C4.60828 8.40061 4.95114 9.04207 5.45461 9.54554C5.4697 9.56062 5.48491 9.57557 5.50024 9.59036V9.5C5.50024 9.11608 5.60842 8.75742 5.79595 8.45285C5.70426 8.31375 5.62552 8.16563 5.56116 8.01024C5.36134 7.52784 5.30906 6.99702 5.41092 6.48491C5.51279 5.9728 5.76422 5.5024 6.13343 5.13319C6.50265 4.76398 6.97305 4.51254 7.48516 4.41068C7.99727 4.30881 8.52808 4.36109 9.01048 4.56091C9.49288 4.76072 9.90519 5.0991 10.1953 5.53325C10.4854 5.96739 10.6402 6.47781 10.6402 6.99995Z" fill="#424242"/>
<path d="M9.00024 7C9.00024 7.55228 8.55253 8 8.00024 8C7.44796 8 7.00024 7.55228 7.00024 7C7.00024 6.44772 7.44796 6 8.00024 6C8.55253 6 9.00024 6.44772 9.00024 7Z" fill="#424242"/>
</svg>
