<svg width="16" height="16" viewBox="0 0 16 16" fill="none" xmlns="http://www.w3.org/2000/svg">
<path d="M7.85424 6.59999L10.3542 4.1L9.64624 3.4L8.00024 5.043V0H7.00024V5.043L5.35424 3.4L4.64624 4.1L7.14624 6.59999H7.85424Z" fill="#424242"/>
<path d="M14.0002 14.5V4.99999H13.0002V14H2.00024V4.99999H1.00024V14.5L1.50024 15H13.5002L14.0002 14.5Z" fill="#424242"/>
<path d="M5.00024 12.5V11.5L4.50024 11H3.50024L3.00024 11.5V12.5L3.50024 13H4.50024L5.00024 12.5Z" fill="#424242"/>
<path d="M9.00024 11.5V12.5L8.50024 13H7.50024L7.00024 12.5V11.5L7.50024 11H8.50024L9.00024 11.5Z" fill="#424242"/>
<path d="M7.00024 9.49999V8.49999L6.50024 7.99999H5.50024L5.00024 8.49999V9.49999L5.50024 9.99999H6.50024L7.00024 9.49999Z" fill="#424242"/>
<path d="M11.0002 8.49999V9.49999L10.5002 9.99999H9.50024L9.00024 9.49999V8.49999L9.50024 7.99999H10.5002L11.0002 8.49999Z" fill="#424242"/>
</svg>
