<svg width="16" height="16" viewBox="0 0 16 16" fill="none" xmlns="http://www.w3.org/2000/svg">
<path fill-rule="evenodd" clip-rule="evenodd" d="M12.5471 9.32812C12.3544 9.25 12.1565 9.21094 11.9534 9.21094C11.7346 9.20573 11.5497 9.23958 11.3987 9.3125C11.2476 9.38542 11.1044 9.47135 10.969 9.57031C10.8336 9.66927 10.7138 9.77865 10.6096 9.89844C10.5055 10.0182 10.4039 10.1276 10.3049 10.2266C10.206 10.3255 10.1096 10.4089 10.0159 10.4766C9.92212 10.5443 9.82056 10.5781 9.71118 10.5781C9.56014 10.5781 9.42993 10.5234 9.32056 10.4141C9.24243 10.3411 9.13306 10.237 8.99243 10.1016C8.85181 9.96615 8.67993 9.80208 8.47681 9.60938C8.27368 9.41667 8.06274 9.21354 7.84399 9C7.62524 8.78646 7.39868 8.5651 7.16431 8.33594C6.92993 8.10677 6.71118 7.88542 6.50806 7.67188C6.30493 7.45833 6.12004 7.25781 5.95337 7.07031C5.7867 6.88281 5.65649 6.72135 5.56274 6.58594C5.46899 6.45052 5.42212 6.35156 5.42212 6.28906C5.41691 6.17448 5.45077 6.07031 5.52368 5.97656C5.5966 5.88281 5.68254 5.78646 5.78149 5.6875C5.88045 5.58854 5.98983 5.48438 6.10962 5.375C6.22941 5.26562 6.33879 5.14844 6.43774 5.02344C6.5367 4.89844 6.62004 4.75521 6.68774 4.59375C6.75545 4.43229 6.78931 4.25 6.78931 4.04688C6.78931 3.84375 6.75024 3.64583 6.67212 3.45312C6.59399 3.26042 6.48202 3.09115 6.33618 2.94531C6.16952 2.78385 5.99243 2.59115 5.80493 2.36719C5.61743 2.14323 5.4117 1.92969 5.18774 1.72656C4.96379 1.52344 4.73201 1.35156 4.49243 1.21094C4.25285 1.07031 4.00285 1 3.74243 1C3.53931 1 3.34139 1.03906 3.14868 1.11719C2.95597 1.19531 2.7867 1.30729 2.64087 1.45313C2.37004 1.72396 2.13306 1.96615 1.92993 2.17969C1.72681 2.39323 1.55493 2.61458 1.41431 2.84375C1.27368 3.07292 1.16951 3.32812 1.10181 3.60938C1.0341 3.89062 1.00024 4.22917 1.00024 4.625C1.00024 5.17708 1.08879 5.75 1.26587 6.34375C1.44295 6.9375 1.68254 7.52865 1.98462 8.11719C2.2867 8.70573 2.65389 9.28385 3.08618 9.85156C3.51847 10.4193 3.98722 10.9583 4.49243 11.4688C4.99764 11.9792 5.5341 12.4505 6.10181 12.8828C6.66952 13.3151 7.25024 13.6875 7.84399 14C8.43774 14.3125 9.0341 14.5573 9.63306 14.7344C10.232 14.9115 10.8153 15 11.3831 15C11.7685 14.9948 12.1044 14.9583 12.3909 14.8906C12.6773 14.8229 12.9351 14.7188 13.1643 14.5781C13.3935 14.4375 13.6148 14.2656 13.8284 14.0625C14.0419 13.8594 14.2815 13.625 14.5471 13.3594C14.693 13.2135 14.8049 13.0443 14.8831 12.8516C14.9612 12.6589 15.0002 12.4609 15.0002 12.2578C14.9898 12.0859 14.956 11.9141 14.8987 11.7422C14.8414 11.5703 14.7555 11.4089 14.6409 11.2578C14.5263 11.1068 14.4039 10.9583 14.2737 10.8125C14.1435 10.6667 14.0028 10.526 13.8518 10.3906C13.7008 10.2552 13.5575 10.1276 13.4221 10.0078C13.2867 9.88802 13.1643 9.77344 13.0549 9.66406C12.9091 9.51823 12.7398 9.40625 12.5471 9.32812ZM12.1799 13.9141C11.9664 13.9714 11.7008 14 11.3831 14C10.8987 13.9948 10.3935 13.9141 9.86743 13.7578C9.34139 13.6016 8.81274 13.3802 8.28149 13.0938C7.75024 12.8073 7.2242 12.4688 6.70337 12.0781C6.18254 11.6875 5.69295 11.2604 5.23462 10.7969C4.77629 10.3333 4.3466 9.84635 3.94556 9.33594C3.54451 8.82552 3.20076 8.29948 2.91431 7.75781C2.62785 7.21615 2.40389 6.67969 2.24243 6.14844C2.08097 5.61719 2.00024 5.10156 2.00024 4.60156C2.00545 4.29427 2.0367 4.03125 2.09399 3.8125C2.15129 3.59375 2.23722 3.39844 2.35181 3.22656C2.46639 3.05469 2.60702 2.88802 2.77368 2.72656C2.94035 2.5651 3.13045 2.3776 3.34399 2.16406C3.45337 2.05469 3.58618 2 3.74243 2C3.80493 1.99479 3.90129 2.03646 4.03149 2.125C4.1617 2.21354 4.30233 2.32031 4.45337 2.44531C4.60441 2.57031 4.76066 2.71354 4.92212 2.875C5.08358 3.03646 5.22681 3.19271 5.35181 3.34375C5.47681 3.49479 5.58097 3.63281 5.66431 3.75781C5.74764 3.88281 5.78931 3.97917 5.78931 4.04688C5.79452 4.17188 5.76066 4.27604 5.68774 4.35938C5.61483 4.44271 5.52889 4.53906 5.42993 4.64844C5.33097 4.75781 5.2216 4.86198 5.10181 4.96094C4.98201 5.0599 4.87264 5.17708 4.77368 5.3125C4.67472 5.44792 4.59139 5.59375 4.52368 5.75C4.45597 5.90625 4.42212 6.08594 4.42212 6.28906C4.42733 6.5026 4.46899 6.70312 4.54712 6.89062C4.62524 7.07812 4.73722 7.24479 4.88306 7.39062L8.60962 11.1172C8.76066 11.2682 8.92993 11.3828 9.11743 11.4609C9.30493 11.5391 9.50285 11.5781 9.71118 11.5781C9.91951 11.5833 10.1018 11.5495 10.2581 11.4766C10.4143 11.4036 10.5575 11.3177 10.6877 11.2188C10.818 11.1198 10.9377 11.0104 11.0471 10.8906C11.1565 10.7708 11.2581 10.6615 11.3518 10.5625C11.4456 10.4635 11.5419 10.3802 11.6409 10.3125C11.7398 10.2448 11.844 10.2109 11.9534 10.2109C12.0263 10.2109 12.1252 10.2526 12.2502 10.3359C12.3752 10.4193 12.5133 10.526 12.6643 10.6562C12.8153 10.7865 12.9716 10.9297 13.1331 11.0859C13.2945 11.2422 13.4377 11.3984 13.5627 11.5547C13.6877 11.7109 13.7919 11.8516 13.8752 11.9766C13.9586 12.1016 14.0002 12.1979 14.0002 12.2656C14.0002 12.4167 13.9456 12.5469 13.8362 12.6562C13.6122 12.875 13.4221 13.0651 13.2659 13.2266C13.1096 13.388 12.943 13.5286 12.7659 13.6484C12.5888 13.7682 12.3935 13.8568 12.1799 13.9141ZM15.0002 1.70312L10.3596 6.35156L13.6487 6.35156V7.35156L8.64868 7.35156L8.64868 2.35156L9.64868 2.35156V5.64062L14.2971 1L15.0002 1.70312Z" fill="#424242"/>
</svg>
