<svg width="16" height="16" viewBox="0 0 16 16" fill="none" xmlns="http://www.w3.org/2000/svg">
<path fill-rule="evenodd" clip-rule="evenodd" d="M3.75024 4.48H3.04024L2.00024 3.43L2.71024 2.73L3.40024 3.41L4.81024 2L5.52024 2.71L3.75024 4.48ZM6.99023 3H14.9902V4H6.99023V3ZM6.99023 6H14.9902V7H6.99023V6ZM14.9902 9H6.99023V10H14.9902V9ZM6.99023 12H14.9902V13H6.99023V12ZM3.04024 7.48001H3.75024L5.52024 5.71001L4.81024 5.01001L3.40024 6.42001L2.71024 5.73001L2.00024 6.44001L3.04024 7.48001ZM3.75024 10.49H3.04024L2.00024 9.45001L2.71024 8.74001L3.40024 9.43001L4.81024 8.01001L5.52024 8.72001L3.75024 10.49ZM3.04024 13.5H3.75024L5.52024 11.73L4.81024 11.02L3.40024 12.44L2.71024 11.75L2.00024 12.45L3.04024 13.5Z" fill="#424242"/>
</svg>
