<svg width="16" height="16" viewBox="0 0 16 16" fill="none" xmlns="http://www.w3.org/2000/svg">
<path d="M8.00024 4C8.36743 4 8.7216 4.04818 9.06274 4.14453C9.40389 4.23828 9.7216 4.3724 10.0159 4.54688C10.3127 4.72135 10.5823 4.93099 10.8245 5.17578C11.0693 5.41797 11.2789 5.6875 11.4534 5.98438C11.6278 6.27865 11.762 6.59635 11.8557 6.9375C11.9521 7.27865 12.0002 7.63281 12.0002 8C12.0002 8.36719 11.9521 8.72135 11.8557 9.0625C11.762 9.40365 11.6278 9.72266 11.4534 10.0195C11.2789 10.3138 11.0693 10.5833 10.8245 10.8281C10.5823 11.0703 10.3127 11.2786 10.0159 11.4531C9.7216 11.6276 9.40389 11.763 9.06274 11.8594C8.7216 11.9531 8.36743 12 8.00024 12C7.63306 12 7.27889 11.9531 6.93774 11.8594C6.5966 11.763 6.27759 11.6276 5.98071 11.4531C5.68644 11.2786 5.41691 11.0703 5.17212 10.8281C4.92993 10.5833 4.7216 10.3138 4.54712 10.0195C4.37264 9.72266 4.23722 9.40365 4.14087 9.0625C4.04712 8.72135 4.00024 8.36719 4.00024 8C4.00024 7.63281 4.04712 7.27865 4.14087 6.9375C4.23722 6.59635 4.37264 6.27865 4.54712 5.98438C4.7216 5.6875 4.92993 5.41797 5.17212 5.17578C5.41691 4.93099 5.68644 4.72135 5.98071 4.54688C6.27759 4.3724 6.5966 4.23828 6.93774 4.14453C7.27889 4.04818 7.63306 4 8.00024 4Z" fill="#424242"/>
</svg>
