<svg width="16" height="16" viewBox="0 0 16 16" fill="none" xmlns="http://www.w3.org/2000/svg">
<path fill-rule="evenodd" clip-rule="evenodd" d="M8.00024 12C10.2094 12 12.0002 10.2091 12.0002 8C12.0002 5.79086 10.2094 4 8.00024 4C5.79111 4 4.00024 5.79086 4.00024 8C4.00024 10.2091 5.79111 12 8.00024 12ZM10.6095 8C10.6095 9.44108 9.44132 10.6093 8.00025 10.6093C6.55917 10.6093 5.39095 9.44108 5.39095 8C5.39095 6.55893 6.55917 5.39071 8.00025 5.39071C9.44132 5.39071 10.6095 6.55893 10.6095 8ZM8.00025 5.24613C9.52117 5.24613 10.7541 6.47908 10.7541 8C10.7541 8 10.7541 8 10.7541 8C10.7541 6.47908 9.52117 5.24613 8.00025 5.24613Z" fill="#424242"/>
</svg>
