<svg width="16" height="16" viewBox="0 0 16 16" fill="none" xmlns="http://www.w3.org/2000/svg">
<path fill-rule="evenodd" clip-rule="evenodd" d="M7.00024 13.9916H4.00024V4.99159H12.0002V6.99159H13.0002V4.49159L12.5002 3.99159H11.0002V2.99159H10.0002C9.99801 2.46201 9.78583 1.95494 9.41024 1.58159C9.03552 1.20908 8.52862 1 8.00024 1C7.47187 1 6.96497 1.20908 6.59024 1.58159C6.21466 1.95494 6.00248 2.46201 6.00024 2.99159H4.94024V3.99159H3.50024L3.00024 4.49159V14.4916L3.50024 14.9916H7.00024V13.9916ZM7.00024 2.79159C7.03722 2.59305 7.13344 2.41037 7.27623 2.26757C7.41903 2.12478 7.60171 2.02856 7.80024 1.99159C7.99525 1.95352 8.19716 1.97441 8.38024 2.05159C8.56424 2.12151 8.72163 2.24743 8.83024 2.41159C8.96125 2.60413 9.02095 2.83635 8.99905 3.0682C8.97714 3.30006 8.875 3.51699 8.71024 3.68159C8.54565 3.84634 8.32871 3.94848 8.09686 3.97039C7.86501 3.9923 7.63278 3.93259 7.44024 3.80159C7.27609 3.69298 7.15017 3.53558 7.08024 3.35159C7.00024 3.17651 6.97246 2.98206 7.00024 2.79159ZM14.0803 12.2516L13.0003 13.3416V7.99158H12.0003V13.3316L10.9203 12.2516L10.2103 12.9616L12.1503 14.8916H12.8603L14.7903 12.9616L14.0803 12.2516ZM8.16024 8.09155H8.87024L10.8002 10.0216L10.0902 10.7316L9.01025 9.65155V14.9916H8.01025V9.64155L6.93025 10.7316L6.22025 10.0216L8.16024 8.09155Z" fill="#424242"/>
</svg>
