<svg width="16" height="16" viewBox="0 0 16 16" fill="none" xmlns="http://www.w3.org/2000/svg">
<path fill-rule="evenodd" clip-rule="evenodd" d="M9 2C9 1.53439 9.34568 1 10 1C10.6543 1 11 1.53439 11 2H9ZM8 2C8 1.13228 8.65432 0 10 0C11.3457 0 12 1.13228 12 2H14L15 3V13L14 14H10V15L9 16H3L2 15V7L3 6H5V3L6 2H7.5H8ZM12 3H8V4H12V3ZM7 3H6V4V5V6H6.6H7H7.5L10 8.5V9.28571V9.5V12V13H11H13H14V12V4V3H13V4.5L12.5 5H7.5L7 4.5V4V3ZM3 7H4H6H6.6L7.8 8.14286L9 9.28571V9.5V13V14V15H8H4H3V14V8V7Z" fill="#424242"/>
</svg>
