<svg width="16" height="16" viewBox="0 0 16 16" fill="none" xmlns="http://www.w3.org/2000/svg">
<path fill-rule="evenodd" clip-rule="evenodd" d="M8.62156 8.0858L7.91446 7.37869L6.50024 8.7929L5.08603 7.37869L4.37892 8.0858L5.79314 9.50001L4.37892 10.9142L5.08603 11.6213L6.50024 10.2071L7.91446 11.6213L8.62156 10.9142L7.20735 9.50001L8.62156 8.0858Z" fill="#424242"/>
<path fill-rule="evenodd" clip-rule="evenodd" d="M5.00024 3L6.00024 2H13.0002L14.0002 3V10L13.0002 11H11.0002V13L10.0002 14H3.00024L2.00024 13V6L3.00024 5H5.00024V3ZM6.00024 5H10.0002L11.0002 6V10H13.0002V3H6.00024V5ZM10.0002 6H3.00024V13H10.0002V6Z" fill="#424242"/>
</svg>
