<svg width="16" height="16" viewBox="0 0 16 16" fill="none" xmlns="http://www.w3.org/2000/svg">
<path fill-rule="evenodd" clip-rule="evenodd" d="M11.9568 6H12.0067C12.8006 6 13.5621 6.31607 14.1235 6.87868C14.6849 7.44129 15.0002 8.20435 15.0002 9C15.0002 9.79565 14.6849 10.5587 14.1235 11.1213C13.5621 11.6839 12.8006 12 12.0067 12V11.9871L12.0002 12L5.02172 12H4.52279C4.0277 12.0043 3.53735 11.903 3.08428 11.7029C2.63121 11.5028 2.22577 11.2084 1.89486 10.8394C1.56394 10.4703 1.31512 10.0349 1.16489 9.56211C1.01466 9.08932 0.966461 8.58992 1.02348 8.09704C1.08051 7.60416 1.24145 7.12906 1.49564 6.70326C1.74983 6.27745 2.09146 5.91068 2.49786 5.62727C2.90426 5.34385 3.36615 5.15027 3.85289 5.05937C4.33962 4.96847 4.84009 4.98232 5.32108 5.1C5.62434 4.40501 6.14536 3.82799 6.8052 3.45635C7.46505 3.08472 8.22777 2.9387 8.97785 3.04044C9.72792 3.14217 10.4245 3.4861 10.962 4.02014C11.4996 4.55418 11.8488 5.24923 11.9568 6ZM5.00024 11H12.0103C12.5383 10.999 13.0445 10.7884 13.4179 10.4142C13.7921 10.0391 14.0024 9.53044 14.0024 9C14.0024 8.46957 13.7921 7.96086 13.4179 7.58579C13.0436 7.21072 12.536 7 12.0067 7H11.0927L10.9689 6.143C10.894 5.60541 10.6458 5.10711 10.262 4.72407C9.87825 4.34103 9.38001 4.09427 8.84327 4.02143C8.30653 3.94859 7.76075 4.05365 7.28914 4.3206C6.81753 4.58754 6.44597 5.00173 6.23112 5.5L5.89783 6.262L5.08957 6.073C4.90406 6.02699 4.71389 6.0025 4.52279 6C3.86118 6 3.22666 6.2634 2.75882 6.73224C2.29099 7.20108 2.02816 7.83696 2.02816 8.5C2.02816 9.16304 2.29099 9.79893 2.75882 10.2678C3.22666 10.7366 3.86118 11 4.52279 11L5.00024 11Z" fill="#424242"/>
</svg>
