<svg width="16" height="16" viewBox="0 0 16 16" fill="none" xmlns="http://www.w3.org/2000/svg">
<path d="M8.00025 1C6.61578 1 5.2624 1.41054 4.11126 2.17971C2.96011 2.94888 2.0629 4.04213 1.53309 5.32122C1.00328 6.6003 0.864654 8.00777 1.13475 9.36563C1.40485 10.7235 2.07153 11.9708 3.0505 12.9497C4.02947 13.9287 5.27675 14.5954 6.63462 14.8655C7.99248 15.1356 9.39995 14.997 10.679 14.4672C11.9581 13.9373 13.0514 13.0401 13.8205 11.889C14.5897 10.7378 15.0002 9.38447 15.0002 8C15.0002 6.14348 14.2627 4.36301 12.95 3.05025C11.6372 1.7375 9.85676 1 8.00025 1V1ZM8.00025 14V2C9.59155 2 11.1177 2.63214 12.2429 3.75736C13.3681 4.88258 14.0002 6.4087 14.0002 8C14.0002 9.5913 13.3681 11.1174 12.2429 12.2426C11.1177 13.3679 9.59155 14 8.00025 14V14Z" fill="#424242"/>
</svg>
