<svg width="630" height="144" viewBox="0 0 630 144" fill="none" xmlns="http://www.w3.org/2000/svg">
<path fill-rule="evenodd" clip-rule="evenodd" d="M99.8684 99.449C99.7395 99.3028 99.5772 99.19 99.3954 99.12C99.1214 99.009 98.7724 98.97 98.3404 99.044C98.0967 99.088 97.8584 99.1577 97.6294 99.252C97.5478 99.2867 97.4695 99.3285 97.3954 99.377L97.3524 99.407V100.463L97.5204 100.324C97.6694 100.2 97.8464 100.099 98.0474 100.021C98.2434 99.947 98.4464 99.908 98.6514 99.908C98.8394 99.908 98.9814 99.959 99.0824 100.065C99.1694 100.16 99.2194 100.313 99.2294 100.521L98.2674 100.665C98.0484 100.695 97.8574 100.751 97.6974 100.831C97.5449 100.906 97.4094 101.012 97.2994 101.142C97.1957 101.268 97.1179 101.412 97.0704 101.568C96.9729 101.898 96.9768 102.249 97.0814 102.576C97.1324 102.727 97.216 102.866 97.3262 102.982C97.4364 103.097 97.5706 103.188 97.7194 103.246C97.8744 103.309 98.0474 103.339 98.2474 103.339C98.4329 103.343 98.6169 103.305 98.7861 103.229C98.9553 103.152 99.1053 103.039 99.2254 102.898V103.243H100.232V100.65C100.232 100.395 100.202 100.166 100.143 99.969C100.089 99.7784 99.9953 99.6013 99.8684 99.449ZM99.2324 101.345V101.581C99.2324 101.7 99.2144 101.812 99.1774 101.922C99.1479 102.018 99.0994 102.107 99.0346 102.184C98.9698 102.261 98.8901 102.324 98.8004 102.369C98.6394 102.443 98.4562 102.453 98.2884 102.396C98.2306 102.376 98.1775 102.344 98.1324 102.302C98.0913 102.263 98.0592 102.216 98.0384 102.163C98.0143 102.104 98.0024 102.041 98.0034 101.977C98.0034 101.9 98.0124 101.83 98.0274 101.765C98.0413 101.712 98.0681 101.664 98.1054 101.624C98.1502 101.576 98.2052 101.539 98.2664 101.515C98.3647 101.478 98.4671 101.454 98.5714 101.442L99.2324 101.345ZM104.283 100.278C104.237 100.048 104.154 99.8266 104.039 99.622C103.932 99.4367 103.783 99.2794 103.603 99.163C103.411 99.0442 103.188 98.9841 102.961 98.99C102.713 98.987 102.471 99.0653 102.271 99.213C102.171 99.2886 102.082 99.3782 102.007 99.479V97H101.089V103.224H102.007V102.943C102.13 103.095 102.294 103.209 102.479 103.271C102.577 103.303 102.687 103.318 102.809 103.318C103.064 103.318 103.292 103.258 103.486 103.141C103.678 103.026 103.841 102.863 103.972 102.655C104.11 102.434 104.209 102.191 104.265 101.937C104.331 101.646 104.364 101.349 104.361 101.051C104.362 100.791 104.336 100.532 104.283 100.278ZM103.422 101.036C103.422 101.268 103.402 101.475 103.363 101.649C103.327 101.821 103.273 101.964 103.204 102.073C103.149 102.171 103.069 102.253 102.971 102.31C102.886 102.36 102.79 102.388 102.691 102.39C102.592 102.393 102.494 102.37 102.406 102.324C102.324 102.278 102.252 102.216 102.195 102.141C102.132 102.055 102.085 101.96 102.054 101.858C102.018 101.742 102 101.621 102 101.5V100.983C102 100.819 102.02 100.669 102.059 100.536C102.096 100.404 102.147 100.294 102.216 100.2C102.275 100.114 102.353 100.043 102.444 99.992C102.533 99.9438 102.633 99.9193 102.733 99.921C102.834 99.9181 102.933 99.9425 103.021 99.9917C103.108 100.041 103.181 100.113 103.23 100.2C103.293 100.299 103.338 100.414 103.373 100.554C103.404 100.697 103.422 100.86 103.422 101.036ZM98.4084 105.9C98.495 105.798 98.6028 105.717 98.7244 105.661C98.9424 105.561 99.2714 105.556 99.4904 105.643C99.5944 105.685 99.6944 105.743 99.8104 105.827L100.139 106.087V104.945L100.043 104.883C99.7637 104.739 99.4531 104.665 99.1384 104.668C98.8304 104.668 98.5454 104.725 98.2924 104.836C98.0424 104.946 97.8254 105.106 97.6454 105.311C97.4645 105.521 97.3275 105.764 97.2424 106.028C97.1524 106.3 97.1054 106.598 97.1054 106.923C97.1054 107.212 97.1484 107.484 97.2344 107.731C97.3214 107.98 97.4464 108.202 97.6084 108.383C97.7694 108.568 97.9694 108.716 98.2054 108.824C98.4374 108.928 98.6984 108.979 98.9834 108.979C99.2164 108.979 99.4174 108.951 99.5964 108.895C99.7611 108.845 99.9179 108.772 100.062 108.678L100.14 108.617V107.728L99.9404 107.823C99.916 107.834 99.8905 107.843 99.8644 107.849C99.8144 107.866 99.7654 107.884 99.7364 107.898C99.7004 107.921 99.5094 107.988 99.5094 107.988C99.4494 108.012 99.3694 108.031 99.2914 108.047C99.0907 108.091 98.8811 108.072 98.6924 107.99C98.5743 107.94 98.4695 107.863 98.3864 107.765C98.2938 107.654 98.2241 107.527 98.1814 107.389C98.1288 107.218 98.1031 107.039 98.1054 106.86C98.1054 106.65 98.1334 106.461 98.1884 106.3C98.2424 106.142 98.3174 106.006 98.4084 105.9ZM110 102H106V101H110.5L111 101.5V107.5L110.5 108H103.879L105.95 110.071L105.243 110.778L102.354 107.889V107.182L105.243 104.293L105.95 105L103.95 107H110V102Z" fill="#424242"/>
<path d="M557.44 65H556.56L550 77.26L550.44 78H563.54L563.98 77.26L557.44 65ZM551.28 77L557 66.28L562.7 77H551.28ZM556.5 70H557.5V74H556.5V70ZM556.5 75H557.5V76H556.5V75Z" fill="#FFCC00"/>
<path d="M557.44 65H556.56L550 77.26L550.44 78H563.54L563.98 77.26L557.44 65ZM551.28 77L557 66.28L562.7 77H551.28ZM556.5 70H557.5V74H556.5V70ZM556.5 75H557.5V76H556.5V75Z" fill="#DDB100"/>
<path fill-rule="evenodd" clip-rule="evenodd" d="M587 103V101C587 99.3431 588.343 98 590 98C591.306 98 592.417 98.8348 592.829 100H593.874C593.43 98.2748 591.864 97 590 97C587.791 97 586 98.7909 586 101V103H585L584 104V110L585 111H595L596 110V104L595 103H594H593H592H587ZM593 104H594H595V110H585V104H586H587H593Z" fill="#424242"/>
<path fill-rule="evenodd" clip-rule="evenodd" d="M490 67H493V68H490V67ZM495 68H494V67C494 66.4477 493.552 66 493 66H490C489.448 66 489 66.4477 489 67V68H488H487H486V69H487V78L488 79H495L496 78V69H497V68H496H495ZM488 69V78H495V69H488ZM490 70H489V77H490V70ZM491 70H492V77H491V70ZM494 70H493V77H494V70Z" fill="#424242"/>
<path fill-rule="evenodd" clip-rule="evenodd" d="M523.405 102.252L525 97L526.595 102.252H532L527.627 105.652L529.25 111L525 107.695L520.75 111L522.373 105.652L518 102.252H523.405ZM525 106.032L525 106.032L526.915 107.522L526.184 105.112L528.099 103.623H525.732L525 101.213L525 101.213V106.032V106.032ZM525 98.5071L525 98.5071L525 98.5071V98.5071ZM530.652 102.722L530.652 102.722H526.28L526.28 102.722H530.652Z" fill="#D67E00"/>
<path fill-rule="evenodd" clip-rule="evenodd" d="M494.595 102.252L493 97L491.405 102.252H486L490.373 105.652L488.75 111L493 107.695L497.25 111L495.627 105.652L500 102.252H494.595Z" fill="#D67E00"/>
<path fill-rule="evenodd" clip-rule="evenodd" d="M461.595 102.252L460 97L458.405 102.252H453L457.373 105.652L455.75 111L460 107.695L464.25 111L462.627 105.652L467 102.252H461.595ZM454.348 102.722H458.72L460 98.5071L460 98.5071L458.72 102.722H454.348L454.348 102.722ZM457.885 105.472L456.578 109.777L456.579 109.777L457.885 105.472L457.885 105.472ZM465.652 102.722L465.652 102.722H461.28L461.28 102.722H465.652ZM456.901 103.623H459.268L460 101.213L460.732 103.623H463.099L461.184 105.112L461.915 107.522L460 106.032L458.085 107.522L458.816 105.112L456.901 103.623Z" fill="#424242"/>
<path fill-rule="evenodd" clip-rule="evenodd" d="M164 129L163 130V141L164 142H175L176 141V130L175 129H164ZM164 135V130H175V135H164ZM164 136V141H175V136H164Z" fill="#424242"/>
<path fill-rule="evenodd" clip-rule="evenodd" d="M209 130L208 129L197 129L196 130L196 141L197 142L208 142L209 141L209 130ZM203 130L208 130L208 141L203 141L203 130ZM202 130L197 130L197 141L202 141L202 130Z" fill="#424242"/>
<path fill-rule="evenodd" clip-rule="evenodd" d="M621 98L620 99V102H621V99H628V101.453L628.207 101.293L629 102.086V99L628 98H621ZM622 100H624V102H622V100ZM619 105H617V107H619V105ZM616 103L615 104V109L616 110H623L624 109V104L623 103H616ZM616 109V104H623V109H616ZM622 106H620V108H622V106ZM627 100H626V103.864L624.818 102.682L624.111 103.389L626.146 105.425L626.854 105.425L628.889 103.389L628.182 102.682L627 103.864V100Z" fill="#424242"/>
<path d="M1 108L1 107H10V108H1ZM1 103H15V104H1L1 103ZM12 99V100H1L1 99H12Z" fill="#424242"/>
<path fill-rule="evenodd" clip-rule="evenodd" d="M206.353 97.146L207.853 98.646L208 99V110.5L207.5 111H194.5L194 110.5V97.5L194.5 97H206L206.353 97.146ZM195 98V110H207V99.208L205.793 98H204V102H197V98H195ZM201 98V101H203V98H201Z" fill="#424242"/>
<path fill-rule="evenodd" clip-rule="evenodd" d="M368 99.5V102H370.151L370.634 102.629L368 109.629L367.516 110L363.743 110C363.996 109.693 364.217 109.358 364.4 109L367.133 109L369.5 103H363.743C363.525 102.736 363.282 102.492 363.019 102.273L363.146 102.146L363.5 102H367V100H361.5L361.146 99.854L360.293 99H356V102.257C355.621 102.571 355.284 102.934 355 103.337V98.5L355.5 98H360.5L360.854 98.146L361.707 99H367.5L368 99.5Z" fill="#424242"/>
<path d="M361 106.5C361 107.328 360.328 108 359.5 108C358.672 108 358 107.328 358 106.5C358 105.672 358.672 105 359.5 105C360.328 105 361 105.672 361 106.5Z" fill="#424242"/>
<path fill-rule="evenodd" clip-rule="evenodd" d="M363 106.5C363 108.433 361.433 110 359.5 110C357.567 110 356 108.433 356 106.5C356 104.567 357.567 103 359.5 103C361.433 103 363 104.567 363 106.5ZM359.5 109C360.881 109 362 107.881 362 106.5C362 105.119 360.881 104 359.5 104C358.119 104 357 105.119 357 106.5C357 107.881 358.119 109 359.5 109Z" fill="#424242"/>
<path fill-rule="evenodd" clip-rule="evenodd" d="M324.511 98L324.011 98.5V102.248C324.318 101.996 324.653 101.776 325.011 101.594V99H329.3L330.153 99.8528L330.506 99.9992H337.001V101.003H330.5L330.147 101.15L329.796 101.501C330.111 101.646 330.411 101.82 330.691 102.02L330.708 102.003H336.99V103.496H336.991V107.493H336.99V109.002H332.399C332.216 109.36 331.995 109.695 331.741 110.002H337.49L337.99 109.502V105.006L338.001 104.995V99.4992L337.501 98.9992H330.713L329.861 98.1464L329.507 98H324.511Z" fill="#424242"/>
<path d="M329 106.5C329 107.328 328.328 108 327.5 108C326.672 108 326 107.328 326 106.5C326 105.672 326.672 105 327.5 105C328.328 105 329 105.672 329 106.5Z" fill="#424242"/>
<path fill-rule="evenodd" clip-rule="evenodd" d="M331 106.5C331 108.433 329.433 110 327.5 110C325.567 110 324 108.433 324 106.5C324 104.567 325.567 103 327.5 103C329.433 103 331 104.567 331 106.5ZM327.5 109C328.881 109 330 107.881 330 106.5C330 105.119 328.881 104 327.5 104C326.119 104 325 105.119 325 106.5C325 107.881 326.119 109 327.5 109Z" fill="#424242"/>
<path fill-rule="evenodd" clip-rule="evenodd" d="M37.5625 66.5158C35.4635 67.4501 34 69.5542 34 72C34 75.3137 36.6863 78 40 78C43.3137 78 46 75.3137 46 72C46 69.3252 44.2497 67.0592 41.832 66.2849L41.5297 67.2383C43.5429 67.8846 45 69.7721 45 72C45 74.7614 42.7614 77 40 77C37.2386 77 35 74.7614 35 72C35 70.3111 35.8374 68.8177 37.1197 67.9125L37.5625 66.5158Z" fill="#424242"/>
<path fill-rule="evenodd" clip-rule="evenodd" d="M37 67H34V66H37.5L38 66.5V70H37V67Z" fill="#424242"/>
<path fill-rule="evenodd" clip-rule="evenodd" d="M110 132H99L99 139H110V132ZM99 131C98.4477 131 98 131.448 98 132V139C98 139.552 98.4477 140 99 140H110C110.552 140 111 139.552 111 139V132C111 131.448 110.552 131 110 131H99ZM100 133H101V134H100V133ZM103 133H102V134H103V133ZM104 133H105V134H104V133ZM107 133H106V134H107V133ZM108 133H109V134H108V133ZM102 136V135H100V136H102ZM103 135H104V136H103V135ZM106 135H105V136H106V135ZM109 135V136H107V135H109ZM101 137H100V138H101V137ZM102 137H107V138H102V137ZM109 137H108V138H109V137Z" fill="#424242"/>
<path fill-rule="evenodd" clip-rule="evenodd" d="M399 97H398V100H395V101H398V104H399V101H402V100H399V97ZM393 100.022C390.197 100.275 388 102.631 388 105.5C388 108.538 390.462 111 393.5 111C396.369 111 398.725 108.803 398.978 106H397.973C397.724 108.25 395.816 110 393.5 110C391.015 110 389 107.985 389 105.5C389 103.184 390.75 101.276 393 101.027V100.022ZM391.5 105C392.052 105 392.5 104.552 392.5 104C392.5 103.448 392.052 103 391.5 103C390.948 103 390.5 103.448 390.5 104C390.5 104.552 390.948 105 391.5 105ZM393.5 107.5C394.212 107.5 394.855 107.202 395.31 106.724L396.017 107.432C395.381 108.09 394.488 108.5 393.5 108.5C392.492 108.5 391.583 108.074 390.945 107.392L391.652 106.684C392.11 107.185 392.768 107.5 393.5 107.5ZM395.5 105C396.052 105 396.5 104.552 396.5 104C396.5 103.448 396.052 103 395.5 103C394.948 103 394.5 103.448 394.5 104C394.5 104.552 394.948 105 395.5 105Z" fill="#424242"/>
<path fill-rule="evenodd" clip-rule="evenodd" d="M66 130L65 131V141L66 142H78L79 141V131L78 130H66ZM66 141V131H78V141H66ZM76 133H68V134H76V133ZM67 132V135H77V132H67ZM71 137H67V136H71V137ZM67 140H71V139H67V140ZM76 137H74V139H76V137ZM73 136V140H77V136H73Z" fill="#424242"/>
<path fill-rule="evenodd" clip-rule="evenodd" d="M423 98V110.48L431.915 104.24L423 98ZM430.181 104.24L423.995 108.568V99.9121L430.181 104.24Z" fill="#424242"/>
<path fill-rule="evenodd" clip-rule="evenodd" d="M139.219 136.355C139.606 136.123 140.049 136 140.5 136C140.89 135.999 141.275 136.09 141.624 136.265C141.973 136.44 142.276 136.694 142.509 137.006C142.742 137.319 142.899 137.682 142.966 138.067C143.034 138.451 143.011 138.846 142.899 139.219C142.786 139.593 142.588 139.935 142.32 140.218C142.052 140.502 141.721 140.718 141.354 140.851C140.987 140.984 140.594 141.029 140.207 140.982C139.82 140.936 139.449 140.8 139.123 140.584L136.768 142.94L136.061 142.232L138.416 139.877C138.168 139.5 138.026 139.063 138.005 138.613C137.985 138.162 138.087 137.714 138.301 137.316C138.515 136.919 138.832 136.587 139.219 136.355ZM139.667 139.747C139.914 139.912 140.204 140 140.5 140C140.898 140 141.28 139.842 141.561 139.561C141.842 139.279 142 138.898 142 138.5C142 138.203 141.912 137.913 141.748 137.667C141.583 137.42 141.348 137.228 141.074 137.114C140.8 137.001 140.499 136.971 140.208 137.029C139.917 137.087 139.649 137.23 139.44 137.439C139.23 137.649 139.087 137.916 139.029 138.207C138.971 138.498 139.001 138.8 139.114 139.074C139.228 139.348 139.42 139.582 139.667 139.747Z" fill="#424242"/>
<path fill-rule="evenodd" clip-rule="evenodd" d="M141 129L142 130V135.336C141.683 135.186 141.346 135.085 141 135.035V130L136 130L136 140.879L134.878 142H130L129 141V130L130 129H141ZM137.708 142H137.708L138 141.708V141.708L137.708 142ZM141 138.517C141 138.512 141 138.506 141 138.5C141 138.494 141 138.488 141 138.483V138.517ZM130 130L135 130L135 141H130L130 130Z" fill="#424242"/>
<path d="M4 72C4 72.1978 3.94135 72.3911 3.83147 72.5556C3.72159 72.72 3.56541 72.8482 3.38268 72.9239C3.19996 72.9996 2.99889 73.0194 2.80491 72.9808C2.61093 72.9422 2.43275 72.847 2.29289 72.7071C2.15304 72.5673 2.0578 72.3891 2.01922 72.1951C1.98063 72.0011 2.00043 71.8 2.07612 71.6173C2.15181 71.4346 2.27998 71.2784 2.44443 71.1685C2.60888 71.0586 2.80222 71 3 71C3.26522 71 3.51957 71.1054 3.70711 71.2929C3.89464 71.4804 4 71.7348 4 72Z" fill="#424242"/>
<path d="M9 72C9 72.1978 8.94135 72.3911 8.83147 72.5556C8.72159 72.72 8.56541 72.8482 8.38268 72.9239C8.19996 72.9996 7.99889 73.0194 7.80491 72.9808C7.61093 72.9422 7.43275 72.847 7.29289 72.7071C7.15304 72.5673 7.0578 72.3891 7.01922 72.1951C6.98063 72.0011 7.00043 71.8 7.07612 71.6173C7.15181 71.4346 7.27998 71.2784 7.44443 71.1685C7.60888 71.0586 7.80222 71 8 71C8.26522 71 8.51957 71.1054 8.70711 71.2929C8.89464 71.4804 9 71.7348 9 72Z" fill="#424242"/>
<path d="M14 72C14 72.1978 13.9414 72.3911 13.8315 72.5556C13.7216 72.72 13.5654 72.8482 13.3827 72.9239C13.2 72.9996 12.9989 73.0194 12.8049 72.9808C12.6109 72.9422 12.4327 72.847 12.2929 72.7071C12.153 72.5673 12.0578 72.3891 12.0192 72.1951C11.9806 72.0011 12.0004 71.8 12.0761 71.6173C12.1518 71.4346 12.28 71.2784 12.4444 71.1685C12.6089 71.0586 12.8022 71 13 71C13.2652 71 13.5196 71.1054 13.7071 71.2929C13.8946 71.4804 14 71.7348 14 72Z" fill="#424242"/>
<path fill-rule="evenodd" clip-rule="evenodd" d="M561 101V103H555V101C555 99.3431 556.343 98 558 98C559.657 98 561 99.3431 561 101ZM554 103V101C554 98.7909 555.791 97 558 97C560.209 97 562 98.7909 562 101V103H563L564 104V110L563 111H553L552 110V104L553 103H554ZM553 110V104H554H555H561H562H563V110H553Z" fill="#424242"/>
<path d="M72 96.75C72.1719 96.75 72.3333 96.7839 72.4844 96.8516C72.6354 96.9141 72.7682 97.0026 72.8828 97.1172C72.9974 97.2318 73.0859 97.3646 73.1484 97.5156C73.2161 97.6667 73.25 97.8281 73.25 98C73.25 98.1719 73.2161 98.3333 73.1484 98.4844C73.0859 98.6354 72.9974 98.7682 72.8828 98.8828C72.7682 98.9974 72.6354 99.0885 72.4844 99.1562C72.3333 99.2188 72.1719 99.25 72 99.25C71.8281 99.25 71.6667 99.2188 71.5156 99.1562C71.3646 99.0885 71.2318 98.9974 71.1172 98.8828C71.0026 98.7682 70.9115 98.6354 70.8438 98.4844C70.7812 98.3333 70.75 98.1719 70.75 98C70.75 97.8281 70.7812 97.6667 70.8438 97.5156C70.9115 97.3646 71.0026 97.2318 71.1172 97.1172C71.2318 97.0026 71.3646 96.9141 71.5156 96.8516C71.6667 96.7839 71.8281 96.75 72 96.75ZM66.6328 99.7578C66.6328 99.6016 66.6615 99.4557 66.7188 99.3203C66.776 99.1849 66.8542 99.0677 66.9531 98.9688C67.0573 98.8646 67.1771 98.7839 67.3125 98.7266C67.4531 98.6641 67.6016 98.6328 67.7578 98.6328C67.9141 98.6328 68.0599 98.6641 68.1953 98.7266C68.3307 98.7839 68.4479 98.8646 68.5469 98.9688C68.651 99.0677 68.7318 99.1849 68.7891 99.3203C68.8516 99.4557 68.8828 99.6016 68.8828 99.7578C68.8828 99.9141 68.8516 100.062 68.7891 100.203C68.7318 100.339 68.651 100.458 68.5469 100.562C68.4479 100.661 68.3307 100.74 68.1953 100.797C68.0599 100.854 67.9141 100.883 67.7578 100.883C67.6016 100.883 67.4531 100.854 67.3125 100.797C67.1771 100.74 67.0573 100.661 66.9531 100.562C66.8542 100.458 66.776 100.339 66.7188 100.203C66.6615 100.062 66.6328 99.9141 66.6328 99.7578ZM66 103C66.1406 103 66.2708 103.026 66.3906 103.078C66.5104 103.13 66.6146 103.203 66.7031 103.297C66.7969 103.385 66.8698 103.49 66.9219 103.609C66.974 103.729 67 103.859 67 104C67 104.141 66.974 104.271 66.9219 104.391C66.8698 104.51 66.7969 104.617 66.7031 104.711C66.6146 104.799 66.5104 104.87 66.3906 104.922C66.2708 104.974 66.1406 105 66 105C65.8594 105 65.7292 104.974 65.6094 104.922C65.4896 104.87 65.3828 104.799 65.2891 104.711C65.2005 104.617 65.1302 104.51 65.0781 104.391C65.026 104.271 65 104.141 65 104C65 103.859 65.026 103.729 65.0781 103.609C65.1302 103.49 65.2005 103.385 65.2891 103.297C65.3828 103.203 65.4896 103.13 65.6094 103.078C65.7292 103.026 65.8594 103 66 103ZM66.8828 108.242C66.8828 108.122 66.9062 108.01 66.9531 107.906C67 107.797 67.0625 107.703 67.1406 107.625C67.2188 107.547 67.3099 107.484 67.4141 107.438C67.5234 107.391 67.638 107.367 67.7578 107.367C67.8776 107.367 67.9896 107.391 68.0938 107.438C68.2031 107.484 68.2969 107.547 68.375 107.625C68.4531 107.703 68.5156 107.797 68.5625 107.906C68.6094 108.01 68.6328 108.122 68.6328 108.242C68.6328 108.362 68.6094 108.477 68.5625 108.586C68.5156 108.69 68.4531 108.781 68.375 108.859C68.2969 108.938 68.2031 109 68.0938 109.047C67.9896 109.094 67.8776 109.117 67.7578 109.117C67.638 109.117 67.5234 109.094 67.4141 109.047C67.3099 109 67.2188 108.938 67.1406 108.859C67.0625 108.781 67 108.69 66.9531 108.586C66.9062 108.477 66.8828 108.362 66.8828 108.242ZM72 109.25C72.2083 109.25 72.3854 109.323 72.5312 109.469C72.6771 109.615 72.75 109.792 72.75 110C72.75 110.208 72.6771 110.385 72.5312 110.531C72.3854 110.677 72.2083 110.75 72 110.75C71.7917 110.75 71.6146 110.677 71.4688 110.531C71.3229 110.385 71.25 110.208 71.25 110C71.25 109.792 71.3229 109.615 71.4688 109.469C71.6146 109.323 71.7917 109.25 72 109.25ZM75.6172 108.242C75.6172 108.065 75.6771 107.917 75.7969 107.797C75.9167 107.677 76.0651 107.617 76.2422 107.617C76.4193 107.617 76.5677 107.677 76.6875 107.797C76.8073 107.917 76.8672 108.065 76.8672 108.242C76.8672 108.419 76.8073 108.568 76.6875 108.688C76.5677 108.807 76.4193 108.867 76.2422 108.867C76.0651 108.867 75.9167 108.807 75.7969 108.688C75.6771 108.568 75.6172 108.419 75.6172 108.242ZM78 103.5C78.1354 103.5 78.2526 103.549 78.3516 103.648C78.4505 103.747 78.5 103.865 78.5 104C78.5 104.135 78.4505 104.253 78.3516 104.352C78.2526 104.451 78.1354 104.5 78 104.5C77.8646 104.5 77.7474 104.451 77.6484 104.352C77.5495 104.253 77.5 104.135 77.5 104C77.5 103.865 77.5495 103.747 77.6484 103.648C77.7474 103.549 77.8646 103.5 78 103.5ZM76.2422 98.3828C76.4297 98.3828 76.6068 98.4193 76.7734 98.4922C76.9401 98.5651 77.0859 98.6641 77.2109 98.7891C77.3359 98.9141 77.4349 99.0599 77.5078 99.2266C77.5807 99.3932 77.6172 99.5703 77.6172 99.7578C77.6172 99.9453 77.5807 100.122 77.5078 100.289C77.4349 100.456 77.3359 100.602 77.2109 100.727C77.0859 100.852 76.9401 100.951 76.7734 101.023C76.6068 101.096 76.4297 101.133 76.2422 101.133C76.0547 101.133 75.8776 101.096 75.7109 101.023C75.5443 100.951 75.3984 100.852 75.2734 100.727C75.1484 100.602 75.0495 100.456 74.9766 100.289C74.9036 100.122 74.8672 99.9453 74.8672 99.7578C74.8672 99.5703 74.9036 99.3932 74.9766 99.2266C75.0495 99.0599 75.1484 98.9141 75.2734 98.7891C75.3984 98.6641 75.5443 98.5651 75.7109 98.4922C75.8776 98.4193 76.0547 98.3828 76.2422 98.3828Z" fill="#424242"/>
<path fill-rule="evenodd" clip-rule="evenodd" d="M134 98.9836V98.9718V98H133.911C133.597 98 133.294 98.0616 133.001 98.1847C132.708 98.308 132.449 98.4847 132.226 98.715C132.003 98.9442 131.838 99.195 131.733 99.4677L131.732 99.469C131.634 99.7352 131.568 100.012 131.535 100.299L131.535 100.301C131.507 100.581 131.499 100.868 131.511 101.164C131.523 101.454 131.529 101.743 131.529 102.033C131.529 102.236 131.49 102.426 131.412 102.605L131.412 102.606C131.337 102.783 131.234 102.939 131.103 103.074C130.976 103.204 130.825 103.311 130.647 103.392C130.471 103.47 130.285 103.508 130.089 103.508H130V103.6V104.4V104.492H130.089C130.285 104.492 130.47 104.532 130.646 104.613L130.647 104.614C130.825 104.692 130.976 104.798 131.102 104.932L131.104 104.934C131.234 105.064 131.337 105.219 131.411 105.399L131.412 105.401C131.49 105.58 131.529 105.769 131.529 105.967C131.529 106.257 131.523 106.546 131.511 106.836C131.499 107.132 131.507 107.422 131.535 107.705L131.535 107.707C131.568 107.99 131.634 108.265 131.732 108.531L131.733 108.532C131.838 108.805 132.003 109.056 132.226 109.285C132.449 109.515 132.708 109.692 133.001 109.815C133.294 109.938 133.597 110 133.911 110H134V109.2V109.016H133.911C133.711 109.016 133.523 108.978 133.348 108.901C133.174 108.819 133.022 108.713 132.891 108.582C132.764 108.447 132.661 108.291 132.582 108.114C132.508 107.935 132.471 107.744 132.471 107.541C132.471 107.313 132.475 107.089 132.483 106.869C132.491 106.641 132.491 106.42 132.483 106.204C132.479 105.982 132.461 105.769 132.428 105.563C132.395 105.35 132.339 105.148 132.26 104.955C132.181 104.762 132.073 104.577 131.936 104.403C131.823 104.259 131.685 104.125 131.523 104C131.685 103.875 131.823 103.741 131.936 103.597C132.073 103.423 132.181 103.238 132.26 103.045C132.339 102.853 132.395 102.652 132.428 102.443C132.461 102.233 132.479 102.02 132.483 101.802C132.491 101.583 132.491 101.361 132.483 101.137C132.475 100.913 132.471 100.687 132.471 100.459C132.471 100.26 132.508 100.072 132.582 99.8921C132.661 99.7103 132.764 99.5548 132.891 99.4244C133.022 99.2894 133.175 99.1827 133.348 99.1051C133.524 99.0243 133.711 98.9836 133.911 98.9836H134ZM138 109.016V109.028V110H138.089C138.403 110 138.706 109.938 138.999 109.815C139.292 109.692 139.551 109.515 139.774 109.285C139.997 109.056 140.162 108.805 140.267 108.532L140.268 108.531C140.366 108.265 140.432 107.988 140.465 107.701L140.465 107.699C140.493 107.42 140.501 107.132 140.489 106.836C140.477 106.546 140.471 106.257 140.471 105.967C140.471 105.764 140.51 105.574 140.588 105.395L140.588 105.394C140.663 105.217 140.766 105.061 140.897 104.926C141.024 104.796 141.175 104.689 141.353 104.608C141.529 104.53 141.715 104.492 141.911 104.492H142V104.4V103.6V103.508H141.911C141.715 103.508 141.53 103.468 141.354 103.387L141.353 103.386C141.175 103.308 141.024 103.202 140.898 103.068L140.896 103.066C140.766 102.936 140.663 102.781 140.589 102.601L140.588 102.599C140.51 102.42 140.471 102.231 140.471 102.033C140.471 101.743 140.477 101.454 140.489 101.164C140.501 100.868 140.493 100.578 140.465 100.295L140.465 100.293C140.432 100.01 140.366 99.735 140.268 99.469L140.267 99.4677C140.162 99.195 139.997 98.9442 139.774 98.715C139.551 98.4847 139.292 98.308 138.999 98.1847C138.706 98.0616 138.403 98 138.089 98H138V98.8V98.9836H138.089C138.289 98.9836 138.477 99.0223 138.652 99.0992C138.826 99.1809 138.978 99.2874 139.109 99.4182C139.236 99.5531 139.339 99.7089 139.418 99.8863C139.492 100.065 139.529 100.256 139.529 100.459C139.529 100.687 139.525 100.911 139.517 101.131C139.509 101.359 139.509 101.58 139.517 101.796C139.521 102.018 139.539 102.231 139.572 102.437C139.605 102.65 139.661 102.852 139.74 103.045C139.819 103.238 139.927 103.423 140.064 103.597C140.177 103.741 140.315 103.875 140.477 104C140.315 104.125 140.177 104.259 140.064 104.403C139.927 104.577 139.819 104.762 139.74 104.955C139.661 105.147 139.605 105.348 139.572 105.557C139.539 105.767 139.521 105.98 139.517 106.198C139.509 106.417 139.509 106.639 139.517 106.863C139.525 107.087 139.529 107.313 139.529 107.541C139.529 107.74 139.492 107.928 139.418 108.108C139.339 108.29 139.236 108.445 139.109 108.576C138.978 108.711 138.825 108.817 138.652 108.895C138.476 108.976 138.289 109.016 138.089 109.016H138Z" fill="#424242"/>
<path fill-rule="evenodd" clip-rule="evenodd" d="M590.453 66.0283C591.807 66.1625 593.076 66.769 594.042 67.7481C595.15 68.8731 595.776 70.4012 595.778 71.9983C595.779 73.3901 595.304 74.7372 594.437 75.8101C593.57 76.8828 592.366 77.6147 591.032 77.8847C589.698 78.1547 588.312 77.9472 587.11 77.296C585.908 76.6446 584.962 75.5884 584.437 74.3044C583.912 73.0201 583.842 71.5898 584.239 70.2583C584.636 68.927 585.474 67.7798 586.608 67.0098C587.741 66.2401 589.1 65.8941 590.453 66.0283ZM590.552 65.0332C592.14 65.1906 593.625 65.9018 594.754 67.0458C596.048 68.3594 596.776 70.1401 596.778 71.9976C596.779 73.617 596.226 75.1864 595.215 76.4385C594.203 77.6907 592.795 78.5482 591.23 78.8648C589.666 79.1815 588.041 78.9378 586.634 78.1752C585.227 77.4127 584.123 76.1784 583.512 74.6828C582.9 73.1871 582.819 71.5225 583.281 69.9726C583.743 68.4227 584.72 67.0833 586.046 66.1827C587.372 65.282 588.964 64.8758 590.552 65.0332ZM589.5 69V70L590.5 70V69H589.5ZM589.5 71L589.5 75H590.5L590.5 71L589.5 71Z" fill="#007ACC"/>
<path fill-rule="evenodd" clip-rule="evenodd" d="M235.061 131.854L232.914 134L232.207 133.293L233.5 132H230.5C230.102 132 229.721 132.158 229.439 132.439C229.158 132.721 229 133.102 229 133.5C229 133.898 229.158 134.279 229.439 134.561C229.721 134.842 230.102 135 230.5 135H231V136H230.5C229.837 136 229.201 135.737 228.732 135.268C228.263 134.799 228 134.163 228 133.5C228 132.837 228.263 132.201 228.732 131.732C229.201 131.263 229.837 131 230.5 131H233.5L233.5 131H233.5L233 130.5V130.5L232.207 129.707L232.914 129L235.061 131.146L235.061 131.854ZM232 134.5L232.914 135.414L233 135.328V142H241V135H237V131H236.061V130.732L235.328 130H238.2L238.5 130.1L241.9 133.6L242 134V142.5L241.5 143H232.5L232 142.5V137V134.5ZM238 131V134H240.903L238 131Z" fill="#424242"/>
<path d="M525.1 68.4L524.6 66H523.4L522.9 68.4L522.2 68.7L520.2 67.4L519.3 68.2L520.6 70.2L520.4 70.9L518 71.4V72.6L520.4 73.1L520.7 73.9L519.4 75.9L520.2 76.7L522.2 75.4L523 75.7L523.4 78H524.6L525.1 75.6L525.9 75.3L527.9 76.6L528.7 75.8L527.4 73.8L527.7 73L530 72.6V71.4L527.6 70.9L527.3 70.1L528.6 68.1L527.8 67.3L525.8 68.6L525.1 68.4ZM525.4 65L525.9 67.4L528 66.1L530 68.1L528.6 70.2L531 70.6V73.4L528.6 73.9L530 76L528 78L525.9 76.6L525.4 79H522.6L522.1 76.6L520 77.9L518 75.9L519.4 73.8L517 73.4V70.6L519.4 70.1L518.1 68L520.1 66L522.2 67.4L522.6 65H525.4ZM526 72C526 73.1 525.1 74 524 74C522.9 74 522 73.1 522 72C522 70.9 522.9 70 524 70C525.1 70 526 70.9 526 72ZM524 73C524.6 73 525 72.6 525 72C525 71.4 524.6 71 524 71C523.4 71 523 71.4 523 72C523 72.6 523.4 73 524 73Z" fill="#424242"/>
<path fill-rule="evenodd" clip-rule="evenodd" d="M304 102V99.5L303.5 99H297.707L296.854 98.146L296.5 98H291.5L291 98.5V109.5L291.5 110L291.025 109.342L291.096 109.128L291.025 109.342L291.5 110L303.516 110L304 109.629L306.634 102.629L306.151 102H304ZM303 102V100H297.5L297.146 99.854L296.293 99H292V106.417L293.025 103.342L293.5 103H298.293L299.146 102.146L299.5 102H303ZM292.193 109L303.133 109L305.5 103H299.707L298.854 103.854L298.5 104H293.86L292.193 109Z" fill="#424242"/>
<path fill-rule="evenodd" clip-rule="evenodd" d="M260.011 98.5L260.511 98H265.507L265.861 98.1464L266.713 98.9992H273.501L274.001 99.4992V104.995L273.99 105.006V109.502L273.49 110.002H260.5L260 109.502V102.507L260.011 102.496V98.5ZM273.001 99.9992V101.003H266.501L266.147 101.15L265.289 102.007H261.011V99H265.3L266.153 99.8528L266.506 99.9992H273.001ZM265.496 103.007H261.011V103.496H261V107.493H261V109.002H272.99V107.493H272.991V103.496H272.99V102.003H266.708L265.85 102.861L265.496 103.007Z" fill="#424242"/>
<path d="M38 108V107H42V108H38ZM36 103H44V104H36V103ZM46 99V100H34V99H46Z" fill="#424242"/>
<path fill-rule="evenodd" clip-rule="evenodd" d="M230 97L229 98V110L230 111H239L240 110V101L239.707 100.293L236.707 97.2929L236 97H230ZM230 110V98L235 98V102H239V110H230ZM239 101L236 98V101L239 101Z" fill="#424242"/>
<path fill-rule="evenodd" clip-rule="evenodd" d="M622.453 66.0283C623.807 66.1625 625.076 66.769 626.042 67.7481C627.15 68.8731 627.776 70.4012 627.778 71.9983C627.779 73.3901 627.304 74.7372 626.437 75.8101C625.57 76.8828 624.366 77.6147 623.032 77.8847C621.698 78.1547 620.312 77.9472 619.11 77.296C617.908 76.6446 616.962 75.5884 616.437 74.3044C615.912 73.0201 615.842 71.5898 616.239 70.2583C616.636 68.927 617.474 67.7798 618.608 67.0098C619.741 66.2401 621.1 65.8941 622.453 66.0283ZM622.552 65.0332C624.14 65.1906 625.625 65.9018 626.754 67.0458C628.048 68.3594 628.776 70.1401 628.778 71.9976C628.779 73.617 628.226 75.1864 627.215 76.4385C626.203 77.6907 624.795 78.5482 623.23 78.8648C621.666 79.1815 620.041 78.9378 618.634 78.1752C617.227 77.4127 616.123 76.1784 615.512 74.6828C614.9 73.1871 614.819 71.5225 615.281 69.9726C615.743 68.4227 616.72 67.0833 618.046 66.1827C619.372 65.282 620.964 64.8758 622.552 65.0332ZM619.443 69L621.882 71.4751L624.32 69L625.017 69.7071L622.578 72.1822L625.017 74.6569L624.32 75.364L621.882 72.8893L619.444 75.364L618.747 74.6569L621.185 72.1822L618.747 69.7071L619.443 69Z" fill="#A31515"/>
<path fill-rule="evenodd" clip-rule="evenodd" d="M161 109.593L162.407 111L166.532 108.643L166.75 108.477L175 100.226V98.7679L173.232 97H171.774L163.523 105.25L163.357 105.468L161 109.593ZM165.372 108.079L162.407 109.593L163.921 106.628L165.372 108.079ZM166.238 107.53L174.271 99.4971L172.503 97.7292L164.47 105.762L166.238 107.53Z" fill="#424242"/>
<path d="M8 132C8.36719 132 8.72135 132.048 9.0625 132.145C9.40365 132.238 9.72135 132.372 10.0156 132.547C10.3125 132.721 10.582 132.931 10.8242 133.176C11.069 133.418 11.2786 133.688 11.4531 133.984C11.6276 134.279 11.7617 134.596 11.8555 134.938C11.9518 135.279 12 135.633 12 136C12 136.367 11.9518 136.721 11.8555 137.063C11.7617 137.404 11.6276 137.723 11.4531 138.02C11.2786 138.314 11.069 138.583 10.8242 138.828C10.582 139.07 10.3125 139.279 10.0156 139.453C9.72135 139.628 9.40365 139.763 9.0625 139.859C8.72135 139.953 8.36719 140 8 140C7.63281 140 7.27865 139.953 6.9375 139.859C6.59635 139.763 6.27734 139.628 5.98047 139.453C5.6862 139.279 5.41667 139.07 5.17188 138.828C4.92969 138.583 4.72135 138.314 4.54688 138.02C4.3724 137.723 4.23698 137.404 4.14063 137.063C4.04688 136.721 4 136.367 4 136C4 135.633 4.04688 135.279 4.14063 134.938C4.23698 134.596 4.3724 134.279 4.54688 133.984C4.72135 133.688 4.92969 133.418 5.17188 133.176C5.41667 132.931 5.6862 132.721 5.98047 132.547C6.27734 132.372 6.59635 132.238 6.9375 132.145C7.27865 132.048 7.63281 132 8 132Z" fill="#424242"/>
<path fill-rule="evenodd" clip-rule="evenodd" d="M40 140C42.2091 140 44 138.209 44 136C44 133.791 42.2091 132 40 132C37.7909 132 36 133.791 36 136C36 138.209 37.7909 140 40 140ZM42.6093 136C42.6093 137.441 41.4411 138.609 40 138.609C38.5589 138.609 37.3907 137.441 37.3907 136C37.3907 134.559 38.5589 133.391 40 133.391C41.4411 133.391 42.6093 134.559 42.6093 136ZM40 133.246C41.5209 133.246 42.7539 134.479 42.7539 136C42.7539 136 42.7539 136 42.7539 136C42.7539 134.479 41.5209 133.246 40 133.246Z" fill="#424242"/>
<path d="M73 73H68V74H73V73Z" fill="#424242"/>
<path fill-rule="evenodd" clip-rule="evenodd" d="M69 67L70 66H77L78 67V74L77 75H75V77L74 78H67L66 77V70L67 69H69V67ZM70 69H74L75 70V74H77V67H70V69ZM74 70H67V77H74V70Z" fill="#424242"/>
<path fill-rule="evenodd" clip-rule="evenodd" d="M104.621 72.0858L103.914 71.3787L102.5 72.7929L101.086 71.3787L100.379 72.0858L101.793 73.5L100.379 74.9142L101.086 75.6213L102.5 74.2071L103.914 75.6213L104.621 74.9142L103.207 73.5L104.621 72.0858Z" fill="#424242"/>
<path fill-rule="evenodd" clip-rule="evenodd" d="M101 67L102 66H109L110 67V74L109 75H107V77L106 78H99L98 77V70L99 69H101V67ZM102 69H106L107 70V74H109V67H102V69ZM106 70H99V77H106V70Z" fill="#424242"/>
<path fill-rule="evenodd" clip-rule="evenodd" d="M168 72.7071L171.646 76.3535L172.354 75.6464L168.707 72L172.354 68.3535L171.646 67.6464L168 71.2929L164.354 67.6464L163.646 68.3535L167.293 72L163.646 75.6464L164.354 76.3535L168 72.7071Z" fill="#424242"/>
<path d="M138 76.6L138.7 77.3L140.3 75.7L141.9 77.3L142.7 76.6L141 75L142.7 73.4L141.9 72.6L140.3 74.3L138.7 72.6L138 73.4L139.6 75L138 76.6Z" fill="#424242"/>
<path d="M129 68L143 68L143 67L129 67L129 68Z" fill="#424242"/>
<path d="M129 71L143 71L143 70L129 70L129 71Z" fill="#424242"/>
<path d="M137 73.5L137 73L129 73L129 74L137 74L137 73.5Z" fill="#424242"/>
<path d="M137 77L137 76.5L137 76L129 76L129 77L137 77Z" fill="#424242"/>
<path fill-rule="evenodd" clip-rule="evenodd" d="M299 70.0404L294.02 75.0202L293.313 74.3131L298.646 68.9798L299.354 68.9798L304.687 74.3131L303.98 75.0202L299 70.0404Z" fill="#424242"/>
<path d="M264.7 77.7L264 77L268.6 72.4L264 67.7L264.7 67L269.7 72V72.7L264.7 77.7Z" fill="#424242"/>
<path fill-rule="evenodd" clip-rule="evenodd" d="M328.928 71.976L333.285 76.3333L332.667 76.952L328 72.2854V71.6666L332.667 67L333.285 67.6187L328.928 71.976Z" fill="#424242"/>
<path fill-rule="evenodd" clip-rule="evenodd" d="M233.976 74.0719L238.333 69.7146L238.952 70.3333L234.285 75L233.667 75L229 70.3333L229.619 69.7146L233.976 74.0719Z" fill="#424242"/>
<path fill-rule="evenodd" clip-rule="evenodd" d="M368.854 70.2929L363.854 65.2929H363.146L358.146 70.2929L358.854 71L363 66.8536V79.0607H364V66.8536L368.146 71L368.854 70.2929Z" fill="#424242"/>
<path fill-rule="evenodd" clip-rule="evenodd" d="M390.146 73.7678L395.146 78.7678L395.854 78.7678L400.854 73.7678L400.146 73.0607L396 77.2071L396 65L395 65L395 77.2071L390.854 73.0607L390.146 73.7678Z" fill="#424242"/>
<path fill-rule="evenodd" clip-rule="evenodd" d="M429 77.7071L434 72.7071L434 72L429 67L428.293 67.7071L432.439 71.8535L420.232 71.8535L420.232 72.8535L432.439 72.8535L428.293 77L429 77.7071Z" fill="#424242"/>
<path fill-rule="evenodd" clip-rule="evenodd" d="M457 67.2929L452 72.2929L452 73L457 78L457.707 77.2929L453.561 73.1465L465.768 73.1465L465.768 72.1465L453.561 72.1465L457.707 68L457 67.2929Z" fill="#424242"/>
<path d="M207 71V72H201V78H200V72H194V71H200V65H201V71H207Z" fill="#424242"/>
<path d="M19.9176 13.6562C19.4318 9.625 16.3807 7.30682 12.3409 7.30682C7.73011 7.30682 4.21023 10.5625 4.21023 16.2727C4.21023 21.9659 7.67045 25.2386 12.3409 25.2386C16.8153 25.2386 19.517 22.2642 19.9176 19.0511L16.1847 19.0341C15.8352 20.9006 14.3693 21.9744 12.4006 21.9744C9.75 21.9744 7.9517 20.0057 7.9517 16.2727C7.9517 12.642 9.72443 10.571 12.4261 10.571C14.446 10.571 15.9034 11.7386 16.1847 13.6562H19.9176ZM28.2905 25.2557C32.2621 25.2557 34.7337 22.5369 34.7337 18.5057C34.7337 14.4489 32.2621 11.7386 28.2905 11.7386C24.3189 11.7386 21.8473 14.4489 21.8473 18.5057C21.8473 22.5369 24.3189 25.2557 28.2905 25.2557ZM28.3076 22.4432C26.4752 22.4432 25.5377 20.7642 25.5377 18.4801C25.5377 16.196 26.4752 14.5085 28.3076 14.5085C30.1059 14.5085 31.0434 16.196 31.0434 18.4801C31.0434 20.7642 30.1059 22.4432 28.3076 22.4432ZM36.9745 25H40.6052V17.142C40.6052 15.6932 41.5256 14.7301 42.7359 14.7301C43.929 14.7301 44.7302 15.5483 44.7302 16.8352V25H48.2501V17.0057C48.2501 15.6506 49.0256 14.7301 50.3466 14.7301C51.5057 14.7301 52.3751 15.4545 52.3751 16.9119V25H55.9972V16.196C55.9972 13.358 54.3097 11.7386 51.8722 11.7386C49.9546 11.7386 48.4631 12.7188 47.9262 14.2188H47.7898C47.3722 12.7017 46.0341 11.7386 44.2359 11.7386C42.4716 11.7386 41.1336 12.6761 40.5881 14.2188H40.4347V11.9091H36.9745V25ZM58.7451 25H62.3758V17.142C62.3758 15.6932 63.2962 14.7301 64.5065 14.7301C65.6997 14.7301 66.5008 15.5483 66.5008 16.8352V25H70.0207V17.0057C70.0207 15.6506 70.7962 14.7301 72.1173 14.7301C73.2764 14.7301 74.1457 15.4545 74.1457 16.9119V25H77.7678V16.196C77.7678 13.358 76.0803 11.7386 73.6428 11.7386C71.7252 11.7386 70.2337 12.7188 69.6968 14.2188H69.5605C69.1428 12.7017 67.8048 11.7386 66.0065 11.7386C64.2423 11.7386 62.9042 12.6761 62.3587 14.2188H62.2053V11.9091H58.7451V25ZM86.4305 25.2557C90.4021 25.2557 92.8737 22.5369 92.8737 18.5057C92.8737 14.4489 90.4021 11.7386 86.4305 11.7386C82.4589 11.7386 79.9873 14.4489 79.9873 18.5057C79.9873 22.5369 82.4589 25.2557 86.4305 25.2557ZM86.4476 22.4432C84.6152 22.4432 83.6777 20.7642 83.6777 18.4801C83.6777 16.196 84.6152 14.5085 86.4476 14.5085C88.2458 14.5085 89.1833 16.196 89.1833 18.4801C89.1833 20.7642 88.2458 22.4432 86.4476 22.4432ZM98.7452 17.4318C98.7537 15.7443 99.7594 14.7557 101.225 14.7557C102.683 14.7557 103.561 15.7102 103.552 17.3125V25H107.183V16.6648C107.183 13.6136 105.393 11.7386 102.666 11.7386C100.722 11.7386 99.3162 12.6932 98.7281 14.2188H98.5747V11.9091H95.1145V25H98.7452V17.4318Z" fill="black" fill-opacity="0.9"/>
</svg>
