<svg width="16" height="16" viewBox="0 0 16 16" fill="none" xmlns="http://www.w3.org/2000/svg">
<path fill-rule="evenodd" clip-rule="evenodd" d="M4.00024 11.29L5.00024 10.29V11.71L3.85024 12.85L3.00024 12.5V10H1.50024L1.00024 9.5V1.5L1.50024 1H13.5002L14.0002 1.5V6H13.0002V2H2.00024V9H3.50024L4.00024 9.5V11.29ZM10.2902 13L12.1502 14.85L13.0002 14.5V13H14.5002L15.0002 12.5V7.5L14.5002 7H6.50024L6.00024 7.5V12.5L6.50024 13H10.2902ZM10.5002 12H7.00024V8H14.0002V12H12.5002L12.0002 12.5V13.29L10.8502 12.15L10.5002 12Z" fill="#424242"/>
</svg>
