<svg width="16" height="16" viewBox="0 0 16 16" fill="none" xmlns="http://www.w3.org/2000/svg">
<path fill-rule="evenodd" clip-rule="evenodd" d="M9.88468 1.69445L8.57248 3H11.346C11.5656 3 11.783 3.04327 11.9858 3.12733C12.1886 3.2114 12.3729 3.33461 12.5281 3.48993C12.6833 3.64525 12.8063 3.82962 12.8902 4.03252C12.9741 4.23542 13.0172 4.45287 13.017 4.67243L12.517 4.672H13.017V4.67243V10.4539C13.8823 10.6794 14.521 11.4661 14.521 12.402C14.521 13.5138 13.6198 14.415 12.508 14.415C11.3963 14.415 10.495 13.5138 10.495 12.402C10.495 11.4596 11.1426 10.6685 12.017 10.4493V4.672V4.67157C12.0171 4.58341 11.9998 4.49609 11.9661 4.41462C11.9324 4.33314 11.883 4.2591 11.8207 4.19673C11.7584 4.13436 11.6844 4.08489 11.6029 4.05113C11.5215 4.01737 11.4342 4 11.346 4H8.53859L9.83835 5.34332L9.11969 6.03868L7.00069 3.84868L7.00737 3.14655L9.17937 0.985546L9.88468 1.69445ZM11.495 12.402C11.495 11.8425 11.9486 11.389 12.508 11.389C13.0675 11.389 13.521 11.8425 13.521 12.402C13.521 12.9615 13.0675 13.415 12.508 13.415C11.9486 13.415 11.495 12.9615 11.495 12.402ZM2.49902 3.513C2.49902 2.95354 2.95256 2.5 3.51202 2.5C4.07149 2.5 4.52502 2.95354 4.52502 3.513C4.52502 4.07246 4.07149 4.526 3.51202 4.526C2.95256 4.526 2.49902 4.07246 2.49902 3.513ZM3.51202 1.5C2.40027 1.5 1.49902 2.40125 1.49902 3.513C1.49902 4.44782 2.13625 5.23382 3.00002 5.46031V11.307C3.00002 11.7502 3.17607 12.1752 3.48945 12.4886C3.80282 12.802 4.22785 12.978 4.67102 12.978H7.44815L6.13545 14.2835L6.84059 14.9925L9.01259 12.8325L9.01943 12.1304L6.90043 9.93939L6.18161 10.6346L7.48088 11.978H4.67102C4.49306 11.978 4.32239 11.9073 4.19655 11.7815C4.07072 11.6556 4.00002 11.485 4.00002 11.307V5.46644C4.87597 5.24833 5.52502 4.45646 5.52502 3.513C5.52502 2.40125 4.62377 1.5 3.51202 1.5Z" fill="#424242"/>
</svg>
