<svg width="16" height="16" viewBox="0 0 16 16" fill="none" xmlns="http://www.w3.org/2000/svg">
<path fill-rule="evenodd" clip-rule="evenodd" d="M14.0002 5V6H2.00024V5H14.0002ZM2.00024 7H14.0002V12H2.00024V7ZM14.0002 4H2.00024C1.73503 4 1.48067 4.10536 1.29314 4.29289C1.1056 4.48043 1.00024 4.73478 1.00024 5V12C1.00024 12.2652 1.1056 12.5196 1.29314 12.7071C1.48067 12.8946 1.73503 13 2.00024 13H14.0002C14.2655 13 14.5198 12.8946 14.7074 12.7071C14.8949 12.5196 15.0002 12.2652 15.0002 12V5C15.0002 4.73478 14.8949 4.48043 14.7074 4.29289C14.5198 4.10536 14.2655 4 14.0002 4ZM11.0002 10H13.0002V11H11.0002V10Z" fill="#424242"/>
</svg>
