<svg width="16" height="16" viewBox="0 0 16 16" fill="none" xmlns="http://www.w3.org/2000/svg">
<path fill-rule="evenodd" clip-rule="evenodd" d="M3.88904 2.09545C4.95796 1.38122 6.21467 1 7.50025 1C9.22415 1 10.8775 1.68482 12.0964 2.90381C13.3154 4.12279 14.0002 5.77609 14.0002 7.5C14.0002 8.78558 13.619 10.0423 12.9048 11.1112C12.1906 12.1801 11.1754 13.0132 9.98769 13.5052C8.79997 13.9972 7.49304 14.1259 6.23216 13.8751C4.97128 13.6243 3.81309 13.0052 2.90405 12.0962C1.99501 11.1872 1.37595 10.029 1.12514 8.76809C0.874339 7.50721 1.00306 6.20028 1.49503 5.01256C1.987 3.82484 2.82012 2.80968 3.88904 2.09545ZM4.44461 12.0731C5.34908 12.6774 6.41245 13 7.50025 13C8.95845 12.9984 10.3565 12.4184 11.3876 11.3873C12.4187 10.3562 12.9987 8.9582 13.0002 7.5C13.0002 6.4122 12.6777 5.34883 12.0733 4.44436C11.469 3.53989 10.61 2.83494 9.60501 2.41866C8.60001 2.00238 7.49415 1.89346 6.42725 2.10568C5.36035 2.3179 4.38035 2.84172 3.61116 3.61091C2.84197 4.3801 2.31815 5.36011 2.10593 6.427C1.89371 7.4939 2.00263 8.59977 2.41891 9.60476C2.83519 10.6098 3.54014 11.4687 4.44461 12.0731ZM10.2934 4L11.0004 4.707L8.85043 6.857C9.0056 7.17915 9.04174 7.54583 8.95245 7.89208C8.86316 8.23833 8.65419 8.5418 8.36257 8.74874C8.07096 8.95567 7.71551 9.05271 7.35919 9.02266C7.00288 8.99261 6.6687 8.83742 6.41585 8.58457C6.16301 8.33173 6.00782 7.99755 5.97777 7.64123C5.94772 7.28492 6.04476 6.92947 6.25169 6.63785C6.45862 6.34623 6.76209 6.13727 7.10834 6.04798C7.45459 5.95868 7.82127 5.99483 8.14343 6.15L10.2934 4ZM7.22264 7.91573C7.30487 7.97068 7.40154 8 7.50043 8C7.63304 8 7.76021 7.94732 7.85398 7.85355C7.94775 7.75979 8.00043 7.63261 8.00043 7.5C8.00043 7.40111 7.9711 7.30444 7.91616 7.22221C7.86122 7.13999 7.78313 7.0759 7.69177 7.03806C7.60041 7.00022 7.49987 6.99031 7.40288 7.00961C7.30589 7.0289 7.2168 7.07652 7.14687 7.14645C7.07695 7.21637 7.02933 7.30546 7.01003 7.40245C6.99074 7.49945 7.00064 7.59998 7.03849 7.69134C7.07633 7.7827 7.14042 7.86079 7.22264 7.91573ZM11.5082 5.46704L10.7452 6.23004C10.9114 6.63296 10.998 7.06422 11.0002 7.50004C10.9974 8.1267 10.8246 8.74086 10.5002 9.27704L11.2352 10.012C11.6832 9.34822 11.945 8.57638 11.9932 7.77698C12.0414 6.97757 11.8743 6.17988 11.5092 5.46704H11.5082ZM8.73309 4.24196C8.34088 4.08478 7.92262 4.00269 7.50009 3.99996C6.57183 3.99996 5.68159 4.36871 5.02522 5.02509C4.36884 5.68147 4.00009 6.57171 4.00009 7.49996C4.0029 8.12663 4.17571 8.74078 4.50009 9.27696L3.76609 10.012C3.21374 9.18819 2.94901 8.20502 3.01306 7.21528C3.0771 6.22554 3.46633 5.28468 4.12025 4.53897C4.77416 3.79326 5.65611 3.28446 6.62901 3.09169C7.6019 2.89891 8.61123 3.03295 9.50009 3.47296L8.73309 4.24196Z" fill="#424242"/>
</svg>
