<svg width="16" height="16" viewBox="0 0 16 16" fill="none" xmlns="http://www.w3.org/2000/svg">
<path d="M13.0002 3.5C13.0002 2.119 10.7612 1 8.00024 1C5.23924 1 3.00024 2.119 3.00024 3.5C3.00024 3.54 3.02024 3.577 3.02424 3.617H3.00024V12.489L3.05624 12.846C3.33624 14.056 5.42924 15 8.00024 15C10.5712 15 12.6642 14.056 12.9442 12.846L13.0002 12.489V3.617H12.9762C12.9802 3.577 13.0002 3.54 13.0002 3.5ZM8.00024 2.032C10.4422 2.032 12.0002 2.996 12.0002 3.5C12.0002 4.004 10.4422 4.968 8.00024 4.968C5.55824 4.968 4.00024 4 4.00024 3.5C4.00024 3 5.55824 2.032 8.00024 2.032ZM12.0002 12.49L11.9702 12.621C11.8552 13.116 10.4312 14 8.00024 14C5.56924 14 4.14524 13.116 4.03024 12.621L4.00024 12.49V4.99C5.21117 5.69833 6.59821 6.04855 8.00024 6C9.40267 6.04734 10.7897 5.69572 12.0002 4.986V12.486V12.49Z" fill="#424242"/>
</svg>
