<svg width="16" height="16" viewBox="0 0 16 16" fill="none" xmlns="http://www.w3.org/2000/svg">
<path fill-rule="evenodd" clip-rule="evenodd" d="M1.75021 5.75V1.75H3.25021V4.2916C4.39521 2.93303 6.16119 2.08334 8.09104 2.08334C11.267 2.08334 14.0108 4.39036 14.2495 7.48075L14.2703 7.75H12.7692L12.7473 7.5241C12.5348 5.32932 10.5451 3.58334 8.09104 3.58334C6.35498 3.58334 4.84739 4.45925 4.04146 5.75H6.87033V7.25H2.7082L1.74673 6.27493V5.75H1.75021ZM8.00021 14C6.89564 14 6.00021 13.1046 6.00021 12C6.00021 10.8954 6.89564 10 8.00021 10C9.10478 10 10.0002 10.8954 10.0002 12C10.0002 13.1046 9.10478 14 8.00021 14Z" fill="#007ACC"/>
</svg>
