<svg width="16" height="16" viewBox="0 0 16 16" fill="none" xmlns="http://www.w3.org/2000/svg">
<path fill-rule="evenodd" clip-rule="evenodd" d="M5.77796 4.67407C6.43576 4.23455 7.20913 4 8.00025 4C9.06112 4 10.0785 4.42149 10.8287 5.17163C11.5788 5.92178 12.0003 6.93913 12.0003 8C12.0003 8.79113 11.7656 9.56449 11.3261 10.2223C10.8866 10.8801 10.2619 11.3928 9.53101 11.6956C8.80011 11.9983 7.99584 12.0774 7.21992 11.9231C6.44399 11.7688 5.73123 11.3878 5.17182 10.8284C4.61241 10.269 4.23144 9.55632 4.07709 8.7804C3.92275 8.00447 4.00201 7.20014 4.30476 6.46924C4.60751 5.73833 5.12017 5.1136 5.77796 4.67407ZM6.47242 10.2865C6.92465 10.5887 7.45635 10.75 8.00025 10.75C8.7296 10.75 9.42905 10.4603 9.94477 9.94458C10.4605 9.42885 10.7503 8.72935 10.7503 8C10.7503 7.4561 10.589 6.9244 10.2868 6.47217C9.98464 6.01993 9.55512 5.66749 9.05262 5.45935C8.55012 5.25121 7.9972 5.19675 7.46375 5.30286C6.93031 5.40897 6.44033 5.67083 6.05573 6.05542C5.67114 6.44001 5.40922 6.93005 5.30311 7.4635C5.197 7.99695 5.25146 8.54987 5.4596 9.05237C5.66774 9.55486 6.02018 9.98432 6.47242 10.2865ZM9.50024 6.5H6.50024V7.5H9.50024V6.5ZM9.50024 8.5H6.50024V9.5H9.50024V8.5Z" fill="#848484"/>
</svg>
