<svg width="16" height="16" viewBox="0 0 16 16" fill="none" xmlns="http://www.w3.org/2000/svg">
<path fill-rule="evenodd" clip-rule="evenodd" d="M11.3261 10.2222C11.7656 9.56436 12.0002 8.791 12.0002 7.99988C12.0004 7.47455 11.897 6.95435 11.696 6.46898C11.4951 5.98362 11.2004 5.5426 10.829 5.17114C10.4575 4.79968 10.0165 4.50505 9.53114 4.30408C9.04578 4.10311 8.52557 3.99974 8.00025 3.99988C7.20912 3.99988 6.43576 4.23447 5.77796 4.674C5.12017 5.11353 4.60748 5.73824 4.30473 6.46914C4.00198 7.20005 3.92276 8.00431 4.0771 8.78024C4.23145 9.55616 4.61241 10.2689 5.17182 10.8283C5.73123 11.3877 6.44396 11.7687 7.21988 11.923C7.99581 12.0774 8.80007 11.9981 9.53098 11.6954C10.2619 11.3926 10.8866 10.88 11.3261 10.2222ZM8.65024 9.99988H7.40024V10.9999H8.65024V9.99988ZM7.40024 8.99988V4.99988H8.65024V8.99988H7.40024Z" fill="#E51400"/>
</svg>
