<svg width="16" height="16" viewBox="0 0 16 16" fill="none" xmlns="http://www.w3.org/2000/svg">
<path d="M10.0002 7.99988C10.0002 8.39544 9.88296 8.78206 9.6632 9.11096C9.44343 9.43986 9.13107 9.69628 8.76561 9.84766C8.40016 9.99903 7.99806 10.0386 7.6101 9.96143C7.22213 9.88426 6.86575 9.69377 6.58605 9.41406C6.30634 9.13436 6.11586 8.77798 6.03869 8.39001C5.96151 8.00205 6.00108 7.59995 6.15245 7.2345C6.30383 6.86904 6.56025 6.55668 6.88915 6.33691C7.21805 6.11715 7.60467 5.99988 8.00023 5.99988C8.53067 5.99988 9.03934 6.21062 9.41442 6.58569C9.78949 6.96077 10.0002 7.46944 10.0002 7.99988Z" fill="#E51400"/>
</svg>
