<svg width="16" height="16" viewBox="0 0 16 16" fill="none" xmlns="http://www.w3.org/2000/svg">
<path fill-rule="evenodd" clip-rule="evenodd" d="M13.6174 3.84363C13.5172 3.52917 13.3668 3.23979 13.1663 2.97546L14.5198 1.61511L13.9045 0.999878L12.5442 2.35339C12.2799 2.15287 11.9905 2.00248 11.676 1.90222C11.3661 1.7974 11.0448 1.745 10.7122 1.745C10.3066 1.745 9.91463 1.82247 9.53638 1.97742C9.16268 2.13236 8.83228 2.35339 8.54517 2.6405L7.00024 4.19226L11.3274 8.51941L12.8792 6.97449C13.1663 6.68738 13.3873 6.35697 13.5422 5.98328C13.6972 5.60502 13.7747 5.21309 13.7747 4.8075C13.7747 4.47481 13.7222 4.15352 13.6174 3.84363ZM12.7288 5.64832C12.6194 5.91264 12.4622 6.14734 12.2571 6.35242L11.3274 7.2821L8.23755 4.19226L9.16724 3.26257C9.37231 3.0575 9.60701 2.90027 9.87134 2.79089C10.1402 2.67696 10.4205 2.62 10.7122 2.62C11.0129 2.62 11.2955 2.67924 11.5598 2.79773C11.8241 2.91166 12.0543 3.06889 12.2502 3.26941C12.4508 3.46537 12.608 3.69552 12.7219 3.95984C12.8404 4.22416 12.8997 4.50671 12.8997 4.8075C12.8997 5.09916 12.8427 5.37944 12.7288 5.64832ZM7.90454 10.6415L9.38794 9.09656L8.77271 8.47449L7.28247 10.0262L5.4231 8.16687L6.91333 6.61511L6.29126 5.99988L4.80786 7.5448L4.19263 6.92957L2.64087 8.47449C2.35376 8.7616 2.13273 9.09428 1.97778 9.47253C1.82284 9.84623 1.74536 10.2359 1.74536 10.6415C1.74536 10.9742 1.79549 11.2977 1.89575 11.6122C2.00057 11.9221 2.15324 12.2092 2.35376 12.4735L1.00024 13.8339L1.61548 14.4491L2.97583 13.0956C3.24015 13.2961 3.52726 13.4488 3.83716 13.5536C4.15161 13.6538 4.47518 13.704 4.80786 13.704C5.21346 13.704 5.60311 13.6265 5.97681 13.4716C6.35506 13.3166 6.68774 13.0956 6.97485 12.8085L8.51978 11.2567L7.90454 10.6415ZM5.64185 12.6649C5.37752 12.7743 5.09953 12.829 4.80786 12.829C4.50708 12.829 4.22225 12.772 3.95337 12.6581C3.68905 12.5441 3.45662 12.3892 3.2561 12.1932C3.06014 11.9927 2.90519 11.7603 2.79126 11.496C2.67733 11.2271 2.62036 10.9423 2.62036 10.6415C2.62036 10.3498 2.67505 10.0718 2.78442 9.8075C2.89836 9.53861 3.05786 9.30164 3.26294 9.09656L4.19263 8.16687L7.28247 11.2567L6.35278 12.1864C6.14771 12.3915 5.91073 12.551 5.64185 12.6649Z" fill="#A1260D"/>
</svg>
