<svg width="16" height="16" viewBox="0 0 16 16" fill="none" xmlns="http://www.w3.org/2000/svg">
<path fill-rule="evenodd" clip-rule="evenodd" d="M10.7072 3H14.5002L15.0002 3.5V12.5L14.5002 13H1.50024L1.00024 12.5V3.5L1.50024 3H5.29324L6.14624 2.146L6.50024 2H9.50024L9.85424 2.146L10.7072 3ZM2.00024 12H14.0002V4H10.5002L10.1462 3.854L9.29324 3H6.70724L5.85424 3.854L5.50024 4H2.00024V12ZM3.50024 5C3.40135 5 3.30468 5.02932 3.22246 5.08427C3.14023 5.13921 3.07615 5.2173 3.0383 5.30866C3.00046 5.40002 2.99056 5.50055 3.00985 5.59755C3.02914 5.69454 3.07676 5.78363 3.14669 5.85355C3.21662 5.92348 3.30571 5.9711 3.4027 5.99039C3.49969 6.00969 3.60022 5.99978 3.69159 5.96194C3.78295 5.9241 3.86104 5.86001 3.91598 5.77779C3.97092 5.69556 4.00024 5.59889 4.00024 5.5C4.00024 5.36739 3.94757 5.24021 3.8538 5.14645C3.76003 5.05268 3.63285 5 3.50024 5ZM8.00025 6C8.39581 6 8.78249 6.1173 9.11139 6.33706C9.44028 6.55682 9.69663 6.86918 9.848 7.23463C9.99938 7.60009 10.039 8.00222 9.96182 8.39018C9.88465 8.77814 9.69416 9.13451 9.41446 9.41421C9.13475 9.69392 8.77839 9.8844 8.39043 9.96157C8.00246 10.0387 7.60033 9.99913 7.23488 9.84776C6.86943 9.69638 6.55707 9.44004 6.33731 9.11114C6.11754 8.78224 6.00025 8.39556 6.00025 8C6.00025 7.46957 6.21096 6.96086 6.58603 6.58579C6.9611 6.21071 7.46981 6 8.00025 6ZM8.00025 5C7.4069 5 6.82688 5.17595 6.33353 5.50559C5.84019 5.83524 5.45567 6.30377 5.22861 6.85195C5.00154 7.40013 4.94213 8.00333 5.05789 8.58527C5.17365 9.16721 5.45937 9.70176 5.87893 10.1213C6.29848 10.5409 6.83303 10.8266 7.41497 10.9424C7.99692 11.0581 8.60012 10.9987 9.1483 10.7716C9.69647 10.5446 10.165 10.1601 10.4947 9.66671C10.8243 9.17336 11.0002 8.59334 11.0002 8C11.0002 7.20435 10.6842 6.44129 10.1216 5.87868C9.55896 5.31607 8.79589 5 8.00025 5Z" fill="#424242"/>
</svg>
