<svg width="16" height="16" viewBox="0 0 16 16" fill="none" xmlns="http://www.w3.org/2000/svg">
<path d="M4.00024 8C4.00024 8.19778 3.9416 8.39112 3.83171 8.55557C3.72183 8.72002 3.56565 8.84819 3.38293 8.92388C3.2002 8.99957 2.99914 9.01937 2.80515 8.98079C2.61117 8.9422 2.43299 8.84696 2.29314 8.70711C2.15329 8.56725 2.05804 8.38907 2.01946 8.19509C1.98087 8.00111 2.00068 7.80004 2.07637 7.61732C2.15205 7.43459 2.28023 7.27841 2.44467 7.16853C2.60912 7.05865 2.80246 7 3.00024 7C3.26546 7 3.51982 7.10536 3.70735 7.29289C3.89489 7.48043 4.00024 7.73478 4.00024 8Z" fill="#424242"/>
<path d="M9.00024 8C9.00024 8.19778 8.9416 8.39112 8.83171 8.55557C8.72183 8.72002 8.56565 8.84819 8.38293 8.92388C8.2002 8.99957 7.99914 9.01937 7.80515 8.98079C7.61117 8.9422 7.43299 8.84696 7.29314 8.70711C7.15329 8.56725 7.05804 8.38907 7.01946 8.19509C6.98087 8.00111 7.00068 7.80004 7.07637 7.61732C7.15205 7.43459 7.28023 7.27841 7.44467 7.16853C7.60912 7.05865 7.80246 7 8.00024 7C8.26546 7 8.51981 7.10536 8.70735 7.29289C8.89489 7.48043 9.00024 7.73478 9.00024 8Z" fill="#424242"/>
<path d="M14.0002 8C14.0002 8.19778 13.9416 8.39112 13.8317 8.55557C13.7218 8.72002 13.5657 8.84819 13.3829 8.92388C13.2002 8.99957 12.9991 9.01937 12.8052 8.98079C12.6112 8.9422 12.433 8.84696 12.2931 8.70711C12.1533 8.56725 12.058 8.38907 12.0195 8.19509C11.9809 8.00111 12.0007 7.80004 12.0764 7.61732C12.1521 7.43459 12.2802 7.27841 12.4447 7.16853C12.6091 7.05865 12.8025 7 13.0002 7C13.2655 7 13.5198 7.10536 13.7074 7.29289C13.8949 7.48043 14.0002 7.73478 14.0002 8Z" fill="#424242"/>
</svg>
