<svg width="16" height="16" viewBox="0 0 16 16" fill="none" xmlns="http://www.w3.org/2000/svg">
<path fill-rule="evenodd" clip-rule="evenodd" d="M8.45343 2.02828C9.80704 2.16246 11.0756 2.76898 12.042 3.74809C13.15 4.87311 13.7761 6.4012 13.7783 7.99826C13.7787 9.39013 13.3035 10.7372 12.4367 11.8101C11.5701 12.8828 10.3663 13.6147 9.03203 13.8847C7.69795 14.1547 6.31235 13.9472 5.11046 13.296C3.90823 12.6446 2.96238 11.5884 2.43746 10.3044C1.91244 9.02005 1.84218 7.58981 2.23914 6.25829C2.63605 4.92697 3.47444 3.77978 4.60785 3.00985C5.74092 2.24014 7.09982 1.8941 8.45343 2.02828ZM8.55208 1.03316C10.1399 1.19055 11.6249 1.90184 12.754 3.04585C14.0479 4.35938 14.7759 6.14013 14.7783 7.99764C14.7788 9.61695 14.2262 11.1864 13.2146 12.4385C12.203 13.6907 10.795 14.5482 9.23041 14.8648C7.66583 15.1815 6.04148 14.9378 4.63407 14.1752C3.22666 13.4127 2.12325 12.1784 1.51182 10.6828C0.900389 9.18708 0.818755 7.52251 1.28082 5.97259C1.74289 4.42268 2.72009 3.08331 4.04593 2.18265C5.37177 1.28199 6.96425 0.875761 8.55208 1.03316ZM5.44332 5L7.88179 7.47506L10.3203 5L11.0169 5.70711L8.57845 8.18217L11.0166 10.6569L10.3199 11.364L7.88179 8.88927L5.44369 11.364L4.74703 10.6569L7.18514 8.18217L4.74667 5.70711L5.44332 5Z" fill="#A31515"/>
</svg>
