<svg width="16" height="16" viewBox="0 0 16 16" fill="none" xmlns="http://www.w3.org/2000/svg">
<path fill-rule="evenodd" clip-rule="evenodd" d="M9.4118 1L6.58869 1.00002L6.1042 3.42254L4.04862 2.05215L2.05238 4.04839L3.42277 6.10396L1.00024 6.58846V9.41156L3.42277 9.89606L2.05239 11.9516L4.04862 13.9479L6.10419 12.5775L6.58869 15H8.67158C8.3177 14.7136 8.00811 14.3747 7.75471 13.9951H7.41256L7.12429 12.5537C7.09794 12.4439 7.07562 12.3325 7.05748 12.2197L6.94093 11.6369L6.17763 11.3207L4.17667 12.6547L3.34556 11.8236L4.67953 9.82263L4.36334 9.05932L2.0052 8.5877V7.41232L4.36334 6.94069L4.67952 6.17739L3.34555 4.17643L4.17667 3.34532L6.17761 4.67928L6.94093 4.36313L7.41256 2.00497L8.58793 2.00496L9.05956 4.36311L9.82287 4.67927L11.8238 3.3453L12.6549 4.17642L11.321 6.17737L11.6371 6.94069L12.2196 7.05719C12.3326 7.07535 12.4442 7.09771 12.5542 7.12411L13.9953 7.41232V7.75447C14.3749 8.00786 14.7139 8.31745 15.0002 8.67133V6.58846L12.5777 6.10396L13.9481 4.04837L11.9519 2.05214L9.89629 3.42252L9.4118 1ZM8.00024 6C8.85944 6 9.5921 6.54179 9.87521 7.30237C9.55583 7.42609 9.25409 7.58522 8.97481 7.77493C8.87271 7.33103 8.47514 7 8.00024 7C7.44796 7 7.00024 7.44772 7.00024 8C7.00024 8.47489 7.33127 8.87247 7.77517 8.97457C7.58546 9.25385 7.42634 9.55558 7.30261 9.87496C6.54203 9.59185 6.00024 8.8592 6.00024 8C6.00024 6.89543 6.89567 6 8.00024 6ZM9.27969 8.79462C9.90559 8.28088 10.6903 8.00006 11.5 8C11.9596 7.99997 12.4148 8.09047 12.8394 8.26634C13.2641 8.44221 13.65 8.7 13.975 9.025C14.5476 9.59754 14.904 10.3509 14.9834 11.1568C15.0628 11.9626 14.8603 12.771 14.4105 13.4443C13.9607 14.1176 13.2913 14.6141 12.5164 14.8492C11.7416 15.0843 10.9092 15.0435 10.1611 14.7337C9.41293 14.4238 8.79539 13.8642 8.41363 13.1501C8.03188 12.436 7.90954 11.6116 8.06746 10.8174C8.22538 10.0232 8.65378 9.30836 9.27969 8.79462ZM9 11V12H14V11H9Z" fill="#424242"/>
</svg>
