<svg width="624" height="80" viewBox="0 0 624 80" fill="none" xmlns="http://www.w3.org/2000/svg">
<path fill-rule="evenodd" clip-rule="evenodd" d="M111 67V75.5L110.5 76H108V78.5L107.5 79H97.5L97 78.5V68.5L97.5 68H99.985V65.5L100.485 65H109L109.353 65.147L110.853 66.647L111 67ZM108 70V75H110V67.206L108.793 66H100.985V68H106L106.353 68.146L107.853 69.646L108 70ZM107 78H98V69H99V72.0714H105V69H105.793L107 70.208V78ZM104 69H102V71H104V69Z" fill="#424242"/>
<path fill-rule="evenodd" clip-rule="evenodd" d="M7 67H4V64H3V67H0V68H3V71H4V68H7V67ZM13.9 68.6L10.5 65.1L10.2 65H5V66H9V70H13V77H4V72H3V77.5L3.5 78H9H13.5L14 77.5V69L13.9 68.6ZM12.9032 69L10 66V69H12.9032Z" fill="#424242"/>
<path d="M79 70.5L78.5302 70H71V65.4698L70.5302 65H65.4698L65 65.4698V73.5302L65.4698 74H68V78.5302L68.4698 79H78.5302L79 78.5302V70.5ZM66 73V67H70V73H66ZM78 78H69V74H70.5302L71 73.5302V72.0134H78V78Z" fill="#424242"/>
<path fill-rule="evenodd" clip-rule="evenodd" d="M40 67H37V64H36V67H33V68H36V71H37V68H40V67ZM38.5 71H38V70H38.3L39.1 69.1L39.5 69H47V68H41V67H47.5L48 67.5V77.5L47.5 78H34.5L34 77.5V70.5V70V69H35V70V70.5V77H47V71V70H39.7L38.9 70.9L38.5 71Z" fill="#424242"/>
<path d="M1.51705 25H13.3125V21.9574H5.20739V17.7898H12.6733V14.7472H5.20739V10.5881H13.2784V7.54545H1.51705V25ZM19.0583 11.9091H15.3083L19.0583 18.4545L15.1719 25H18.9219L21.4617 20.4744L24.0441 25H27.7514L23.8566 18.4545L27.6492 11.9091H23.9247L21.4617 16.4858L19.0583 11.9091ZM29.6854 29.9091H33.3161V22.9034H33.4269C33.9297 23.9943 35.0292 25.2131 37.1428 25.2131C40.1258 25.2131 42.4525 22.8523 42.4525 18.4716C42.4525 13.9716 40.0235 11.7386 37.1513 11.7386C34.961 11.7386 33.9127 13.0426 33.4269 14.108H33.265V11.9091H29.6854V29.9091ZM33.2394 18.4545C33.2394 16.1193 34.228 14.6278 35.9922 14.6278C37.7905 14.6278 38.7451 16.1875 38.7451 18.4545C38.7451 20.7386 37.7735 22.3239 35.9922 22.3239C34.2451 22.3239 33.2394 20.7898 33.2394 18.4545ZM48.3836 7.54545H44.7529V25H48.3836V7.54545ZM57.0868 25.2557C61.0584 25.2557 63.5299 22.5369 63.5299 18.5057C63.5299 14.4489 61.0584 11.7386 57.0868 11.7386C53.1152 11.7386 50.6436 14.4489 50.6436 18.5057C50.6436 22.5369 53.1152 25.2557 57.0868 25.2557ZM57.1038 22.4432C55.2714 22.4432 54.3339 20.7642 54.3339 18.4801C54.3339 16.196 55.2714 14.5085 57.1038 14.5085C58.9021 14.5085 59.8396 16.196 59.8396 18.4801C59.8396 20.7642 58.9021 22.4432 57.1038 22.4432ZM65.7707 25H69.4014V17.5938C69.4014 15.983 70.5776 14.875 72.1798 14.875C72.6827 14.875 73.373 14.9602 73.7139 15.071V11.8494C73.3901 11.7727 72.9384 11.7216 72.5719 11.7216C71.106 11.7216 69.9043 12.5739 69.427 14.1932H69.2906V11.9091H65.7707V25ZM80.8276 25.2557C84.0662 25.2557 86.248 23.679 86.7594 21.25L83.4014 21.0284C83.035 22.0256 82.0975 22.5455 80.8872 22.5455C79.0719 22.5455 77.9213 21.3438 77.9213 19.392V19.3835H86.8361V18.3864C86.8361 13.9375 84.1429 11.7386 80.6827 11.7386C76.8304 11.7386 74.3333 14.4744 74.3333 18.5142C74.3333 22.6648 76.7963 25.2557 80.8276 25.2557ZM77.9213 17.1335C77.998 15.642 79.1316 14.4489 80.7424 14.4489C82.3191 14.4489 83.41 15.5739 83.4185 17.1335H77.9213ZM89.0854 25H92.7161V17.5938C92.7161 15.983 93.8922 14.875 95.4945 14.875C95.9974 14.875 96.6877 14.9602 97.0286 15.071V11.8494C96.7047 11.7727 96.253 11.7216 95.8866 11.7216C94.4207 11.7216 93.219 12.5739 92.7417 14.1932H92.6053V11.9091H89.0854V25Z" fill="black" fill-opacity="0.9"/>
</svg>
