<svg width="24" height="24" viewBox="0 0 24 24" fill="none" xmlns="http://www.w3.org/2000/svg">
<g clip-path="url(#clip0)">
<path fill-rule="evenodd" clip-rule="evenodd" d="M13.5002 1.5L15.0002 0H22.5002L24.0002 1.5V9L22.5002 10.5H15.0002L13.5002 9V1.5ZM15.0002 1.5V9H22.5002V1.5H15.0002ZM0.000244141 15V6L1.50024 4.5H9.00024L10.5002 6V13.5H18.0002L19.5002 15V22.5L18.0002 24H10.5002H9.00024H1.50024L0.000244141 22.5V15ZM9.00024 13.5V6H1.50024V13.5H9.00024ZM9.00024 15H1.50024V22.5H9.00024V15ZM10.5002 22.5H18.0002V15H10.5002V22.5Z" fill="#424242"/>
</g>
<defs>
<clipPath id="clip0">
<rect width="24" height="24" fill="white" transform="translate(0.000244141)"/>
</clipPath>
</defs>
</svg>
