<svg width="16" height="16" viewBox="0 0 16 16" fill="none" xmlns="http://www.w3.org/2000/svg">
<path fill-rule="evenodd" clip-rule="evenodd" d="M13.8502 4.44L10.5702 1.14L10.2202 1H2.50024L2.00024 1.5V7H3.00024V2H9.00024V5.5L9.50024 6H13.0002V7H14.0002V4.8L13.8502 4.44ZM10.0002 5V2L13.0002 5H10.0002ZM2.50024 8L2.00024 8.5V14.5L2.50024 15H13.5002L14.0002 14.5V8.5L13.5002 8H2.50024ZM13.0002 13V14H3.00024V9H13.0002V13ZM5.00024 12H4.68024V13H4.00024V10H5.06024C5.81024 10 6.19024 10.36 6.19024 11C6.19218 11.136 6.16457 11.2708 6.10932 11.3951C6.05407 11.5195 5.9725 11.6303 5.87024 11.72C5.62242 11.9132 5.31421 12.0124 5.00024 12ZM4.94024 10.55H4.68024V11.48H4.94024C5.30024 11.48 5.48024 11.32 5.48024 11.01C5.48024 10.7 5.30024 10.55 4.94024 10.55ZM9.00024 12.58C9.14793 12.4345 9.26341 12.2597 9.33921 12.0667C9.41501 11.8738 9.44943 11.6671 9.44024 11.46C9.44024 10.46 8.91024 10 7.84024 10H6.78024V13H7.84024C8.05177 13.0102 8.26323 12.9784 8.46235 12.9063C8.66148 12.8342 8.84431 12.7233 9.00024 12.58ZM7.45024 12.45V10.55H7.78024C7.90779 10.5419 8.03565 10.5599 8.156 10.6029C8.27636 10.6459 8.38669 10.7129 8.48024 10.8C8.565 10.889 8.63085 10.9943 8.67382 11.1094C8.71678 11.2246 8.73598 11.3472 8.73024 11.47C8.74522 11.7336 8.65535 11.9924 8.48024 12.19C8.38869 12.2776 8.28038 12.3458 8.1618 12.3905C8.04323 12.4352 7.91684 12.4554 7.79024 12.45H7.45024ZM11.9002 11.84H10.9302V13H10.2502V10H11.9902V10.55H10.9302V11.29H11.9002V11.84Z" fill="#424242"/>
</svg>
