<svg width="16" height="16" viewBox="0 0 16 16" fill="none" xmlns="http://www.w3.org/2000/svg">
<path fill-rule="evenodd" clip-rule="evenodd" d="M10.5702 1.14L13.8502 4.44L14.0002 4.8V14.5L13.5002 15H2.50024L2.00024 14.5V1.5L2.50024 1H10.2202L10.5702 1.14ZM3.00024 2V14H13.0002V5L10.0002 2H3.00024ZM4.45972 6.05176C4.45972 7.33903 4.91805 7.98267 5.83472 7.98267C6.29126 7.98267 6.64128 7.809 6.88477 7.46167C7.13005 7.11434 7.25269 6.61483 7.25269 5.96313C7.25269 4.65438 6.80509 4 5.90991 4C5.43905 4 5.07918 4.17546 4.83032 4.52637C4.58325 4.87549 4.45972 5.38395 4.45972 6.05176ZM5.32178 6.03027C5.32178 5.10824 5.50529 4.64722 5.87231 4.64722C6.21606 4.64722 6.38794 5.09481 6.38794 5.98999C6.38794 6.88517 6.21248 7.33276 5.86157 7.33276C5.50171 7.33276 5.32178 6.8986 5.32178 6.03027ZM8.50879 7.91553H10.9446V7.24414H10.1523V4L8.4873 4.33569V5.02319L9.3064 4.84595V7.24414H8.50879V7.91553ZM7.17212 12.9155H4.73633V12.2441H5.53394V9.84595L4.71484 10.0232V9.33569L6.37988 9V12.2441H7.17212V12.9155ZM8.20728 10.9846C8.20728 12.2719 8.66561 12.9155 9.58228 12.9155C10.0388 12.9155 10.3888 12.7419 10.6323 12.3945C10.8776 12.0472 11.0002 11.5477 11.0002 10.896C11.0002 9.58724 10.5527 8.93286 9.65747 8.93286C9.1866 8.93286 8.82674 9.10832 8.57788 9.45923C8.33081 9.80835 8.20728 10.3168 8.20728 10.9846ZM9.06934 10.9631C9.06934 10.0411 9.25285 9.58008 9.61987 9.58008C9.96362 9.58008 10.1355 10.0277 10.1355 10.9229C10.1355 11.818 9.96004 12.2656 9.60913 12.2656C9.24927 12.2656 9.06934 11.8315 9.06934 10.9631Z" fill="#424242"/>
</svg>
