<svg width="16" height="16" viewBox="0 0 16 16" fill="none" xmlns="http://www.w3.org/2000/svg">
<path fill-rule="evenodd" clip-rule="evenodd" d="M7.71027 3H14.5002L15.0103 3.5V9V13.5L14.5103 14H1.51025L1.01025 13.5V6.5V2.5L1.51025 2H6.51025L6.86023 2.15002L7.71027 3ZM13.9902 13V11.49L14.0002 7.48999V5.98999H7.70026L6.84027 6.84998L6.49023 7H2.00024V7.48999V11.49V13H13.9902ZM7.49023 5H13.9902L14.0002 4.01001H7.50024L7.14026 3.85999L6.29022 3.01001H2.00024V6.01001H6.28027L7.14026 5.15002L7.49023 5ZM9.7803 9.06995L8.42025 7.69995L9.16024 7.01001L11.3803 9.22998V9.93994L9.09029 12.15L8.39028 11.4301L9.79025 10.08H8.42025C7.90876 10.103 7.4256 10.3213 7.07027 10.6899C6.89813 10.8612 6.76243 11.0656 6.67135 11.2908C6.58027 11.5159 6.53565 11.7572 6.54025 12H5.54025C5.53402 11.6293 5.60256 11.2612 5.74172 10.9176C5.88089 10.574 6.08783 10.2619 6.35024 10C6.87463 9.44728 7.58967 9.11474 8.35024 9.06995H9.7803Z" fill="#424242"/>
</svg>
