<svg width="16" height="16" viewBox="0 0 16 16" fill="none" xmlns="http://www.w3.org/2000/svg">
<path fill-rule="evenodd" clip-rule="evenodd" d="M10.5702 1.14L13.8502 4.44L14.0002 4.8V14.5L13.5002 15H10.0002V14H13.0002V6H9.50024L9.00024 5.5V2H3.00024V6H2.00024V1.5L2.50024 1H10.2202L10.5702 1.14ZM10.0002 5H13.0002L10.0002 2V5ZM8.50024 7H1.50024L1.00024 7.5V14.5L1.50024 15H8.50024L9.00024 14.5V7.5L8.50024 7ZM8.00024 14H2.00024V8H8.00024V14ZM7.00024 9.5V12.5H6.00024V10.707L3.35424 13.354L2.64624 12.646L5.29324 10H3.53024V9H6.50024L7.00024 9.5Z" fill="#424242"/>
</svg>
