<svg width="16" height="16" viewBox="0 0 16 16" fill="none" xmlns="http://www.w3.org/2000/svg">
<path fill-rule="evenodd" clip-rule="evenodd" d="M2.00024 2H8.00024V5.5L8.50024 6H12.0002V7H13.0002V4.8L12.8502 4.44L9.57024 1.14L9.22024 1H1.50024L1.00024 1.5V14.5L1.50024 15H5.00024V14H2.00024V2ZM9.00024 2L12.0002 5H9.00024V2ZM14.5002 8H6.50024L6.00024 8.5V14.5L6.50024 15H14.5002L15.0002 14.5V8.5L14.5002 8ZM14.0002 9V13L12.3702 11.4H11.6602L10.5002 12.57L8.37024 10.44H7.66024L7.00024 11.1V9H14.0002ZM11.2002 13.27L12.0102 12.46L13.5502 14H11.9302L11.2002 13.27ZM7.00024 14V12.51L8.00024 11.51L10.5202 14H7.00024ZM12.5002 10.5C12.7764 10.5 13.0002 10.2761 13.0002 10C13.0002 9.72386 12.7764 9.5 12.5002 9.5C12.2241 9.5 12.0002 9.72386 12.0002 10C12.0002 10.2761 12.2241 10.5 12.5002 10.5Z" fill="#424242"/>
</svg>
