<svg width="16" height="16" viewBox="0 0 16 16" fill="none" xmlns="http://www.w3.org/2000/svg">
<path d="M9.13019 15L8.60019 14.23C8.88918 13.8519 9.02134 13.3769 8.96919 12.9039C8.91705 12.4308 8.6846 11.9961 8.32019 11.69C7.70762 11.1781 7.28787 10.4726 7.13019 9.69C5.57019 11.92 6.38019 13.15 7.13019 14.24L6.58019 15C5.53578 14.8032 4.5979 14.2351 3.93983 13.4005C3.28177 12.566 2.94799 11.5215 3.00019 10.46C3.00019 10.46 2.79019 8.3 5.28019 6.19C5.28019 6.19 8.10019 3.58 7.12019 1.65L7.83019 1C8.91338 1.75952 9.74204 2.82836 10.2077 4.06664C10.6734 5.30491 10.7544 6.65492 10.4402 7.94C10.6773 7.70862 10.8675 7.43357 11.0002 7.13L11.8702 7.06C11.9402 7.18 13.7102 9.99 12.7602 12.36C12.4218 13.0668 11.9128 13.6782 11.2791 14.1391C10.6453 14.6 9.90684 14.8959 9.13019 15V15ZM7.13019 8.05L8.00019 8.44C7.9538 8.89619 8.01261 9.35695 8.1721 9.78687C8.33159 10.2168 8.5875 10.6044 8.92019 10.92C9.34882 11.2323 9.67346 11.6664 9.85183 12.1658C10.0302 12.6653 10.054 13.2068 9.92019 13.72C10.3335 13.5752 10.7132 13.3482 11.0364 13.0526C11.3595 12.7569 11.6193 12.3989 11.8002 12C12.1397 10.7826 11.9927 9.48096 11.3902 8.37C11.2008 8.67719 10.9257 8.92228 10.5988 9.07509C10.2718 9.22789 9.90734 9.28174 9.55019 9.23L9.20019 8.55C9.63821 7.60276 9.7874 6.54744 9.62911 5.5159C9.47083 4.48435 9.01208 3.52232 8.31019 2.75C8.17019 4.87 6.00019 6.83 5.93019 6.94C3.86019 8.7 4.00019 10.33 4.00019 10.4C3.96113 11.0176 4.08797 11.6344 4.36754 12.1865C4.6471 12.7387 5.06924 13.2059 5.59019 13.54C5.00019 12.14 5.00019 10.46 7.16019 8.05H7.13019Z" fill="#424242"/>
</svg>
