<svg width="16" height="16" viewBox="0 0 16 16" fill="none" xmlns="http://www.w3.org/2000/svg">
<g clip-path="url(#clip0)">
<path fill-rule="evenodd" clip-rule="evenodd" d="M7.71045 3H14.5005L15.0105 3.5V8.00717C14.7 7.77276 14.3614 7.57372 14.0005 7.41604V5.98999H7.69043L6.83044 6.84998L6.48047 7H1.99048V7.48999V11.49V13H7.10051C7.17111 13.3478 7.27781 13.6825 7.41653 14H1.5105L1.0105 13.5V6.5V2.5L1.5105 2H6.5105L6.86047 2.15002L7.71045 3ZM7.49048 5H13.9905L14.0005 4.01001H7.50049L7.1405 3.85999L6.29053 3.01001H2.00049V6.01001H6.28052L7.1405 5.15002L7.49048 5Z" fill="#424242"/>
<path fill-rule="evenodd" clip-rule="evenodd" d="M9.77821 8.67412C10.436 8.2346 11.2094 8 12.0005 8C13.061 8.0013 14.0776 8.42315 14.8275 9.17301C15.5773 9.92287 15.9992 10.9395 16.0005 12C16.0005 12.7911 15.7659 13.5645 15.3264 14.2223C14.8868 14.8801 14.2621 15.3928 13.5312 15.6955C12.8003 15.9983 11.9961 16.0775 11.2201 15.9231C10.4442 15.7688 9.73147 15.3878 9.17206 14.8284C8.61265 14.269 8.23169 13.5563 8.07735 12.7804C7.92301 12.0044 8.00222 11.2002 8.30497 10.4693C8.60772 9.73836 9.12041 9.11365 9.77821 8.67412ZM11.9092 13.6637L14.2955 10.4818L13.4955 9.88184L11.4187 12.651L10.117 11.6096L9.49228 12.3905L11.1968 13.7541L11.9092 13.6637Z" fill="#388A34"/>
</g>
<defs>
<clipPath id="clip0">
<rect width="16" height="16" fill="white" transform="translate(0.000488281)"/>
</clipPath>
</defs>
</svg>
