<svg width="16" height="16" viewBox="0 0 16 16" fill="none" xmlns="http://www.w3.org/2000/svg">
<path d="M9.09982 4.4L8.59982 2H7.39982L6.89982 4.4L6.19982 4.7L4.19982 3.4L3.29982 4.2L4.59982 6.2L4.39982 6.9L1.99982 7.4V8.6L4.39982 9.1L4.69982 9.9L3.39982 11.9L4.19982 12.7L6.19982 11.4L6.99982 11.7L7.39982 14H8.59982L9.09982 11.6L9.89982 11.3L11.8998 12.6L12.6998 11.8L11.3998 9.8L11.6998 9L13.9998 8.6V7.4L11.5998 6.9L11.2998 6.1L12.5998 4.1L11.7998 3.3L9.79982 4.6L9.09982 4.4ZM9.39982 1L9.89982 3.4L11.9998 2.1L13.9998 4.1L12.5998 6.2L14.9998 6.6V9.4L12.5998 9.9L13.9998 12L11.9998 14L9.89982 12.6L9.39982 15H6.59982L6.09982 12.6L3.99982 13.9L1.99982 11.9L3.39982 9.8L0.999817 9.4V6.6L3.39982 6.1L2.09982 4L4.09982 2L6.19982 3.4L6.59982 1H9.39982ZM9.99982 8C9.99982 9.1 9.09982 10 7.99982 10C6.89982 10 5.99982 9.1 5.99982 8C5.99982 6.9 6.89982 6 7.99982 6C9.09982 6 9.99982 6.9 9.99982 8ZM7.99982 9C8.59982 9 8.99982 8.6 8.99982 8C8.99982 7.4 8.59982 7 7.99982 7C7.39982 7 6.99982 7.4 6.99982 8C6.99982 8.6 7.39982 9 7.99982 9Z" fill="#424242"/>
</svg>
