<svg width="16" height="16" viewBox="0 0 16 16" fill="none" xmlns="http://www.w3.org/2000/svg">
<path d="M13.5002 4H11.9002C12.0002 3.6 12.0002 3.2 12.0002 2.8C11.9002 2.5 11.8002 2.2 11.6002 1.9C11.4002 1.6 11.2002 1.4 10.9002 1.3C10.6002 1.2 10.3002 1 10.0002 1C9.70024 1 9.40024 1 9.10024 1.2C8.40024 1.4 7.90024 1.9 7.50024 2.5C7.10024 1.9 6.60024 1.4 5.90024 1.2C5.60024 1.1 5.30024 1 5.00024 1C4.70024 1 4.40024 1.1 4.10024 1.3C3.80024 1.4 3.60024 1.6 3.40024 1.9C3.20024 2.1 3.10024 2.5 3.00024 2.8C3.00024 3.2 3.00024 3.6 3.10024 4H1.50024L1.00024 4.5V13.5L1.50024 14H13.5002L14.0002 13.5V4.5L13.5002 4ZM7.00024 13H2.00024V5H7.00024V13ZM7.00024 4H4.00024C4.00024 3.9 4.00024 3.9 4.00024 3.8C3.90024 3.5 3.90024 3.3 3.90024 3C4.00024 2.8 4.00024 2.6 4.20024 2.5C4.30024 2.3 4.50024 2.2 4.70024 2.1C4.80024 2 5.00024 2 5.20024 2C5.40024 2 5.60024 2 5.80024 2.1C6.10024 2.2 6.40024 2.4 6.60024 2.7C6.80024 3 7.00024 3.3 7.00024 3.7V4ZM8.00024 3.7C8.00024 3.3 8.20024 3 8.40024 2.7C8.60024 2.4 8.90024 2.2 9.20024 2.1C9.40024 2 9.60024 2 9.80024 2C10.0002 2 10.2002 2 10.4002 2.1C10.6002 2.2 10.7002 2.3 10.9002 2.5C11.0002 2.6 11.0002 2.8 11.1002 3C11.1002 3.3 11.1002 3.5 11.0002 3.8C11.0002 3.9 11.0002 3.9 10.9002 4H8.00024V3.7ZM13.0002 13H8.00024V5H13.0002V13Z" fill="#424242"/>
</svg>
