<svg width="16" height="16" viewBox="0 0 16 16" fill="none" xmlns="http://www.w3.org/2000/svg">
<path fill-rule="evenodd" clip-rule="evenodd" d="M3.00024 14H7.00024V14.91L7.09027 15H2.50024L2.00024 14.5V1.5L2.50024 1H10.2202L10.5703 1.14001L13.8502 4.43994L14.0002 4.80005V7.33997C13.7413 6.95585 13.3996 6.63471 13.0002 6.40002V6H9.50024L9.00024 5.5V2H3.00024V14ZM13.0002 5L10.0002 2V5H13.0002ZM13.5002 9V10H14.5002L15.0002 10.5V14.5L14.5002 15H8.50024L8.00024 14.5V10.5L8.50024 10H9.50024V9C9.50024 8.46957 9.71099 7.96089 10.0861 7.58582C10.4611 7.21074 10.9698 7 11.5002 7C12.0307 7 12.5394 7.21074 12.9144 7.58582C13.2895 7.96089 13.5002 8.46957 13.5002 9ZM10.7932 8.29285C10.6056 8.48038 10.5002 8.73478 10.5002 9V10H12.5002V9C12.5002 8.73478 12.3949 8.48038 12.2073 8.29285C12.0198 8.10531 11.7655 8 11.5002 8C11.235 8 10.9807 8.10531 10.7932 8.29285ZM9.00024 11V14H14.0002V11H9.00024Z" fill="#424242"/>
</svg>
