<svg width="16" height="16" viewBox="0 0 16 16" fill="none" xmlns="http://www.w3.org/2000/svg">
<path fill-rule="evenodd" clip-rule="evenodd" d="M5.61613 4.92781C5.34323 5.33911 4.95337 5.66074 4.49724 5.84982C4.34909 5.91025 4.03915 5.98822 4.03915 5.98822V10.9959C4.19705 11.0271 4.35104 11.0739 4.49919 11.1363C4.95532 11.3273 5.34323 11.647 5.61807 12.0583C5.89097 12.4696 6.03717 12.953 6.03717 13.4462C6.04497 13.7893 5.98064 14.1304 5.84809 14.4462C5.72334 14.7483 5.5401 15.0232 5.30814 15.2551C5.07812 15.4871 4.80132 15.6703 4.49919 15.7951C4.1834 15.9276 3.84228 15.9919 3.4992 15.9842C3.00603 15.9861 2.52261 15.8399 2.11131 15.5651C1.70001 15.2922 1.37838 14.9023 1.1893 14.4462C1.00217 13.9881 0.953436 13.4852 1.04895 12.9998C1.14447 12.5144 1.38033 12.068 1.72925 11.7172C2.07817 11.3741 2.51871 11.1382 2.99824 11.0369V5.94923C2.52066 5.84592 2.08012 5.61201 1.72925 5.26893C1.38033 4.91806 1.14447 4.47168 1.04895 3.9863C0.951487 3.50093 1.00022 2.99802 1.1893 2.53993C1.37838 2.0838 1.70001 1.69394 2.11131 1.42105C2.52066 1.1462 3.00408 1 3.4992 1C3.84033 0.994152 4.18145 1.05848 4.49724 1.18908C4.79937 1.31383 5.07422 1.49707 5.30619 1.72903C5.53815 1.961 5.72139 2.2378 5.84614 2.53993C5.97869 2.85572 6.04302 3.19684 6.03522 3.53992C6.03717 4.03309 5.89097 4.51651 5.61613 4.92781ZM4.8598 12.7893C4.73115 12.5495 4.54012 12.3487 4.30816 12.2103C4.07619 12.07 3.80914 11.9959 3.53819 11.9998C3.2419 11.9998 2.9534 12.0856 2.70779 12.2493C2.46023 12.417 2.2653 12.6528 2.14835 12.9296C2.03724 13.2025 2.00995 13.5008 2.06843 13.7893C2.12496 14.0797 2.26725 14.3487 2.47778 14.5592C2.6883 14.7697 2.95535 14.912 3.24774 14.9686C3.53624 15.0271 3.83448 14.9998 4.10738 14.8887C4.38418 14.7717 4.62004 14.5768 4.78768 14.3292C4.93777 14.1031 5.02354 13.8399 5.03719 13.569C5.04888 13.298 4.98846 13.029 4.8598 12.7893ZM2.70779 4.74068C2.95535 4.90247 3.24385 4.99019 3.53819 4.99019C3.80914 4.99019 4.07619 4.91611 4.30816 4.77966C4.54012 4.63931 4.73115 4.44049 4.8598 4.20073C4.98846 3.96096 5.05083 3.69196 5.03719 3.42101C5.02354 3.15006 4.93777 2.88691 4.78768 2.66079C4.62004 2.41323 4.38418 2.2183 4.10738 2.10135C3.83448 1.99024 3.53624 1.96295 3.24774 2.02142C2.9573 2.07795 2.6883 2.22025 2.47778 2.43077C2.26725 2.6413 2.12496 2.90835 2.06843 3.20074C2.00995 3.48924 2.03724 3.78748 2.14835 4.06038C2.2653 4.33718 2.46023 4.57304 2.70779 4.74068ZM13.037 11.0369C13.5165 11.1344 13.959 11.3722 14.306 11.7172C14.7719 12.187 15.035 12.8244 15.0311 13.4832C15.0331 13.9764 14.8869 14.4598 14.612 14.8711C14.3391 15.2824 13.9493 15.6041 13.4931 15.7931C13.037 15.9842 12.5321 16.0349 12.0468 15.9393C11.5614 15.8438 11.115 15.606 10.7641 15.2551C10.4152 14.9043 10.1755 14.4579 10.0799 13.9725C9.98443 13.4871 10.0351 12.9842 10.2261 12.5261C10.4191 12.0739 10.7388 11.684 11.1462 11.4073C11.4133 11.224 11.7173 11.0993 12.0351 11.0369V5.48922C12.0351 5.09157 11.8772 4.70951 11.5965 4.42881C11.3158 4.14811 10.9337 3.99022 10.5361 3.99022H8.68621L9.95519 5.25921L9.24565 5.96875L7.11703 3.84013V3.14033L9.2476 1.00977L9.95714 1.72125L8.68816 2.99024H10.538C10.8655 2.98829 11.191 3.05262 11.4951 3.17737C11.7992 3.30212 12.076 3.48731 12.308 3.71927C12.5399 3.95124 12.7251 4.22803 12.8499 4.53212C12.9746 4.83426 13.039 5.15979 13.037 5.48922V11.0369ZM13.5945 14.5456C13.8401 14.3019 13.9922 13.9803 14.0272 13.6353C14.0623 13.2922 13.9766 12.9452 13.7855 12.6567C13.6179 12.4092 13.382 12.2143 13.1052 12.0973C12.8323 11.9862 12.5341 11.9589 12.2456 12.0174C11.9552 12.0739 11.6862 12.2162 11.4756 12.4267C11.2651 12.6372 11.1228 12.9043 11.0663 13.1967C11.0078 13.4852 11.0351 13.7834 11.1462 14.0563C11.2632 14.3331 11.4581 14.569 11.7057 14.7366C11.9941 14.9277 12.3392 15.0134 12.6842 14.9783C13.0273 14.9433 13.3508 14.7912 13.5945 14.5456Z" fill="#424242"/>
</svg>
