<svg width="16" height="16" viewBox="0 0 16 16" fill="none" xmlns="http://www.w3.org/2000/svg">
<path fill-rule="evenodd" clip-rule="evenodd" d="M7.38918 12.9906L6.11916 11.7205L6.78917 11.0206L8.91917 13.1506V13.8505L6.78917 15.9805L6.07918 15.2706L7.34917 14.0006H5.49916C5.17049 14.0019 4.84482 13.9381 4.54091 13.8129C4.237 13.6878 3.96085 13.5037 3.72844 13.2713C3.49603 13.0389 3.31195 12.7627 3.18678 12.4588C3.06161 12.1549 2.99784 11.8292 2.99916 11.5006V5.95052C2.52004 5.84851 2.07968 5.61279 1.72917 5.27059C1.38104 4.91884 1.14417 4.47238 1.04814 3.98689C0.952111 3.50141 1.00116 2.9984 1.18916 2.54061C1.37891 2.08436 1.69962 1.69458 2.11076 1.42049C2.52191 1.14639 3.00503 1.00024 3.49916 1.00057C3.84212 0.993194 4.18281 1.05787 4.49916 1.19051C4.80222 1.31518 5.07756 1.49871 5.30928 1.73042C5.541 1.96214 5.7245 2.23755 5.84917 2.54061C5.98181 2.85696 6.04654 3.19765 6.03917 3.54061C6.0395 4.03474 5.8934 4.51789 5.61931 4.92903C5.34521 5.34017 4.95541 5.6608 4.49916 5.85054C4.35081 5.91224 4.19674 5.95915 4.03917 5.99056V11.4906C4.03917 11.8884 4.1972 12.2699 4.4785 12.5512C4.75981 12.8325 5.14135 12.9906 5.53917 12.9906H7.38918ZM2.70918 4.74056C2.95522 4.90376 3.24393 4.99072 3.53917 4.99056C3.81051 4.99066 4.07678 4.91718 4.30965 4.77791C4.54251 4.63864 4.73325 4.43877 4.86153 4.19966C4.9898 3.96056 5.05081 3.69116 5.03807 3.42012C5.02533 3.14908 4.93931 2.88661 4.78917 2.6606C4.62143 2.4121 4.38523 2.21751 4.10918 2.10054C3.8367 1.98955 3.53744 1.96176 3.24916 2.02059C2.95717 2.07705 2.68876 2.2196 2.47847 2.42989C2.26818 2.64018 2.12563 2.90853 2.06917 3.20052C2.01034 3.4888 2.03816 3.78802 2.14916 4.0605C2.26613 4.33656 2.46068 4.57282 2.70918 4.74056ZM13.0392 11.0406C13.5199 11.1384 13.9614 11.3747 14.3092 11.7206C14.7768 12.191 15.0393 12.8273 15.0392 13.4906C15.0395 13.9847 14.8934 14.4679 14.6193 14.879C14.3452 15.2902 13.9555 15.6109 13.4992 15.8007C13.0419 15.9915 12.5381 16.0421 12.0519 15.946C11.5657 15.85 11.119 15.6117 10.7686 15.2612C10.4181 14.9108 10.1798 14.4641 10.0837 13.9779C9.9877 13.4917 10.0383 12.988 10.2292 12.5306C10.422 12.0768 10.7414 11.688 11.1492 11.4106C11.4179 11.2286 11.7206 11.1028 12.0392 11.0406V5.4906C12.0392 5.09278 11.8812 4.71124 11.5999 4.42993C11.3185 4.14863 10.937 3.9906 10.5392 3.9906H8.68921L9.95917 5.26062L9.24921 5.97058L7.11917 3.84058V3.14063L9.24921 1.01062L9.95917 1.72058L8.68921 2.9906H10.5392C10.8679 2.98928 11.1935 3.05305 11.4974 3.17822C11.8013 3.30339 12.0775 3.48744 12.3099 3.71985C12.5423 3.95226 12.7264 4.22844 12.8516 4.53235C12.9767 4.83626 13.0405 5.16193 13.0392 5.4906V11.0406ZM12.6881 14.9829C13.0326 14.9483 13.3545 14.7956 13.5992 14.5507C13.8441 14.306 13.9969 13.984 14.0315 13.6395C14.0661 13.295 13.9805 12.9492 13.7892 12.6606C13.6214 12.4121 13.3852 12.2176 13.1092 12.1006C12.8367 11.9896 12.5375 11.9618 12.2492 12.0206C11.9572 12.0771 11.6888 12.2196 11.4785 12.4299C11.2682 12.6402 11.1257 12.9086 11.0692 13.2006C11.0104 13.4888 11.0382 13.7881 11.1492 14.0605C11.2661 14.3366 11.4607 14.5729 11.7092 14.7406C11.9977 14.9319 12.3436 15.0175 12.6881 14.9829Z" fill="#424242"/>
</svg>
