<svg width="16" height="16" viewBox="0 0 16 16" fill="none" xmlns="http://www.w3.org/2000/svg">
<path d="M10.979 5C10.4432 4.45199 9.73889 4.09982 8.97901 4V0H7.97901V4C7.16596 4.12245 6.42199 4.52718 5.87754 5.14331C5.33309 5.75944 5.02291 6.54757 5.00144 7.36951C4.97997 8.19144 5.24857 8.99471 5.76011 9.63843C6.27164 10.2821 6.99347 10.7253 7.79902 10.89H7.97901V14.89H8.97901V10.89C9.26849 10.8535 9.55131 10.7761 9.819 10.66C10.4609 10.399 11.0085 9.94912 11.389 9.37C11.7723 8.79546 11.9775 8.12068 11.979 7.43005C11.9782 6.52007 11.6189 5.64698 10.979 5V5ZM10.279 9.23999C9.80862 9.70763 9.17228 9.97006 8.50901 9.96997C8.01488 9.9703 7.53172 9.82427 7.12058 9.55017C6.70944 9.27608 6.38876 8.8863 6.19901 8.43005C6.0554 8.08876 5.9897 7.71974 6.00672 7.34985C6.02374 6.97997 6.12305 6.61853 6.2974 6.29187C6.47174 5.96521 6.71674 5.68144 7.01456 5.46143C7.31238 5.24141 7.65554 5.09067 8.01902 5.02002C8.18202 5.00528 8.34601 5.00528 8.50901 5.02002C8.85197 5.01265 9.19265 5.07732 9.50901 5.20996C9.96525 5.39971 10.355 5.72045 10.6291 6.13159C10.9032 6.54273 11.0493 7.02589 11.049 7.52002C11.0373 7.85 10.9606 8.17444 10.8234 8.47473C10.6861 8.77503 10.4909 9.04528 10.249 9.27002L10.279 9.23999Z" fill="#424242"/>
</svg>
