<svg width="16" height="16" viewBox="0 0 16 16" fill="none" xmlns="http://www.w3.org/2000/svg">
<path d="M13.2731 7.73055C12.8027 7.26291 12.1664 7.00048 11.5031 7.00057C11.009 7.00024 10.5258 7.14639 10.1147 7.42049C9.70352 7.69458 9.38283 8.08436 9.19309 8.54061C9.13474 8.68241 9.09117 8.8298 9.06308 8.98055C8.04074 8.86836 7.08726 8.41091 6.36002 7.68367C5.63278 6.95643 5.17527 6.00289 5.06308 4.98055C5.21383 4.95246 5.36128 4.90889 5.50308 4.85054C5.95933 4.6608 6.34911 4.34017 6.6232 3.92903C6.8973 3.51789 7.04339 3.03474 7.04306 2.54061C7.05044 2.19765 6.9857 1.85696 6.85306 1.54061C6.72839 1.23755 6.54492 0.962142 6.3132 0.730425C6.08149 0.498708 5.80614 0.31518 5.50308 0.190508C5.18673 0.0578651 4.84604 -0.00680644 4.50308 0.00056644C4.00895 0.000236947 3.5258 0.146394 3.11466 0.420488C2.70352 0.694583 2.38283 1.08436 2.19309 1.54061C2.00508 1.9984 1.95607 2.50141 2.0521 2.98689C2.14813 3.47238 2.38493 3.91884 2.73307 4.27059C3.08357 4.61279 3.52396 4.84851 4.00308 4.95052V10.0506C3.68453 10.1128 3.3818 10.2386 3.11307 10.4206C2.7053 10.6979 2.38595 11.0867 2.19309 11.5406C2.00221 11.998 1.9516 12.5017 2.04764 12.9879C2.14368 13.4741 2.38202 13.9208 2.73245 14.2712C3.08289 14.6216 3.52959 14.86 4.01578 14.956C4.50197 15.052 5.00575 15.0015 5.46311 14.8106C5.91935 14.6209 6.30913 14.3001 6.58322 13.889C6.85732 13.4779 7.00341 12.9947 7.00308 12.5006C7.01046 12.1576 6.94572 11.8169 6.81308 11.5006C6.68841 11.1975 6.50494 10.9222 6.27323 10.6905C6.04151 10.4588 5.76616 10.2753 5.46311 10.1506C5.31476 10.0889 5.16065 10.042 5.00308 10.0106V7.61055C5.51974 8.34075 6.2061 8.93443 7.00308 9.34053C7.65433 9.67397 8.36417 9.87772 9.09311 9.94051C9.16543 10.3031 9.31723 10.6452 9.53763 10.942C9.75803 11.2388 10.0415 11.483 10.3676 11.6571C10.6938 11.8311 11.0545 11.9307 11.4237 11.9486C11.793 11.9665 12.1616 11.9023 12.5031 11.7606C12.9593 11.5708 13.3491 11.2501 13.6232 10.8389C13.8973 10.4278 14.0434 9.94465 14.0431 9.45052C14.0195 8.79894 13.7434 8.18211 13.2731 7.73055V7.73055ZM5.07309 11.1106C5.34915 11.2275 5.58535 11.4221 5.75308 11.6706C5.9453 11.9591 6.03162 12.3052 5.99741 12.6502C5.96319 12.9952 5.81055 13.3178 5.5654 13.5629C5.32026 13.8081 4.9978 13.9607 4.6528 13.995C4.30781 14.0292 3.96159 13.9428 3.67307 13.7506C3.42456 13.5828 3.23004 13.3466 3.11307 13.0705C3.00208 12.798 2.97429 12.4988 3.03311 12.2105C3.08958 11.9185 3.23212 11.6502 3.44242 11.4399C3.65271 11.2296 3.92112 11.0871 4.21311 11.0306C4.50138 10.9718 4.80061 10.9996 5.07309 11.1106V11.1106ZM4.50308 4.00057C4.20784 4.00073 3.9191 3.91377 3.67307 3.75057C3.42456 3.58283 3.23004 3.34657 3.11307 3.07051C3.00208 2.79803 2.97429 2.49881 3.03311 2.21053C3.08958 1.91854 3.23212 1.65019 3.44242 1.4399C3.65271 1.22961 3.92112 1.08706 4.21311 1.0306C4.50138 0.971769 4.80061 0.999561 5.07309 1.11055C5.34915 1.22752 5.58535 1.42211 5.75308 1.67061C5.90323 1.89662 5.98924 2.15909 6.00199 2.43013C6.01473 2.70117 5.95375 2.97057 5.82547 3.20967C5.6972 3.44878 5.50646 3.64865 5.27359 3.78792C5.04073 3.92719 4.77442 4.00067 4.50308 4.00057V4.00057ZM12.5631 10.5606C12.3184 10.8055 11.9965 10.9582 11.652 10.9929C11.3075 11.0275 10.9616 10.9419 10.6731 10.7506C10.4246 10.5828 10.23 10.3466 10.1131 10.0705C10.0021 9.79803 9.97429 9.49881 10.0331 9.21053C10.0896 8.91854 10.2321 8.65019 10.4424 8.4399C10.6527 8.22961 10.9211 8.08706 11.2131 8.0306C11.5014 7.97177 11.8006 7.99956 12.0731 8.11055C12.3491 8.22752 12.5853 8.42211 12.7531 8.67061C12.9444 8.95917 13.03 9.30501 12.9954 9.64949C12.9608 9.99398 12.808 10.3159 12.5631 10.5606V10.5606Z" fill="#424242"/>
</svg>
