<svg width="16" height="16" viewBox="0 0 16 16" fill="none" xmlns="http://www.w3.org/2000/svg">
<path fill-rule="evenodd" clip-rule="evenodd" d="M3.04028 10H5.62028L6.27028 11H2.54028L2.04028 10.5V1.5L2.54028 1H14.5403L15.0403 1.5V6.27L14.0403 4.52V2H3.04028V10ZM8.58028 11L7.17028 14.47H9.37028L15.0003 8.7L14.2703 7H12.6403L13.4603 5.54L12.6303 4H9.76028L8.84028 4.59L6.56028 9.59L7.47028 11H8.58028ZM9.76028 5H12.6303L10.7603 8H14.2703L8.51028 13.84L10.2003 10H7.47028L9.76028 5ZM6.95028 7H4.04028V6H7.40028L6.95028 7ZM6.05028 9H4.04028V8H6.50028L6.05028 9Z" fill="#424242"/>
</svg>
