<svg width="16" height="16" viewBox="0 0 16 16" fill="none" xmlns="http://www.w3.org/2000/svg">
<path fill-rule="evenodd" clip-rule="evenodd" d="M3.03998 10H5.61998L6.26998 11H2.53998L2.03998 10.5V1.5L2.53998 1H14.54L15.04 1.5V6.27L14.04 4.52V2H3.03998V10ZM8.57998 11L7.16998 14.47H9.36998L15 8.7L14.27 7H12.64L13.46 5.54L12.63 4H9.75998L8.83998 4.59L6.55998 9.59L7.46998 11H8.57998ZM9.75998 5H12.63L10.76 8H14.27L8.50998 13.84L10.2 10H7.46998L9.75998 5ZM6.94998 7H4.03998V6H7.39998L6.94998 7ZM6.04998 9H4.03998V8H6.49998L6.04998 9Z" fill="#424242"/>
</svg>
