<svg width="16" height="16" viewBox="0 0 16 16" fill="none" xmlns="http://www.w3.org/2000/svg">
<path fill-rule="evenodd" clip-rule="evenodd" d="M6.00024 5.9142L8.0609 3.85356L8.0609 3.14645L5.91445 1L5.20735 1.70711L5.25024 1.75L5.25023 1.75002L5.50021 2H5.50024L6.50024 3H3.50024C2.8372 3 2.20132 3.2634 1.73248 3.73224C1.26364 4.20108 1.00024 4.83696 1.00024 5.5C1.00024 6.16305 1.26364 6.79893 1.73248 7.26777C2.20132 7.73661 2.8372 8 3.50024 8H4.00024V7H3.50024C3.10242 7 2.72089 6.84197 2.43958 6.56066C2.15828 6.27936 2.00024 5.89783 2.00024 5.5C2.00024 5.10218 2.15828 4.72065 2.43958 4.43934C2.72089 4.15804 3.10242 4 3.50024 4H5.00024V4.00003H5.5002L5.50023 4H6.50024L5.20734 5.29289L5.20736 5.29291L5.20735 5.29292L5.91445 6.00003L6.00024 5.91423V5.9142ZM11.0002 2H8.32863L7.32863 1H12.0002L12.7102 1.29L15.7102 4.29L16.0002 5V14L15.0002 15H6.00024L5.00024 14V9.00003V6.50003L6.00024 7.34699V14H15.0002V6H11.0002V2ZM12.0002 2V5H15.0002L12.0002 2Z" fill="#424242"/>
</svg>
