<svg width="16" height="16" viewBox="0 0 16 16" fill="none" xmlns="http://www.w3.org/2000/svg">
<g clip-path="url(#clip0)">
<path fill-rule="evenodd" clip-rule="evenodd" d="M2.11895 4.00003L3.00023 4.88131L2.38151 5.50003L0.714844 3.83336V3.21464L2.38151 1.54797L3.00023 2.16669L2.1669 3.00003H15.0002V4.00003H2.11895ZM4.00023 14.5455V5.45457L4.50023 5.00003H6.50023L7.00023 5.45457V14.5455L6.50023 15H4.50023L4.00023 14.5455ZM6.00023 14.0909V5.90912H5.00023V14.0909H6.00023ZM8.00023 12.5556V5.44447L8.50023 5.00003H10.5002L11.0002 5.44447V12.5556L10.5002 13H8.50023L8.00023 12.5556ZM10.0002 12.1111V5.88892H9.00023V12.1111H10.0002ZM12.0002 5.4286V10.5715L12.5002 11H14.5002L15.0002 10.5715V5.4286L14.5002 5.00003H12.5002L12.0002 5.4286ZM14.0002 5.85717V10.1429H13.0002V5.85717H14.0002Z" fill="#424242"/>
</g>
<defs>
<clipPath id="clip0">
<rect width="16" height="16" fill="white" transform="translate(0.000244141)"/>
</clipPath>
</defs>
</svg>
