<svg width="16" height="16" viewBox="0 0 16 16" fill="none" xmlns="http://www.w3.org/2000/svg">
<path fill-rule="evenodd" clip-rule="evenodd" d="M1.50024 1H3.50024V2H2.00024V14H3.50024V15H1.50024L1.00024 14.5V1.5L1.50024 1ZM14.0002 3V7H10.0002V6H8.00024V7H5.00024V4H8.00024V5H10.0002V3H14.0002ZM7.00024 5H6.00024V6H7.00024V5ZM13.0002 4H11.0002V6H13.0002V4ZM10.0002 9H14.0002V13H10.0002V11H8.00024V12H5.00024V9H8.00024V10H10.0002V9ZM7.00024 10H6.00024V11H7.00024V10ZM11.0002 12H13.0002V10H11.0002V12Z" fill="#424242"/>
</svg>
