<svg width="16" height="16" viewBox="0 0 16 16" fill="none" xmlns="http://www.w3.org/2000/svg">
<path fill-rule="evenodd" clip-rule="evenodd" d="M13.5074 12.3239C14.4751 11.0906 15.0008 9.56812 15.0002 8.00045C15.0003 6.46996 14.4988 4.98161 13.5725 3.76328C12.6462 2.54495 11.3461 1.66378 9.87129 1.25469C8.39648 0.845604 6.82824 0.931139 5.40668 1.4982C3.98511 2.06526 2.78857 3.0826 2.00024 4.39445V2.00045H1.00024V5.50045L1.50024 6.00045H5.00024V5.00045H2.81124C3.4792 3.84546 4.51261 2.94567 5.74852 2.44298C6.98442 1.94028 8.3525 1.86329 9.63701 2.22413C10.9215 2.58498 12.0494 3.36313 12.8427 4.43587C13.636 5.50862 14.0497 6.81493 14.0185 8.14879C13.9873 9.48265 13.513 10.7682 12.6703 11.8026C11.8277 12.8371 10.6646 13.5616 9.36467 13.862C8.06469 14.1624 6.70171 14.0215 5.49067 13.4615C4.27963 12.9016 3.28944 11.9544 2.67624 10.7695L1.78924 11.2315C2.51228 12.6224 3.68131 13.7304 5.10901 14.3779C6.5367 15.0254 8.14043 15.1749 9.66321 14.8025C11.186 14.4301 12.5397 13.5573 13.5074 12.3239ZM10.1462 11.3545L10.8542 10.6465L8.00024 7.79349V4.00049H7.00024V8.00049L7.14624 8.35449L10.1462 11.3545Z" fill="#424242"/>
</svg>
