<svg width="112" height="16" viewBox="0 0 112 16" fill="none" xmlns="http://www.w3.org/2000/svg">
<path fill-rule="evenodd" clip-rule="evenodd" d="M111 3V11.5L110.5 12H108V14.5L107.5 15H97.5L97 14.5V4.5L97.5 4H99.985V1.5L100.485 1H109L109.353 1.147L110.853 2.647L111 3ZM108 6V11H110V3.206L108.793 2H100.985V4H106L106.353 4.146L107.853 5.646L108 6ZM107 14H98V5H99V8.07143H105V5H105.793L107 6.208V14ZM104 5H102V7H104V5Z" fill="#424242"/>
<path fill-rule="evenodd" clip-rule="evenodd" d="M7 3H4V0H3V3H0V4H3V7H4V4H7V3ZM13.9 4.6L10.5 1.1L10.2 1H5V2H9V6H13V13H4V8H3V13.5L3.5 14H9H13.5L14 13.5V5L13.9 4.6ZM12.9032 5L10 2V5H12.9032Z" fill="#424242"/>
<path d="M79 6.49999L78.5302 5.99999H71V1.4698L70.5302 1H65.4698L65 1.4698V9.53019L65.4698 9.99999H68V14.5302L68.4698 15H78.5302L79 14.5302V6.49999ZM66 8.99999V3H70V8.99999H66ZM78 14H69V9.99999H70.5302L71 9.53019V8.01341H78V14Z" fill="#424242"/>
<path fill-rule="evenodd" clip-rule="evenodd" d="M40 3H37V0H36V3H33V4H36V7H37V4H40V3ZM38.5 7H38V6H38.3L39.1 5.1L39.5 5H47V4H41V3H47.5L48 3.5V13.5L47.5 14H34.5L34 13.5V6.5V6V5H35V6V6.5V13H47V7V6H39.7L38.9 6.9L38.5 7Z" fill="#424242"/>
</svg>
