<svg width="238" height="16" viewBox="0 0 238 16" fill="none" xmlns="http://www.w3.org/2000/svg">
<path fill-rule="evenodd" clip-rule="evenodd" d="M97 2H111V3H97V2ZM110 4H109V12H110V4ZM107.272 8.387C107.194 8.088 107.073 7.825 106.912 7.601C106.751 7.377 106.547 7.2 106.303 7.071C106.059 6.942 105.769 6.878 105.437 6.878C105.239 6.878 105.057 6.902 104.89 6.951C104.725 7 104.574 7.068 104.437 7.156C104.301 7.244 104.18 7.35 104.072 7.474L103.893 7.732V4.578H103V12H103.893V11.425L104.019 11.6C104.106 11.702 104.208 11.79 104.323 11.869C104.44 11.947 104.572 12.009 104.721 12.055C104.87 12.101 105.035 12.123 105.219 12.123C105.572 12.123 105.885 12.052 106.156 11.911C106.428 11.768 106.655 11.573 106.838 11.325C107.021 11.075 107.159 10.782 107.252 10.446C107.345 10.108 107.392 9.743 107.392 9.349C107.391 9.007 107.352 8.686 107.272 8.387ZM105.793 7.78C105.944 7.851 106.075 7.956 106.183 8.094C106.292 8.234 106.377 8.407 106.438 8.611C106.489 8.785 106.52 8.982 106.527 9.198L106.52 9.323C106.52 9.65 106.487 9.943 106.42 10.192C106.353 10.438 106.259 10.645 106.142 10.806C106.025 10.968 105.882 11.091 105.721 11.172C105.399 11.334 104.961 11.338 104.652 11.187C104.499 11.112 104.366 11.012 104.259 10.891C104.174 10.795 104.103 10.675 104.041 10.524C104.041 10.524 103.862 10.077 103.862 9.577C103.862 9.077 104.041 8.575 104.041 8.575C104.103 8.398 104.177 8.257 104.265 8.145C104.379 8.002 104.521 7.886 104.689 7.8C104.857 7.714 105.054 7.671 105.276 7.671C105.466 7.671 105.64 7.708 105.793 7.78ZM111 13H97V14H111V13ZM98.813 10L98.085 12.031H97L97.025 11.959L99.466 4.87305H100.407L102.892 12.031H101.81L101.032 10H98.813ZM99.934 6.42205H99.912L99.007 9.17505H100.848L99.934 6.42205Z" fill="#424242"/>
<path fill-rule="evenodd" clip-rule="evenodd" d="M13.4167 6.5C13.4167 6.54043 13.4162 6.58073 13.4151 6.6209C13.7562 6.80943 14.073 7.03667 14.3594 7.29667C14.3972 7.03657 14.4167 6.77057 14.4167 6.5C14.4167 3.46243 11.9543 1 8.9167 1C5.87913 1 3.41669 3.46243 3.41669 6.5C3.41669 7.89885 3.93892 9.17573 4.79905 10.1463L1 13.8386L1.75006 14.5L5.52761 10.8321C5.67974 10.9512 5.8383 11.0626 6.00269 11.1655C6.0009 11.1105 6 11.0554 6 11C6 10.6605 6.03384 10.3288 6.09834 10.0083C5.07293 9.18351 4.41669 7.91839 4.41669 6.5C4.41669 4.01472 6.43141 2 8.9167 2C11.402 2 13.4167 4.01472 13.4167 6.5ZM11 14C11.6479 14 12.2478 13.7946 12.7382 13.4454L8.55459 9.26177C8.20537 9.75217 7.99999 10.3521 7.99999 11C7.99999 12.6569 9.34313 14 11 14ZM9.26168 8.55465L13.4453 12.7383C13.7946 12.2479 14 11.6479 14 11C14 9.34315 12.6568 8 11 8C10.3521 8 9.7521 8.20541 9.26168 8.55465ZM11 15C13.2091 15 15 13.2091 15 11C15 8.79086 13.2091 7 11 7C8.79085 7 6.99999 8.79086 6.99999 11C6.99999 13.2091 8.79085 15 11 15Z" fill="#424242"/>
<path fill-rule="evenodd" clip-rule="evenodd" d="M202.601 2.67683C202.747 2.36708 202.956 2.2122 203.226 2.2122C203.474 2.2122 203.665 2.32987 203.799 2.56522C203.933 2.80056 204 3.12243 204 3.53082C204 3.97383 203.922 4.32944 203.765 4.59766C203.609 4.86589 203.4 5 203.138 5C202.901 5 202.722 4.87541 202.601 4.62622H202.593V4.93511H202V1H202.593V2.67683H202.601ZM202.584 3.77742C202.584 3.94873 202.62 4.09063 202.691 4.20311C202.762 4.3156 202.854 4.37184 202.965 4.37184C203.1 4.37184 203.205 4.30002 203.279 4.15639C203.354 4.01103 203.392 3.80597 203.392 3.54121C203.392 3.32144 203.357 3.15012 203.288 3.02726C203.221 2.90266 203.124 2.84036 202.997 2.84036C202.878 2.84036 202.779 2.9018 202.7 3.02466C202.623 3.14752 202.584 3.30759 202.584 3.50487V3.77742ZM195.12 7.695L193 5.56781L193.662 4.90594L194.668 5.90625V4.39594C194.667 4.21309 194.702 4.03187 194.772 3.86266C194.841 3.69346 194.943 3.53961 195.072 3.40992C195.201 3.28023 195.354 3.17727 195.523 3.10692C195.691 3.03658 195.872 3.00024 196.055 3H198.399V3.90469H196.055C195.929 3.91026 195.809 3.96476 195.721 4.05672C195.634 4.14868 195.586 4.27094 195.587 4.39781L195.594 5.89781L196.543 4.95375L197.199 5.61L195.12 7.695ZM200.356 4.93017H201V3.22067C201 2.40689 200.685 2 200.056 2C199.921 2 199.771 2.02421 199.606 2.07263C199.442 2.12104 199.312 2.17691 199.218 2.24022V2.90503C199.455 2.70205 199.705 2.60056 199.968 2.60056C200.229 2.60056 200.36 2.75698 200.36 3.06983L199.761 3.17318C199.254 3.25885 199 3.57914 199 4.13408C199 4.39665 199.061 4.60708 199.183 4.76536C199.307 4.92179 199.476 5 199.69 5C199.98 5 200.199 4.83985 200.347 4.51955H200.356V4.93017ZM200.36 3.57542V3.76816C200.36 3.9432 200.32 4.08845 200.239 4.20391C200.159 4.3175 200.055 4.3743 199.927 4.3743C199.835 4.3743 199.761 4.34264 199.707 4.27933C199.654 4.21415 199.627 4.13128 199.627 4.03073C199.627 3.80912 199.738 3.6797 199.959 3.64246L200.36 3.57542ZM198 12.9302H197.356V12.5196H197.347C197.199 12.8399 196.98 13 196.69 13C196.476 13 196.307 12.9218 196.183 12.7654C196.061 12.6071 196 12.3966 196 12.1341C196 11.5791 196.254 11.2588 196.761 11.1732L197.36 11.0698C197.36 10.757 197.229 10.6006 196.968 10.6006C196.705 10.6006 196.455 10.702 196.218 10.905V10.2402C196.312 10.1769 196.442 10.121 196.606 10.0726C196.771 10.0242 196.921 10 197.056 10C197.685 10 198 10.4069 198 11.2207V12.9302ZM197.36 11.7682V11.5754L196.959 11.6425C196.738 11.6797 196.627 11.8091 196.627 12.0307C196.627 12.1313 196.654 12.2142 196.707 12.2793C196.761 12.3426 196.835 12.3743 196.927 12.3743C197.055 12.3743 197.159 12.3175 197.239 12.2039C197.32 12.0885 197.36 11.9432 197.36 11.7682ZM200.262 13C200.583 13 200.83 12.9423 201 12.8268V12.1173C200.82 12.2551 200.636 12.324 200.448 12.324C200.236 12.324 200.07 12.2523 199.949 12.1089C199.828 11.9637 199.767 11.7644 199.767 11.5112C199.767 11.2505 199.83 11.0466 199.956 10.8994C200.083 10.7505 200.255 10.676 200.472 10.676C200.666 10.676 200.842 10.7449 201 10.8827V10.1341C200.871 10.0447 200.662 10 200.374 10C199.957 10 199.623 10.1406 199.373 10.4218C199.124 10.7011 199 11.0838 199 11.5698C199 11.9907 199.116 12.3343 199.349 12.6006C199.581 12.8669 199.886 13 200.262 13ZM193 9L194 8H203L204 9V14L203 15H194L193 14V9ZM194 9V14H203V9H194ZM197 7L198 6H205L206 7V12L205 13V12V7H198H197Z" fill="#424242"/>
<path fill-rule="evenodd" clip-rule="evenodd" d="M163.221 3.739L165.482 6.008L167.7 3.784L167 3.084L165.988 4.091L165.98 2.491C165.979 2.35567 166.031 2.22525 166.124 2.12716C166.217 2.02908 166.345 1.97095 166.48 1.965H168V1H166.48C166.285 1.00026 166.092 1.03902 165.912 1.11405C165.732 1.18908 165.568 1.29892 165.431 1.43725C165.293 1.57558 165.185 1.73969 165.111 1.92018C165.037 2.10066 164.999 2.29396 165 2.489V4.1L163.927 3.033L163.221 3.739ZM169.89 5.53277H169.901C170.084 5.84426 170.352 6 170.707 6C171.1 6 171.413 5.83236 171.648 5.49708C171.883 5.1618 172 4.71728 172 4.16353C172 3.65304 171.9 3.2507 171.699 2.95652C171.498 2.66234 171.211 2.51525 170.839 2.51525C170.434 2.51525 170.121 2.70885 169.901 3.09604H169.89V1H169V5.91888H169.89V5.53277ZM169.876 4.47177V4.13108C169.876 3.88449 169.934 3.6844 170.051 3.53082C170.169 3.37724 170.317 3.30045 170.496 3.30045C170.685 3.30045 170.831 3.37833 170.932 3.53407C171.036 3.68765 171.087 3.9018 171.087 4.17651C171.087 4.50746 171.031 4.76379 170.918 4.94549C170.808 5.12503 170.651 5.2148 170.448 5.2148C170.281 5.2148 170.144 5.14449 170.037 5.00389C169.93 4.86329 169.876 4.68592 169.876 4.47177ZM169 12.7691C168.744 12.923 168.375 13 167.892 13C167.329 13 166.872 12.8225 166.523 12.4674C166.174 12.1124 166 11.6543 166 11.0931C166 10.4451 166.186 9.93484 166.559 9.5624C166.934 9.18747 167.435 9.00001 168.061 9.00001C168.493 9.00001 168.806 9.0596 169 9.17878V10.1769C168.763 9.99319 168.499 9.90132 168.208 9.90132C167.883 9.90132 167.625 10.0006 167.434 10.1993C167.245 10.3954 167.151 10.6673 167.151 11.0149C167.151 11.3526 167.241 11.6183 167.423 11.8119C167.605 12.0031 167.854 12.0987 168.172 12.0987C168.454 12.0987 168.73 12.0068 169 11.8231V12.7691ZM164 7L163 8V14L164 15H171L172 14V8L171 7H164ZM164 8H165H170H171V9V13V14H170H165H164V13V9V8Z" fill="#424242"/>
<path fill-rule="evenodd" clip-rule="evenodd" d="M138.012 2H138.988V5.11346L141.549 3.55609L142.034 4.44095L139.47 6L142.034 7.55905L141.549 8.44391L138.988 6.88654V10H138.012V6.88654L135.451 8.44391L134.966 7.55905L137.53 6L134.966 4.44095L135.451 3.55609L138.012 5.11346V2ZM130 10H134V14H130V10Z" fill="#424242"/>
<path d="M230.534 12.4673H229.436L228.539 10.0936H224.949L224.104 12.4673H223L226.248 4H227.275L230.534 12.4673ZM228.214 9.20202L226.885 5.59426C226.842 5.47617 226.799 5.28722 226.755 5.02741H226.732C226.692 5.26754 226.647 5.45649 226.596 5.59426L225.279 9.20202H228.214Z" fill="#424242"/>
<path d="M231.786 12.4673V4H234.195C234.927 4 235.508 4.17911 235.937 4.53733C236.366 4.89554 236.581 5.36201 236.581 5.93674C236.581 6.41698 236.451 6.83425 236.191 7.18853C235.931 7.54281 235.573 7.79474 235.116 7.94433V7.96795C235.687 8.03487 236.144 8.25137 236.486 8.61746C236.829 8.97962 237 9.45199 237 10.0346C237 10.7589 236.74 11.3454 236.221 11.7942C235.701 12.2429 235.046 12.4673 234.254 12.4673H231.786ZM232.778 4.89751V7.63138H233.794C234.337 7.63138 234.764 7.50148 235.075 7.24167C235.386 6.97793 235.542 6.6079 235.542 6.13159C235.542 5.30887 235 4.89751 233.918 4.89751H232.778ZM232.778 8.52299V11.5698H234.124C234.707 11.5698 235.158 11.432 235.477 11.1565C235.799 10.8809 235.961 10.503 235.961 10.0228C235.961 9.02292 235.28 8.52299 233.918 8.52299H232.778Z" fill="#424242"/>
<path fill-rule="evenodd" clip-rule="evenodd" d="M41.4116 1L38.5884 1.00002L38.104 3.42254L36.0484 2.05215L34.0521 4.04839L35.4225 6.10396L33 6.58846V9.41156L35.4225 9.89606L34.0521 11.9516L36.0484 13.9479L38.1039 12.5775L38.5884 15H40.6713C40.3175 14.7136 40.0079 14.3747 39.7545 13.9951H39.4123L39.124 12.5537C39.0977 12.4439 39.0754 12.3325 39.0572 12.2197L38.9407 11.6369L38.1774 11.3207L36.1764 12.6547L35.3453 11.8236L36.6793 9.82263L36.3631 9.05932L34.005 8.5877V7.41232L36.3631 6.94069L36.6793 6.17739L35.3453 4.17643L36.1764 3.34532L38.1774 4.67928L38.9407 4.36313L39.4123 2.00497L40.5877 2.00496L41.0593 4.36311L41.8226 4.67927L43.8236 3.3453L44.6547 4.17642L43.3207 6.17737L43.6369 6.94069L44.2194 7.05719C44.3324 7.07535 44.444 7.09771 44.554 7.12411L45.995 7.41232V7.75447C46.3747 8.00786 46.7136 8.31745 47 8.67133V6.58846L44.5775 6.10396L45.9479 4.04837L43.9516 2.05214L41.896 3.42252L41.4116 1ZM40 6C40.8592 6 41.5919 6.54179 41.875 7.30237C41.5556 7.42609 41.2538 7.58522 40.9746 7.77493C40.8725 7.33103 40.4749 7 40 7C39.4477 7 39 7.44772 39 8C39 8.47489 39.331 8.87247 39.7749 8.97457C39.5852 9.25385 39.4261 9.55558 39.3024 9.87496C38.5418 9.59185 38 8.8592 38 8C38 6.89543 38.8954 6 40 6ZM41.2794 8.79462C41.9053 8.28088 42.69 8.00006 43.4998 8C43.9594 7.99997 44.4145 8.09047 44.8392 8.26634C45.2639 8.44221 45.6497 8.7 45.9748 9.025C46.5474 9.59754 46.9037 10.3509 46.9831 11.1568C47.0625 11.9626 46.8601 12.771 46.4103 13.4443C45.9604 14.1176 45.2911 14.6141 44.5162 14.8492C43.7413 15.0843 42.9089 15.0435 42.1608 14.7337C41.4127 14.4238 40.7951 13.8642 40.4134 13.1501C40.0316 12.436 39.9093 11.6116 40.0672 10.8174C40.2251 10.0232 40.6535 9.30836 41.2794 8.79462ZM40.9998 11V12H45.9998V11H40.9998Z" fill="#424242"/>
<path fill-rule="evenodd" clip-rule="evenodd" d="M71.495 9.052L72.386 11.402H73.477L70.237 3H69.217L66 11.402H67.095L67.933 9.052H71.495ZM69.811 4.453L69.855 4.588L71.173 8.162H68.255L69.562 4.588L69.606 4.453L69.644 4.297L69.676 4.145L69.697 4.019H69.72L69.744 4.145L69.773 4.297L69.811 4.453ZM77.795 10.464V11.4H78.755V7.498C78.755 6.779 78.575 6.226 78.216 5.837C77.857 5.448 77.327 5.254 76.628 5.254C76.429 5.254 76.227 5.273 76.022 5.31C75.817 5.347 75.622 5.394 75.439 5.451C75.256 5.508 75.091 5.569 74.944 5.636C74.797 5.703 74.683 5.765 74.601 5.824V6.808C74.867 6.578 75.167 6.397 75.505 6.268C75.843 6.139 76.194 6.075 76.557 6.075C76.745 6.075 76.915 6.103 77.07 6.16C77.225 6.217 77.357 6.306 77.466 6.427C77.575 6.548 77.659 6.706 77.718 6.899C77.777 7.092 77.806 7.326 77.806 7.599L75.995 7.851C75.651 7.898 75.355 7.977 75.107 8.088C74.859 8.199 74.654 8.339 74.492 8.507C74.33 8.675 74.21 8.868 74.132 9.087C74.054 9.306 74.015 9.546 74.015 9.808C74.015 10.054 74.057 10.283 74.139 10.496C74.221 10.709 74.342 10.893 74.502 11.047C74.662 11.201 74.862 11.323 75.1 11.413C75.338 11.503 75.613 11.548 75.926 11.548C76.328 11.548 76.686 11.456 77.001 11.27C77.316 11.084 77.573 10.816 77.772 10.464H77.795ZM75.667 8.721C75.843 8.657 76.068 8.607 76.341 8.572L77.806 8.367V8.976C77.806 9.222 77.765 9.451 77.683 9.664C77.601 9.877 77.486 10.063 77.34 10.221C77.194 10.379 77.019 10.503 76.816 10.593C76.613 10.683 76.39 10.728 76.148 10.728C75.961 10.728 75.795 10.703 75.653 10.652C75.511 10.601 75.392 10.53 75.296 10.441C75.2 10.352 75.127 10.247 75.076 10.125C75.025 10.003 75 9.873 75 9.732C75 9.568 75.018 9.421 75.055 9.292C75.092 9.163 75.16 9.051 75.257 8.958C75.354 8.865 75.491 8.785 75.667 8.721Z" fill="#424242"/>
</svg>
