<svg width="143" height="16" viewBox="0 0 143 16" fill="none" xmlns="http://www.w3.org/2000/svg">
<path fill-rule="evenodd" clip-rule="evenodd" d="M102.5 1H104H105H106H107H108V2H107V13H108V14H107H106H105H104H103V13H104V8H102.5C100.567 8 99 6.433 99 4.5C99 2.567 100.567 1 102.5 1ZM105 13H106V2H105V7V8V13ZM102.5 2H104V7H102.5C101.119 7 100 5.88071 100 4.5C100 3.11929 101.119 2 102.5 2Z" fill="#424242"/>
<path d="M15 8H1V7H15V8Z" fill="#424242"/>
<path fill-rule="evenodd" clip-rule="evenodd" d="M35.5 2V5.5L36 6H39.5V5H36.979L37.9204 4.05869C39.3076 2.67157 41.5566 2.67157 42.9434 4.05869C44.3306 5.4458 44.3306 7.69476 42.9434 9.08188L37.7456 14.2799L38.4658 14.9999L43.6636 9.80194C45.4482 8.01715 45.4482 5.12341 43.6636 3.33859C41.8789 1.5538 38.9849 1.5538 37.2002 3.33859L36.5 4.03882V2H35.5Z" fill="#424242"/>
<path fill-rule="evenodd" clip-rule="evenodd" d="M136.885 1.69445L135.572 3H138.346C138.566 3 138.783 3.04327 138.986 3.12733C139.189 3.2114 139.373 3.33461 139.528 3.48993C139.683 3.64525 139.806 3.82962 139.89 4.03252C139.974 4.23542 140.017 4.45287 140.017 4.67243L139.517 4.672H140.017V4.67243V10.4539C140.882 10.6794 141.521 11.4661 141.521 12.402C141.521 13.5138 140.62 14.415 139.508 14.415C138.396 14.415 137.495 13.5138 137.495 12.402C137.495 11.4596 138.143 10.6685 139.017 10.4493V4.672V4.67157C139.017 4.58341 139 4.49609 138.966 4.41462C138.932 4.33314 138.883 4.2591 138.821 4.19673C138.758 4.13436 138.684 4.08489 138.603 4.05113C138.521 4.01737 138.434 4 138.346 4H135.539L136.838 5.34332L136.12 6.03868L134.001 3.84868L134.007 3.14655L136.179 0.985546L136.885 1.69445ZM138.495 12.402C138.495 11.8425 138.949 11.389 139.508 11.389C140.067 11.389 140.521 11.8425 140.521 12.402C140.521 12.9615 140.067 13.415 139.508 13.415C138.949 13.415 138.495 12.9615 138.495 12.402ZM129.499 3.513C129.499 2.95354 129.953 2.5 130.512 2.5C131.071 2.5 131.525 2.95354 131.525 3.513C131.525 4.07246 131.071 4.526 130.512 4.526C129.953 4.526 129.499 4.07246 129.499 3.513ZM130.512 1.5C129.4 1.5 128.499 2.40125 128.499 3.513C128.499 4.44782 129.136 5.23382 130 5.46031V11.307C130 11.7502 130.176 12.1752 130.489 12.4886C130.803 12.802 131.228 12.978 131.671 12.978H134.448L133.135 14.2835L133.841 14.9925L136.013 12.8325L136.019 12.1304L133.9 9.93939L133.182 10.6346L134.481 11.978H131.671C131.493 11.978 131.322 11.9073 131.197 11.7815C131.071 11.6556 131 11.485 131 11.307V5.46644C131.876 5.24833 132.525 4.45646 132.525 3.513C132.525 2.40125 131.624 1.5 130.512 1.5Z" fill="#424242"/>
<path fill-rule="evenodd" clip-rule="evenodd" d="M78.4315 3.32316L69.9615 13.3232L69.1708 13.2874L65.8208 8.51736L66.6391 7.94264L69.617 12.1827L77.6684 2.67684L78.4315 3.32316Z" fill="#424242"/>
</svg>
