<svg width="16" height="16" viewBox="0 0 16 16" fill="none" xmlns="http://www.w3.org/2000/svg">
<path fill-rule="evenodd" clip-rule="evenodd" d="M7.50024 13C10.4889 13 12.9208 10.6162 12.9983 7.64618L13.9507 6.69379C13.9834 6.95794 14.0002 7.22701 14.0002 7.5C14.0002 11.0899 11.0901 14 7.50024 14C3.91039 14 1.00024 11.0899 1.00024 7.5C1.00024 3.91015 3.91039 1 7.50024 1C9.65191 1 11.5594 2.04548 12.7424 3.65615L12.0264 4.37432C11.0338 2.93976 9.37676 2 7.50024 2C4.46268 2 2.00024 4.46243 2.00024 7.5C2.00024 10.5376 4.46268 13 7.50024 13ZM13.6973 5.53295L15.0002 4.23002L14.2902 3.52002L10.8803 6.93993L9.50025 5.55986L8.79025 6.26986L10.5203 7.99993H11.2303L12.8799 6.35033C12.8799 6.35036 12.8799 6.35038 12.8799 6.3504L13.6973 5.53301C13.6973 5.53299 13.6973 5.53297 13.6973 5.53295ZM7.00024 7V9H8.00024V7V4H7.00024V7ZM7.00024 11V10H8.00024V11H7.00024Z" fill="#424242"/>
</svg>
