<svg width="16" height="16" viewBox="0 0 16 16" fill="none" xmlns="http://www.w3.org/2000/svg">
<path fill-rule="evenodd" clip-rule="evenodd" d="M3.88906 3.09546C4.95798 2.38123 6.21469 2 7.50027 2C9.22418 2 10.8775 2.68482 12.0965 3.90381C13.3154 5.1228 14.0003 6.77609 14.0003 8.5C14.0003 9.78558 13.619 11.0423 12.9048 12.1112C12.1906 13.1801 11.1754 14.0133 9.9877 14.5052C8.79998 14.9972 7.49308 15.1259 6.2322 14.8751C4.97133 14.6243 3.81312 14.0052 2.90408 13.0962C1.99504 12.1872 1.37595 11.0289 1.12515 9.76807C0.874343 8.50719 1.00305 7.20029 1.49502 6.01257C1.98699 4.82485 2.82014 3.80969 3.88906 3.09546ZM4.4446 13.0731C5.34907 13.6775 6.41247 14 7.50027 14C8.95896 14 10.3579 13.4205 11.3893 12.389C12.4208 11.3576 13.0003 9.95869 13.0003 8.5C13.0003 7.4122 12.6777 6.34881 12.0734 5.44434C11.469 4.53987 10.61 3.83498 9.60501 3.4187C8.60001 3.00242 7.49417 2.89349 6.42727 3.10571C5.36037 3.31793 4.38042 3.84177 3.61123 4.61096C2.84204 5.38015 2.3182 6.36011 2.10598 7.427C1.89376 8.4939 2.00269 9.59974 2.41897 10.6047C2.83525 11.6097 3.54013 12.4688 4.4446 13.0731ZM8.00024 5H7.00024V10H8.00024V5ZM8.00024 11H7.00024V12H8.00024V11Z" fill="#424242"/>
</svg>
