<svg width="16" height="16" viewBox="0 0 16 16" fill="none" xmlns="http://www.w3.org/2000/svg">
<g clip-path="url(#clip0)">
<path fill-rule="evenodd" clip-rule="evenodd" d="M2.00024 6.99994L5.28024 5.64994L4.89024 4.71994L2.57024 5.71994C2.97755 4.53398 3.77927 3.52357 4.84161 2.85735C5.90395 2.19113 7.16265 1.9094 8.40763 2.05917C9.65261 2.20894 10.8086 2.78116 11.6826 3.68033C12.5566 4.57949 13.0958 5.75121 13.2102 6.99994H14.2102C14.1029 5.53846 13.5034 4.15649 12.5096 3.0796C11.5157 2.0027 10.1862 1.29448 8.73798 1.07052C7.28977 0.846559 5.80841 1.12008 4.53568 1.84645C3.26295 2.57282 2.274 3.70914 1.73024 5.06994L0.920244 3.11994L0.000244141 3.49994L1.34024 6.73994L2.00024 6.99994ZM7.24025 4H8.24025V9H7.24025V4ZM7.24025 10H8.24025V11H7.24025V10ZM14.1403 8.33L15.4802 11.56L14.5603 12L13.7402 10C13.1922 11.3661 12.196 12.5054 10.9152 13.2308C9.63437 13.9562 8.145 14.2246 6.69152 13.9921C5.23803 13.7595 3.90678 13.0398 2.91623 11.951C1.92569 10.8621 1.3347 9.46894 1.24025 8H2.24025V7.5C2.24306 8.78746 2.69825 10.033 3.52627 11.0189C4.35428 12.0047 5.50245 12.6683 6.77007 12.8934C8.03769 13.1186 9.34413 12.8911 10.461 12.2507C11.5779 11.6103 12.4342 10.5977 12.8802 9.39L10.6302 10.32L10.2402 9.4L13.4902 8.05L14.1403 8.33Z" fill="#424242"/>
</g>
<defs>
<clipPath id="clip0">
<rect width="16" height="16" fill="white" transform="translate(0.000244141)"/>
</clipPath>
</defs>
</svg>
