<svg width="16" height="16" viewBox="0 0 16 16" fill="none" xmlns="http://www.w3.org/2000/svg">
<path d="M9.00122 13.5928L8.90454 13.918H4.00024L4.12329 13.5928C4.61548 13.5811 4.94067 13.54 5.09888 13.4697C5.35669 13.3701 5.54712 13.2324 5.67017 13.0566C5.86353 12.7812 6.06274 12.2891 6.26782 11.5801L8.34204 4.39062C8.51782 3.79297 8.60571 3.3418 8.60571 3.03711C8.60571 2.88477 8.56763 2.75586 8.49146 2.65039C8.41528 2.54492 8.2981 2.46582 8.13989 2.41309C7.98755 2.35449 7.68579 2.3252 7.23462 2.3252L7.34009 2H11.9456L11.8489 2.3252C11.4739 2.31934 11.1956 2.36035 11.0139 2.44824C10.7502 2.56543 10.5481 2.73242 10.4075 2.94922C10.2727 3.16602 10.0969 3.64648 9.88013 4.39062L7.8147 11.5801C7.6272 12.2422 7.53345 12.6641 7.53345 12.8457C7.53345 12.9922 7.5686 13.1182 7.63892 13.2236C7.71509 13.3232 7.83228 13.4023 7.99048 13.4609C8.15454 13.5137 8.49146 13.5576 9.00122 13.5928Z" fill="#424242"/>
</svg>
