<svg width="16" height="16" viewBox="0 0 16 16" fill="none" xmlns="http://www.w3.org/2000/svg">
<path d="M11.9102 14.22H4.06024L3.56024 13.72V7.06H2.15024L1.67024 6.68L1.00024 4L1.33024 3.4L5.59024 2L6.23024 2.32C6.2459 2.37163 6.26598 2.42181 6.29024 2.47C6.33435 2.5696 6.38444 2.66645 6.44024 2.76C6.51169 2.86344 6.59199 2.96047 6.68024 3.05C6.84814 3.21902 7.04895 3.35176 7.27024 3.44C7.49625 3.53655 7.73948 3.58633 7.98524 3.58633C8.23101 3.58633 8.47424 3.53655 8.70024 3.44C8.92154 3.35176 9.12235 3.21902 9.29024 3.05C9.37941 2.95501 9.46289 2.85483 9.54024 2.75L9.69024 2.46C9.70976 2.4144 9.72646 2.36765 9.74024 2.32L10.3802 2L14.6402 3.42L15.0002 4L14.3402 6.66L13.8502 7.04H12.4102V13.7L11.9102 14.22ZM4.56024 13.22H11.4102V6.56L11.9102 6.06H13.4302L13.8902 4.23L10.4902 3.09C10.4579 3.16409 10.4176 3.23449 10.3702 3.3C10.261 3.46107 10.1372 3.61171 10.0002 3.75C9.74089 4.01231 9.43142 4.21976 9.09024 4.36C8.73903 4.50852 8.36157 4.58504 7.98024 4.58504C7.59891 4.58504 7.22146 4.50852 6.87024 4.36C6.54538 4.21159 6.2505 4.00483 6.00024 3.75C5.86147 3.61976 5.74043 3.47182 5.64024 3.31L5.51024 3.09L2.08024 4.23L2.54024 6.06H4.06024L4.56024 6.56V13.22Z" fill="#424242"/>
</svg>
