<svg width="16" height="16" viewBox="0 0 16 16" fill="none" xmlns="http://www.w3.org/2000/svg">
<path fill-rule="evenodd" clip-rule="evenodd" d="M7.44467 13.8315C7.60912 13.9414 7.80246 14 8.00024 14C8.26546 14 8.51981 13.8946 8.70735 13.7071C8.89489 13.5196 9.00024 13.2652 9.00024 13C9.00024 12.8022 8.9416 12.6089 8.83171 12.4444C8.72183 12.28 8.56565 12.1518 8.38293 12.0761C8.2002 12.0004 7.99914 11.9806 7.80515 12.0192C7.61117 12.0578 7.43299 12.153 7.29314 12.2929C7.15329 12.4327 7.05804 12.6109 7.01946 12.8049C6.98087 12.9989 7.00068 13.2 7.07636 13.3827C7.15205 13.5654 7.28022 13.7216 7.44467 13.8315ZM8.00024 9C7.80246 9 7.60912 8.94135 7.44467 8.83147C7.28022 8.72159 7.15205 8.56541 7.07636 8.38268C7.00068 8.19996 6.98087 7.99889 7.01946 7.80491C7.05804 7.61093 7.15329 7.43274 7.29314 7.29289C7.43299 7.15304 7.61117 7.0578 7.80515 7.01921C7.99914 6.98063 8.2002 7.00043 8.38293 7.07612C8.56565 7.15181 8.72183 7.27998 8.83171 7.44443C8.9416 7.60888 9.00024 7.80222 9.00024 8C9.00024 8.26522 8.89489 8.51957 8.70735 8.70711C8.51981 8.89464 8.26546 9 8.00024 9ZM8.00025 4C7.80247 4 7.60913 3.94135 7.44468 3.83147C7.28023 3.72159 7.15206 3.56541 7.07637 3.38268C7.00068 3.19996 6.98088 2.99889 7.01946 2.80491C7.05805 2.61093 7.15329 2.43275 7.29314 2.29289C7.433 2.15304 7.61118 2.0578 7.80516 2.01921C7.99914 1.98063 8.20021 2.00043 8.38293 2.07612C8.56566 2.15181 8.72184 2.27998 8.83172 2.44443C8.9416 2.60888 9.00025 2.80222 9.00025 3C9.00025 3.26522 8.89489 3.51957 8.70736 3.70711C8.51982 3.89464 8.26547 4 8.00025 4Z" fill="#424242"/>
</svg>
