<svg width="16" height="16" viewBox="0 0 16 16" fill="none" xmlns="http://www.w3.org/2000/svg">
<path fill-rule="evenodd" clip-rule="evenodd" d="M11.3512 1.09104C12.2242 1.26878 13.0253 1.70005 13.6542 2.33088C14.186 2.86724 14.5767 3.52697 14.7913 4.25113C15.006 4.9753 15.0379 5.74136 14.8842 6.48088C14.6616 7.49472 14.1015 8.40297 13.2954 9.05696C12.4894 9.71096 11.4852 10.072 10.4472 10.0809C10.0093 10.0816 9.57365 10.0179 9.15424 9.89188L8.35424 10.8289L7.97524 11.0039H7.00024V12.5039L6.50024 13.0039H5.00024V14.5039L4.50024 15.0039H1.50024L1.00024 14.5039V12.1969L1.14624 11.8439L6.12024 6.87088C5.97908 6.4162 5.91156 5.94188 5.92024 5.46588C5.93247 4.57514 6.20716 3.70779 6.70994 2.97241C7.21272 2.23704 7.92124 1.6663 8.74681 1.33165C9.57239 0.997 10.4783 0.913306 11.3512 1.09104ZM12.6695 8.29061C13.2976 7.78194 13.7343 7.07512 13.9082 6.28588L13.9122 6.29088C14.0357 5.71382 14.0132 5.11505 13.8465 4.54894C13.6799 3.98283 13.3745 3.46731 12.958 3.04919C12.5416 2.63106 12.0273 2.32358 11.4619 2.15465C10.8965 1.98572 10.2978 1.96071 9.72024 2.08188C8.94103 2.25482 8.24207 2.68349 7.73466 3.29963C7.22725 3.91577 6.94057 4.68396 6.92024 5.48188C6.90944 5.93679 6.99073 6.38919 7.15924 6.81188L7.04924 7.35388L2.00024 12.4039V14.0039H4.00024V12.5039L4.50024 12.0039H6.00024V10.5039L6.50024 10.0039H7.74524L8.62124 8.98788L9.18224 8.84788C9.58663 9.0059 10.0171 9.08663 10.4512 9.08588C11.2594 9.07967 12.0415 8.79928 12.6695 8.29061ZM11.8317 5.55948C11.9416 5.39503 12.0002 5.20169 12.0002 5.00391C12.0002 4.73869 11.8949 4.48434 11.7074 4.2968C11.5198 4.10926 11.2655 4.00391 11.0002 4.00391C10.8025 4.00391 10.6091 4.06256 10.4447 4.17244C10.2802 4.28232 10.1521 4.4385 10.0764 4.62122C10.0007 4.80395 9.98087 5.00502 10.0195 5.199C10.058 5.39298 10.1533 5.57116 10.2931 5.71101C10.433 5.85087 10.6112 5.94611 10.8052 5.98469C10.9991 6.02328 11.2002 6.00347 11.3829 5.92779C11.5657 5.8521 11.7218 5.72393 11.8317 5.55948Z" fill="#424242"/>
</svg>
