<svg width="16" height="16" viewBox="0 0 16 16" fill="none" xmlns="http://www.w3.org/2000/svg">
<path fill-rule="evenodd" clip-rule="evenodd" d="M5.00024 2.5L5.50024 2H7.50024L8.00024 2.5V13.5L7.50024 14H5.50024L5.00024 13.5V2.5ZM6.00024 3V13H7.00024V3H6.00024Z" fill="#424242"/>
<path fill-rule="evenodd" clip-rule="evenodd" d="M9.17125 3.34472L9.47009 2.70387L11.3495 2.01983L11.9903 2.31866L15.7526 12.6553L15.4537 13.2961L13.5743 13.9802L12.9335 13.6813L9.17125 3.34472ZM10.282 3.47255L13.7022 12.8695L14.6419 12.5275L11.2216 3.13053L10.282 3.47255Z" fill="#424242"/>
<path fill-rule="evenodd" clip-rule="evenodd" d="M1.00024 2.5L1.50024 2H3.50024L4.00024 2.5V13.5L3.50024 14H1.50024L1.00024 13.5V2.5ZM2.00024 3V13H3.00024V3H2.00024Z" fill="#424242"/>
</svg>
