<svg width="16" height="16" viewBox="0 0 16 16" fill="none" xmlns="http://www.w3.org/2000/svg">
<path fill-rule="evenodd" clip-rule="evenodd" d="M11.671 8.65806C11.3322 8.9916 11.0718 9.36278 10.8889 9.77172C10.7108 10.1792 10.6213 10.6219 10.6213 11.1009V12.7012C10.6213 12.8807 10.5874 13.0503 10.5191 13.2091C10.4516 13.3661 10.3589 13.5038 10.2409 13.6213C10.123 13.7388 9.98489 13.8311 9.82747 13.8984C9.6683 13.9663 9.4983 14 9.31848 14H7.7123C7.53247 14 7.36247 13.9663 7.2033 13.8984C7.04589 13.8311 6.90778 13.7388 6.78985 13.6213C6.67192 13.5038 6.57919 13.3661 6.51166 13.2091C6.44336 13.0503 6.40951 12.8807 6.40951 12.7012V11.1009C6.40951 10.622 6.31796 10.1795 6.13577 9.77209C5.95707 9.36336 5.69856 8.99156 5.35977 8.65806C4.92493 8.22903 4.58921 7.75003 4.35385 7.22134C4.1178 6.69107 4.00024 6.11672 4.00024 5.49953C4.00024 5.08664 4.05366 4.68802 4.16073 4.30397C4.26752 3.92089 4.41931 3.56286 4.61619 3.23018C4.81282 2.89377 5.04802 2.58911 5.32171 2.31641C5.59528 2.04383 5.89883 1.80953 6.23219 1.61364C6.57003 1.41764 6.93171 1.2662 7.31602 1.15983C7.7013 1.0532 8.10119 1 8.51539 1C8.92959 1 9.32947 1.0532 9.71475 1.15983C10.0991 1.2662 10.4583 1.41739 10.7921 1.61351C11.1296 1.80938 11.4354 2.0437 11.7091 2.31641C11.9828 2.5891 12.2179 2.89376 12.4146 3.23016C12.6115 3.56285 12.7633 3.92088 12.87 4.30397C12.9771 4.68802 13.0305 5.08664 13.0305 5.49953C13.0305 6.11672 12.913 6.69107 12.6769 7.22134C12.4416 7.75003 12.1058 8.22903 11.671 8.65806ZM9.62187 10.5H7.40891V12.7012C7.40891 12.7823 7.43744 12.8512 7.49913 12.9127C7.56083 12.9741 7.63031 13.0028 7.7123 13.0028H9.31848C9.40046 13.0028 9.46995 12.9741 9.53165 12.9127C9.59333 12.8512 9.62187 12.7823 9.62187 12.7012V10.5Z" fill="#DDB100"/>
</svg>
