<svg width="16" height="16" viewBox="0 0 16 16" fill="none" xmlns="http://www.w3.org/2000/svg">
<path d="M12.0003 9C11.4069 9 10.8269 9.17597 10.3335 9.50562C9.84016 9.83526 9.45571 10.3038 9.22865 10.8519C9.00159 11.4001 8.94212 12.0034 9.05787 12.5853C9.17363 13.1673 9.45936 13.7018 9.87892 14.1213C10.2985 14.5409 10.833 14.8266 11.4149 14.9424C11.9969 15.0581 12.6001 14.9987 13.1483 14.7716C13.6965 14.5445 14.165 14.1601 14.4946 13.6667C14.8243 13.1734 15.0003 12.5933 15.0003 12C15.0003 11.2044 14.6842 10.4413 14.1216 9.87866C13.559 9.31605 12.7959 9 12.0003 9ZM13.3103 14L12.0003 13L10.7002 14L11.2002 12.47L10.0003 11.64H11.4702L12.0003 10L12.5403 11.64H14.0003L12.8003 12.47L13.3103 14Z" fill="#007ACC"/>
<path fill-rule="evenodd" clip-rule="evenodd" d="M11.1711 8.08474C9.85106 8.35911 8.77712 9.27684 8.28721 10.5H6.40891V12.7012C6.40891 12.7823 6.43744 12.8512 6.49913 12.9127C6.56083 12.9741 6.63031 13.0028 6.7123 13.0028H8.12511C8.21389 13.3513 8.34797 13.6809 8.52083 13.9851C8.45486 13.9951 8.38739 14 8.31848 14H6.7123C6.53247 14 6.36247 13.9663 6.2033 13.8984C6.04589 13.8311 5.90778 13.7388 5.78985 13.6213C5.67192 13.5038 5.57919 13.3661 5.51166 13.2091C5.44336 13.0503 5.40951 12.8807 5.40951 12.7012V11.1009C5.40951 10.622 5.31796 10.1795 5.13577 9.77209C4.95707 9.36336 4.69856 8.99156 4.35977 8.65806C3.92493 8.22903 3.58921 7.75003 3.35385 7.22134C3.1178 6.69107 3.00024 6.11672 3.00024 5.49953C3.00024 5.08664 3.05366 4.68802 3.16073 4.30397C3.26752 3.92089 3.41931 3.56286 3.61619 3.23018C3.81282 2.89377 4.04802 2.58911 4.32171 2.31641C4.59528 2.04383 4.89883 1.80953 5.23219 1.61364C5.57003 1.41764 5.93171 1.2662 6.31602 1.15983C6.7013 1.0532 7.10119 1 7.51539 1C7.92959 1 8.32947 1.0532 8.71475 1.15983C9.09907 1.2662 9.45828 1.41739 9.79207 1.61351C10.1296 1.80938 10.4354 2.0437 10.7091 2.31641C10.9828 2.5891 11.2179 2.89376 11.4146 3.23016C11.6115 3.56285 11.7633 3.92088 11.87 4.30397C11.9771 4.68802 12.0305 5.08664 12.0305 5.49953C12.0305 6.11672 11.913 6.69107 11.6769 7.22134C11.5415 7.52562 11.3728 7.81344 11.1711 8.08474Z" fill="#007ACC"/>
</svg>
