<svg width="16" height="16" viewBox="0 0 16 16" fill="none" xmlns="http://www.w3.org/2000/svg">
<path d="M13.0002 7H12.0002V5C12.0002 3.93913 11.5788 2.92178 10.8287 2.17163C10.0785 1.42149 9.06111 1 8.00024 1C6.93938 1 5.92196 1.42149 5.17181 2.17163C4.42167 2.92178 4.00024 3.93913 4.00024 5V7H3.00024L2.00024 8V14L3.00024 15H13.0002L14.0002 14V8L13.0002 7ZM5.00024 5C5.00024 4.20435 5.3163 3.44127 5.87891 2.87866C6.44152 2.31605 7.20459 2 8.00024 2C8.79589 2 9.55897 2.31605 10.1216 2.87866C10.6842 3.44127 11.0002 4.20435 11.0002 5V7H5.00024V5ZM13.0002 14H3.00024V8H13.0002V14Z" fill="#424242"/>
</svg>
