<svg width="16" height="16" viewBox="0 0 16 16" fill="none" xmlns="http://www.w3.org/2000/svg">
<path d="M12.9998 7H11.9998V5C11.9998 3.93913 11.5783 2.92178 10.8282 2.17163C10.078 1.42149 9.06062 1 7.99976 1C6.93889 1 5.92147 1.42149 5.17133 2.17163C4.42118 2.92178 3.99976 3.93913 3.99976 5V7H2.99976L1.99976 8V14L2.99976 15H12.9998L13.9998 14V8L12.9998 7ZM4.99976 5C4.99976 4.20435 5.31581 3.44127 5.87842 2.87866C6.44103 2.31605 7.20411 2 7.99976 2C8.79541 2 9.55848 2.31605 10.1211 2.87866C10.6837 3.44127 10.9998 4.20435 10.9998 5V7H4.99976V5ZM12.9998 14H2.99976V8H12.9998V14Z" fill="#424242"/>
</svg>
