<svg width="16" height="16" viewBox="0 0 16 16" fill="none" xmlns="http://www.w3.org/2000/svg">
<path d="M8.00024 1.5C4.10024 1.5 1.00024 4.6 1.00024 8.5V10.5V10.7V13.5L2.00024 14.5H5.00024L6.00024 13.5V11V10.5V8.5C6.00024 7.4 6.90024 6.5 8.00024 6.5C9.10024 6.5 10.0002 7.4 10.0002 8.5V10.5V11V13.5L11.0002 14.5H14.0002L15.0002 13.5V11.3V10.5V8.5C15.0002 4.6 11.9002 1.5 8.00024 1.5ZM5.00024 13.5H2.00024V10.7V10.5H3.00024H5.00024V11V13.5ZM14.0002 13.5H11.0002V11V10.5H12.0002H14.0002V11.3V13.5ZM11.0002 9.5V8.5C11.0002 6.8 9.70024 5.5 8.00024 5.5C6.40024 5.5 5.10024 6.8 5.00024 8.3V9.5H2.00024V8.5C2.00024 5.2 4.70024 2.5 8.00024 2.5C11.3002 2.5 14.0002 5.2 14.0002 8.5V9.5H11.0002Z" fill="#424242"/>
</svg>
