<svg width="16" height="16" viewBox="0 0 16 16" fill="none" xmlns="http://www.w3.org/2000/svg">
<path fill-rule="evenodd" clip-rule="evenodd" d="M2.00008 6.77002L14.3301 3.33997L15.0001 3.86997V12.47L14.3301 13L8.24182 11.4051C8.19528 11.5852 8.12553 11.7591 8.03389 11.9223C7.87315 12.2085 7.64927 12.4543 7.37927 12.6411C7.10927 12.8279 6.80025 12.9506 6.4757 13C6.15115 13.0495 5.8196 13.0242 5.50625 12.9263C5.1929 12.8284 4.90599 12.6603 4.66733 12.4349C4.42867 12.2095 4.24453 11.9326 4.12891 11.6254C4.01329 11.3181 3.96923 10.9885 4.00008 10.6617C4.01131 10.5427 4.03236 10.4252 4.06285 10.3104L2.00008 9.77002L1.58008 9.24002V7.30002L2.00008 6.77002ZM5.00622 10.5575C4.98457 10.6358 4.97127 10.7168 4.96693 10.7991C4.96693 11.1094 5.0902 11.407 5.30962 11.6265C5.52904 11.8459 5.82663 11.9691 6.13693 11.9691C6.44724 11.9691 6.74483 11.8459 6.96425 11.6265C7.09963 11.4911 7.19841 11.3259 7.25421 11.1464L5.00622 10.5575ZM2.58008 8.82002L14.0001 11.83V4.49997L2.58008 7.72002V8.82002Z" fill="#424242"/>
</svg>
