<svg width="16" height="16" viewBox="0 0 16 16" fill="none" xmlns="http://www.w3.org/2000/svg">
<path fill-rule="evenodd" clip-rule="evenodd" d="M1.99977 6.77002L14.3298 3.33997L14.9998 3.86997V12.47L14.3298 13L8.24151 11.4051C8.19497 11.5852 8.12523 11.7591 8.03358 11.9223C7.87284 12.2085 7.64896 12.4543 7.37896 12.6411C7.10896 12.8279 6.79995 12.9506 6.4754 13C6.15084 13.0495 5.81929 13.0242 5.50595 12.9263C5.1926 12.8284 4.90569 12.6603 4.66703 12.4349C4.42837 12.2095 4.24423 11.9326 4.12861 11.6254C4.01299 11.3181 3.96893 10.9885 3.99978 10.6617C4.01101 10.5427 4.03206 10.4252 4.06254 10.3104L1.99977 9.77002L1.57977 9.24002V7.30002L1.99977 6.77002ZM5.00592 10.5575C4.98426 10.6358 4.97097 10.7168 4.96663 10.7991C4.96663 11.1094 5.0899 11.407 5.30931 11.6265C5.52873 11.8459 5.82633 11.9691 6.13663 11.9691C6.44693 11.9691 6.74453 11.8459 6.96394 11.6265C7.09933 11.4911 7.1981 11.3259 7.25391 11.1464L5.00592 10.5575ZM2.57977 8.82002L13.9998 11.83V4.49997L2.57977 7.72002V8.82002Z" fill="#424242"/>
</svg>
