<svg width="16" height="16" viewBox="0 0 16 16" fill="none" xmlns="http://www.w3.org/2000/svg">
<path fill-rule="evenodd" clip-rule="evenodd" d="M4.00003 2H12V6.02741C12.3468 6.06574 12.6816 6.14346 13 6.25601V1H3.00003V9.48433L4.00003 7.73433V2ZM4.00003 9.74989L3.28568 11L1 14.9999H9L6.71432 11L6.14289 10L5 7.99994L4.00003 9.74989ZM5.56257 11L5 10.0155L4.43743 11L2.72318 13.9999H7.27682L5.56257 11ZM11.5 12.9999C12.8807 12.9999 14 11.8807 14 10.4999C14 9.11923 12.8807 7.99994 11.5 7.99994C10.1193 7.99994 9 9.11923 9 10.4999C9 11.8807 10.1193 12.9999 11.5 12.9999ZM11.5 13.9999C13.433 13.9999 15 12.4329 15 10.4999C15 8.56694 13.433 6.99994 11.5 6.99994C9.567 6.99994 8 8.56694 8 10.4999C8 12.4329 9.567 13.9999 11.5 13.9999Z" fill="#424242"/>
</svg>
