<svg width="24" height="24" viewBox="0 0 24 24" fill="none" xmlns="http://www.w3.org/2000/svg">
<path d="M6.00024 12C6.00024 12.2967 5.91227 12.5867 5.74745 12.8334C5.58263 13.08 5.34836 13.2723 5.07427 13.3858C4.80018 13.4994 4.49858 13.5291 4.20761 13.4712C3.91664 13.4133 3.64936 13.2704 3.43958 13.0607C3.22981 12.8509 3.08694 12.5836 3.02907 12.2926C2.97119 12.0017 3.00089 11.7001 3.11443 11.426C3.22796 11.1519 3.42022 10.9176 3.66689 10.7528C3.91356 10.588 4.20357 10.5 4.50024 10.5C4.89807 10.5 5.2796 10.658 5.56091 10.9393C5.84221 11.2206 6.00024 11.6022 6.00024 12Z" fill="#424242"/>
<path d="M13.5002 12C13.5002 12.2967 13.4123 12.5867 13.2474 12.8334C13.0826 13.08 12.8484 13.2723 12.5743 13.3858C12.3002 13.4994 11.9986 13.5291 11.7076 13.4712C11.4166 13.4133 11.1494 13.2704 10.9396 13.0607C10.7298 12.8509 10.5869 12.5836 10.5291 12.2926C10.4712 12.0017 10.5009 11.7001 10.6144 11.426C10.728 11.1519 10.9202 10.9176 11.1669 10.7528C11.4136 10.588 11.7036 10.5 12.0002 10.5C12.3981 10.5 12.7796 10.658 13.0609 10.9393C13.3422 11.2206 13.5002 11.6022 13.5002 12Z" fill="#424242"/>
<path d="M21.0002 12C21.0002 12.2967 20.9123 12.5867 20.7474 12.8334C20.5826 13.08 20.3484 13.2723 20.0743 13.3858C19.8002 13.4994 19.4986 13.5291 19.2076 13.4712C18.9166 13.4133 18.6494 13.2704 18.4396 13.0607C18.2298 12.8509 18.0869 12.5836 18.0291 12.2926C17.9712 12.0017 18.0009 11.7001 18.1144 11.426C18.228 11.1519 18.4202 10.9176 18.6669 10.7528C18.9136 10.588 19.2036 10.5 19.5002 10.5C19.8981 10.5 20.2796 10.658 20.5609 10.9393C20.8422 11.2206 21.0002 11.6022 21.0002 12Z" fill="#424242"/>
</svg>
