<svg width="16" height="16" viewBox="0 0 16 16" fill="none" xmlns="http://www.w3.org/2000/svg">
<path fill-rule="evenodd" clip-rule="evenodd" d="M10.2325 10.7071L8.50024 12.4393L8.50024 9.00001H7.50024L7.50024 12.4393L5.76801 10.7071L5.0609 11.4142L7.64669 14H8.3538L10.9396 11.4142L10.2325 10.7071ZM5.06091 3.58579L5.76801 4.29289L7.50024 2.56066V5.99999L8.50024 5.99999L8.50024 2.56066L10.2325 4.29289L10.9396 3.58578L8.3538 1H7.64669L5.0609 3.58578L5.06091 3.58579ZM4.79314 5.26776L3.0609 6.99999H6.50024V7.99999H3.0609L4.79314 9.73222L4.08603 10.4393L1.50024 7.85355V7.14644L4.08603 4.56065L4.79314 5.26776ZM9.50025 6.99999L12.9396 6.99999L11.2074 5.26776L11.9145 4.56065L14.5002 7.14644V7.85354L11.9145 10.4393L11.2074 9.73222L12.9396 7.99999L9.50025 7.99999L9.50025 6.99999Z" fill="#424242"/>
</svg>
