<svg width="16" height="16" viewBox="0 0 16 16" fill="none" xmlns="http://www.w3.org/2000/svg">
<path fill-rule="evenodd" clip-rule="evenodd" d="M2.33329 5.50559C2.82664 5.17595 3.40666 5 4 5C4.79565 5 5.55871 5.31607 6.12132 5.87868C6.68393 6.44129 7 7.20435 7 8C7 8.59334 6.82405 9.17336 6.49441 9.66671C6.16477 10.1601 5.69623 10.5446 5.14805 10.7716C4.59987 10.9987 3.99667 11.0581 3.41473 10.9424C2.83279 10.8266 2.29824 10.5409 1.87868 10.1213C1.45912 9.70176 1.1734 9.16721 1.05765 8.58527C0.94189 8.00333 1.0013 7.40013 1.22836 6.85195C1.45543 6.30377 1.83994 5.83524 2.33329 5.50559ZM5.01 6.283C4.70478 6.09986 4.35595 6.00212 4 6C3.64728 5.9979 3.30035 6.08968 2.99481 6.26593C2.68927 6.44218 2.43613 6.69655 2.26136 7.00294C2.08659 7.30932 1.99648 7.65669 2.00028 8.0094C2.00409 8.36211 2.10166 8.70745 2.283 9.01L5.01 6.283ZM2.99 9.717C3.29522 9.90014 3.64406 9.99788 4 10C4.35272 10.0021 4.69965 9.91032 5.00519 9.73407C5.31073 9.55782 5.56387 9.30345 5.73864 8.99706C5.91342 8.69068 6.00352 8.34331 5.99972 7.9906C5.99592 7.63789 5.89834 7.29255 5.717 6.99L2.99 9.717ZM13.9998 5V6.98404C13.9998 7.11665 13.9472 7.24383 13.8534 7.3376C13.7596 7.43136 13.6325 7.48404 13.4998 7.48404H9.36684L10.9998 5.85104L10.2928 5.14404L8.17184 7.26504L7.74915 7.68774V8.25634L10.2928 10.8L10.9998 10.093L9.39084 8.48404H13.4998C13.8977 8.48404 14.2792 8.32601 14.5605 8.0447C14.8418 7.7634 14.9998 7.38187 14.9998 6.98404V5H13.9998Z" fill="#424242"/>
</svg>
