<svg width="16" height="16" viewBox="0 0 16 16" fill="none" xmlns="http://www.w3.org/2000/svg">
<path fill-rule="evenodd" clip-rule="evenodd" d="M2.33353 5.50559C2.82688 5.17595 3.4069 5 4.00025 5C4.7959 5 5.55896 5.31607 6.12157 5.87868C6.68418 6.44129 7.00025 7.20435 7.00025 8C7.00025 8.59334 6.8243 9.17336 6.49465 9.66671C6.16501 10.1601 5.69647 10.5446 5.1483 10.7716C4.60012 10.9987 3.99692 11.0581 3.41497 10.9424C2.83303 10.8266 2.29848 10.5409 1.87893 10.1213C1.45937 9.70176 1.17365 9.16721 1.05789 8.58527C0.942134 8.00333 1.00154 7.40013 1.22861 6.85195C1.45567 6.30377 1.84019 5.83524 2.33353 5.50559ZM5.01025 6.283C4.70502 6.09986 4.35619 6.00212 4.00025 6C3.64752 5.9979 3.30059 6.08968 2.99506 6.26593C2.68952 6.44218 2.43637 6.69655 2.2616 7.00294C2.08683 7.30932 1.99672 7.65669 2.00053 8.0094C2.00433 8.36211 2.10191 8.70745 2.28325 9.01L5.01025 6.283ZM2.99025 9.717C3.29547 9.90014 3.6443 9.99788 4.00025 10C4.35297 10.0021 4.6999 9.91032 5.00544 9.73407C5.31097 9.55782 5.56412 9.30345 5.73889 8.99706C5.91366 8.69068 6.00377 8.34331 5.99996 7.9906C5.99616 7.63789 5.89858 7.29255 5.71725 6.99L2.99025 9.717ZM14.0001 5V6.98404C14.0001 7.11665 13.9474 7.24383 13.8536 7.3376C13.7599 7.43136 13.6327 7.48404 13.5001 7.48404H9.36709L11.0001 5.85104L10.2931 5.14404L8.17209 7.26504L7.74939 7.68774V8.25634L10.2931 10.8L11.0001 10.093L9.39109 8.48404H13.5001C13.8979 8.48404 14.2794 8.32601 14.5607 8.0447C14.8421 7.7634 15.0001 7.38187 15.0001 6.98404V5H14.0001Z" fill="#424242"/>
</svg>
