<svg width="16" height="16" viewBox="0 0 16 16" fill="none" xmlns="http://www.w3.org/2000/svg">
<path fill-rule="evenodd" clip-rule="evenodd" d="M13.8627 5.67254C13.9765 5.39254 14.344 4.28129 13.749 2.77629C13.749 2.77629 12.8302 2.48754 10.739 3.91379C9.86399 3.66879 8.92774 3.63379 8.00024 3.63379C7.07274 3.63379 6.13649 3.66879 5.26149 3.91379C3.17024 2.47879 2.25149 2.77629 2.25149 2.77629C1.65649 4.28129 2.02399 5.39254 2.13774 5.67254C1.42899 6.43379 1.00024 7.41379 1.00024 8.60379C1.00024 13.11 3.91399 14.125 7.98274 14.125C12.0515 14.125 15.0002 13.11 15.0002 8.60379C15.0002 7.41379 14.5715 6.43379 13.8627 5.67254ZM8.00024 13.2675C5.11274 13.2675 2.76774 13.1363 2.76774 10.3363C2.76774 9.67129 3.10024 9.04129 3.66024 8.52504C4.59649 7.66754 6.19774 8.12254 8.00024 8.12254C9.81149 8.12254 11.3952 7.66754 12.3402 8.52504C12.909 9.04129 13.2327 9.66254 13.2327 10.3363C13.2327 13.1275 10.8877 13.2675 8.00024 13.2675ZM5.80399 8.88379C5.22649 8.88379 4.75399 9.58379 4.75399 10.4413C4.75399 11.2988 5.22649 12.0075 5.80399 12.0075C6.38149 12.0075 6.85399 11.3075 6.85399 10.4413C6.85399 9.57504 6.38149 8.88379 5.80399 8.88379ZM10.1965 8.88379C9.61899 8.88379 9.14649 9.57504 9.14649 10.4413C9.14649 11.3075 9.61899 12.0075 10.1965 12.0075C10.774 12.0075 11.2465 11.3075 11.2465 10.4413C11.2465 9.57504 10.7827 8.88379 10.1965 8.88379Z" fill="#424242"/>
</svg>
