<svg width="16" height="16" viewBox="0 0 16 16" fill="none" xmlns="http://www.w3.org/2000/svg">
<path fill-rule="evenodd" clip-rule="evenodd" d="M9.11145 4.66295C8.78255 4.88272 8.39587 4.99999 8.00031 4.99999C7.46987 4.99999 6.96119 4.78925 6.58612 4.41417C6.21105 4.0391 6.00031 3.53042 6.00031 2.99999C6.00031 2.60443 6.11758 2.2178 6.33734 1.88891C6.5571 1.56001 6.86947 1.30359 7.23492 1.15221C7.60038 1.00084 8.00254 0.961271 8.3905 1.03844C8.77846 1.11561 9.13478 1.3061 9.41449 1.5858C9.69419 1.86551 9.88468 2.22189 9.96185 2.60985C10.039 2.99781 9.99946 3.39992 9.84808 3.76537C9.69671 4.13082 9.44035 4.44319 9.11145 4.66295ZM8.55585 2.16857C8.3914 2.05869 8.19809 1.99999 8.00031 1.99999C7.73509 1.99999 7.48075 2.1053 7.29321 2.29284C7.10568 2.48037 7.00031 2.73477 7.00031 2.99999C7.00031 3.19777 7.05894 3.39108 7.16882 3.55553C7.2787 3.71998 7.43489 3.84813 7.61761 3.92382C7.80034 3.9995 8.00139 4.01941 8.19537 3.98082C8.38935 3.94224 8.56754 3.84699 8.7074 3.70714C8.84725 3.56729 8.94249 3.38904 8.98108 3.19506C9.01966 3.00108 8.99988 2.80002 8.92419 2.6173C8.84851 2.43457 8.7203 2.27845 8.55585 2.16857ZM11.167 2.19968C11.4136 2.03391 11.7036 1.94543 12.0003 1.94543C12.3981 1.94543 12.7797 2.10438 13.061 2.3873C13.3423 2.67022 13.5003 3.05394 13.5003 3.45406C13.5003 3.75243 13.4123 4.04411 13.2475 4.2922C13.0827 4.54029 12.8484 4.73366 12.5743 4.84784C12.3002 4.96202 11.9986 4.9919 11.7077 4.93369C11.4167 4.87548 11.1494 4.7318 10.9396 4.52081C10.7299 4.30983 10.587 4.04102 10.5291 3.74837C10.4713 3.45573 10.501 3.1524 10.6145 2.87673C10.728 2.60107 10.9203 2.36545 11.167 2.19968ZM11.6468 3.80964C11.7405 3.90395 11.8677 3.95693 12.0003 3.95693C12.1329 3.95693 12.2601 3.90395 12.3539 3.80964C12.4476 3.71533 12.5003 3.58743 12.5003 3.45406C12.4977 3.32149 12.4442 3.19507 12.351 3.10132C12.2578 3.00756 12.1321 2.95376 12.0003 2.95118C11.8677 2.95118 11.7405 3.00416 11.6468 3.09847C11.553 3.19278 11.5003 3.32068 11.5003 3.45406C11.5003 3.58743 11.553 3.71533 11.6468 3.80964ZM3.19032 12.4857H5.00032V13.4914H3.19032C2.8738 13.4888 2.57114 13.3604 2.34825 13.1344C2.12537 12.9083 2.00031 12.6029 2.00032 12.2845V10.4742C1.86587 10.4697 1.73368 10.438 1.61169 10.381C1.48969 10.324 1.38039 10.2428 1.29032 10.1423C1.19521 10.0459 1.12049 9.93119 1.07065 9.80501C1.02081 9.67883 0.996886 9.54381 1.00032 9.40808V7.22561C1.00333 6.75424 1.19003 6.30286 1.52032 5.96842C1.84916 5.63683 2.29468 5.44893 2.76032 5.44543H4.60032C4.35234 5.74058 4.16536 6.0825 4.05032 6.45118H2.76032C2.55769 6.4567 2.36468 6.53937 2.22032 6.6825C2.07904 6.82753 2.00003 7.02257 2.00032 7.22561V9.45836H3.00032V12.2845C2.99803 12.3118 3.00128 12.3392 3.00987 12.3651C3.01847 12.3911 3.03223 12.415 3.05032 12.4354C3.09052 12.4666 3.13954 12.4842 3.19032 12.4857ZM10.4903 5.96842C10.159 5.63438 9.70943 5.44628 9.24032 5.44543H6.76032C6.29468 5.44893 5.84916 5.63683 5.52032 5.96842C5.19002 6.30286 5.00332 6.75424 5.00032 7.22561V10.4038C4.9989 10.677 5.10285 10.9402 5.29032 11.138C5.38038 11.2385 5.48968 11.3197 5.61168 11.3767C5.73368 11.4337 5.86586 11.4654 6.00032 11.4699V13.7931C5.99938 13.9519 6.02984 14.1092 6.08993 14.2559C6.15002 14.4027 6.23853 14.536 6.35032 14.648C6.53014 14.8164 6.75702 14.9253 7.00032 14.9598H9.00032C9.28128 14.9249 9.53928 14.7862 9.72412 14.5705C9.90897 14.3549 10.0074 14.0778 10.0003 13.7931V11.4699C10.1348 11.4654 10.267 11.4337 10.389 11.3767C10.511 11.3197 10.6203 11.2385 10.7103 11.138C10.8054 11.0416 10.8802 10.9269 10.93 10.8007C10.9798 10.6745 11.0038 10.5395 11.0003 10.4038V7.22561C11.0011 6.75545 10.8179 6.30387 10.4903 5.96842ZM10.0003 10.4541H9.00032V13.7931C8.99957 13.8462 8.978 13.8968 8.94032 13.9339C8.92326 13.9543 8.90172 13.9703 8.87741 13.9808C8.85311 13.9912 8.82671 13.9959 8.80032 13.9943H7.19032C7.13806 13.9918 7.08859 13.9699 7.0516 13.9327C7.01461 13.8954 6.99275 13.8457 6.99032 13.7931V10.4541H6.00032V7.22561C6.00003 7.02257 6.07903 6.82753 6.22032 6.6825C6.36468 6.53937 6.55768 6.4567 6.76032 6.45118H9.24032C9.4434 6.45464 9.63713 6.53763 9.78032 6.6825C9.85165 6.75333 9.90793 6.83798 9.94575 6.93134C9.98357 7.0247 10.0021 7.12481 10.0003 7.22561V10.4541ZM12.8103 13.4914H11.0003V12.4857H12.8003C12.8511 12.4842 12.9001 12.4666 12.9403 12.4354C12.9602 12.4158 12.9758 12.3923 12.9861 12.3663C12.9965 12.3403 13.0013 12.3125 13.0003 12.2845V9.45836H14.0003V7.22561C14.0006 7.02257 13.9216 6.82753 13.7803 6.6825C13.6359 6.53937 13.4429 6.4567 13.2403 6.45118H11.9503C11.8353 6.0825 11.6483 5.74058 11.4003 5.44543H13.2403C13.7059 5.44893 14.1515 5.63683 14.4803 5.96842C14.8106 6.30286 14.9973 6.75424 15.0003 7.22561V9.40808C15.0007 9.68067 14.8973 9.94308 14.7113 10.1414C14.5254 10.3396 14.2709 10.4587 14.0003 10.4742V12.2845C14.0003 12.6029 13.8753 12.9083 13.6524 13.1344C13.4295 13.3604 13.1268 13.4888 12.8103 13.4914ZM4.00031 1.94543C3.70363 1.94543 3.41362 2.03391 3.16695 2.19968C2.92028 2.36545 2.72802 2.60107 2.61449 2.87673C2.50096 3.1524 2.47125 3.45573 2.52913 3.74837C2.58701 4.04102 2.72987 4.30983 2.93965 4.52081C3.14942 4.7318 3.4167 4.87548 3.70767 4.93369C3.99864 4.9919 4.30024 4.96202 4.57433 4.84784C4.84842 4.73366 5.08269 4.54029 5.24751 4.2922C5.41233 4.04411 5.50031 3.75243 5.50031 3.45406C5.50031 3.05394 5.34227 2.67022 5.06097 2.3873C4.77966 2.10438 4.39813 1.94543 4.00031 1.94543ZM4.00031 3.95693C3.8677 3.95693 3.74052 3.90395 3.64675 3.80964C3.55298 3.71533 3.50031 3.58743 3.50031 3.45406C3.50031 3.32068 3.55298 3.19278 3.64675 3.09847C3.74052 3.00416 3.8677 2.95118 4.00031 2.95118C4.13211 2.95376 4.25781 3.00756 4.35103 3.10132C4.44425 3.19507 4.49775 3.32149 4.50031 3.45406C4.50031 3.58743 4.44763 3.71533 4.35386 3.80964C4.26009 3.90395 4.13291 3.95693 4.00031 3.95693Z" fill="#424242"/>
</svg>
