<svg width="624" height="80" viewBox="0 0 624 80" fill="none" xmlns="http://www.w3.org/2000/svg">
<path fill-rule="evenodd" clip-rule="evenodd" d="M106.724 74.0171L110.985 78.2771L110.277 78.985L106.017 74.7241C104.928 75.6315 103.53 76.0839 102.116 75.9874C100.701 75.8908 99.3787 75.2527 98.4228 74.2057C97.4668 73.1587 96.9513 71.7834 96.9835 70.366C97.0157 68.9486 97.5932 67.5982 98.5957 66.5957C99.5982 65.5932 100.949 65.0158 102.366 64.9836C103.783 64.9514 105.159 65.4669 106.206 66.4228C107.253 67.3788 107.891 68.7015 107.987 70.116C108.084 71.5305 107.631 72.9277 106.724 74.0171ZM102.5 75.0001C101.61 75.0001 100.74 74.7361 99.9999 74.2417C99.2599 73.7472 98.6831 73.0444 98.3425 72.2221C98.0019 71.3999 97.9128 70.4951 98.0865 69.6222C98.2601 68.7492 98.6887 67.9474 99.318 67.3181C99.9474 66.6887 100.749 66.2602 101.622 66.0865C102.495 65.9129 103.4 66.002 104.222 66.3426C105.044 66.6832 105.747 67.26 106.242 68C106.736 68.74 107 69.61 107 70.5001C106.999 71.6931 106.524 72.837 105.681 73.6806C104.837 74.5242 103.693 74.9987 102.5 75.0001ZM105 71V70H100V71H105Z" fill="#424242"/>
<path d="M169 70V71H167V73H166V71H164V70H166V68H167V70H169Z" fill="#424242"/>
<path fill-rule="evenodd" clip-rule="evenodd" d="M175.003 78.2949L170.742 74.0349C171.649 72.9455 172.102 71.5483 172.005 70.1338C171.909 68.7194 171.271 67.3966 170.224 66.4406C169.176 65.4847 167.801 64.9692 166.384 65.0014C164.966 65.0336 163.616 65.611 162.614 66.6136C161.611 67.6161 161.034 68.9665 161.001 70.3839C160.969 71.8013 161.485 73.1765 162.441 74.2235C163.397 75.2705 164.719 75.9087 166.134 76.0052C167.548 76.1018 168.946 75.6493 170.035 74.7419L174.295 79.0028L175.003 78.2949ZM164.018 74.2595C164.758 74.754 165.628 75.0179 166.518 75.0179C167.711 75.0166 168.855 74.542 169.698 73.6984C170.542 72.8548 171.017 71.7109 171.018 70.5179C171.018 69.6279 170.754 68.7578 170.259 68.0178C169.765 67.2778 169.062 66.701 168.24 66.3604C167.418 66.0198 166.513 65.9307 165.64 66.1043C164.767 66.278 163.965 66.7066 163.336 67.3359C162.707 67.9652 162.278 68.7671 162.104 69.64C161.931 70.5129 162.02 71.4177 162.36 72.24C162.701 73.0622 163.278 73.765 164.018 74.2595Z" fill="#424242"/>
<path fill-rule="evenodd" clip-rule="evenodd" d="M462.5 78H449.5L449 77.5V66.5L449.5 66H450H462H462.5L463 66.5V77.5L462.5 78ZM462 67H450V69H462V67ZM462 70V77H450V70H462Z" fill="#424242"/>
<path fill-rule="evenodd" clip-rule="evenodd" d="M385.5 66H398.5L399 66.5V72.003C398.689 71.7696 398.353 71.5741 398 71.4195V67H386V76H391C391 76.326 391.032 76.6527 391.096 76.9755C391.243 77.7124 391.553 78.4037 392 79H388V78H391V77H385.5L385 76.5V66.5L385.5 66Z" fill="#424242"/>
<path fill-rule="evenodd" clip-rule="evenodd" d="M395.999 73C395.406 73.0001 394.826 73.1761 394.333 73.5056C393.84 73.8352 393.455 74.3038 393.228 74.8519C393.001 75.4001 392.942 76.0033 393.058 76.5853C393.173 77.1672 393.459 77.7018 393.879 78.1213C394.298 78.5409 394.833 78.8266 395.415 78.9424C395.997 79.0581 396.6 78.9987 397.148 78.7716C397.696 78.5446 398.165 78.1601 398.494 77.6667C398.824 77.1735 399 76.5937 399 76.0005C398.999 75.2051 398.682 74.4426 398.12 73.8801C397.557 73.3176 396.795 73.0011 395.999 73ZM396 72C395.209 72 394.436 72.2346 393.778 72.6741C393.12 73.1136 392.607 73.7384 392.304 74.4693C392.002 75.2002 391.923 76.0044 392.077 76.7804C392.231 77.5563 392.612 78.269 393.172 78.8284C393.731 79.3878 394.444 79.7688 395.22 79.9231C395.996 80.0775 396.8 79.9983 397.531 79.6955C398.262 79.3928 398.886 78.8801 399.326 78.2223C399.765 77.5645 400 76.7911 400 76C399.999 74.9395 399.577 73.9229 398.827 73.173C398.077 72.4231 397.06 72.0013 396 72Z" fill="#424242"/>
<path fill-rule="evenodd" clip-rule="evenodd" d="M353.5 66H366.5L367 66.5V72.003C366.689 71.7696 366.353 71.5741 366 71.4195V67H354V76H359C359 76.326 359.032 76.6527 359.096 76.9755C359.243 77.7124 359.553 78.4037 360 79H356V78H359V77H353.5L353 76.5V66.5L353.5 66Z" fill="#424242"/>
<path d="M364 72C363.209 72 362.436 72.2346 361.778 72.6741C361.12 73.1136 360.607 73.7384 360.304 74.4693C360.002 75.2002 359.923 76.0044 360.077 76.7804C360.231 77.5563 360.612 78.269 361.172 78.8284C361.731 79.3878 362.444 79.7688 363.22 79.9231C363.996 80.0775 364.8 79.9983 365.531 79.6955C366.262 79.3928 366.886 78.8801 367.326 78.2223C367.765 77.5645 368 76.7911 368 76C367.999 74.9395 367.577 73.9229 366.827 73.173C366.077 72.4231 365.06 72.0013 364 72Z" fill="#424242"/>
<path fill-rule="evenodd" clip-rule="evenodd" d="M334.5 66H321.5L321 66.5V76.5L321.5 77H327V78H324V79H332V78H329V77H334.5L335 76.5V66.5L334.5 66ZM334 76H322V67H334V76Z" fill="#424242"/>
<path fill-rule="evenodd" clip-rule="evenodd" d="M417.5 66H430.5L431 66.5V72.003C430.689 71.7696 430.353 71.5741 430 71.4195V67H418V76H423C423 76.326 423.032 76.6527 423.096 76.9755C423.243 77.7124 423.553 78.4037 424 79H420V78H423V77H417.5L417 76.5V66.5L417.5 66Z" fill="#424242"/>
<path fill-rule="evenodd" clip-rule="evenodd" d="M425.778 72.6741C426.436 72.2346 427.209 72 428 72C429.06 72.0013 430.077 72.4231 430.827 73.173C431.577 73.9229 431.999 74.9395 432 76C432 76.7911 431.765 77.5645 431.326 78.2223C430.886 78.8801 430.262 79.3928 429.531 79.6955C428.8 79.9983 427.996 80.0775 427.22 79.9231C426.444 79.7688 425.731 79.3878 425.172 78.8284C424.612 78.269 424.231 77.5563 424.077 76.7804C423.923 76.0044 424.002 75.2002 424.304 74.4693C424.607 73.7384 425.12 73.1136 425.778 72.6741ZM427.909 77.6637L430.295 74.4818L429.495 73.8818L427.418 76.651L426.116 75.6096L425.492 76.3905L427.196 77.7541L427.909 77.6637Z" fill="#388A34"/>
<path d="M47 67.7842C46.8086 68.0713 46.5921 68.339 46.3506 68.5874C46.109 68.8358 45.847 69.0625 45.5644 69.2676C45.569 69.3314 45.5724 69.394 45.5747 69.4556C45.577 69.5171 45.5781 69.5797 45.5781 69.6435C45.5781 70.2178 45.5166 70.7851 45.3935 71.3457C45.2705 71.9062 45.0928 72.4486 44.8603 72.9726C44.5231 73.7337 44.1016 74.4139 43.5957 75.0132C43.0898 75.6125 42.5168 76.1195 41.8765 76.5342C41.2362 76.9489 40.5378 77.2656 39.7812 77.4844C39.0247 77.7031 38.2318 77.8125 37.4023 77.8125C36.6185 77.8125 35.854 77.7043 35.1089 77.4878C34.3638 77.2713 33.6608 76.9489 33 76.5205C33.2233 76.5478 33.4512 76.5615 33.6836 76.5615C34.3353 76.5615 34.9653 76.4567 35.5737 76.2471C36.1821 76.0374 36.7415 75.7321 37.2519 75.331C36.9466 75.3265 36.6527 75.2752 36.3701 75.1772C36.0876 75.0793 35.8289 74.9425 35.5942 74.7671C35.3595 74.5916 35.1545 74.3831 34.979 74.1416C34.8035 73.9001 34.668 73.6335 34.5723 73.3418C34.6634 73.3555 34.7534 73.3669 34.8423 73.376C34.9311 73.3851 35.0211 73.3896 35.1123 73.3896C35.3675 73.3896 35.6181 73.3555 35.8642 73.2871C35.527 73.2188 35.2183 73.098 34.938 72.9248C34.6577 72.7516 34.415 72.5409 34.21 72.2925C34.0049 72.0441 33.8454 71.7638 33.7314 71.4517C33.6175 71.1395 33.5605 70.8125 33.5605 70.4707V70.4365C33.9616 70.6644 34.3968 70.7852 34.8662 70.7988C34.6657 70.6621 34.4868 70.506 34.3296 70.3306C34.1724 70.1551 34.0391 69.9648 33.9297 69.7598C33.8203 69.5547 33.736 69.3382 33.6767 69.1104C33.6175 68.8825 33.5879 68.6478 33.5879 68.4062C33.5879 68.151 33.6198 67.9015 33.6836 67.6577C33.7474 67.4139 33.8454 67.1826 33.9775 66.9639C34.3421 67.415 34.7477 67.8195 35.1943 68.1772C35.6409 68.535 36.116 68.8415 36.6196 69.0967C37.1232 69.3519 37.6507 69.5536 38.2021 69.7017C38.7536 69.8498 39.3187 69.9375 39.8974 69.9648C39.8701 69.86 39.8507 69.7518 39.8393 69.6401C39.828 69.5285 39.8222 69.418 39.8222 69.3086C39.8222 68.9121 39.8975 68.5395 40.0478 68.1909C40.1982 67.8423 40.4033 67.5381 40.6631 67.2783C40.9228 67.0186 41.227 66.8135 41.5757 66.6631C41.9243 66.5127 42.2969 66.4375 42.6933 66.4375C43.0944 66.4375 43.4761 66.5161 43.8384 66.6733C44.2007 66.8306 44.5185 67.055 44.792 67.3467C45.1155 67.2829 45.4289 67.1929 45.7319 67.0767C46.035 66.9604 46.3278 66.818 46.6103 66.6494C46.5055 66.9821 46.3449 67.2852 46.1284 67.5586C45.9119 67.832 45.6533 68.0576 45.3525 68.2354C45.9267 68.167 46.4759 68.0166 47 67.7842Z" fill="#424242"/>
<path fill-rule="evenodd" clip-rule="evenodd" d="M231.995 75.2118L237.146 70.0607L237.939 70.8536L232.788 76.0047L231.995 75.2118ZM231.288 74.5047L236.793 69H237.5L239 70.5V71.2071L233.495 76.7118L233.5 76.7166L233.369 76.8379L233 77.2071H232.971L232.87 77.3008L229.87 78.8008L229.199 78.13L230.699 75.13L230.793 75.029V75L231.162 74.6304L231.283 74.5L231.288 74.5047ZM231.283 76.1977L230.764 77.2355L231.802 76.7166L231.283 76.1977Z" fill="#424242"/>
<path fill-rule="evenodd" clip-rule="evenodd" d="M225 66L226 65H234.333L235.04 65.2929L236.707 66.9596L237 67.6667V68H236.5L236 68.5V67.6667L234.333 66H234V70H228V66H226V76H229L228.5 77H226L225 76V66ZM231 66H233V69H231V66Z" fill="#424242"/>
<path fill-rule="evenodd" clip-rule="evenodd" d="M486 65.5L486.5 65H494.5L495 65.5V67.5V72.5L494.5 73H492V72H494V68H487V69H486V67.5V65.5ZM487 66V67H494V66H487ZM481.5 71L481 71.5V78.5L481.5 79H489.5L490 78.5V71.5L489.5 71H481.5ZM482 73V72H489V73H482ZM482 74H489V78H482V74Z" fill="#424242"/>
<path fill-rule="evenodd" clip-rule="evenodd" d="M266.232 74.7071L264.5 76.4393V73H263.5V76.4393L261.768 74.7071L261.061 75.4142L263.646 78H264.354L266.939 75.4142L266.232 74.7071ZM261.768 68.2929L263.5 66.5607V70L264.5 70V66.5607L266.232 68.2929L266.939 67.5858L264.354 65H263.646L261.061 67.5858L261.768 68.2929ZM259.061 72L260.793 73.7322L260.086 74.4393L257.5 71.8535V71.1464L260.086 68.5607L260.793 69.2678L259.061 71H262.5V72H259.061ZM265.5 71L268.939 71L267.207 69.2678L267.914 68.5607L270.5 71.1464V71.8535L267.914 74.4393L267.207 73.7322L268.939 72L265.5 72V71Z" fill="#424242"/>
<path fill-rule="evenodd" clip-rule="evenodd" d="M199.5 79C203.09 79 206 76.0899 206 72.5C206 68.9101 203.09 66 199.5 66C195.91 66 193 68.9101 193 72.5C193 76.0899 195.91 79 199.5 79Z" fill="#424242"/>
<path fill-rule="evenodd" clip-rule="evenodd" d="M289.511 66L289.011 66.5V70.4965L289 70.5074V77.5021L289.5 78.0021H295.417C295.278 77.6846 295.171 77.3499 295.1 77.0021H290V75.4929H290V71.4959H290.011V71.0073H294.496L294.85 70.8609L295.708 70.0031H301.99V71.4118C302.351 71.5687 302.69 71.7669 303.001 72.0005V67.4992L302.501 66.9992H295.713L294.861 66.1464L294.507 66H289.511ZM302.001 69.0031V67.9992H295.506L295.153 67.8528L294.3 67H290.011V70.0074H294.289L295.147 69.1496L295.501 69.0031H302.001Z" fill="#424242"/>
<path fill-rule="evenodd" clip-rule="evenodd" d="M297.778 72.6741C298.436 72.2346 299.209 72 300 72C301.06 72.0013 302.077 72.4231 302.827 73.173C303.577 73.9229 303.999 74.9395 304 76C304 76.7911 303.765 77.5645 303.326 78.2223C302.886 78.8801 302.262 79.3928 301.531 79.6955C300.8 79.9983 299.996 80.0775 299.22 79.9231C298.444 79.7688 297.731 79.3878 297.172 78.8284C296.612 78.269 296.231 77.5563 296.077 76.7804C295.923 76.0044 296.002 75.2002 296.304 74.4693C296.607 73.7384 297.12 73.1136 297.778 72.6741ZM299.909 77.6637L302.295 74.4818L301.495 73.8818L299.418 76.651L298.116 75.6096L297.492 76.3905L299.196 77.7541L299.909 77.6637Z" fill="#388A34"/>
<path fill-rule="evenodd" clip-rule="evenodd" d="M132 68H135V69H132V72H131V69H128V68H131V65H132V68ZM129 78.5V73H130V78H142V71H136V70H142V68H136V67H142H142.5L143 67.5V78.5L142.5 79H129.5L129 78.5Z" fill="#424242"/>
<path d="M78.5 66H65.5L65 66.5V75.5L65.5 76H68V78.5L68.854 78.854L71.707 76H78.5L79 75.5V66.5L78.5 66ZM78 75H71.5L71.146 75.146L69 77.293V75.5L68.5 75H66V67H78V75Z" fill="#424242"/>
<path fill-rule="evenodd" clip-rule="evenodd" d="M6.793 77L7.646 77.854H8.354L9.207 77H14.5L15 76.5V66.5L14.5 66H9L8.646 66.146L8 66.793L7.354 66.146L7 66H1.5L1 66.5V76.5L1.5 77H6.793ZM7 76H2V67H6.793L7.53198 67.7398V76.3243L7.354 76.146L7 76ZM8.51098 76.2812L8.646 76.146L9 76H14V67H9.207L8.51098 67.6968V76.2812ZM6 69H3V70H6V69ZM3 71H6V72H3V71ZM6 73H3V74H6V73ZM10 69H13V70H10V69ZM13 71H10V72H13V71ZM10 73H13V74H10V73Z" fill="#424242"/>
<path d="M17.5568 16.2727C17.5568 10.5625 14.0114 7.30682 9.38352 7.30682C4.73011 7.30682 1.21023 10.5625 1.21023 16.2727C1.21023 21.9574 4.73011 25.2386 9.38352 25.2386C14.0114 25.2386 17.5568 21.983 17.5568 16.2727ZM13.8153 16.2727C13.8153 19.9716 12.0597 21.9744 9.38352 21.9744C6.69886 21.9744 4.9517 19.9716 4.9517 16.2727C4.9517 12.5739 6.69886 10.571 9.38352 10.571C12.0597 10.571 13.8153 12.5739 13.8153 16.2727ZM27.0654 11.9091H24.6023V8.77273H20.9716V11.9091H19.1818V14.6364H20.9716V21.4545C20.9546 24.0199 22.7017 25.2898 25.3353 25.179C26.2728 25.1449 26.9375 24.9574 27.304 24.8381L26.733 22.1364C26.554 22.1705 26.1705 22.2557 25.8296 22.2557C25.1051 22.2557 24.6023 21.983 24.6023 20.9773V14.6364H27.0654V11.9091ZM33.2224 17.4318C33.2309 15.7443 34.2621 14.7557 35.7451 14.7557C37.2195 14.7557 38.0888 15.7017 38.0803 17.3125V25H41.711V16.6648C41.7195 13.5966 39.9127 11.7386 37.1854 11.7386C35.1996 11.7386 33.8701 12.6761 33.2735 14.2188H33.1201V7.54545H29.5917V25H33.2224V17.4318ZM50.4141 25.2557C53.6528 25.2557 55.8346 23.679 56.346 21.25L52.988 21.0284C52.6215 22.0256 51.684 22.5455 50.4738 22.5455C48.6585 22.5455 47.5079 21.3438 47.5079 19.392V19.3835H56.4227V18.3864C56.4227 13.9375 53.7295 11.7386 50.2693 11.7386C46.417 11.7386 43.9198 14.4744 43.9198 18.5142C43.9198 22.6648 46.3829 25.2557 50.4141 25.2557ZM47.5079 17.1335C47.5846 15.642 48.7181 14.4489 50.3289 14.4489C51.9056 14.4489 52.9965 15.5739 53.0051 17.1335H47.5079ZM58.672 25H62.3027V17.5938C62.3027 15.983 63.4788 14.875 65.0811 14.875C65.5839 14.875 66.2743 14.9602 66.6152 15.071V11.8494C66.2913 11.7727 65.8396 11.7216 65.4731 11.7216C64.0072 11.7216 62.8055 12.5739 62.3282 14.1932H62.1919V11.9091H58.672V25Z" fill="black" fill-opacity="0.8"/>
</svg>
