<svg width="16" height="16" viewBox="0 0 16 16" fill="none" xmlns="http://www.w3.org/2000/svg">
<path d="M14.5408 11.8111L13.4008 8.69097V8.63103L8.49084 3.721V2.48101C8.48913 2.28265 8.45188 2.08626 8.38086 1.90105C8.30306 1.71896 8.1895 1.55434 8.04694 1.41692C7.90437 1.2795 7.73567 1.17204 7.55084 1.101C7.36661 1.02753 7.16902 0.993488 6.97083 1.00103C6.77517 0.996863 6.58087 1.03434 6.40082 1.11101C6.22124 1.18491 6.05809 1.29365 5.92078 1.43096C5.78346 1.56827 5.67473 1.73148 5.60083 1.91106C5.52416 2.09111 5.48668 2.28536 5.49084 2.48101V5.74102L2.43085 8.74102C2.15474 9.02478 2.00024 9.40515 2.00024 9.80107C2.00024 10.197 2.15474 10.5772 2.43085 10.861L6.06085 14.491C6.20086 14.6322 6.36737 14.7443 6.55084 14.821C6.91665 14.9678 7.32505 14.9678 7.69086 14.821C7.87432 14.7443 8.04083 14.6322 8.18085 14.491L13.1108 9.57097L12.4509 11.771C12.4209 11.9229 12.4209 12.0791 12.4509 12.231C12.4829 12.3831 12.5478 12.5265 12.6409 12.6511C12.7378 12.772 12.8565 12.8737 12.9908 12.951C13.1312 13.021 13.2843 13.0618 13.4409 13.071C13.6058 13.0811 13.7707 13.0502 13.9208 12.981C14.0702 12.9135 14.2032 12.8145 14.3109 12.691C14.4197 12.5649 14.4953 12.4137 14.5308 12.251C14.5622 12.1063 14.5656 11.957 14.5408 11.8111ZM6.54083 2.48101C6.52616 2.41515 6.52616 2.34692 6.54083 2.28106C6.56897 2.21688 6.60978 2.15901 6.66083 2.11101C6.71504 2.06818 6.77582 2.03444 6.84082 2.01104C6.91003 1.99617 6.98163 1.99617 7.05084 2.01104C7.17221 2.02042 7.286 2.07377 7.37085 2.16106C7.44943 2.25294 7.49206 2.37013 7.49084 2.49102V3.75103L6.49084 4.75103L6.54083 2.48101ZM7.54083 13.831C7.49858 13.8816 7.44326 13.9196 7.38086 13.941C7.32101 13.9674 7.25629 13.9811 7.19086 13.9811C7.12542 13.9811 7.0607 13.9674 7.00085 13.941C6.93845 13.9196 6.88307 13.8816 6.84082 13.831L3.21082 10.211C3.16527 10.1643 3.12808 10.1103 3.10083 10.0511C3.0747 9.98938 3.06128 9.923 3.06128 9.85601C3.06128 9.78901 3.0747 9.72275 3.10083 9.66106C3.12808 9.60183 3.16527 9.54768 3.21082 9.50103L7.56085 5.15105V8.00103C7.48466 8.07086 7.4239 8.15593 7.38257 8.25066C7.34123 8.34539 7.32024 8.44772 7.32086 8.55108C7.30867 8.68269 7.33147 8.81515 7.38696 8.93511C7.44245 9.05507 7.52865 9.15826 7.63684 9.23418C7.74504 9.3101 7.87137 9.3561 8.00305 9.36748C8.13474 9.37886 8.2671 9.35523 8.38672 9.299C8.50634 9.24277 8.60895 9.15595 8.6842 9.04729C8.75946 8.93863 8.80468 8.81198 8.81525 8.68023C8.82582 8.54847 8.80135 8.41619 8.74438 8.29693C8.68742 8.17766 8.59997 8.07561 8.49084 8.00103V5.17107L12.3408 9.04107L7.54083 13.831Z" fill="#424242"/>
</svg>
