<svg width="16" height="16" viewBox="0 0 16 16" fill="none" xmlns="http://www.w3.org/2000/svg">
<g clip-path="url(#clip0)">
<path d="M6.27014 10.8698H6.98014L11.54 6.30996L10.83 5.59996L6.63014 9.80985L4.71024 7.88994L4.00024 8.59994L6.27014 10.8698Z" fill="#388A34"/>
<path fill-rule="evenodd" clip-rule="evenodd" d="M8.60024 0.999985C10.2002 1.09999 11.7002 1.89999 12.8002 2.99999C14.1002 4.39999 14.8002 6.09999 14.8002 8.09999C14.8002 9.69999 14.2002 11.2 13.2002 12.5C12.2002 13.7 10.8002 14.6 9.20024 14.9C7.60024 15.2 6.00024 15 4.60024 14.2C3.20024 13.4 2.10024 12.2 1.50024 10.7C0.900242 9.19999 0.800242 7.49999 1.30024 5.99999C1.80024 4.39999 2.70024 3.09999 4.10024 2.19999C5.40024 1.29999 7.00024 0.899985 8.60024 0.999985ZM9.10024 13.9C10.4002 13.6 11.6002 12.9 12.5002 11.8C13.3002 10.7 13.8002 9.39999 13.7002 7.99999C13.7002 6.39999 13.1002 4.79999 12.0002 3.69999C11.0002 2.69999 9.80024 2.09999 8.40024 1.99999C7.10024 1.89999 5.70024 2.19999 4.60024 2.99999C3.50024 3.79999 2.70024 4.89999 2.30024 6.29999C1.90024 7.59999 1.90024 8.99999 2.50024 10.3C3.10024 11.6 4.00024 12.6 5.20024 13.3C6.40024 14 7.80024 14.2 9.10024 13.9Z" fill="#388A34"/>
</g>
<defs>
<clipPath id="clip0">
<rect width="16" height="16" fill="white" transform="translate(0.000244141)"/>
</clipPath>
</defs>
</svg>
