<svg width="16" height="16" viewBox="0 0 16 16" fill="none" xmlns="http://www.w3.org/2000/svg">
<path d="M8.00033 2C8.19811 2 8.39145 2.05865 8.5559 2.16853C8.72035 2.27841 8.84852 2.43459 8.92421 2.61732C8.9999 2.80004 9.0197 3.00111 8.98112 3.19509C8.94253 3.38907 8.84729 3.56725 8.70744 3.70711C8.56759 3.84696 8.3894 3.9422 8.19542 3.98079C8.00144 4.01937 7.80037 3.99957 7.61765 3.92388C7.43492 3.84819 7.27874 3.72002 7.16886 3.55557C7.05898 3.39112 7.00033 3.19778 7.00033 3C7.00033 2.73478 7.10569 2.48043 7.29322 2.29289C7.48076 2.10536 7.73511 2 8.00033 2V2ZM8.00033 1C7.60477 1 7.21809 1.1173 6.88919 1.33706C6.56029 1.55682 6.30395 1.86918 6.15257 2.23463C6.0012 2.60009 5.96159 3.00222 6.03876 3.39018C6.11593 3.77814 6.30641 4.13451 6.58612 4.41421C6.86582 4.69392 7.22219 4.8844 7.61015 4.96157C7.99811 5.03874 8.40025 4.99913 8.7657 4.84776C9.13115 4.69638 9.44351 4.44004 9.66327 4.11114C9.88303 3.78224 10.0003 3.39556 10.0003 3C10.0003 2.46957 9.78962 1.96086 9.41455 1.58579C9.03947 1.21071 8.53076 1 8.00033 1V1ZM9.23033 5.49H6.77033C6.3009 5.49 5.85069 5.67648 5.51875 6.00842C5.18681 6.34036 5.00033 6.79057 5.00033 7.26V9.9C4.9894 10.1779 5.08811 10.4489 5.27518 10.6547C5.46224 10.8605 5.72267 10.9845 6.00033 11V13.33C6.00033 13.6483 6.12676 13.9535 6.3518 14.1785C6.57685 14.4036 6.88207 14.53 7.20033 14.53H8.80033C8.96134 14.5301 9.12072 14.4978 9.26898 14.435C9.41724 14.3722 9.55135 14.2802 9.66332 14.1645C9.77529 14.0488 9.86283 13.9118 9.92073 13.7615C9.97863 13.6113 10.0057 13.4509 10.0003 13.29V11C10.278 10.9845 10.5384 10.8605 10.7255 10.6547C10.9126 10.4489 11.0113 10.1779 11.0003 9.9V7.26C11.0003 6.79057 10.8138 6.34036 10.4819 6.00842C10.15 5.67648 9.69976 5.49 9.23033 5.49V5.49ZM6.00033 10V7.26C5.99899 7.15851 6.01799 7.05778 6.05621 6.96375C6.09443 6.86972 6.15109 6.7843 6.22286 6.71253C6.29463 6.64076 6.38005 6.58409 6.47408 6.54587C6.56811 6.50765 6.66884 6.48866 6.77033 6.49H9.23033C9.33182 6.48866 9.43255 6.50765 9.52658 6.54587C9.62061 6.58409 9.70603 6.64076 9.7778 6.71253C9.84957 6.7843 9.90624 6.86972 9.94446 6.96375C9.98268 7.05778 10.0017 7.15851 10.0003 7.26V10H9.00033V13.31C9.00033 13.363 8.97926 13.4139 8.94175 13.4514C8.90425 13.4889 8.85337 13.51 8.80033 13.51H7.20033C7.14729 13.51 7.09642 13.4889 7.05891 13.4514C7.0214 13.4139 7.00033 13.363 7.00033 13.31V10H6.00033Z" fill="#424242"/>
</svg>
