<svg width="16" height="16" viewBox="0 0 16 16" fill="none" xmlns="http://www.w3.org/2000/svg">
<path d="M8.00003 2C8.19781 2 8.39115 2.05865 8.5556 2.16853C8.72005 2.27841 8.84822 2.43459 8.92391 2.61732C8.99959 2.80004 9.0194 3.00111 8.98081 3.19509C8.94223 3.38907 8.84699 3.56725 8.70713 3.70711C8.56728 3.84696 8.3891 3.9422 8.19512 3.98079C8.00114 4.01937 7.80007 3.99957 7.61734 3.92388C7.43462 3.84819 7.27844 3.72002 7.16856 3.55557C7.05868 3.39112 7.00003 3.19778 7.00003 3C7.00003 2.73478 7.10538 2.48043 7.29292 2.29289C7.48046 2.10536 7.73481 2 8.00003 2ZM8.00003 1C7.60446 1 7.21778 1.1173 6.88889 1.33706C6.55999 1.55682 6.30364 1.86918 6.15227 2.23463C6.00089 2.60009 5.96129 3.00222 6.03846 3.39018C6.11563 3.77814 6.30611 4.13451 6.58581 4.41421C6.86552 4.69392 7.22188 4.8844 7.60985 4.96157C7.99781 5.03874 8.39994 4.99913 8.76539 4.84776C9.13085 4.69638 9.4432 4.44004 9.66297 4.11114C9.88273 3.78224 10 3.39556 10 3C10 2.46957 9.78931 1.96086 9.41424 1.58579C9.03917 1.21071 8.53046 1 8.00003 1V1ZM9.23003 5.49H6.77003C6.30059 5.49 5.85039 5.67648 5.51845 6.00842C5.18651 6.34036 5.00003 6.79057 5.00003 7.26V9.9C4.9891 10.1779 5.08781 10.4489 5.27487 10.6547C5.46193 10.8605 5.72237 10.9845 6.00003 11V13.33C6.00003 13.6483 6.12645 13.9535 6.3515 14.1785C6.57654 14.4036 6.88177 14.53 7.20003 14.53H8.80003C8.96104 14.5301 9.12042 14.4978 9.26868 14.435C9.41694 14.3722 9.55105 14.2802 9.66302 14.1645C9.77499 14.0488 9.86253 13.9118 9.92042 13.7615C9.97832 13.6113 10.0054 13.4509 10 13.29V11C10.2777 10.9845 10.5381 10.8605 10.7252 10.6547C10.9122 10.4489 11.011 10.1779 11 9.9V7.26C11 6.79057 10.8135 6.34036 10.4816 6.00842C10.1497 5.67648 9.69946 5.49 9.23003 5.49ZM6.00003 10V7.26C5.99868 7.15851 6.01768 7.05778 6.0559 6.96375C6.09412 6.86972 6.15079 6.7843 6.22256 6.71253C6.29433 6.64076 6.37975 6.58409 6.47378 6.54587C6.5678 6.50765 6.66854 6.48866 6.77003 6.49H9.23003C9.33152 6.48866 9.43225 6.50765 9.52628 6.54587C9.6203 6.58409 9.70572 6.64076 9.77749 6.71253C9.84926 6.7843 9.90593 6.86972 9.94415 6.96375C9.98237 7.05778 10.0014 7.15851 10 7.26V10H9.00003V13.31C9.00003 13.363 8.97895 13.4139 8.94145 13.4514C8.90394 13.4889 8.85307 13.51 8.80003 13.51H7.20003C7.14698 13.51 7.09611 13.4889 7.0586 13.4514C7.0211 13.4139 7.00003 13.363 7.00003 13.31V10H6.00003Z" fill="#424242"/>
</svg>
