<svg width="16" height="16" viewBox="0 0 16 16" fill="none" xmlns="http://www.w3.org/2000/svg">
<path d="M4.10039 1.08186L3.72535 1.94778L5.18445 3.40687L4.53672 7.42274C4.01699 7.60746 3.55893 7.93327 3.21395 8.36365C2.87304 8.79115 2.6603 9.30651 2.60034 9.85L3.09814 10.3478L6.91625 10.2932L6.90947 16L7.9458 14.9637L7.94584 10.2728L11.3003 10.2319L11.8185 9.71367C11.7751 9.17983 11.5746 8.67084 11.2421 8.25096C10.9096 7.83107 10.4601 7.51912 9.95038 7.35457L9.42533 3.35227L10.9253 1.85227L10.5776 1L4.10039 1.08186ZM8.55267 2.80687L8.4026 3.24324L9.00261 7.75686L9.30943 8.1455C9.88079 8.32423 10.3694 8.70152 10.6868 9.20914L7.95949 9.20914L3.77309 9.26369C4.10802 8.75069 4.60479 8.36429 5.18445 8.16594L5.50497 7.76369L6.23448 3.22959L6.09806 2.80687L5.31396 2.02277L9.35034 1.96825L8.55267 2.80687Z" fill="#424242"/>
</svg>
