<svg width="16" height="16" viewBox="0 0 16 16" fill="none" xmlns="http://www.w3.org/2000/svg">
<path d="M9.83997 1L8.92993 1.35999V3.5L5.50995 5.96997C4.99335 5.7243 4.41851 5.62731 3.84991 5.68994C3.28641 5.75344 2.75247 5.97536 2.30994 6.32996V7.06006L5.14996 9.81995L0.959961 14H2.47992L5.91992 10.5601L8.40991 12.99H9.16992C9.5296 12.5667 9.75581 12.0464 9.81989 11.4946C9.88396 10.9429 9.78308 10.3845 9.52997 9.89001L12.08 6.56995H14.28L14.65 5.68994L9.83997 1ZM11.84 5.53003L11.4099 5.73999L8.53992 9.48999L8.47992 10C8.76785 10.5501 8.84948 11.185 8.70996 11.79L6.70996 9.79004L5.94995 9.05005L3.59991 6.76001C4.22174 6.62943 4.86939 6.71036 5.43994 6.98999L5.96997 6.93005L9.82996 4.14001L10.0399 3.72998V2.57996L13.0399 5.5L11.84 5.53003Z" fill="#424242"/>
</svg>
