<svg width="16" height="16" viewBox="0 0 16 16" fill="none" xmlns="http://www.w3.org/2000/svg">
<path fill-rule="evenodd" clip-rule="evenodd" d="M7.00024 1H6.00024V4H4.50024L4.00024 4.5V8C4.00024 9.06087 4.42167 10.0783 5.17182 10.8284C5.80313 11.4597 6.62374 11.8582 7.50024 11.9686V15H8.50024V11.9686C9.37674 11.8582 10.1974 11.4597 10.8287 10.8284C11.5788 10.0783 12.0002 9.06087 12.0002 8V4.5L11.5002 4H10.0002V1H9.00024V4H7.00024V1ZM10.1216 10.1213C9.55896 10.6839 8.79589 11 8.00024 11C7.20459 11 6.44153 10.6839 5.87892 10.1213C5.31631 9.55871 5.00024 8.79565 5.00024 8V5H11.0002V8C11.0002 8.79565 10.6842 9.55871 10.1216 10.1213Z" fill="#424242"/>
</svg>
