<svg width="16" height="16" viewBox="0 0 16 16" fill="none" xmlns="http://www.w3.org/2000/svg">
<path d="M8.53462 12.4673H7.43635L6.53884 10.0936H2.94879L2.10442 12.4673H1.00024L4.24782 4H5.27523L8.53462 12.4673ZM6.21408 9.20202L4.88552 5.59426C4.84222 5.47617 4.79892 5.28722 4.75562 5.02741H4.732C4.69264 5.26754 4.64737 5.45649 4.5962 5.59426L3.27945 9.20202H6.21408Z" fill="#424242"/>
<path d="M9.78641 12.4673V4H12.1955C12.9277 4 13.5083 4.17911 13.9374 4.53733C14.3665 4.89554 14.581 5.36201 14.581 5.93674C14.581 6.41698 14.4511 6.83425 14.1913 7.18853C13.9315 7.54281 13.5733 7.79474 13.1167 7.94433V7.96795C13.6874 8.03487 14.1441 8.25137 14.4865 8.61746C14.829 8.97962 15.0002 9.45199 15.0002 10.0346C15.0002 10.7589 14.7404 11.3454 14.2208 11.7942C13.7012 12.2429 13.0458 12.4673 12.2546 12.4673H9.78641ZM10.7784 4.89751V7.63138H11.794C12.3372 7.63138 12.7643 7.50148 13.0753 7.24167C13.3863 6.97793 13.5418 6.6079 13.5418 6.13159C13.5418 5.30887 13.0005 4.89751 11.918 4.89751H10.7784ZM10.7784 8.52299V11.5698H12.1247C12.7073 11.5698 13.158 11.432 13.4768 11.1565C13.7996 10.8809 13.961 10.503 13.961 10.0228C13.961 9.02292 13.28 8.52299 11.918 8.52299H10.7784Z" fill="#424242"/>
</svg>
