<svg width="16" height="16" viewBox="0 0 16 16" fill="none" xmlns="http://www.w3.org/2000/svg">
<path fill-rule="evenodd" clip-rule="evenodd" d="M7.16024 3.50003C4.73024 5.06003 3.55024 6.67003 3.55024 9.36003C3.71024 9.31003 3.85024 9.31003 3.99024 9.31003C5.26024 9.31003 6.49024 10.17 6.49024 11.72C6.49024 13.33 5.46024 14.33 3.99024 14.33C2.09024 14.33 1.00024 12.81 1.00024 10.08C1.00024 6.28003 2.75024 3.55003 6.02024 1.66003L7.16024 3.50003ZM14.1602 3.50003C11.7302 5.06003 10.5502 6.67003 10.5502 9.36003C10.7102 9.31003 10.8502 9.31003 10.9902 9.31003C12.2602 9.31003 13.4902 10.17 13.4902 11.72C13.4902 13.33 12.4602 14.33 10.9902 14.33C9.10024 14.33 8.01024 12.81 8.01024 10.08C8.01024 6.28003 9.76024 3.55003 13.0302 1.66003L14.1702 3.50003H14.1602V3.50003Z" fill="#424242"/>
</svg>
