<svg width="16" height="16" viewBox="0 0 16 16" fill="none" xmlns="http://www.w3.org/2000/svg">
<g clip-path="url(#clip0)">
<path fill-rule="evenodd" clip-rule="evenodd" d="M2.25022 6.93C2.23609 6.31838 2.39226 5.71488 2.70129 5.18688C3.01032 4.65889 3.46004 4.22719 4.00022 3.94L3.46022 3C2.69278 3.41672 2.05631 4.0386 1.6219 4.79617C1.18749 5.55374 0.972249 6.41717 1.00022 7.29C1.00022 8.69 1.53022 9.46 2.47022 9.46C2.64104 9.46386 2.81071 9.43119 2.96789 9.36419C3.12507 9.29719 3.26613 9.19739 3.38162 9.07148C3.49712 8.94556 3.5844 8.79644 3.63762 8.63407C3.69084 8.47171 3.70877 8.29985 3.69022 8.13C3.69573 7.96784 3.66801 7.80626 3.60878 7.6552C3.54955 7.50414 3.46005 7.36679 3.34579 7.25159C3.23153 7.13639 3.09491 7.04577 2.94434 6.98531C2.79377 6.92485 2.63242 6.89582 2.47022 6.9V6.9C2.39564 6.89574 2.32094 6.90593 2.25022 6.93ZM5.69022 6.93C5.67376 6.31419 5.83105 5.7062 6.14409 5.17563C6.45712 4.64506 6.91324 4.21338 7.46022 3.93V3.93L6.90022 3C6.13278 3.41672 5.49631 4.0386 5.0619 4.79617C4.62749 5.55374 4.41225 6.41717 4.44022 7.29C4.44022 8.69 4.97022 9.46 5.90022 9.46C6.07141 9.46368 6.24144 9.43098 6.39906 9.36407C6.55667 9.29715 6.69829 9.19754 6.81456 9.07183C6.93082 8.94612 7.01907 8.79716 7.07349 8.6348C7.12791 8.47244 7.14724 8.30039 7.13022 8.13C7.13434 7.96735 7.10534 7.80556 7.04499 7.65447C6.98463 7.50338 6.89418 7.36613 6.77913 7.25109C6.66409 7.13604 6.52684 7.04559 6.37575 6.98523C6.22466 6.92488 6.06287 6.89588 5.90022 6.9V6.9C5.82889 6.89517 5.75734 6.90539 5.69022 6.93V6.93ZM13.7502 8.77C13.7667 9.38581 13.6094 9.9938 13.2964 10.5244C12.9833 11.0549 12.5272 11.4866 11.9802 11.77L12.5402 12.71C13.3115 12.2926 13.9507 11.6678 14.3854 10.9061C14.8202 10.1445 15.0331 9.27638 15.0002 8.4C15.0002 7.01 14.4702 6.23 13.5302 6.23C13.3594 6.22614 13.1897 6.25881 13.0325 6.32581C12.8754 6.39281 12.7343 6.49261 12.6188 6.61852C12.5033 6.74444 12.416 6.89356 12.3628 7.05593C12.3096 7.21829 12.2917 7.39015 12.3102 7.56C12.3047 7.72216 12.3324 7.88374 12.3917 8.0348C12.4509 8.18586 12.5404 8.32321 12.6546 8.43841C12.7689 8.55361 12.9055 8.64423 13.0561 8.70469C13.2067 8.76515 13.368 8.79418 13.5302 8.79C13.6041 8.79282 13.6781 8.7861 13.7502 8.77ZM10.3102 8.77C10.3291 9.38625 10.1728 9.99521 9.85948 10.5262C9.54619 11.0572 9.08874 11.4885 8.54022 11.77L9.10022 12.71C9.87154 12.2926 10.5107 11.6678 10.9454 10.9061C11.3802 10.1445 11.5931 9.27638 11.5602 8.4C11.5602 7 11.0002 6.23 10.1002 6.23C9.92903 6.22632 9.759 6.25902 9.60138 6.32593C9.44377 6.39285 9.30215 6.49246 9.18588 6.61817C9.06962 6.74388 8.98137 6.89284 8.92695 7.0552C8.87253 7.21756 8.8532 7.38961 8.87022 7.56C8.8661 7.72265 8.8951 7.88444 8.95545 8.03553C9.01581 8.18662 9.10626 8.32387 9.22131 8.43891C9.33636 8.55396 9.4736 8.64441 9.62469 8.70477C9.77578 8.76512 9.93757 8.79412 10.1002 8.79C10.1708 8.79326 10.2415 8.78653 10.3102 8.77Z" fill="#424242"/>
</g>
<defs>
<clipPath id="clip0">
<rect width="16" height="16" fill="white" transform="translate(0.000244141)"/>
</clipPath>
</defs>
</svg>
