<svg width="16" height="16" viewBox="0 0 16 16" fill="none" xmlns="http://www.w3.org/2000/svg">
<path fill-rule="evenodd" clip-rule="evenodd" d="M12.0002 1H11.0002V4H8.00024V5H11.0002V8H12.0002V5H15.0002V4H12.0002V1ZM6.00024 4.02242C3.19699 4.27504 1.00024 6.63098 1.00024 9.5C1.00024 12.5376 3.46268 15 6.50024 15C9.36927 15 11.7252 12.8033 11.9778 10H10.9728C10.7241 12.25 8.81652 14 6.50024 14C4.01496 14 2.00024 11.9853 2.00024 9.5C2.00024 7.18372 3.75027 5.27619 6.00024 5.02747V4.02242ZM4.50024 9C5.05253 9 5.50024 8.55229 5.50024 8C5.50024 7.44772 5.05253 7 4.50024 7C3.94796 7 3.50024 7.44772 3.50024 8C3.50024 8.55229 3.94796 9 4.50024 9ZM6.50024 11.5C7.21242 11.5 7.85504 11.2022 8.31039 10.7244L9.01764 11.4316C8.3812 12.0904 7.48856 12.5 6.50024 12.5C5.4922 12.5 4.58369 12.0739 3.94505 11.3919L4.65269 10.6842C5.10989 11.1855 5.76834 11.5 6.50024 11.5ZM8.50025 9C9.05253 9 9.50025 8.55228 9.50025 8C9.50025 7.44771 9.05253 7 8.50025 7C7.94796 7 7.50025 7.44771 7.50025 8C7.50025 8.55228 7.94796 9 8.50025 9Z" fill="#424242"/>
</svg>
