<svg width="16" height="16" viewBox="0 0 16 16" fill="none" xmlns="http://www.w3.org/2000/svg">
<path fill-rule="evenodd" clip-rule="evenodd" d="M11.9998 1H10.9998V4H7.99982V5H10.9998V8H11.9998V5H14.9998V4H11.9998V1ZM5.99982 4.02242C3.19657 4.27504 0.999817 6.63098 0.999817 9.5C0.999817 12.5376 3.46225 15 6.49982 15C9.36884 15 11.7248 12.8033 11.9774 10H10.9724C10.7236 12.25 8.81609 14 6.49982 14C4.01454 14 1.99982 11.9853 1.99982 9.5C1.99982 7.18372 3.74984 5.27619 5.99982 5.02747V4.02242ZM4.49981 9C5.0521 9 5.49981 8.55229 5.49981 8C5.49981 7.44772 5.0521 7 4.49981 7C3.94753 7 3.49981 7.44772 3.49981 8C3.49981 8.55229 3.94753 9 4.49981 9ZM6.49982 11.5C7.21199 11.5 7.85462 11.2022 8.30996 10.7244L9.01722 11.4316C8.38078 12.0904 7.48813 12.5 6.49982 12.5C5.49177 12.5 4.58327 12.0739 3.94462 11.3919L4.65226 10.6842C5.10946 11.1855 5.76791 11.5 6.49982 11.5ZM8.49982 9C9.0521 9 9.49982 8.55228 9.49982 8C9.49982 7.44771 9.0521 7 8.49982 7C7.94753 7 7.49982 7.44771 7.49982 8C7.49982 8.55228 7.94753 9 8.49982 9Z" fill="#424242"/>
</svg>
