<svg width="16" height="16" viewBox="0 0 16 16" fill="none" xmlns="http://www.w3.org/2000/svg">
<path fill-rule="evenodd" clip-rule="evenodd" d="M14.0002 3H3.00024C2.73503 3 2.48069 3.10531 2.29315 3.29285C2.10562 3.48038 2.00024 3.73478 2.00024 4V11C2.00024 11.2652 2.10562 11.5196 2.29315 11.7072C2.48069 11.8947 2.73503 12 3.00024 12H14.0002C14.2655 12 14.5198 11.8947 14.7073 11.7072C14.8949 11.5196 15.0002 11.2652 15.0002 11V4C15.0002 3.73478 14.8949 3.48038 14.7073 3.29285C14.5198 3.10531 14.2655 3 14.0002 3ZM14.0002 11H3.00024V4H14.0002V11ZM11.0002 5H10.0002V6H11.0002V5ZM10.0002 7H9.00024V8H10.0002V7ZM12.0002 5H13.0002V6H12.0002V5ZM13.0002 9H12.0002V10H13.0002V9ZM6.00024 9H11.0002V10H6.00024V9ZM13.0002 7H11.0002V8H13.0002V7ZM8.00024 5H9.00024V6H8.00024V5ZM8.00024 7H7.00024V8H8.00024V7ZM4.00024 9H5.00024V10H4.00024V9ZM4.00024 5H5.00024V6H4.00024V5ZM7.00024 5H6.00024V6H7.00024V5ZM4.00024 7H6.00024V8H4.00024V7Z" fill="#424242"/>
</svg>
