<svg width="24" height="24" viewBox="0 0 24 24" fill="none" xmlns="http://www.w3.org/2000/svg">
<g clip-path="url(#clip0)">
<path fill-rule="evenodd" clip-rule="evenodd" d="M1.34399 2.125H21.6565L22.4377 2.90625V11.5048C21.9521 11.1401 21.4275 10.8346 20.8752 10.593V3.6875H2.12524V17.75H9.93774C9.93774 18.2593 9.98754 18.7698 10.0879 19.2741C10.3169 20.4256 10.8014 21.5058 11.5002 22.4375H5.25024V20.875H9.93774V19.3125H1.34399L0.562744 18.5312V2.90625L1.34399 2.125ZM17.7502 11.5C16.5141 11.5 15.3057 11.8665 14.2779 12.5532C13.2501 13.24 12.449 14.2161 11.9759 15.3582C11.5029 16.5002 11.3792 17.757 11.6204 18.9694C11.8615 20.1817 12.4568 21.2952 13.3309 22.1693C14.205 23.0434 15.3185 23.6387 16.5308 23.8798C17.7432 24.121 19 23.9974 20.142 23.5243C21.2841 23.0513 22.2602 22.2501 22.947 21.2223C23.6337 20.1945 24.0002 18.9861 24.0002 17.75C24.0002 16.0924 23.3416 14.5028 22.1695 13.3307C20.9974 12.1586 19.4078 11.5 17.7502 11.5ZM17.7502 22.4375C16.8231 22.4375 15.9168 22.1625 15.1459 21.6475C14.3751 21.1324 13.7744 20.4004 13.4196 19.5439C13.0648 18.6873 12.9719 17.7447 13.1527 16.8354C13.3336 15.9261 13.7801 15.091 14.4356 14.4354C15.0912 13.7799 15.9264 13.3334 16.8356 13.1525C17.7449 12.9717 18.6875 13.0646 19.5441 13.4194C20.4006 13.7742 21.1326 14.3749 21.6477 15.1457C22.1628 15.9166 22.4377 16.8229 22.4377 17.75C22.4377 18.9932 21.9439 20.1855 21.0648 21.0646C20.1857 21.9437 18.9934 22.4375 17.7502 22.4375ZM20.353 19.3056L18.2 17.1526L20.353 15L21.0003 15.6465L19.4938 17.1526L21.0003 18.6591L20.353 19.3056ZM15.0002 17.2464L16.5067 18.7528L15.0002 20.2593L15.6475 20.9062L17.8001 18.7528L15.6475 16.5998L15.0002 17.2464Z" fill="#424242"/>
</g>
<defs>
<clipPath id="clip0">
<rect width="24" height="24" fill="white" transform="translate(0.000244141)"/>
</clipPath>
</defs>
</svg>
