<svg width="16" height="16" viewBox="0 0 16 16" fill="none" xmlns="http://www.w3.org/2000/svg">
<path d="M12.0002 12.23V3.77L13.1302 3H14.0002V2H13.0002L12.6902 2.09L11.5002 2.9L10.2802 2.08L10.0002 2H9.00024V3H9.85024L11.0002 3.77V12.23L9.87024 13H9.00024V14H10.0002L10.3102 13.91L11.5002 13.1L12.7202 13.92L13.0002 14H14.0002V13H13.1502L12.0002 12.23Z" fill="#424242"/>
<path d="M1.00024 10.5V5.5L1.50024 5H10.0002V6H2.00024V10H10.0002V11H1.50024L1.00024 10.5Z" fill="#424242"/>
<path d="M13.0002 5H14.5002L15.0002 5.5V10.5L14.5002 11H13.0002V10H14.0002V6H13.0002V5Z" fill="#424242"/>
<path d="M3.00024 7.5V8.5L3.50024 9H7.50024L8.00024 8.5V7.5L7.50024 7H3.50024L3.00024 7.5Z" fill="#424242"/>
</svg>
