<svg width="16" height="16" viewBox="0 0 16 16" fill="none" xmlns="http://www.w3.org/2000/svg">
<path fill-rule="evenodd" clip-rule="evenodd" d="M13.0002 1.5V3H12.0002V2H3.00024V10H13.0002V13.5L12.5002 14H8.00022V13H12.0002V11H3.00024H2.74022H2.73573C2.63748 11.0003 2.54031 11.0207 2.45022 11.06C2.26917 11.1351 2.12531 11.279 2.05022 11.46C2.01826 11.5534 2.00139 11.6513 2.00022 11.75V12.25C2.00139 12.3487 2.01826 12.4466 2.05022 12.54C2.12531 12.721 2.26917 12.8649 2.45022 12.94C2.54168 12.9799 2.64044 13.0003 2.74022 13H3.00022V14H2.74022C2.51087 13.9975 2.28387 13.9534 2.07022 13.87C1.64478 13.6883 1.30737 13.3473 1.13022 12.92C1.04204 12.7078 0.997811 12.4798 1.00022 12.25V2.75C1.00432 2.53701 1.04842 2.3267 1.13022 2.13C1.21243 1.90913 1.33793 1.7069 1.49935 1.53518C1.66076 1.36346 1.85485 1.22571 2.07022 1.13C2.28387 1.04658 2.51087 1.00254 2.74022 1H12.5002L13.0002 1.5ZM2.00024 10.17V2.74777L2.00022 2.75V10.17L2.00024 10.17ZM5.00024 3H4.00024V4H5.00024V3ZM5.00024 5H4.00024V6H5.00024V5ZM4.00024 7H5.00024V8H4.00024V7ZM12.0702 3.39001L11.3702 4.10001L13.2902 6.02001H7.00024V7.02001H13.3902L11.3702 9.05001L12.0702 9.75001L14.9002 6.93001V6.22001L12.0702 3.39001ZM5.50024 13.49L4.28024 15H4.00024V12H7.00024V15H6.72024L5.50024 13.49Z" fill="#424242"/>
</svg>
