<svg width="16" height="16" viewBox="0 0 16 16" fill="none" xmlns="http://www.w3.org/2000/svg">
<path d="M14.0002 3.99996C14.001 3.62441 13.896 3.25624 13.6972 2.93758C13.4985 2.61893 13.214 2.36267 12.8764 2.19813C12.5389 2.0336 12.1618 1.96744 11.7883 2.00723C11.4149 2.04702 11.0602 2.19114 10.7649 2.42312C10.4695 2.65509 10.2454 2.96553 10.1183 3.3189C9.99117 3.67228 9.9661 4.05431 10.046 4.42127C10.1258 4.78823 10.3074 5.12529 10.5699 5.39388C10.8324 5.66246 11.1652 5.85171 11.5302 5.93996V6.99996C11.5318 7.09141 11.5072 7.1814 11.4594 7.25935C11.4116 7.3373 11.3425 7.39996 11.2602 7.43996L8.49021 8.87996L5.73021 7.47996C5.64229 7.43622 5.56954 7.36707 5.52139 7.28148C5.47325 7.19589 5.45193 7.09781 5.46021 6.99996V5.93996C5.93154 5.81827 6.34231 5.52885 6.61551 5.12596C6.88872 4.72307 7.00561 4.23437 6.94427 3.75146C6.88293 3.26856 6.64758 2.8246 6.28233 2.5028C5.91707 2.18101 5.447 2.00347 4.96021 2.00347C4.47342 2.00347 4.00335 2.18101 3.63809 2.5028C3.27284 2.8246 3.03749 3.26856 2.97615 3.75146C2.91481 4.23437 3.0317 4.72307 3.30491 5.12596C3.57812 5.52885 3.98888 5.81827 4.46021 5.93996V6.99996C4.46078 7.27705 4.53759 7.54865 4.68223 7.785C4.82686 8.02135 5.03374 8.21334 5.28021 8.33996L8.00021 9.73996V11.06C7.52888 11.1817 7.11812 11.4711 6.84491 11.874C6.5717 12.2769 6.45481 12.7656 6.51615 13.2485C6.57749 13.7314 6.81284 14.1753 7.17809 14.4971C7.54335 14.8189 8.01342 14.9965 8.50021 14.9965C8.987 14.9965 9.45707 14.8189 9.82233 14.4971C10.1876 14.1753 10.4229 13.7314 10.4843 13.2485C10.5456 12.7656 10.4287 12.2769 10.1555 11.874C9.8823 11.4711 9.47154 11.1817 9.00021 11.06V9.73996L11.7002 8.37996C11.9544 8.25221 12.1666 8.05437 12.3119 7.80983C12.4572 7.56529 12.5295 7.28426 12.5202 6.99996V5.91996C12.9431 5.80611 13.3169 5.5566 13.5843 5.20975C13.8516 4.8629 13.9978 4.43789 14.0002 3.99996ZM4.00021 3.99996C4.00021 3.80218 4.05886 3.60884 4.16874 3.44439C4.27862 3.27994 4.4348 3.15177 4.61753 3.07608C4.80025 3.0004 5.00132 2.98059 5.1953 3.01918C5.38928 3.05776 5.56746 3.153 5.70732 3.29286C5.84717 3.43271 5.94241 3.61089 5.981 3.80487C6.01958 3.99885 5.99978 4.19992 5.92409 4.38265C5.8484 4.56537 5.72023 4.72155 5.55578 4.83143C5.39133 4.94131 5.19799 4.99996 5.00021 4.99996C4.73499 4.99996 4.48064 4.89461 4.2931 4.70707C4.10557 4.51953 4.00021 4.26518 4.00021 3.99996ZM9.47021 13C9.47021 13.1977 9.41156 13.3911 9.30168 13.5555C9.1918 13.72 9.03562 13.8482 8.85289 13.9238C8.67017 13.9995 8.4691 14.0193 8.27512 13.9807C8.08114 13.9422 7.90296 13.8469 7.7631 13.7071C7.62325 13.5672 7.52801 13.389 7.48942 13.1951C7.45084 13.0011 7.47064 12.8 7.54633 12.6173C7.62202 12.4346 7.75019 12.2784 7.91464 12.1685C8.07909 12.0586 8.27243 12 8.47021 12C8.60153 12 8.73157 12.0258 8.85289 12.0761C8.97422 12.1263 9.08446 12.2 9.17732 12.2929C9.27018 12.3857 9.34383 12.496 9.39409 12.6173C9.44434 12.7386 9.47021 12.8686 9.47021 13V13ZM12.0002 4.99996C11.8024 4.99996 11.6091 4.94131 11.4446 4.83143C11.2802 4.72155 11.152 4.56537 11.0763 4.38265C11.0006 4.19992 10.9808 3.99885 11.0194 3.80487C11.058 3.61089 11.1533 3.43271 11.2931 3.29286C11.433 3.153 11.6111 3.05776 11.8051 3.01918C11.9991 2.98059 12.2002 3.0004 12.3829 3.07608C12.5656 3.15177 12.7218 3.27994 12.8317 3.44439C12.9416 3.60884 13.0002 3.80218 13.0002 3.99996C13.0002 4.26518 12.8949 4.51953 12.7073 4.70707C12.5198 4.89461 12.2654 4.99996 12.0002 4.99996Z" fill="#424242"/>
</svg>
