<svg width="16" height="16" viewBox="0 0 16 16" fill="none" xmlns="http://www.w3.org/2000/svg">
<path fill-rule="evenodd" clip-rule="evenodd" d="M13.5003 1H3.74027C3.51093 0.999996 3.28385 1.04533 3.07209 1.1334C2.86032 1.22147 2.66806 1.35053 2.50636 1.51316C2.34465 1.6758 2.21669 1.8688 2.12984 2.08106C2.04299 2.29332 1.99895 2.52066 2.00027 2.75V12.25C1.99895 12.4793 2.04299 12.7067 2.12984 12.9189C2.21669 13.1312 2.34465 13.3242 2.50636 13.4868C2.66806 13.6495 2.86032 13.7785 3.07209 13.8666C3.28385 13.9547 3.51093 14 3.74027 14H7.00027V13H3.74027C3.64225 13 3.5452 12.9805 3.45476 12.9427C3.36432 12.9049 3.28229 12.8495 3.21345 12.7797C3.1446 12.71 3.0903 12.6272 3.05371 12.5363C3.01711 12.4453 2.99895 12.348 3.00027 12.25V11.75C2.99895 11.652 3.01711 11.5547 3.05371 11.4637C3.0903 11.3728 3.1446 11.29 3.21345 11.2203C3.28229 11.1505 3.36432 11.0951 3.45476 11.0573C3.54516 11.0195 3.64216 11 3.74014 11C3.74019 11 3.74023 11 3.74027 11H4.00027H7.00027V10H4.00027V2H13.0003V10H10.0003V11H13.0003V13H10.0003V14H13.5003L14.0003 13.5V1.5L13.5003 1ZM3.00027 2.72987C3.00018 2.73657 3.00018 2.74329 3.00027 2.75V10.17L3.00027 2.72987ZM6.00027 3H5.00027V4H6.00027V3ZM5.38028 8.64995L6.09028 9.34995L8.01028 7.42994V15H9.01028V7.32814L11.0403 9.34995L11.7403 8.64995L8.92028 5.81995H8.21028L5.38028 8.64995ZM5.00027 5H6.00027V6H5.00027V5Z" fill="#424242"/>
</svg>
