<svg width="16" height="16" viewBox="0 0 16 16" fill="none" xmlns="http://www.w3.org/2000/svg">
<path d="M14 4.00002C14.0008 3.62447 13.8958 3.2563 13.697 2.93765C13.4983 2.61899 13.2138 2.36273 12.8763 2.1982C12.5387 2.03366 12.1616 1.9675 11.7881 2.00729C11.4147 2.04708 11.06 2.19121 10.7647 2.42318C10.4693 2.65515 10.2453 2.96559 10.1181 3.31896C9.99099 3.67234 9.96591 4.05437 10.0458 4.42133C10.1256 4.78829 10.3072 5.12535 10.5697 5.39394C10.8322 5.66252 11.165 5.85177 11.53 5.94002V7.00002C11.5316 7.09147 11.507 7.18146 11.4592 7.25941C11.4114 7.33736 11.3423 7.40002 11.26 7.44002L8.49003 8.88002L5.73003 7.48002C5.64211 7.43628 5.56936 7.36713 5.52121 7.28154C5.47307 7.19595 5.45175 7.09787 5.46003 7.00002V5.94002C5.93136 5.81833 6.34212 5.52891 6.61533 5.12602C6.88853 4.72313 7.00542 4.23443 6.94409 3.75152C6.88275 3.26862 6.6474 2.82466 6.28214 2.50286C5.91689 2.18107 5.44681 2.00353 4.96003 2.00353C4.47324 2.00353 4.00316 2.18107 3.63791 2.50286C3.27266 2.82466 3.0373 3.26862 2.97597 3.75152C2.91463 4.23443 3.03152 4.72313 3.30473 5.12602C3.57793 5.52891 3.9887 5.81833 4.46003 5.94002V7.00002C4.4606 7.27712 4.53741 7.54871 4.68204 7.78506C4.82668 8.02141 5.03356 8.21341 5.28003 8.34002L8.00003 9.74002V11.06C7.5287 11.1817 7.11793 11.4711 6.84473 11.874C6.57152 12.2769 6.45463 12.7656 6.51597 13.2485C6.5773 13.7314 6.81266 14.1754 7.17791 14.4972C7.54316 14.819 8.01324 14.9965 8.50003 14.9965C8.98681 14.9965 9.45689 14.819 9.82214 14.4972C10.1874 14.1754 10.4227 13.7314 10.4841 13.2485C10.5454 12.7656 10.4285 12.2769 10.1553 11.874C9.88212 11.4711 9.47136 11.1817 9.00003 11.06V9.74002L11.7 8.38002C11.9542 8.25227 12.1664 8.05443 12.3118 7.80989C12.4571 7.56535 12.5293 7.28433 12.52 7.00002V5.92002C12.9429 5.80617 13.3167 5.55666 13.5841 5.20981C13.8514 4.86297 13.9976 4.43795 14 4.00002ZM4.00003 4.00002C4.00003 3.80224 4.05868 3.6089 4.16856 3.44445C4.27844 3.28 4.43462 3.15183 4.61734 3.07614C4.80007 3.00046 5.00114 2.98065 5.19512 3.01924C5.3891 3.05782 5.56728 3.15306 5.70713 3.29292C5.84699 3.43277 5.94223 3.61095 5.98081 3.80493C6.0194 3.99891 5.99959 4.19998 5.92391 4.38271C5.84822 4.56543 5.72005 4.72161 5.5556 4.83149C5.39115 4.94137 5.19781 5.00002 5.00003 5.00002C4.73481 5.00002 4.48046 4.89467 4.29292 4.70713C4.10538 4.51959 4.00003 4.26524 4.00003 4.00002ZM9.47003 13C9.47003 13.1978 9.41138 13.3911 9.3015 13.5556C9.19162 13.72 9.03544 13.8482 8.85271 13.9239C8.66998 13.9996 8.46892 14.0194 8.27494 13.9808C8.08096 13.9422 7.90277 13.847 7.76292 13.7071C7.62307 13.5673 7.52783 13.3891 7.48924 13.1951C7.45066 13.0011 7.47046 12.8001 7.54615 12.6173C7.62183 12.4346 7.75001 12.2784 7.91446 12.1686C8.07891 12.0587 8.27225 12 8.47003 12C8.60135 12 8.73138 12.0259 8.85271 12.0761C8.97404 12.1264 9.08427 12.2001 9.17713 12.2929C9.26999 12.3858 9.34365 12.496 9.39391 12.6173C9.44416 12.7387 9.47003 12.8687 9.47003 13ZM12 5.00002C11.8022 5.00002 11.6089 4.94137 11.4445 4.83149C11.28 4.72161 11.1518 4.56543 11.0761 4.38271C11.0005 4.19998 10.9807 3.99891 11.0192 3.80493C11.0578 3.61095 11.1531 3.43277 11.2929 3.29292C11.4328 3.15306 11.611 3.05782 11.8049 3.01924C11.9989 2.98065 12.2 3.00046 12.3827 3.07614C12.5654 3.15183 12.7216 3.28 12.8315 3.44445C12.9414 3.6089 13 3.80224 13 4.00002C13 4.26524 12.8947 4.51959 12.7071 4.70713C12.5196 4.89467 12.2652 5.00002 12 5.00002Z" fill="#424242"/>
</svg>
