<svg width="16" height="16" viewBox="0 0 16 16" fill="none" xmlns="http://www.w3.org/2000/svg">
<path fill-rule="evenodd" clip-rule="evenodd" d="M13.0002 10H4.00022V2H8.00022V1H3.74021C3.51086 1.00254 3.28388 1.04659 3.07022 1.13C2.85316 1.22447 2.65881 1.36429 2.50022 1.54004C2.33816 1.70959 2.21228 1.91029 2.13022 2.13C2.04796 2.32656 2.00384 2.53696 2.00022 2.75V12.25C1.99781 12.4798 2.04204 12.7078 2.13022 12.92C2.30554 13.3486 2.64355 13.6902 3.07022 13.87C3.28388 13.9534 3.51086 13.9975 3.74021 14H4.00022V13H3.74021C3.64043 13.0003 3.54169 12.9798 3.45023 12.9399C3.27154 12.8614 3.12879 12.7187 3.0502 12.54C3.03504 12.444 3.03504 12.3461 3.0502 12.25V11.75C3.03504 11.6539 3.03504 11.556 3.0502 11.46C3.12879 11.2813 3.27154 11.1386 3.45023 11.0601C3.54169 11.0202 3.64043 10.9997 3.74021 11H13.0002V13H9.00022V14H13.5002L14.0002 13.5V9H13.0002V10ZM6.00024 3H5.00024V4H6.00024V3ZM5.00024 5H6.00024V6H5.00024V5ZM5.00024 7H6.00024V8H5.00024V7ZM5.28024 15H5.00024V12H8.00024V15H7.72024L6.50024 13.49L5.28024 15ZM10.0002 1H14.5002L15.0002 1.5V7.5L14.5002 8H12.0002V9H11.0002V8H10.0002C9.73503 8 9.48069 7.89469 9.29315 7.70715C9.10562 7.51962 9.00024 7.26522 9.00024 7V2C9.00024 1.73478 9.10562 1.48038 9.29315 1.29285C9.48069 1.10531 9.73503 1 10.0002 1ZM10.5002 7H11.0002V6H10.5002C10.3676 6 10.2404 6.05272 10.1467 6.14648C10.0529 6.24025 10.0002 6.36739 10.0002 6.5C10.0002 6.63261 10.0529 6.75975 10.1467 6.85352C10.2404 6.94728 10.3676 7 10.5002 7ZM12.0002 7H14.0002V6H12.0002V7ZM11.0002 5H14.0002V2H11.0002V5Z" fill="#424242"/>
</svg>
