<svg width="16" height="16" viewBox="0 0 16 16" fill="none" xmlns="http://www.w3.org/2000/svg">
<path fill-rule="evenodd" clip-rule="evenodd" d="M3.74027 1H13.5003L14.0003 1.5V13.5L13.5003 14H10.0003V13H13.0003V11H10.0003V10H13.0003V2H4.00027V10H7.00027V11H4.00027H3.74027H3.74014C3.64216 11 3.54516 11.0195 3.45476 11.0573C3.36432 11.0951 3.28229 11.1505 3.21345 11.2203C3.1446 11.29 3.0903 11.3728 3.05371 11.4637C3.01711 11.5547 2.99895 11.652 3.00027 11.75V12.25C2.99895 12.348 3.01711 12.4453 3.05371 12.5363C3.0903 12.6272 3.1446 12.71 3.21345 12.7797C3.28229 12.8495 3.36432 12.9049 3.45476 12.9427C3.5452 12.9805 3.64225 13 3.74027 13H7.00027V14H3.74027C3.51093 14 3.28385 13.9547 3.07209 13.8666C2.86032 13.7785 2.66806 13.6495 2.50636 13.4868C2.34465 13.3242 2.21669 13.1312 2.12984 12.9189C2.04299 12.7067 1.99895 12.4793 2.00027 12.25V2.75C1.99895 2.52066 2.04299 2.29332 2.12984 2.08106C2.21669 1.8688 2.34465 1.6758 2.50636 1.51316C2.66806 1.35053 2.86032 1.22147 3.07209 1.1334C3.28385 1.04533 3.51093 0.999996 3.74027 1ZM5.34027 5.83L6.05027 6.53L8.00027 4.58V6.03L5.38027 8.65L6.09027 9.35L8.01027 7.43V15H9.01027V7.32819L11.0403 9.35L11.7403 8.65L9.00027 5.90028V4.53806L11.0003 6.53L11.7003 5.83L8.88027 3H8.17027L5.34027 5.83Z" fill="#424242"/>
</svg>
