<svg width="16" height="16" viewBox="0 0 16 16" fill="none" xmlns="http://www.w3.org/2000/svg">
<path fill-rule="evenodd" clip-rule="evenodd" d="M14.0003 10V1.5L13.5003 1H3.74034C3.51099 1.00254 3.28399 1.04658 3.07034 1.13C2.85497 1.22571 2.66089 1.36346 2.49947 1.53518C2.33805 1.7069 2.21255 1.90913 2.13034 2.13C2.04854 2.3267 2.00444 2.53701 2.00034 2.75V12.25C1.99793 12.4798 2.04216 12.7078 2.13034 12.92C2.30749 13.3473 2.6449 13.6883 3.07034 13.87C3.28399 13.9534 3.51099 13.9975 3.74034 14H4.00034V13H3.74034C3.64056 13.0003 3.5418 12.9799 3.45034 12.94C3.26929 12.8649 3.12543 12.721 3.05034 12.54C3.01839 12.4466 3.00151 12.3487 3.00034 12.25V11.75C3.00151 11.6513 3.01839 11.5534 3.05034 11.46C3.12543 11.279 3.26929 11.1351 3.45034 11.06C3.54043 11.0207 3.6376 11.0003 3.73585 11H3.74034H4.00034H13.0003V13H9.00034V14H13.5003L14.0003 13.5V11V10ZM4.00034 10V2H13.0003V10H4.00034ZM5.00034 3H6.00034V4H5.00034V3ZM5.00034 5H6.00034V6H5.00034V5ZM6.00034 7H5.00034V8H6.00034V7ZM6.50034 13.49L5.28034 15H5.00034V12H8.00034V15H7.72034L6.50034 13.49Z" fill="#424242"/>
</svg>
