<svg width="16" height="16" viewBox="0 0 16 16" fill="none" xmlns="http://www.w3.org/2000/svg">
<path fill-rule="evenodd" clip-rule="evenodd" d="M14.4912 1C10.8928 1.0045 7.83757 2.98269 5.65659 5H1.50024L1.00024 5.5V8.5L1.14724 8.854L2.1382 9.84496L2.13924 9.854L6.13924 13.854L6.14825 13.855L7.14725 14.854L7.50025 15H10.5002L11.0002 14.5V10.346C13.0193 8.16839 14.9962 5.11301 14.9922 1.5L14.4912 1ZM2.00024 6H4.64331C3.59271 7.10401 2.83194 8.11996 2.41868 8.71094L2.00024 8.293V6ZM7.70025 14L7.28073 13.5766C7.87285 13.1655 8.89019 12.4085 9.99525 11.3611V14H7.70025ZM6.55724 12.856L3.13624 9.437C4.12824 8 8.37924 2.355 13.9782 2.016C13.6522 7.628 7.99124 11.869 6.55724 12.856ZM4.00024 15V14H2.00024V12H1.00024V15H4.00024ZM10.7478 7.33284C10.9124 7.08628 11.0002 6.79647 11.0002 6.50001C11.0002 6.3026 10.9613 6.10714 10.8856 5.92483C10.8099 5.74251 10.699 5.57693 10.5591 5.43758C10.4193 5.29822 10.2534 5.18784 10.0708 5.11275C9.88824 5.03766 9.69265 4.99935 9.49524 5.00001C9.19879 5.001 8.90927 5.08981 8.66326 5.25523C8.41724 5.42065 8.22576 5.65526 8.113 5.92944C8.00023 6.20361 7.97124 6.50506 8.02968 6.7957C8.08812 7.08634 8.23137 7.35314 8.44135 7.56242C8.65133 7.7717 8.91861 7.91407 9.20944 7.97154C9.50028 8.02902 9.80162 7.99902 10.0754 7.88534C10.3492 7.77167 10.5832 7.57941 10.7478 7.33284Z" fill="#424242"/>
</svg>
