<svg width="16" height="16" viewBox="0 0 16 16" fill="none" xmlns="http://www.w3.org/2000/svg">
<path fill-rule="evenodd" clip-rule="evenodd" d="M7.71021 3H14.5002L15.0103 3.5V9V13.5L14.5103 14H8.74308C8.99671 13.6929 9.21764 13.3578 9.40053 13H13.9902V11.49L14.0002 7.48999V5.98999H7.69019L7.6732 6.00697C7.39708 5.81162 7.10216 5.64108 6.79168 5.4986L7.14026 5.15002L7.49023 5H13.9902L14.0002 4.01001H7.50024L7.14026 3.85999L6.29028 3.01001H2.00024V5.59971C1.64635 5.78062 1.31463 5.99874 1.01025 6.24892V2.5L1.51025 2H6.51025L6.86023 2.15002L7.71021 3Z" fill="#424242"/>
<path d="M6.00024 10.5C6.00024 11.3284 5.32867 12 4.50024 12C3.67182 12 3.00024 11.3284 3.00024 10.5C3.00024 9.67157 3.67182 9 4.50024 9C5.32867 9 6.00024 9.67157 6.00024 10.5Z" fill="#424242"/>
<path fill-rule="evenodd" clip-rule="evenodd" d="M8.00024 10.5C8.00024 12.433 6.43324 14 4.50024 14C2.56725 14 1.00024 12.433 1.00024 10.5C1.00024 8.567 2.56725 7 4.50024 7C6.43324 7 8.00024 8.567 8.00024 10.5ZM4.50024 13C5.88096 13 7.00024 11.8807 7.00024 10.5C7.00024 9.11929 5.88096 8 4.50024 8C3.11953 8 2.00024 9.11929 2.00024 10.5C2.00024 11.8807 3.11953 13 4.50024 13Z" fill="#424242"/>
</svg>
