<svg width="16" height="16" viewBox="0 0 16 16" fill="none" xmlns="http://www.w3.org/2000/svg">
<g clip-path="url(#clip0)">
<path fill-rule="evenodd" clip-rule="evenodd" d="M-0.000183105 7.33692V2.5L0.499817 2H5.49982L5.84979 2.15002L6.70978 3H12.4998L12.9998 3.5V6H15.1298L15.6098 6.63L12.9798 13.63L12.4998 14H8.74265C8.99628 13.6929 9.21721 13.3578 9.40011 13H12.1298L14.4998 7H8.74265C8.52545 6.73699 8.28426 6.49453 8.02244 6.27595L8.14984 6.15002L8.49982 6H11.9998V4H6.49982L6.14984 3.84998L5.28986 3H0.999817L1.01296 6.24635C0.628156 6.56215 0.286974 6.92914 -0.000183105 7.33692Z" fill="#424242"/>
<path d="M5.99982 10.5C5.99982 11.3284 5.32824 12 4.49982 12C3.67139 12 2.99982 11.3284 2.99982 10.5C2.99982 9.67157 3.67139 9 4.49982 9C5.32824 9 5.99982 9.67157 5.99982 10.5Z" fill="#424242"/>
<path fill-rule="evenodd" clip-rule="evenodd" d="M7.99982 10.5C7.99982 12.433 6.43281 14 4.49982 14C2.56682 14 0.999817 12.433 0.999817 10.5C0.999817 8.567 2.56682 7 4.49982 7C6.43281 7 7.99982 8.567 7.99982 10.5ZM4.49982 13C5.88053 13 6.99982 11.8807 6.99982 10.5C6.99982 9.11929 5.88053 8 4.49982 8C3.1191 8 1.99982 9.11929 1.99982 10.5C1.99982 11.8807 3.1191 13 4.49982 13Z" fill="#424242"/>
</g>
<defs>
<clipPath id="clip0">
<path d="M-0.000183105 0H15.9998V16H-0.000183105V0Z" fill="white"/>
</clipPath>
</defs>
</svg>
