<svg width="16" height="16" viewBox="0 0 16 16" fill="none" xmlns="http://www.w3.org/2000/svg">
<path fill-rule="evenodd" clip-rule="evenodd" d="M1.00024 6.25721V2.5L1.50024 2H6.50024L6.85022 2.15002L7.71021 3H13.5002L14.0002 3.5V6H15.1302L15.6102 6.63L12.9802 13.63L12.5002 14H8.74314C8.99677 13.6929 9.2177 13.3578 9.4006 13H12.1302L14.5002 7H8.74314C8.52593 6.73698 8.28473 6.49451 8.02289 6.27592L8.15027 6.15002L8.50024 6H13.0002V4H7.50024L7.15027 3.84998L6.29028 3H2.00024L2.01074 5.59439C1.64902 5.77833 1.31035 6.0011 1.00024 6.25721Z" fill="#424242"/>
<path d="M6.00024 10.5C6.00024 11.3284 5.32867 12 4.50024 12C3.67182 12 3.00024 11.3284 3.00024 10.5C3.00024 9.67157 3.67182 9 4.50024 9C5.32867 9 6.00024 9.67157 6.00024 10.5Z" fill="#424242"/>
<path fill-rule="evenodd" clip-rule="evenodd" d="M8.00024 10.5C8.00024 12.433 6.43324 14 4.50024 14C2.56725 14 1.00024 12.433 1.00024 10.5C1.00024 8.567 2.56725 7 4.50024 7C6.43324 7 8.00024 8.567 8.00024 10.5ZM4.50024 13C5.88096 13 7.00024 11.8807 7.00024 10.5C7.00024 9.11929 5.88096 8 4.50024 8C3.11953 8 2.00024 9.11929 2.00024 10.5C2.00024 11.8807 3.11953 13 4.50024 13Z" fill="#424242"/>
</svg>
