<svg width="16" height="16" viewBox="0 0 16 16" fill="none" xmlns="http://www.w3.org/2000/svg">
<g clip-path="url(#clip0)">
<path fill-rule="evenodd" clip-rule="evenodd" d="M7.70978 3H14.4998L15.0098 3.5V9V13.5L14.5098 14H8.74265C8.99628 13.6929 9.21721 13.3578 9.40011 13H13.9898V11.49L13.9998 7.48999V5.98999H7.68976L7.67278 6.00697C7.39665 5.81162 7.10173 5.64108 6.79126 5.4986L7.13983 5.15002L7.48981 5H13.9898L13.9998 4.01001H7.49982L7.13983 3.85999L6.28986 3.01001H1.99982V5.59971C1.64592 5.78062 1.3142 5.99874 1.00983 6.24892V2.5L1.50983 2H6.50983L6.8598 2.15002L7.70978 3Z" fill="#424242"/>
<path d="M5.99982 10.5C5.99982 11.3284 5.32824 12 4.49982 12C3.67139 12 2.99982 11.3284 2.99982 10.5C2.99982 9.67157 3.67139 9 4.49982 9C5.32824 9 5.99982 9.67157 5.99982 10.5Z" fill="#424242"/>
<path fill-rule="evenodd" clip-rule="evenodd" d="M7.99982 10.5C7.99982 12.433 6.43281 14 4.49982 14C2.56682 14 0.999817 12.433 0.999817 10.5C0.999817 8.567 2.56682 7 4.49982 7C6.43281 7 7.99982 8.567 7.99982 10.5ZM4.49982 13C5.88053 13 6.99982 11.8807 6.99982 10.5C6.99982 9.11929 5.88053 8 4.49982 8C3.1191 8 1.99982 9.11929 1.99982 10.5C1.99982 11.8807 3.1191 13 4.49982 13Z" fill="#424242"/>
</g>
<defs>
<clipPath id="clip0">
<path d="M-0.000183105 0H15.9998V16H-0.000183105V0Z" fill="white"/>
</clipPath>
</defs>
</svg>
