<svg width="16" height="16" viewBox="0 0 16 16" fill="none" xmlns="http://www.w3.org/2000/svg">
<path d="M14.8502 2.65002L13.3502 1.15002L13.0002 1H4.48022L3.98022 1.5V4H1.50024L1.00024 4.5V14.5L1.50024 15H11.5002L12.0002 14.5V12H14.5002L15.0002 11.5V3L14.8502 2.65002ZM11.0002 14H2.00024V5H3.00024V8.06995H9.00024V5H9.79028L11.0002 6.20996V14ZM6.00024 7V5H8.00024V7H6.00024ZM14.0002 11H12.0002V6L11.8502 5.65002L10.3502 4.15002L10.0002 4H5.00024V2H12.8103L14.0203 3.20996L14.0002 11Z" fill="#424242"/>
</svg>
