<svg width="16" height="16" viewBox="0 0 16 16" fill="none" xmlns="http://www.w3.org/2000/svg">
<path fill-rule="evenodd" clip-rule="evenodd" d="M7.99525 11.2118L13.1464 6.06066L13.9393 6.85355L8.78813 12.0047L7.99525 11.2118ZM7.28815 10.5047L12.7929 5H13.5L15 6.5V7.20711L9.49523 12.7118L9.49998 12.7166L9.36919 12.8379L8.99998 13.2071H8.97106L8.87004 13.3008L5.87004 14.8008L5.19922 14.13L6.69922 11.13L6.79287 11.029V11L7.16249 10.6304L7.28341 10.5L7.28815 10.5047ZM7.28341 12.1977L6.76447 13.2355L7.80235 12.7166L7.28341 12.1977Z" fill="#424242"/>
<path fill-rule="evenodd" clip-rule="evenodd" d="M1 2L2 1H10.3333L11.0404 1.29289L12.7071 2.95956L13 3.66667V4H12.5L12 4.5V3.66667L10.3333 2H10V6H4V2H2V12H5L4.5 13H2L1 12V2ZM7 2H9V5H7V2Z" fill="#424242"/>
</svg>
