<svg width="16" height="16" viewBox="0 0 16 16" fill="none" xmlns="http://www.w3.org/2000/svg">
<g clip-path="url(#clip0)">
<path d="M6.00024 3H10.0002V4H6.00024V3ZM6.00024 9H10.0002V10H6.00024V9ZM6.00024 11H10.0002V12H6.00024V11ZM15.1409 16H0.859619L2.10962 11H4.00024V2C4.00024 1.86458 4.02629 1.73698 4.07837 1.61719C4.13045 1.4974 4.20076 1.39062 4.28931 1.29688C4.37785 1.20312 4.48462 1.13021 4.60962 1.07812C4.73462 1.02604 4.86483 1 5.00024 1H11.0002C11.1357 1 11.2633 1.02604 11.3831 1.07812C11.5028 1.13021 11.6096 1.20052 11.7034 1.28906C11.7971 1.3776 11.87 1.48438 11.9221 1.60938C11.9742 1.73438 12.0002 1.86458 12.0002 2V11H13.8909L15.1409 16ZM5.00024 13H11.0002V2H5.00024V13ZM13.8596 15L13.1096 12H12.0002V14H4.00024V12H2.89087L2.14087 15H13.8596Z" fill="#424242"/>
</g>
<defs>
<clipPath id="clip0">
<rect width="16" height="16" fill="white" transform="translate(0.000244141)"/>
</clipPath>
</defs>
</svg>
