<svg width="16" height="16" viewBox="0 0 16 16" fill="none" xmlns="http://www.w3.org/2000/svg">
<path fill-rule="evenodd" clip-rule="evenodd" d="M2.50024 5L2.00024 4.5V1.5L2.50024 1H13.5002L14.0002 1.5V4.5L13.5002 5H2.50024ZM10.0002 2H9.00024V3H8.00024V2H7.00024V3H6.00024V2H5.00024V3H4.00024V2H3.00024V4H13.0002V2H11.0002V3H10.0002V2ZM2.50024 10L2.00024 9.5V6.5L2.50024 6H13.5002L14.0002 6.5V9.5L13.5002 10H2.50024ZM6.00024 7H5.00024V8H4.00024V7H3.00024V9H13.0002V7H11.0002V8H10.0002V7H9.00024V8H8.00024V7H7.00024V8H6.00024V7ZM13.5002 15L14.0002 14.5V11.5L13.5002 11H2.50024L2.00024 11.5V14.5L2.50024 15H13.5002ZM3.00024 14V12H4.00024V13H5.00024V12H6.00024V13H7.00024V12H8.00024V13H9.00024V12H10.0002V13H11.0002V12H13.0002V14H3.00024Z" fill="#424242"/>
</svg>
