<svg width="24" height="24" viewBox="0 0 24 24" fill="none" xmlns="http://www.w3.org/2000/svg">
<g clip-path="url(#clip0)">
<path fill-rule="evenodd" clip-rule="evenodd" d="M19.8502 8.75L24.0002 9.57996V14.42L19.8502 15.25L22.2002 18.77L18.7703 22.2L15.2502 19.85L14.4203 24H9.5802L8.75024 19.85L5.23022 22.2L1.80029 18.77L4.15027 15.25L0.000244141 14.42V9.57996L4.15027 8.75L1.80029 5.22998L5.23022 1.80005L8.75024 4.15002L9.5802 0H14.4203L15.2502 4.15002L18.7703 1.80005L22.2002 5.22998L19.8502 8.75ZM18.2803 13.8199L22.2803 13.01V11.01L18.2803 10.2L17.7402 8.90002L20.0303 5.46997L18.6002 4.04004L15.1703 6.32996L13.8702 5.79004L13.0603 1.79004H11.0603L10.2502 5.79004L8.9502 6.32996L5.52026 4.04004L4.09021 5.46997L6.38025 8.90002L5.84021 10.2L1.84021 11.01V13.01L5.84021 13.8199L6.38025 15.12L4.09021 18.55L5.52026 19.98L8.9502 17.6899L10.2502 18.23L11.0603 22.23H13.0603L13.8702 18.23L15.1703 17.6899L18.6002 19.98L20.0303 18.55L17.7402 15.12L18.2803 13.8199ZM10.0946 9.14807C10.6587 8.77118 11.3218 8.56995 12.0002 8.56995C12.9091 8.57258 13.78 8.93484 14.4227 9.57751C15.0654 10.2202 15.4276 11.0911 15.4303 12C15.4303 12.6784 15.2291 13.3416 14.8522 13.9056C14.4753 14.4697 13.9396 14.9093 13.3129 15.1689C12.6861 15.4286 11.9964 15.4965 11.331 15.3641C10.6657 15.2318 10.0545 14.9051 9.57482 14.4254C9.09512 13.9457 8.76845 13.3345 8.6361 12.6692C8.50375 12.0038 8.57168 11.3141 8.83129 10.6874C9.0909 10.0606 9.53053 9.52496 10.0946 9.14807ZM11.0502 13.4218C11.3314 13.6097 11.662 13.71 12.0002 13.71C12.2252 13.7113 12.4482 13.668 12.6562 13.5825C12.8643 13.4971 13.0533 13.3712 13.2124 13.2122C13.3714 13.0531 13.4973 12.8641 13.5828 12.656C13.6682 12.4479 13.7115 12.2249 13.7102 12C13.7102 11.6618 13.6099 11.3311 13.422 11.0499C13.2341 10.7687 12.9671 10.5496 12.6547 10.4202C12.3422 10.2907 11.9983 10.2569 11.6666 10.3229C11.3349 10.3889 11.0303 10.5517 10.7911 10.7909C10.552 11.03 10.3891 11.3347 10.3231 11.6664C10.2571 11.9981 10.291 12.342 10.4204 12.6544C10.5498 12.9669 10.769 13.2339 11.0502 13.4218Z" fill="#424242"/>
</g>
<defs>
<clipPath id="clip0">
<rect width="24" height="24" fill="white" transform="translate(0.000244141)"/>
</clipPath>
</defs>
</svg>
