<svg width="16" height="16" viewBox="0 0 16 16" fill="none" xmlns="http://www.w3.org/2000/svg">
<path fill-rule="evenodd" clip-rule="evenodd" d="M3.50024 2H2.50024V7H3.50024V2ZM9.60024 7H6.40024L6.00024 6.45V5.45L6.40024 5H9.60024L10.0002 5.5V6.5L9.60024 7ZM4.60024 10H1.40024L1.00024 9.5V8.5L1.40024 8H4.60024L5.00024 8.5V9.5L4.60024 10ZM8.50024 2H7.50024V4H8.50024V2ZM7.50024 8H8.50024V14H7.50024V8ZM3.50024 11H2.50024V14H3.50024V11ZM11.4002 11H14.5902L14.9902 10.5V9.55005L14.5902 9.05005H11.4002L11.0002 9.55005V10.5L11.4002 11ZM13.5002 2H12.5002V8H13.5002V2ZM12.5002 12H13.5002V14H12.5002V12Z" fill="#424242"/>
</svg>
