<svg width="16" height="16" viewBox="0 0 16 16" fill="none" xmlns="http://www.w3.org/2000/svg">
<path fill-rule="evenodd" clip-rule="evenodd" d="M8.2463 14.7126C7.7423 14.416 7.24063 14.0983 6.7413 13.7596C6.23992 13.4201 5.75784 13.0528 5.2973 12.6596C4.8392 12.2651 4.40884 11.8394 4.0093 11.3856C3.60843 10.9309 3.25619 10.4356 2.9583 9.90765C2.65949 9.37372 2.42454 8.80649 2.2583 8.21765C2.08452 7.59356 1.9977 6.94847 2.0003 6.30065V3.10065L2.5003 2.60065C2.8333 2.60065 3.1563 2.58965 3.4693 2.56465C3.7662 2.54212 4.06122 2.49936 4.3523 2.43665C4.63638 2.37502 4.91471 2.28938 5.1843 2.18065C5.46847 2.0629 5.74156 1.91999 6.0003 1.75365C6.36744 1.51235 6.76578 1.32227 7.1843 1.18865C7.83354 1.00105 8.51507 0.952661 9.1843 1.04665C9.40025 1.07645 9.61333 1.12429 9.8213 1.18965C10.0274 1.2534 10.2281 1.33366 10.4213 1.42965C10.6199 1.52668 10.8131 1.63416 11.0003 1.75165C11.2609 1.91872 11.536 2.06197 11.8223 2.17965C12.0914 2.28878 12.3694 2.37444 12.6533 2.43565C12.9447 2.49842 13.2401 2.54152 13.5373 2.56465C13.8483 2.58865 14.1713 2.59965 14.5043 2.59965L15.0043 3.09965V6.30065C15.0076 6.94871 14.9215 7.59414 14.7483 8.21865C14.5821 8.80748 14.3471 9.37472 14.0483 9.90865C13.7504 10.4363 13.3985 10.9317 12.9983 11.3866C12.5992 11.8392 12.1695 12.2638 11.7123 12.6576C11.2507 13.0513 10.7673 13.4185 10.2643 13.7576C9.7623 14.097 9.25897 14.4153 8.7543 14.7126H8.2463ZM3.0003 3.59065V6.30065C2.99667 6.85648 3.07038 7.41012 3.2193 7.94565C3.36328 8.45917 3.56807 8.95367 3.8293 9.41865C4.09351 9.8857 4.40552 10.3241 4.7603 10.7266C5.12958 11.1441 5.52648 11.5363 5.9483 11.9006C6.37985 12.2687 6.83119 12.6129 7.3003 12.9316C7.7003 13.1983 8.1003 13.4543 8.5003 13.6996C8.9003 13.4576 9.3003 13.2016 9.7003 12.9316C10.1707 12.6133 10.623 12.2691 11.0553 11.9006C11.4762 11.5368 11.8725 11.1452 12.2413 10.7286C12.5955 10.3258 12.9071 9.88746 13.1713 9.42065C13.4325 8.95568 13.6373 8.46117 13.7813 7.94765C13.9304 7.41147 14.0041 6.85715 14.0003 6.30065V3.59065C13.8427 3.59065 13.6888 3.57904 13.5366 3.56756L13.4573 3.56165C13.1151 3.53467 12.7751 3.48557 12.4393 3.41465C12.1001 3.33989 11.7676 3.23721 11.4453 3.10765C11.1033 2.96863 10.7747 2.79894 10.4633 2.60065C10.3075 2.50244 10.1467 2.41265 9.9813 2.33165C9.83305 2.25857 9.67923 2.19738 9.5213 2.14865C9.36374 2.09869 9.20213 2.06256 9.0383 2.04065C8.51736 1.9643 7.9861 2.00045 7.4803 2.14665C7.14785 2.2546 6.83137 2.40662 6.5393 2.59865C6.2281 2.7989 5.89943 2.9706 5.5573 3.11165C5.2329 3.2411 4.89845 3.34377 4.5573 3.41865C4.22186 3.48952 3.88213 3.53829 3.5403 3.56465C3.3663 3.57465 3.1853 3.58465 3.0003 3.59065ZM9.06523 7.88995C9.61363 7.66682 10.0002 7.12856 10.0002 6.5C10.0002 5.67157 9.32866 5 8.50024 5C7.67181 5 7.00024 5.67157 7.00024 6.5C7.00024 7.12856 7.38685 7.66682 7.93524 7.88995L7.50024 10.5H9.50024L9.06523 7.88995Z" fill="#424242"/>
</svg>
