<svg width="16" height="16" viewBox="0 0 16 16" fill="none" xmlns="http://www.w3.org/2000/svg">
<path fill-rule="evenodd" clip-rule="evenodd" d="M11.0203 3.77V5.33L12.0203 4.34V2.5L11.5203 2H2.52026L2.02026 2.5V2.98599L2.00024 3.00003V13.29L2.36024 13.75L7.36024 15.47L8.00024 15V13.9999H11.5203L12.0203 13.4999V12.9999V11.6899L11.0203 10.6899V12.9999H8.00024V4.71003L7.67024 4.25003L4.03644 3H7.02026H11.0203V3.77ZM7.00024 14.28L3.00024 12.94V3.72003L7.00024 5.06003V14.28ZM13.5202 8.48005H8.55023V7.48005H13.4802L11.8802 5.88005L12.5902 5.18005L15.0602 7.64005V8.35005L12.5702 10.8301L11.8702 10.1301L13.5202 8.48005Z" fill="#424242"/>
</svg>
