<svg width="16" height="16" viewBox="0 0 16 16" fill="none" xmlns="http://www.w3.org/2000/svg">
<path fill-rule="evenodd" clip-rule="evenodd" d="M11.0203 3.77L11.0303 3.76L12.0203 4.75V2.5L11.5203 2H2.52025L2.01025 2.5V2.99301L2.00024 3.00003V13.29L2.36024 13.75L7.36024 15.47L8.00024 15V14H11.5203L12.0203 13.5V11.25L11.0203 12.25V13H8.00024V4.71003L7.67024 4.25003L4.03644 3H7.01025H11.0203V3.77ZM7.00024 14.28L3.00024 12.94V3.72003L7.00024 5.06003V14.28ZM10.0902 7.53005H15.0602V8.53005H10.1302L11.7202 10.1301L11.0102 10.8301L8.54022 8.37005V7.66005L11.0302 5.18005L11.7302 5.88005L10.0902 7.53005Z" fill="#424242"/>
</svg>
