<svg width="16" height="16" viewBox="0 0 16 16" fill="none" xmlns="http://www.w3.org/2000/svg">
<path fill-rule="evenodd" clip-rule="evenodd" d="M4.11126 2.17969C5.2624 1.41052 6.61577 1 8.00024 1C9.85675 1 11.6372 1.73754 12.95 3.05029C14.2628 4.36305 15.0002 6.14348 15.0002 8C15.0002 9.38447 14.5897 10.7379 13.8205 11.889C13.0514 13.0402 11.9581 13.9373 10.679 14.4672C9.39993 14.997 7.99244 15.1356 6.63457 14.8655C5.27671 14.5954 4.02943 13.9287 3.05047 12.9497C2.0715 11.9707 1.40485 10.7235 1.13476 9.3656C0.86466 8.00773 1.00326 6.60025 1.53307 5.32117C2.06289 4.04208 2.96011 2.94886 4.11126 2.17969ZM4.6668 12.9888C5.6535 13.6481 6.81355 14 8.00024 14C9.59153 14 11.1176 13.3679 12.2429 12.2427C13.3681 11.1175 14.0002 9.5913 14.0002 8C14.0002 6.81331 13.6484 5.65332 12.9891 4.66663C12.3298 3.67993 11.3927 2.91079 10.2963 2.45667C9.19996 2.00254 7.99359 1.88372 6.8297 2.11523C5.66582 2.34675 4.59674 2.91821 3.75762 3.75732C2.91851 4.59644 2.34704 5.66558 2.11553 6.82947C1.88402 7.99335 2.00284 9.19979 2.45696 10.2961C2.91109 11.3925 3.68011 12.3295 4.6668 12.9888ZM6.50024 7C6.50024 7.55228 6.05253 8 5.50024 8C4.94796 8 4.50024 7.55228 4.50024 7C4.50024 6.44772 4.94796 6 5.50024 6C6.05253 6 6.50024 6.44772 6.50024 7ZM11.5002 7C11.5002 7.55228 11.0525 8 10.5002 8C9.94796 8 9.50024 7.55228 9.50024 7C9.50024 6.44772 9.94796 6 10.5002 6C11.0525 6 11.5002 6.44772 11.5002 7ZM8.00024 11C7.45685 11.0013 6.92328 10.8551 6.45654 10.5768C5.98981 10.2985 5.60742 9.89871 5.35022 9.42004L4.48022 9.90002C4.83037 10.548 5.35265 11.0867 5.98944 11.4568C6.62623 11.8269 7.35284 12.0139 8.08917 11.9973C8.82551 11.9808 9.54301 11.7613 10.1625 11.363C10.7821 10.9647 11.2795 10.403 11.6002 9.73999L10.7003 9.31006C10.4543 9.81684 10.0706 10.2441 9.59308 10.543C9.11558 10.8418 8.56357 11.0002 8.00024 11Z" fill="#424242"/>
</svg>
