<svg width="16" height="16" viewBox="0 0 16 16" fill="none" xmlns="http://www.w3.org/2000/svg">
<path fill-rule="evenodd" clip-rule="evenodd" d="M7.00024 2L6.00024 3V6H7.00024V3H14.0002V5.45306L14.2074 5.29286L15.0002 6.08576V3L14.0002 2H7.00024ZM8.00024 4H10.0002V6H8.00024V4ZM5.00024 9H3.00024V11H5.00024V9ZM2.00024 7L1.00024 8V13L2.00024 14H9.00024L10.0002 13V8L9.00024 7H2.00024ZM2.00024 13V8H9.00024V13H2.00024ZM8.00024 10H6.00024V12H8.00024V10ZM13.0002 4H12.0002V7.86388L10.8183 6.68192L10.1112 7.38903L12.1467 9.42454L12.8538 9.42454L14.8893 7.38908L14.1822 6.68197L13.0002 7.86388V4Z" fill="#424242"/>
</svg>
