<svg width="16" height="16" viewBox="0 0 16 16" fill="none" xmlns="http://www.w3.org/2000/svg">
<path fill-rule="evenodd" clip-rule="evenodd" d="M5.55833 2.64202C5.51721 2.63805 5.47602 2.63476 5.4348 2.63217C5.41772 2.56415 5.39577 2.49729 5.36903 2.43211C5.29513 2.25195 5.18616 2.08827 5.04846 1.95057C4.91077 1.81288 4.74708 1.70391 4.56692 1.63C4.38676 1.5561 4.19371 1.51872 3.99898 1.52005V2.82739C3.24198 3.12824 2.57193 3.61317 2.04954 4.2383C1.5258 4.86504 1.16711 5.61281 1.00611 6.41355V6.80339C1.465 7.6402 2.91206 7.93433 3.15995 7.98471C3.18744 7.9903 3.20018 7.99289 3.19519 7.99289C0.776206 8.31276 1.00611 10.2419 1.00611 10.2419C1.02385 10.4947 1.13694 10.7314 1.32251 10.9039C1.50808 11.0765 1.75227 11.1722 2.00569 11.1716C2.27675 11.1535 2.54326 11.0928 2.79536 10.9916H4.8545C4.67601 11.3008 4.55415 11.6393 4.49465 11.9912H4.17478C3.56995 12.0824 3.01807 12.388 2.61985 12.8522C2.22164 13.3165 2.00366 13.9085 2.00569 14.5202C1.99728 14.5777 2.0009 14.6363 2.01632 14.6923C2.03174 14.7483 2.05862 14.8005 2.09526 14.8456C2.13191 14.8907 2.17752 14.9277 2.2292 14.9543C2.28089 14.9809 2.33752 14.9964 2.39553 15H9.07273C9.6159 15.0277 10.1586 14.9372 10.6634 14.7348C11.1682 14.5324 11.6231 14.2228 11.9966 13.8274C12.3701 13.4321 12.6533 12.9604 12.8267 12.4449C13.0002 11.9294 13.0596 11.3824 13.0011 10.8417C12.9742 10.0844 12.7122 9.35419 12.2514 8.75257L12.1414 8.61263C11.7116 8.06286 11.4617 7.70301 11.5917 7.32317C11.7216 6.94333 11.9562 6.92334 11.9562 6.92334C11.9562 6.92334 12.1414 6.89335 12.4113 7.0133C12.6316 7.14132 12.8713 7.23248 13.121 7.28319C13.3554 7.3275 13.5968 7.31814 13.827 7.25582C14.0573 7.19349 14.2704 7.07982 14.4505 6.92334C14.6234 6.77291 14.762 6.58706 14.8569 6.37838C14.9517 6.1697 15.0006 5.94307 15.0002 5.71385C15.0061 4.99563 14.6697 4.25935 14.2754 3.6263C13.881 2.99326 13.35 2.4565 12.7212 2.05538C11.9133 1.62378 10.9818 1.48263 10.0823 1.65555C9.44562 1.76761 8.86104 2.07915 8.413 2.54517C8.05559 2.93495 7.78928 3.39929 7.63333 3.9046C7.45008 3.63238 7.23682 3.38194 6.99772 3.15793V2.9994C7.00043 2.61311 6.85091 2.24129 6.58152 1.96442C6.31213 1.68754 5.94455 1.52789 5.55833 1.52002V2.64202ZM10.8621 11.3808C10.9736 12.1224 11.0816 13.2023 9.99549 13.8227C9.69908 13.9264 9.38771 13.9832 9.07273 13.9904H3.21518C3.21438 13.7386 3.30864 13.4957 3.47914 13.3104C3.64963 13.1251 3.88379 13.0109 4.1348 12.9908H5.41426V12.491C5.40895 12.256 5.44999 12.0223 5.53504 11.8032C5.62008 11.5841 5.74747 11.3838 5.90991 11.214C6.07236 11.0441 6.26668 10.9079 6.48178 10.8132C6.66751 10.7313 6.86558 10.6818 7.06747 10.6665L6.44167 9.77855C6.20546 9.84573 5.97829 9.93175 5.86407 10.012H2.65542C2.56917 10.012 2.47985 10.0474 2.39107 10.0826C2.25348 10.137 2.1172 10.191 1.99569 10.112C1.79578 9.98206 2.10565 8.99247 3.00527 8.99247H4.00485C4.49465 8.99247 4.57461 8.4527 4.57461 8.4527L4.8545 7.32317C4.34016 7.39701 3.81573 7.35158 3.32175 7.19039C2.82777 7.0292 2.37748 6.75656 2.00569 6.39356C2.16481 5.66747 2.55825 5.01384 3.12542 4.53337C3.69259 4.05291 4.402 3.77226 5.14437 3.73468C5.17337 3.73571 5.20117 3.73656 5.22805 3.73737C5.48856 3.74528 5.66294 3.75057 6.00401 3.9046C6.93362 4.32443 8.15311 6.37357 8.15311 6.37357L8.21309 6.46353H8.38302V6.39356C8.32312 5.95075 8.36294 4.93039 8.49957 4.50495C8.63619 4.0795 8.86617 3.68997 9.17269 3.36483C9.52494 3.01272 9.98 2.78169 10.4721 2.70511C11.1064 2.56999 11.7683 2.67318 12.3314 2.99499C12.7919 3.27899 13.1817 3.66428 13.4709 4.12156C13.7602 4.57883 13.9468 4.95781 14.0061 5.49563C14.005 5.51527 14.0064 5.54327 14.0081 5.57707C14.0153 5.71998 14.0277 5.96664 13.8802 6.12367C13.7534 6.25862 13.4323 6.35438 13.211 6.3036C13.0526 6.26727 12.9009 6.20657 12.7612 6.12367C12.593 6.01833 12.4033 5.95198 12.2062 5.9295C12.009 5.90701 11.8093 5.92896 11.6217 5.99373C11.3933 6.06736 11.1874 6.19766 11.0231 6.37246C10.8588 6.54727 10.7414 6.76087 10.6821 6.99331C10.5818 7.38979 10.5882 7.80573 10.7005 8.19896C10.8129 8.59219 11.0272 8.94871 11.3218 9.23237L11.4317 9.37231C11.7777 9.80567 11.9772 10.3377 12.0015 10.8917C12.0148 11.288 11.9494 11.683 11.809 12.0539C11.7752 12.1434 11.7371 12.2311 11.695 12.3166C11.6883 12.2368 11.678 12.157 11.6642 12.0776C11.5974 11.6941 11.449 11.331 11.2307 11.0122L10.8621 11.3808ZM4.24024 5C4.10763 5 3.98046 5.05268 3.88669 5.14645C3.79292 5.24021 3.74024 5.36739 3.74024 5.5C3.74024 5.63261 3.79292 5.75979 3.88669 5.85355C3.98046 5.94732 4.10763 6 4.24024 6C4.37285 6 4.50003 5.94732 4.5938 5.85355C4.68756 5.75979 4.74024 5.63261 4.74024 5.5C4.74024 5.36739 4.68756 5.24021 4.5938 5.14645C4.50003 5.05268 4.37285 5 4.24024 5Z" fill="#424242"/>
</svg>
