<svg width="16" height="16" viewBox="0 0 16 16" fill="none" xmlns="http://www.w3.org/2000/svg">
<path fill-rule="evenodd" clip-rule="evenodd" d="M9.59478 6.25211L8.00024 1L6.4057 6.25211H1.00024L5.37335 9.65247L3.74985 15L8.00024 11.695L12.2506 15L10.6271 9.65247L15.0002 6.25211H9.59478ZM2.34828 6.72168H6.72068L8.00024 2.50706L8.00026 2.50708L6.7207 6.7217H2.3483L2.34828 6.72168ZM5.88563 9.4722L4.57873 13.7769L4.57876 13.7769L5.88565 9.47221L5.88563 9.4722ZM13.6522 6.7217L13.6522 6.72168H9.2798L9.27982 6.7217H13.6522ZM4.90138 7.6229H7.26871L8.00026 5.21332L8.73181 7.6229H11.0991L9.18393 9.1121L9.91548 11.5217L8.00026 10.0325L6.08505 11.5217L6.81659 9.1121L4.90138 7.6229Z" fill="#424242"/>
</svg>
