<svg width="16" height="16" viewBox="0 0 16 16" fill="none" xmlns="http://www.w3.org/2000/svg">
<g clip-path="url(#clip0)">
<path fill-rule="evenodd" clip-rule="evenodd" d="M5.46853 3.68741L4.71108 2.98108C5.65563 2.36081 6.7858 2 8.00024 2C11.2403 2 13.8805 4.56823 13.9963 7.78004L15.1902 6.60005L15.9402 7.36005L13.8502 9.43005L13.0902 9.42005L11.0002 7.31005L11.7602 6.55005L12.9963 7.80051C12.8916 5.13157 10.6949 3 8.00024 3C7.0764 3 6.21109 3.25055 5.46853 3.68741ZM10.0184 12.576L10.8023 13.3069C9.96589 13.7494 9.01233 14 8.00024 14C4.77597 14 2.14571 11.4568 2.00607 8.26691L0.780244 9.50003L0.000244141 8.73003L2.09024 6.66003L2.85024 6.67003L4.94024 8.79003L4.18024 9.55003L3.01372 8.36995C3.20304 10.9586 5.36325 13 8.00024 13C8.7184 13 9.40119 12.8486 10.0184 12.576Z" fill="#424242"/>
<rect x="1.1228" y="2.94897" width="1" height="16.2916" transform="rotate(-47 1.1228 2.94897)" fill="#424242"/>
</g>
<defs>
<clipPath id="clip0">
<rect width="16" height="16" fill="white" transform="translate(0.000244141)"/>
</clipPath>
</defs>
</svg>
