<svg width="16" height="16" viewBox="0 0 16 16" fill="none" xmlns="http://www.w3.org/2000/svg">
<path fill-rule="evenodd" clip-rule="evenodd" d="M2.00583 8.26691L0.78 9.50003L0 8.73003L2.09 6.66003L2.85 6.67003L4.94 8.79003L4.18 9.55003L3.01348 8.36995C3.2028 10.9586 5.363 13 8 13C9.91062 13 11.571 11.9283 12.4127 10.3533L13.226 10.9499C12.1959 12.7709 10.2415 14 8 14C4.77573 14 2.14547 11.4568 2.00583 8.26691ZM12.9961 7.80051L11.76 6.55005L11 7.31005L13.09 9.42005L13.85 9.43005L15.94 7.36005L15.19 6.60005L13.996 7.78004C13.8803 4.56823 11.2401 2 8 2C5.83727 2 3.94179 3.14427 2.88597 4.86043L3.69563 5.45436C4.56647 3.98506 6.1682 3 8 3C10.6946 3 12.8914 5.13157 12.9961 7.80051Z" fill="#424242"/>
</svg>
