<svg width="16" height="16" viewBox="0 0 16 16" fill="none" xmlns="http://www.w3.org/2000/svg">
<path d="M5.46019 14.11C5.1714 14.1086 4.88952 14.0216 4.65019 13.86C4.39151 13.6736 4.20533 13.4035 4.1233 13.0954C4.04126 12.7873 4.06843 12.4603 4.20019 12.17L5.17019 10H2.38019C2.1511 10.0043 1.92465 9.95059 1.72186 9.84395C1.51907 9.73731 1.3465 9.58116 1.22019 9.39C1.09316 9.1962 1.01816 8.97296 1.00239 8.74178C0.986632 8.5106 1.03064 8.27925 1.13019 8.07C1.80019 6.62 3.00019 4 3.40019 2.9C3.49796 2.63646 3.67388 2.40906 3.90441 2.24822C4.13494 2.08738 4.40909 2.00078 4.69019 2H13.6202C13.988 2.00526 14.339 2.15507 14.5972 2.41706C14.8555 2.67904 15.0002 3.03214 15.0002 3.4V6.91C15.0002 7.09122 14.9645 7.27067 14.8951 7.4381C14.8258 7.60553 14.7241 7.75766 14.596 7.88581C14.4678 8.01395 14.3157 8.1156 14.1483 8.18495C13.9809 8.25431 13.8014 8.29 13.6202 8.29H12.2402L6.40019 13.75C6.14182 13.9816 5.80714 14.1097 5.46019 14.11V14.11ZM4.69019 3C4.61204 3.0008 4.53594 3.02507 4.47175 3.06965C4.40755 3.11422 4.35824 3.17706 4.33019 3.25C3.93019 4.34 2.86019 6.7 2.00019 8.49C1.97126 8.54559 1.95616 8.60733 1.95616 8.67C1.95616 8.73267 1.97126 8.79441 2.00019 8.85C2.0418 8.90955 2.10003 8.95553 2.16761 8.9822C2.23518 9.00888 2.30912 9.01507 2.38019 9H5.68019L6.20019 9.68V10.14L5.11019 12.58C5.07395 12.6597 5.06713 12.7496 5.09093 12.8338C5.11473 12.918 5.16761 12.9911 5.24019 13.04C5.30798 13.0952 5.39275 13.1254 5.48019 13.1254C5.56763 13.1254 5.65239 13.0952 5.72019 13.04L11.7802 7.45L12.2502 7.32H13.6202C13.6727 7.32016 13.7247 7.30944 13.7729 7.28849C13.8211 7.26755 13.8644 7.23684 13.9001 7.19831C13.9358 7.15978 13.9631 7.11427 13.9803 7.06465C13.9976 7.01502 14.0043 6.96237 14.0002 6.91V3.4C14.0003 3.29729 13.9609 3.19847 13.8902 3.124C13.8194 3.04953 13.7228 3.00514 13.6202 3H4.69019Z" fill="#424242"/>
</svg>
