<svg width="16" height="16" viewBox="0 0 16 16" fill="none" xmlns="http://www.w3.org/2000/svg">
<path d="M5.45994 14.11C5.17116 14.1086 4.88928 14.0216 4.64994 13.86C4.39126 13.6736 4.20509 13.4035 4.12305 13.0954C4.04102 12.7873 4.06819 12.4603 4.19994 12.17L5.16994 10H2.37994C2.15086 10.0043 1.92441 9.95059 1.72162 9.84395C1.51882 9.73731 1.34626 9.58116 1.21994 9.39C1.09292 9.1962 1.01791 8.97296 1.00215 8.74178C0.986388 8.5106 1.0304 8.27925 1.12994 8.07C1.79994 6.62 2.99994 4 3.39994 2.9C3.49771 2.63646 3.67363 2.40906 3.90417 2.24822C4.1347 2.08738 4.40885 2.00078 4.68994 2H13.6199C13.9878 2.00526 14.3387 2.15507 14.597 2.41706C14.8552 2.67904 15 3.03214 14.9999 3.4V6.91C14.9999 7.09122 14.9642 7.27067 14.8949 7.4381C14.8255 7.60553 14.7239 7.75766 14.5957 7.88581C14.4676 8.01395 14.3155 8.1156 14.148 8.18495C13.9806 8.25431 13.8012 8.29 13.6199 8.29H12.2399L6.39994 13.75C6.14157 13.9816 5.8069 14.1097 5.45994 14.11ZM4.68994 3C4.6118 3.0008 4.53569 3.02507 4.4715 3.06965C4.40731 3.11422 4.35799 3.17706 4.32994 3.25C3.92994 4.34 2.85994 6.7 1.99994 8.49C1.97102 8.54559 1.95592 8.60733 1.95592 8.67C1.95592 8.73267 1.97102 8.79441 1.99994 8.85C2.04156 8.90955 2.09979 8.95553 2.16736 8.9822C2.23494 9.00888 2.30887 9.01507 2.37994 9H5.67994L6.19994 9.68V10.14L5.10994 12.58C5.07371 12.6597 5.06689 12.7496 5.09069 12.8338C5.11449 12.918 5.16737 12.9911 5.23994 13.04C5.30774 13.0952 5.3925 13.1254 5.47994 13.1254C5.56738 13.1254 5.65215 13.0952 5.71994 13.04L11.7799 7.45L12.2499 7.32H13.6199C13.6725 7.32016 13.7245 7.30943 13.7726 7.28849C13.8208 7.26755 13.8641 7.23684 13.8998 7.19831C13.9355 7.15978 13.9629 7.11427 13.9801 7.06465C13.9973 7.01502 14.0041 6.96237 13.9999 6.91V3.4C14.0001 3.29729 13.9607 3.19847 13.8899 3.124C13.8192 3.04953 13.7225 3.00514 13.6199 3H4.68994Z" fill="#424242"/>
</svg>
