<svg width="16" height="16" viewBox="0 0 16 16" fill="none" xmlns="http://www.w3.org/2000/svg">
<path d="M10.5403 1.99999C10.8291 2.00138 11.111 2.08838 11.3503 2.24999C11.609 2.43634 11.7952 2.70652 11.8772 3.0146C11.9592 3.32268 11.9321 3.64967 11.8003 3.93998L10.8303 6.10998L13.6203 6.10999C13.8494 6.10572 14.0758 6.15939 14.2786 6.26604C14.4814 6.37268 14.654 6.52883 14.7803 6.71999C14.9073 6.91379 14.9823 7.13702 14.9981 7.3682C15.0139 7.59939 14.9698 7.83074 14.8703 8.03999C14.2003 9.48999 13.0003 12.11 12.6003 13.21C12.5025 13.4735 12.3266 13.7009 12.0961 13.8618C11.8655 14.0226 11.5914 14.1092 11.3103 14.11L2.3803 14.11C2.01248 14.1047 1.6615 13.9549 1.40326 13.6929C1.14501 13.4309 1.00026 13.0778 1.0003 12.71L1.0003 9.19998C1.0003 9.01876 1.036 8.83931 1.10535 8.67188C1.1747 8.50445 1.27635 8.35232 1.40449 8.22418C1.53264 8.09603 1.68477 7.99438 1.8522 7.92503C2.01963 7.85568 2.19908 7.81998 2.3803 7.81998L3.7603 7.81998L9.6003 2.35998C9.85867 2.12842 10.1933 2.00025 10.5403 1.99999V1.99999ZM11.3103 13.11C11.3884 13.1092 11.4646 13.0849 11.5287 13.0403C11.5929 12.9958 11.6423 12.9329 11.6703 12.86C12.0703 11.77 13.1403 9.40999 14.0003 7.61999C14.0292 7.56439 14.0443 7.50265 14.0443 7.43999C14.0443 7.37732 14.0292 7.31558 14.0003 7.25999C13.9587 7.20044 13.9005 7.15446 13.8329 7.12778C13.7653 7.10111 13.6914 7.09492 13.6203 7.10999L10.3203 7.10998L9.8003 6.42999L9.8003 5.96998L10.8903 3.52999C10.9265 3.45032 10.9334 3.36039 10.9096 3.27617C10.8858 3.19196 10.8329 3.1189 10.7603 3.06999C10.6925 3.01476 10.6077 2.9846 10.5203 2.9846C10.4329 2.9846 10.3481 3.01476 10.2803 3.06998L4.2203 8.65998L3.7503 8.78998L2.3803 8.78998C2.32777 8.78982 2.27578 8.80055 2.2276 8.82149C2.17943 8.84244 2.13612 8.87314 2.10041 8.91167C2.0647 8.9502 2.03737 8.99571 2.02014 9.04534C2.00291 9.09496 1.99615 9.14762 2.0003 9.19998L2.0003 12.71C2.00017 12.8127 2.03956 12.9115 2.1103 12.986C2.18104 13.0604 2.27772 13.1048 2.3803 13.11L11.3103 13.11Z" fill="#424242"/>
</svg>
