<svg width="16" height="16" viewBox="0 0 16 16" fill="none" xmlns="http://www.w3.org/2000/svg">
<g clip-path="url(#clip0)">
<path fill-rule="evenodd" clip-rule="evenodd" d="M14.7727 3.48501L13.9939 3.30124L11.8852 5.39688L10.6908 4.18062L12.7471 2.02372L12.5677 1.23187C12.133 1.08662 11.6784 1.00986 11.2202 1.00436C10.7205 0.996443 10.2245 1.09177 9.76333 1.28437C9.31806 1.48601 8.91555 1.77113 8.57766 2.12433C8.20149 2.48057 7.90351 2.91115 7.70266 3.38872C7.316 4.33966 7.316 5.40403 7.70266 6.35498C5.91329 8.10498 2.96017 11.0931 1.52955 12.5894C1.31981 12.8644 1.21863 13.207 1.24521 13.5518C1.25451 13.7356 1.30061 13.9156 1.38081 14.0812C1.46046 14.2472 1.57195 14.3958 1.70894 14.5187C1.83303 14.6544 1.98142 14.7657 2.14644 14.8469C2.3165 14.9218 2.49891 14.9648 2.68455 14.9737C3.00019 14.9677 3.3031 14.8481 3.53771 14.6369C5.08646 13.18 8.05267 10.1875 9.73705 8.4331C10.1937 8.62691 10.6848 8.72663 11.1808 8.72625C11.6802 8.72589 12.1744 8.62543 12.6343 8.43081C13.0942 8.23618 13.5104 7.9513 13.8583 7.59308C14.573 6.86438 14.9722 5.88373 14.9696 4.86309C14.9808 4.39597 14.9143 3.93029 14.7727 3.48501ZM2.93396 13.9281C2.89527 13.9624 2.84863 13.9864 2.79831 13.9981C2.74909 14.0066 2.69879 14.0066 2.64957 13.9981C2.59776 13.9903 2.54835 13.9709 2.50516 13.9412C2.45912 13.9143 2.42018 13.8768 2.39146 13.8318C2.25146 13.6875 2.12018 13.4162 2.25143 13.2631C3.62081 11.8062 6.44267 8.95809 8.2058 7.21684C8.30683 7.3493 8.41644 7.47498 8.53392 7.59308C8.65239 7.71588 8.77959 7.82994 8.91455 7.93435C7.2083 9.68435 4.42583 12.4975 2.93396 13.9281ZM14.0508 4.86309C14.0533 5.62826 13.7548 6.36373 13.2196 6.91061C12.6847 7.4354 11.9652 7.72938 11.2158 7.72938C10.4664 7.72938 9.747 7.4354 9.21207 6.91061C8.82024 6.50142 8.5526 5.98941 8.4403 5.4341C8.328 4.8788 8.37562 4.30301 8.57766 3.77372C8.71218 3.41382 8.92072 3.08613 9.18975 2.81183C9.45878 2.53752 9.78235 2.32269 10.1396 2.18121C10.4789 2.03857 10.8434 1.96567 11.2114 1.96684H11.4652L9.64957 3.83935V4.53496L11.5439 6.42061H12.2046L14.0508 4.60498V4.86309ZM3.24017 6.68751H4.77142L5.47578 7.40501L6.15393 6.73125L5.48892 6.05315V6.00936L5.5458 4.36003L5.32705 3.92253L2.46578 2.04126L1.87517 2.1069L1.04391 2.95562L0.978271 3.55499L2.8158 6.47314L3.24017 6.68751ZM2.29515 3.05624L4.60954 4.57878L4.57018 5.70313H3.4939L2.00206 3.34062L2.29515 3.05624ZM9.40015 10.0169L10.0739 9.34314L13.1802 12.5282C13.4418 12.8031 13.5877 13.1681 13.5877 13.5476C13.5877 13.9271 13.4418 14.292 13.1802 14.5669C12.9834 14.7688 12.7305 14.9068 12.4543 14.963C12.1781 15.0192 11.8914 14.9909 11.6314 14.8819C11.4654 14.8083 11.3164 14.7011 11.1939 14.5669L8.05267 11.3644L8.73082 10.6863L11.8633 13.88C11.9054 13.9265 11.9579 13.9625 12.0164 13.9851C12.1315 14.0318 12.2602 14.0318 12.3752 13.9851C12.4337 13.9625 12.4861 13.9265 12.5283 13.88C12.5723 13.8366 12.6065 13.7845 12.6289 13.7269C12.6515 13.6682 12.6634 13.606 12.6639 13.5432C12.6629 13.4804 12.651 13.4182 12.6289 13.3594C12.6065 13.3018 12.5723 13.2497 12.5283 13.2063L9.40015 10.0169Z" fill="#424242"/>
</g>
<defs>
<clipPath id="clip0">
<rect width="16" height="16" fill="white" transform="translate(0.000244141)"/>
</clipPath>
</defs>
</svg>
