<svg width="16" height="16" viewBox="0 0 16 16" fill="none" xmlns="http://www.w3.org/2000/svg">
<path fill-rule="evenodd" clip-rule="evenodd" d="M9.99982 3H11.9998H12.9998V4H11.9998V13L10.9998 14H3.99982L2.99982 13V4H1.99982V3H4.99982V2C4.99982 1.73478 5.10513 1.48038 5.29266 1.29285C5.4802 1.10531 5.7346 1 5.99982 1H8.99982C9.26503 1 9.51943 1.10531 9.70697 1.29285C9.89451 1.48038 9.99982 1.73478 9.99982 2V3ZM8.99982 2H5.99982V3H8.99982V2ZM3.99982 13H10.9998V4H3.99982V13ZM5.99982 5H4.99982V12H5.99982V5ZM6.99982 5H7.99982V12H6.99982V5ZM8.99982 5H9.99982V12H8.99982V5Z" fill="#424242"/>
</svg>
