<svg width="16" height="16" viewBox="0 0 16 16" fill="none" xmlns="http://www.w3.org/2000/svg">
<path d="M15.0002 3.78418C14.8088 4.07129 14.5923 4.33902 14.3508 4.5874C14.1092 4.83577 13.8472 5.0625 13.5646 5.26757C13.5692 5.33138 13.5726 5.39404 13.5749 5.45556C13.5772 5.51709 13.5783 5.57975 13.5783 5.64355C13.5783 6.21777 13.5168 6.78515 13.3937 7.3457C13.2707 7.90624 13.093 8.44856 12.8605 8.97265C12.5233 9.73372 12.1018 10.4139 11.5959 11.0132C11.09 11.6125 10.517 12.1195 9.8767 12.5342C9.2364 12.9489 8.53799 13.2656 7.78149 13.4844C7.02498 13.7031 6.23201 13.8125 5.40258 13.8125C4.61872 13.8125 3.85424 13.7043 3.10912 13.4878C2.36401 13.2713 1.66104 12.9489 1.00024 12.5205C1.22355 12.5478 1.45141 12.5615 1.68383 12.5615C2.33553 12.5615 2.96557 12.4567 3.57397 12.2471C4.18236 12.0374 4.74177 11.7321 5.25219 11.331C4.94685 11.3265 4.6529 11.2752 4.37035 11.1772C4.0878 11.0793 3.82917 10.9425 3.59447 10.7671C3.35977 10.5916 3.15469 10.3831 2.97924 10.1416C2.80378 9.90006 2.6682 9.63346 2.5725 9.34179C2.66364 9.35546 2.75365 9.36686 2.84252 9.37597C2.93139 9.38509 3.02139 9.38964 3.11254 9.38964C3.36775 9.38964 3.61839 9.35547 3.86449 9.28711C3.52725 9.21875 3.2185 9.09798 2.93822 8.9248C2.65795 8.75162 2.41527 8.54085 2.2102 8.29248C2.00512 8.04411 1.84561 7.76383 1.73168 7.45166C1.61775 7.13948 1.56078 6.8125 1.56078 6.4707V6.43652C1.96182 6.66439 2.39704 6.78515 2.86644 6.79883C2.66592 6.66211 2.48705 6.50602 2.32983 6.33056C2.1726 6.15511 2.0393 5.96484 1.92992 5.75976C1.82055 5.55469 1.73624 5.33822 1.67699 5.11035C1.61775 4.88249 1.58813 4.64779 1.58813 4.40625C1.58813 4.15104 1.62003 3.90153 1.68383 3.65772C1.74763 3.4139 1.84561 3.18262 1.97777 2.96387C2.34236 3.41504 2.74796 3.8195 3.19457 4.17725C3.64118 4.53499 4.11628 4.84147 4.61986 5.09668C5.12344 5.35189 5.65095 5.55355 6.20238 5.70166C6.75381 5.84977 7.31892 5.9375 7.89769 5.96484C7.87035 5.86003 7.85098 5.75179 7.83958 5.64014C7.82819 5.52848 7.82249 5.41797 7.82249 5.30859C7.82249 4.91211 7.89769 4.53955 8.04808 4.19092C8.19847 3.84228 8.40355 3.53809 8.66331 3.27832C8.92308 3.01855 9.22728 2.81348 9.57591 2.66309C9.92455 2.5127 10.2971 2.4375 10.6935 2.4375C11.0946 2.4375 11.4763 2.51611 11.8386 2.67334C12.2009 2.83057 12.5187 3.05501 12.7922 3.34668C13.1157 3.28288 13.4291 3.19287 13.7321 3.07666C14.0352 2.96045 14.328 2.81803 14.6105 2.64941C14.5057 2.9821 14.3451 3.28516 14.1286 3.55859C13.9121 3.83203 13.6535 4.05762 13.3527 4.23535C13.9269 4.16699 14.4761 4.0166 15.0002 3.78418Z" fill="#424242"/>
</svg>
