<svg width="16" height="16" viewBox="0 0 16 16" fill="none" xmlns="http://www.w3.org/2000/svg">
<path fill-rule="evenodd" clip-rule="evenodd" d="M7.53024 6.51V2.51L6.53024 3.51L5.82024 2.8L7.65024 1H8.36024L10.2002 2.83L9.49024 3.53L8.49024 2.53V6.51H7.53024ZM7.53024 9.48999V13.49L6.53024 12.49L5.82024 13.2L7.65024 15H8.36024L10.2002 13.17L9.49024 12.47L8.49024 13.47V9.48999H7.53024ZM13.7302 4L14.0002 5.02L10.3202 7.95L14.0002 10.98L13.7302 12H9.53024V11H12.5302L9.55024 8.57H6.54024L3.45024 11H6.53024V12H2.27024L2.00024 10.98L5.68024 8.06L2.00024 5.02L2.27024 4H6.53024V5H3.45024L6.45024 7.42H9.46024L12.5302 5H9.53024V4H13.7302Z" fill="#424242"/>
</svg>
