<svg width="16" height="16" viewBox="0 0 16 16" fill="none" xmlns="http://www.w3.org/2000/svg">
<g clip-path="url(#clip0)">
<path fill-rule="evenodd" clip-rule="evenodd" d="M2.86019 1L4.93019 3.08L4.23019 3.78L3.00019 2.56V7H2.00019V2.55L0.79019 3.78L0.0801904 3.07L2.15019 1H2.86019ZM15.0002 3V7H11.0002V6H9.00019V7H6.00019V4H9.00019V5H11.0002V3H15.0002ZM8.00019 5H7.00019V6H8.00019V5ZM14.0002 4H12.0002V6H14.0002V4ZM11.0002 9H15.0002V13H11.0002V11H9.00019V12H6.00019V9H9.00019V10H11.0002V9ZM8.00019 10H7.00019V11H8.00019V10ZM12.0002 12H14.0002V10H12.0002V12ZM3.00019 13.45V9H2.00019V13.44L0.78019 12.22L0.0701904 12.92L2.15019 15H2.85019L4.92019 12.93L4.22019 12.22L3.00019 13.45Z" fill="#424242"/>
</g>
<defs>
<clipPath id="clip0">
<rect width="16" height="16" fill="white" transform="translate(0.000244141)"/>
</clipPath>
</defs>
</svg>
