<svg width="16" height="16" viewBox="0 0 16 16" fill="none" xmlns="http://www.w3.org/2000/svg">
<path fill-rule="evenodd" clip-rule="evenodd" d="M1.50024 4.83H4.29024L8.15024 1L9.00024 1.35V14.35L8.15024 14.68L4.29024 10.83H1.50024L1.00024 10.33V5.33L1.50024 4.83ZM4.85024 10L8.00024 13.14V2.56L4.85024 5.68L4.50024 5.83H2.00024V9.83H4.50024L4.85024 10ZM15.0005 7.83C15.0005 9.51007 14.4086 11.0519 13.422 12.2583L12.7107 11.5471C13.5184 10.525 14.0005 9.2338 14.0005 7.83C14.0005 6.42969 13.5208 5.14143 12.7167 4.12057L13.4281 3.40918C14.4111 4.61451 15.0005 6.15342 15.0005 7.83ZM13.0005 7.83C13.0005 8.95745 12.6273 9.99774 11.9978 10.8341L11.2818 10.1182C11.7348 9.46979 12.0005 8.68092 12.0005 7.83C12.0005 6.98259 11.737 6.19673 11.2874 5.54989L12.0036 4.83369C12.6296 5.66872 13.0005 6.70605 13.0005 7.83ZM11.0005 7.83C11.0005 8.40394 10.8393 8.94024 10.5598 9.3961L9.82159 8.65795C9.93648 8.40565 10.0005 8.1253 10.0005 7.83C10.0005 7.53836 9.93806 7.26131 9.82585 7.01146L10.5649 6.27238C10.8413 6.72641 11.0005 7.25961 11.0005 7.83Z" fill="#424242"/>
</svg>
