<svg width="16" height="16" viewBox="0 0 16 16" fill="none" xmlns="http://www.w3.org/2000/svg">
<path fill-rule="evenodd" clip-rule="evenodd" d="M7.6703 14.72H8.3803L10.1003 13H12.5003L13.0003 12.5V10.08L14.7403 8.36004V7.65004L13.0303 5.93004V3.49004L12.5303 3.00004H10.1003L8.3803 1.29004H7.6703L6.0003 3.00004H3.5303L3.0003 3.50004V5.93004L1.3103 7.65004V8.36004L3.0003 10.08V12.5L3.5303 13H6.0003L7.6703 14.72ZM6.1603 12H4.0003V9.87004L3.8803 9.52004L2.3703 8.00004L3.8503 6.49004L4.0003 6.14004V4.00004H6.1603L6.5203 3.86004L8.0003 2.35004L9.5403 3.86004L9.8903 4.00004H12.0003V6.14004L12.1703 6.49004L13.6903 8.00004L12.1403 9.52004L12.0003 9.87004V12H9.8903L9.5103 12.15L8.0003 13.66L6.5203 12.14L6.1603 12ZM7.60319 6.14101C7.54652 6.22606 7.50367 6.32292 7.47496 6.43203C7.44556 6.54079 7.42499 6.64661 7.4133 6.74891L7.40839 6.79186H6.51363L6.5165 6.74069C6.53478 6.41473 6.60495 6.12645 6.72817 5.87687C6.7805 5.76916 6.84498 5.66329 6.92148 5.55926C7.00255 5.45324 7.10112 5.35923 7.21579 5.27864C7.33414 5.19457 7.47049 5.12809 7.62435 5.07882C7.78306 5.02596 7.96364 5 8.16541 5C8.44612 5 8.68862 5.04573 8.89129 5.13921C9.09194 5.22877 9.25692 5.34985 9.38499 5.50292C9.51221 5.65495 9.6052 5.82866 9.66397 6.02356C9.72232 6.21701 9.75146 6.41655 9.75146 6.62201C9.75146 6.81343 9.71902 6.99327 9.65375 7.1611C9.58964 7.32596 9.51023 7.48175 9.41551 7.62841C9.32145 7.77101 9.21805 7.90792 9.10582 8.03835C8.99539 8.16668 8.89402 8.29042 8.80167 8.40959C8.71019 8.52467 8.63346 8.6383 8.57199 8.74952C8.51244 8.85728 8.48363 8.96318 8.48363 9.06777V9.54783H7.59543V9.00932C7.59543 8.84135 7.62657 8.6862 7.68953 8.54455C7.75396 8.4034 7.83392 8.26953 7.92894 8.14386C8.02578 8.01676 8.12878 7.89406 8.2377 7.77606C8.34457 7.66029 8.44395 7.54161 8.53588 7.42003C8.6295 7.30008 8.70579 7.17399 8.76404 7.04293C8.82379 6.9149 8.85427 6.77427 8.85427 6.62201C8.85427 6.50659 8.83841 6.40079 8.80717 6.30424L8.80677 6.303C8.77856 6.20707 8.73462 6.12583 8.67679 6.05974C8.61896 5.99089 8.54741 5.93848 8.46138 5.90241L8.45961 5.90167C8.37731 5.86326 8.27967 5.84324 8.16541 5.84324C8.0284 5.84324 7.91629 5.87172 7.82665 5.92596C7.7366 5.9823 7.66223 6.0539 7.60319 6.14101ZM8.5003 11H7.61211V10.1118H8.5003V11Z" fill="#424242"/>
</svg>
