<svg width="16" height="16" viewBox="0 0 16 16" fill="none" xmlns="http://www.w3.org/2000/svg">
<g clip-path="url(#clip0)">
<path fill-rule="evenodd" clip-rule="evenodd" d="M1.50024 2H14.5002L15.0002 2.5V8.00305C14.6894 7.76964 14.3537 7.57413 14.0002 7.41955V3H2.00024V12H7.00024C7.00024 12.326 7.03211 12.6527 7.09632 12.9755C7.2429 13.7124 7.55301 14.4037 8.00024 15H4.00024V14H7.00024V13H1.50024L1.00024 12.5V2.5L1.50024 2Z" fill="#424242"/>
<path fill-rule="evenodd" clip-rule="evenodd" d="M9.77796 8.67412C10.4358 8.2346 11.2091 8 12.0002 8C13.0607 8.0013 14.0774 8.42315 14.8272 9.17301C15.5771 9.92287 15.9989 10.9395 16.0002 12C16.0002 12.7911 15.7656 13.5645 15.3261 14.2223C14.8866 14.8801 14.2619 15.3928 13.531 15.6955C12.8001 15.9983 11.9958 16.0775 11.2199 15.9231C10.444 15.7688 9.73123 15.3878 9.17182 14.8284C8.61241 14.269 8.23145 13.5563 8.0771 12.7804C7.92276 12.0044 8.00198 11.2002 8.30473 10.4693C8.60748 9.73836 9.12017 9.11365 9.77796 8.67412ZM11.9089 13.6637L14.2953 10.4818L13.4953 9.88184L11.4184 12.651L10.1167 11.6096L9.49203 12.3905L11.1966 13.7541L11.9089 13.6637Z" fill="#388A34"/>
</g>
<defs>
<clipPath id="clip0">
<rect width="16" height="16" fill="white" transform="translate(0.000244141)"/>
</clipPath>
</defs>
</svg>
