<svg width="16" height="16" viewBox="0 0 16 16" fill="none" xmlns="http://www.w3.org/2000/svg">
<path fill-rule="evenodd" clip-rule="evenodd" d="M1.50024 2H14.5002L15.0002 2.5V8.00305C14.6894 7.76964 14.3537 7.57413 14.0002 7.41955V3H2.00024V12H7.00024C7.00024 12.326 7.03211 12.6527 7.09632 12.9755C7.2429 13.7124 7.55301 14.4037 8.00024 15H4.00024V14H7.00024V13H1.50024L1.00024 12.5V2.5L1.50024 2Z" fill="#424242"/>
<path d="M12.0002 8C11.2091 8 10.4357 8.23455 9.77793 8.67407C9.12014 9.1136 8.60742 9.73833 8.30467 10.4692C8.00192 11.2001 7.92279 12.0045 8.07713 12.7804C8.23147 13.5563 8.61244 14.269 9.17185 14.8284C9.73126 15.3878 10.4439 15.7688 11.2198 15.9231C11.9958 16.0774 12.8001 15.9983 13.531 15.6956C14.2619 15.3928 14.8866 14.8801 15.3261 14.2223C15.7657 13.5645 16.0002 12.7911 16.0002 12C16.0002 10.9391 15.5787 9.92178 14.8286 9.17163C14.0784 8.42149 13.0611 8 12.0002 8ZM12.0002 15C11.4069 15 10.8268 14.824 10.3335 14.4944C9.84013 14.1647 9.45568 13.6962 9.22862 13.1481C9.00155 12.5999 8.94208 11.9966 9.05784 11.4147C9.1736 10.8327 9.45933 10.2982 9.87888 9.87866C10.2984 9.4591 10.833 9.17337 11.4149 9.05762C11.9968 8.94186 12.6001 9.00133 13.1483 9.22839C13.6965 9.45546 14.165 9.8399 14.4946 10.3333C14.8243 10.8266 15.0002 11.4067 15.0002 12C15.0002 12.7956 14.6842 13.5587 14.1216 14.1213C13.559 14.6839 12.7959 15 12.0002 15V15Z" fill="#424242"/>
<path fill-rule="evenodd" clip-rule="evenodd" d="M12.1334 11.4353L13.5687 12.8706L14.0002 12.4396L12.9959 11.4353L14.0002 10.4313L13.5687 10.0002L12.1334 11.4353ZM11.0046 12.5022L10.0002 11.4979L10.4318 11.0669L11.8668 12.5022L10.4318 13.9378L10.0002 13.5065L11.0046 12.5022Z" fill="#424242"/>
</svg>
