<svg width="16" height="16" viewBox="0 0 16 16" fill="none" xmlns="http://www.w3.org/2000/svg">
<path fill-rule="evenodd" clip-rule="evenodd" d="M1.50024 2H14.5002L15.0002 2.5V8.00305C14.6894 7.76964 14.3537 7.57413 14.0002 7.41955V3H2.00024V12H7.00024C7.00024 12.326 7.03211 12.6527 7.09632 12.9755C7.2429 13.7124 7.55301 14.4037 8.00024 15H4.00024V14H7.00024V13H1.50024L1.00024 12.5V2.5L1.50024 2Z" fill="#424242"/>
<path d="M12.0002 8C12.3674 8 12.7216 8.04688 13.0627 8.14062C13.4039 8.23438 13.7216 8.36979 14.0159 8.54688C14.3101 8.72396 14.5797 8.93229 14.8245 9.17188C15.0693 9.41146 15.2789 9.68099 15.4534 9.98047C15.6278 10.2799 15.762 10.599 15.8557 10.9375C15.9495 11.276 15.9976 11.6302 16.0002 12C16.0002 12.3672 15.9534 12.7214 15.8596 13.0625C15.7659 13.4036 15.6305 13.7214 15.4534 14.0156C15.2763 14.3099 15.068 14.5794 14.8284 14.8242C14.5888 15.069 14.3193 15.2786 14.0198 15.4531C13.7203 15.6276 13.4013 15.7617 13.0627 15.8555C12.7242 15.9492 12.37 15.9974 12.0002 16C11.6331 16 11.2789 15.9531 10.9377 15.8594C10.5966 15.7656 10.2789 15.6302 9.98462 15.4531C9.69035 15.276 9.42082 15.0677 9.17603 14.8281C8.93123 14.5885 8.7216 14.319 8.54712 14.0195C8.37264 13.7201 8.23853 13.401 8.14478 13.0625C8.05103 12.724 8.00285 12.3698 8.00024 12C8.00024 11.6328 8.04712 11.2786 8.14087 10.9375C8.23462 10.5964 8.37004 10.2786 8.54712 9.98438C8.7242 9.6901 8.93254 9.42057 9.17212 9.17578C9.4117 8.93099 9.68123 8.72135 9.98071 8.54688C10.2802 8.3724 10.5992 8.23828 10.9377 8.14453C11.2763 8.05078 11.6305 8.0026 12.0002 8ZM12.0002 14.0859C12.2008 14.0859 12.3948 14.0586 12.5823 14.0039C12.7698 13.9492 12.9469 13.8685 13.1135 13.7617C13.2802 13.6549 13.4286 13.5299 13.5588 13.3867C13.689 13.2435 13.7984 13.0794 13.887 12.8945L13.2776 12.6055C13.2177 12.7279 13.1435 12.8385 13.0549 12.9375C12.9664 13.0365 12.8661 13.1211 12.7542 13.1914C12.6422 13.2617 12.5224 13.3164 12.3948 13.3555C12.2672 13.3945 12.1357 13.4141 12.0002 13.4141C11.8127 13.4141 11.6344 13.3776 11.4651 13.3047C11.2958 13.2318 11.1435 13.1302 11.0081 13H11.5002V12.5H10.0002V14H10.5002V13.4453C10.6956 13.6484 10.9234 13.806 11.1838 13.918C11.4443 14.0299 11.7164 14.0859 12.0002 14.0859ZM14.0002 11.5V10H13.5002V10.5547C13.3049 10.3516 13.0771 10.194 12.8167 10.082C12.5562 9.97005 12.2841 9.91406 12.0002 9.91406C11.7997 9.91406 11.6057 9.94141 11.4182 9.99609C11.2307 10.0508 11.0536 10.1315 10.887 10.2383C10.7203 10.3451 10.5719 10.4701 10.4417 10.6133C10.3114 10.7565 10.2021 10.9206 10.1135 11.1055L10.7229 11.3945C10.7802 11.2721 10.8531 11.1615 10.9417 11.0625C11.0302 10.9635 11.1318 10.8789 11.2463 10.8086C11.3609 10.7383 11.4807 10.6836 11.6057 10.6445C11.7307 10.6055 11.8622 10.5859 12.0002 10.5859C12.1877 10.5859 12.3661 10.6224 12.5354 10.6953C12.7047 10.7682 12.857 10.8698 12.9924 11H12.5002V11.5H14.0002Z" fill="#424242"/>
</svg>
