<svg width="16" height="16" viewBox="0 0 16 16" fill="none" xmlns="http://www.w3.org/2000/svg">
<path fill-rule="evenodd" clip-rule="evenodd" d="M1.5 2.00012H14.5L15 2.50012V8.00317C14.6892 7.76976 14.3534 7.57426 14 7.41967V3.00012H2V12.0001H7C7 12.3261 7.03187 12.6528 7.09608 12.9756C7.24266 13.7125 7.55277 14.4038 8 15.0001H4V14.0001H7V13.0001H1.5L1 12.5001V2.50012L1.5 2.00012Z" fill="#424242"/>
<path d="M12 8.00012C12.3672 8.00012 12.7214 8.047 13.0625 8.14075C13.4036 8.2345 13.7214 8.36991 14.0156 8.547C14.3099 8.72408 14.5794 8.93241 14.8242 9.172C15.069 9.41158 15.2786 9.68111 15.4531 9.98059C15.6276 10.2801 15.7617 10.5991 15.8555 10.9376C15.9492 11.2762 15.9974 11.6303 16 12.0001C16 12.3673 15.9531 12.7215 15.8594 13.0626C15.7656 13.4038 15.6302 13.7215 15.4531 14.0157C15.276 14.31 15.0677 14.5795 14.8281 14.8243C14.5885 15.0691 14.319 15.2788 14.0195 15.4532C13.7201 15.6277 13.401 15.7618 13.0625 15.8556C12.724 15.9493 12.3698 15.9975 12 16.0001C11.6328 16.0001 11.2786 15.9532 10.9375 15.8595C10.5964 15.7657 10.2786 15.6303 9.98438 15.4532C9.6901 15.2762 9.42057 15.0678 9.17578 14.8282C8.93099 14.5887 8.72135 14.3191 8.54688 14.0197C8.3724 13.7202 8.23828 13.4012 8.14453 13.0626C8.05078 12.7241 8.0026 12.3699 8 12.0001C8 11.6329 8.04688 11.2788 8.14062 10.9376C8.23438 10.5965 8.36979 10.2788 8.54688 9.9845C8.72396 9.69023 8.93229 9.42069 9.17188 9.1759C9.41146 8.93111 9.68099 8.72148 9.98047 8.547C10.2799 8.37252 10.599 8.2384 10.9375 8.14465C11.276 8.0509 11.6302 8.00273 12 8.00012ZM12 14.0861C12.2005 14.0861 12.3945 14.0587 12.582 14.004C12.7695 13.9493 12.9466 13.8686 13.1133 13.7618C13.2799 13.6551 13.4284 13.5301 13.5586 13.3868C13.6888 13.2436 13.7982 13.0795 13.8867 12.8947L13.2773 12.6056C13.2174 12.728 13.1432 12.8387 13.0547 12.9376C12.9661 13.0366 12.8659 13.1212 12.7539 13.1915C12.6419 13.2618 12.5221 13.3165 12.3945 13.3556C12.2669 13.3947 12.1354 13.4142 12 13.4142C11.8125 13.4142 11.6341 13.3777 11.4648 13.3048C11.2956 13.2319 11.1432 13.1303 11.0078 13.0001H11.5V12.5001H10V14.0001H10.5V13.4454C10.6953 13.6486 10.9232 13.8061 11.1836 13.9181C11.444 14.0301 11.7161 14.0861 12 14.0861ZM14 11.5001V10.0001H13.5V10.5548C13.3047 10.3517 13.0768 10.1941 12.8164 10.0822C12.556 9.97017 12.2839 9.91418 12 9.91418C11.7995 9.91418 11.6055 9.94153 11.418 9.99622C11.2305 10.0509 11.0534 10.1316 10.8867 10.2384C10.7201 10.3452 10.5716 10.4702 10.4414 10.6134C10.3112 10.7566 10.2018 10.9207 10.1133 11.1056L10.7227 11.3947C10.7799 11.2723 10.8529 11.1616 10.9414 11.0626C11.0299 10.9637 11.1315 10.879 11.2461 10.8087C11.3607 10.7384 11.4805 10.6837 11.6055 10.6447C11.7305 10.6056 11.862 10.5861 12 10.5861C12.1875 10.5861 12.3659 10.6225 12.5352 10.6954C12.7044 10.7684 12.8568 10.8699 12.9922 11.0001H12.5V11.5001H14Z" fill="#424242"/>
</svg>
