<svg width="16" height="16" viewBox="0 0 16 16" fill="none" xmlns="http://www.w3.org/2000/svg">
<path fill-rule="evenodd" clip-rule="evenodd" d="M1.50024 2H14.5002L15.0002 2.5V8.00305C14.6894 7.76964 14.3537 7.57413 14.0002 7.41955V3H2.00024V12H7.00024C7.00024 12.326 7.03211 12.6527 7.09632 12.9755C7.2429 13.7124 7.55301 14.4037 8.00024 15H4.00024V14H7.00024V13H1.50024L1.00024 12.5V2.5L1.50024 2Z" fill="#424242"/>
<path d="M12.0002 8C12.3674 8 12.7216 8.04688 13.0627 8.14062C13.4039 8.23438 13.7216 8.36979 14.0159 8.54688C14.3101 8.72396 14.5797 8.93229 14.8245 9.17188C15.0693 9.41146 15.2789 9.68099 15.4534 9.98047C15.6278 10.2799 15.762 10.599 15.8557 10.9375C15.9495 11.276 15.9976 11.6302 16.0002 12C16.0002 12.3672 15.9534 12.7214 15.8596 13.0625C15.7659 13.4036 15.6305 13.7214 15.4534 14.0156C15.2763 14.3099 15.068 14.5794 14.8284 14.8242C14.5888 15.069 14.3193 15.2786 14.0198 15.4531C13.7203 15.6276 13.4013 15.7617 13.0627 15.8555C12.7242 15.9492 12.37 15.9974 12.0002 16C11.6331 16 11.2789 15.9531 10.9377 15.8594C10.5966 15.7656 10.2789 15.6302 9.98462 15.4531C9.69035 15.276 9.42082 15.0677 9.17603 14.8281C8.93123 14.5885 8.7216 14.319 8.54712 14.0195C8.37264 13.7201 8.23853 13.401 8.14478 13.0625C8.05103 12.724 8.00285 12.3698 8.00024 12C8.00024 11.6328 8.04712 11.2786 8.14087 10.9375C8.23462 10.5964 8.37004 10.2786 8.54712 9.98438C8.7242 9.6901 8.93254 9.42057 9.17212 9.17578C9.4117 8.93099 9.68123 8.72135 9.98071 8.54688C10.2802 8.3724 10.5992 8.23828 10.9377 8.14453C11.2763 8.05078 11.6305 8.0026 12.0002 8ZM14.0002 11.9883L11.0002 10V14L14.0002 11.9883Z" fill="#424242"/>
</svg>
