<svg width="16" height="16" viewBox="0 0 16 16" fill="none" xmlns="http://www.w3.org/2000/svg">
<path d="M7.50024 9H9.50024V8H8.00024V5.5H7.00024V8.5L7.50024 9Z" fill="#424242"/>
<path fill-rule="evenodd" clip-rule="evenodd" d="M5.50024 3.66895C4.00574 4.53345 3.00024 6.14929 3.00024 8C3.00024 9.85071 4.00574 11.4666 5.50024 12.3311V14.5L6.00024 15H10.0002L10.5002 14.5V12.3311C11.9948 11.4666 13.0002 9.85071 13.0002 8C13.0002 6.14929 11.9948 4.53345 10.5002 3.66895V1.5L10.0002 1H6.00024L5.50024 1.5V3.66895ZM12.0002 8C12.0002 10.2091 10.2094 12 8.00024 12C5.79108 12 4.00024 10.2091 4.00024 8C4.00024 5.79089 5.79108 4 8.00024 4C10.2094 4 12.0002 5.79089 12.0002 8Z" fill="#424242"/>
</svg>
