<svg width="16" height="16" viewBox="0 0 16 16" fill="none" xmlns="http://www.w3.org/2000/svg">
<path d="M12.0002 2V1H6.50024C5.57199 1 4.68177 1.36877 4.02539 2.02515C3.36901 2.68152 3.00024 3.57174 3.00024 4.5C3.00024 5.42826 3.36901 6.31848 4.02539 6.97485C4.68177 7.63123 5.57199 8 6.50024 8H8.00024V13H7.00024V14H12.0002V13H11.0002V2H12.0002ZM8.00024 7H6.50024C5.8372 7 5.20126 6.73666 4.73242 6.26782C4.26358 5.79898 4.00024 5.16304 4.00024 4.5C4.00024 3.83696 4.26358 3.20102 4.73242 2.73218C5.20126 2.26334 5.8372 2 6.50024 2H8.00024V7ZM10.0002 13H9.00024V2H10.0002V13Z" fill="#424242"/>
</svg>
