<svg width="16" height="16" viewBox="0 0 16 16" fill="none" xmlns="http://www.w3.org/2000/svg">
<path fill-rule="evenodd" clip-rule="evenodd" d="M3.86832 3.449C3.73945 3.30285 3.57718 3.18998 3.39532 3.12C3.12132 3.009 2.77232 2.97 2.34032 3.044C2.09663 3.08799 1.8583 3.15771 1.62932 3.252C1.54778 3.28668 1.46948 3.32851 1.39532 3.377L1.35232 3.407V4.463L1.52032 4.324C1.66932 4.2 1.84632 4.099 2.04732 4.021C2.24332 3.947 2.44632 3.908 2.65132 3.908C2.83932 3.908 2.98132 3.959 3.08232 4.065C3.16932 4.16 3.21932 4.313 3.22932 4.521L2.26732 4.665C2.04832 4.695 1.85732 4.751 1.69732 4.831C1.5448 4.90638 1.40934 5.01223 1.29932 5.142C1.19564 5.2675 1.11781 5.41228 1.07032 5.568C0.972865 5.89751 0.976697 6.2487 1.08132 6.576C1.13238 6.72744 1.21595 6.86588 1.32616 6.98162C1.43637 7.09736 1.57056 7.18759 1.71932 7.246C1.87432 7.309 2.04732 7.339 2.24732 7.339C2.43285 7.3427 2.61687 7.30504 2.78604 7.22876C2.9552 7.15248 3.10526 7.03949 3.22532 6.898V7.243H4.23232V4.65C4.23232 4.395 4.20232 4.166 4.14332 3.969C4.08887 3.7784 3.9952 3.60129 3.86832 3.449ZM3.23232 5.345V5.581C3.23232 5.7 3.21432 5.812 3.17732 5.922C3.14788 6.01808 3.0993 6.10722 3.03451 6.18403C2.96972 6.26085 2.89006 6.32377 2.80032 6.369C2.63936 6.44302 2.45618 6.45268 2.28832 6.396C2.23051 6.37553 2.17744 6.34355 2.13232 6.302C2.09125 6.26306 2.05917 6.21562 2.03832 6.163C2.01427 6.10398 2.00237 6.04072 2.00332 5.977C2.00332 5.9 2.01232 5.83 2.02732 5.765C2.04127 5.71228 2.06807 5.66383 2.10532 5.624C2.1501 5.57601 2.20513 5.53875 2.26632 5.515C2.36467 5.47845 2.46708 5.45394 2.57132 5.442L3.23232 5.345ZM8.28332 4.278C8.23666 4.04796 8.15433 3.82662 8.03932 3.622C7.9323 3.4367 7.78288 3.2794 7.60332 3.163C7.41067 3.04419 7.18758 2.98408 6.96132 2.99C6.71314 2.98696 6.47078 3.06528 6.27132 3.213C6.17105 3.28858 6.08214 3.37816 6.00732 3.479V1H5.08932V7.224H6.00732V6.943C6.13008 7.09519 6.29387 7.20902 6.47932 7.271C6.57732 7.303 6.68732 7.318 6.80932 7.318C7.06432 7.318 7.29232 7.258 7.48632 7.141C7.67832 7.026 7.84132 6.863 7.97232 6.655C8.1101 6.43406 8.20918 6.19125 8.26532 5.937C8.33133 5.64635 8.36355 5.34904 8.36132 5.051C8.36208 4.79133 8.33594 4.53228 8.28332 4.278ZM7.42232 5.036C7.42232 5.268 7.40232 5.475 7.36332 5.649C7.32732 5.821 7.27332 5.964 7.20432 6.073C7.14892 6.17117 7.06853 6.25293 6.97132 6.31C6.88609 6.36014 6.78949 6.38774 6.69063 6.39019C6.59178 6.39264 6.49393 6.36986 6.40632 6.324C6.32413 6.27819 6.2523 6.21588 6.19532 6.141C6.13243 6.05546 6.08473 5.95973 6.05432 5.858C6.01812 5.74213 5.99991 5.62139 6.00032 5.5V4.983C6.00032 4.819 6.02032 4.669 6.05932 4.536C6.09632 4.404 6.14732 4.294 6.21632 4.2C6.27504 4.11382 6.35313 4.04259 6.44432 3.992C6.53291 3.94377 6.63247 3.91931 6.73332 3.921C6.83367 3.91811 6.93291 3.94254 7.02045 3.99168C7.10799 4.04083 7.18053 4.11283 7.23032 4.2C7.29332 4.299 7.33832 4.414 7.37332 4.554C7.40432 4.697 7.42232 4.86 7.42232 5.036ZM2.40832 9.9C2.49489 9.79816 2.60276 9.71657 2.72432 9.661C2.94232 9.561 3.27132 9.556 3.49032 9.643C3.59432 9.685 3.69432 9.743 3.81032 9.827L4.13932 10.087V8.945L4.04332 8.883C3.76367 8.7387 3.453 8.66489 3.13832 8.668C2.83032 8.668 2.54532 8.725 2.29232 8.836C2.04232 8.946 1.82532 9.106 1.64532 9.311C1.46442 9.52067 1.32739 9.76447 1.24232 10.028C1.15232 10.3 1.10532 10.598 1.10532 10.923C1.10532 11.212 1.14832 11.484 1.23432 11.731C1.32132 11.98 1.44632 12.202 1.60832 12.383C1.76932 12.568 1.96932 12.716 2.20532 12.824C2.43732 12.928 2.69832 12.979 2.98332 12.979C3.21632 12.979 3.41732 12.951 3.59632 12.895C3.761 12.8447 3.91784 12.7717 4.06232 12.678L4.14032 12.617V11.728L3.94032 11.823C3.91592 11.8342 3.89046 11.8429 3.86432 11.849C3.81432 11.866 3.76532 11.884 3.73632 11.898C3.70032 11.921 3.50932 11.988 3.50932 11.988C3.44932 12.012 3.36932 12.031 3.29132 12.047C3.09063 12.0915 2.88102 12.0715 2.69232 11.99C2.57425 11.9398 2.46948 11.8627 2.38632 11.765C2.29375 11.6545 2.22407 11.5267 2.18132 11.389C2.12871 11.2177 2.10307 11.0392 2.10532 10.86C2.10532 10.65 2.13332 10.461 2.18832 10.3C2.24232 10.142 2.31732 10.006 2.40832 9.9ZM13.9999 6H9.99994V5H14.4999L14.9999 5.5V11.5L14.4999 12H7.87863L9.94969 14.0711L9.24259 14.7782L6.3535 11.8891V11.182L9.24259 8.2929L9.94969 9L7.94969 11H13.9999V6Z" fill="#424242"/>
</svg>
