<svg width="16" height="16" viewBox="0 0 16 16" fill="none" xmlns="http://www.w3.org/2000/svg">
<path fill-rule="evenodd" clip-rule="evenodd" d="M3.86863 3.449C3.73975 3.30285 3.57748 3.18998 3.39563 3.12C3.12163 3.009 2.77263 2.97 2.34063 3.044C2.09694 3.08799 1.8586 3.15771 1.62963 3.252C1.54809 3.28668 1.46978 3.32851 1.39563 3.377L1.35263 3.407V4.463L1.52063 4.324C1.66963 4.2 1.84663 4.099 2.04763 4.021C2.24363 3.947 2.44663 3.908 2.65163 3.908C2.83963 3.908 2.98163 3.959 3.08263 4.065C3.16963 4.16 3.21963 4.313 3.22963 4.521L2.26763 4.665C2.04863 4.695 1.85763 4.751 1.69763 4.831C1.5451 4.90638 1.40965 5.01223 1.29963 5.142C1.19594 5.2675 1.11811 5.41228 1.07063 5.568C0.97317 5.89751 0.977002 6.2487 1.08163 6.576C1.13269 6.72744 1.21625 6.86588 1.32647 6.98162C1.43668 7.09736 1.57086 7.18759 1.71963 7.246C1.87463 7.309 2.04763 7.339 2.24763 7.339C2.43316 7.3427 2.61718 7.30504 2.78634 7.22876C2.95551 7.15248 3.10556 7.03949 3.22563 6.898V7.243H4.23263V4.65C4.23263 4.395 4.20263 4.166 4.14363 3.969C4.08918 3.7784 3.99551 3.60129 3.86863 3.449ZM3.23263 5.345V5.581C3.23263 5.7 3.21463 5.812 3.17763 5.922C3.14818 6.01808 3.0996 6.10722 3.03482 6.18403C2.97003 6.26085 2.89037 6.32377 2.80063 6.369C2.63966 6.44302 2.45648 6.45268 2.28863 6.396C2.23081 6.37553 2.17774 6.34355 2.13263 6.302C2.09155 6.26306 2.05947 6.21562 2.03863 6.163C2.01457 6.10398 2.00267 6.04072 2.00363 5.977C2.00363 5.9 2.01263 5.83 2.02763 5.765C2.04158 5.71228 2.06837 5.66383 2.10563 5.624C2.1504 5.57601 2.20544 5.53875 2.26663 5.515C2.36497 5.47845 2.46739 5.45394 2.57163 5.442L3.23263 5.345ZM8.28363 4.278C8.23696 4.04796 8.15464 3.82662 8.03963 3.622C7.93261 3.4367 7.78319 3.2794 7.60363 3.163C7.41098 3.04419 7.18789 2.98408 6.96163 2.99C6.71344 2.98696 6.47109 3.06528 6.27163 3.213C6.17135 3.28858 6.08244 3.37816 6.00763 3.479V1H5.08963V7.224H6.00763V6.943C6.13038 7.09519 6.29418 7.20902 6.47963 7.271C6.57763 7.303 6.68763 7.318 6.80963 7.318C7.06463 7.318 7.29263 7.258 7.48663 7.141C7.67863 7.026 7.84163 6.863 7.97263 6.655C8.1104 6.43406 8.20949 6.19125 8.26563 5.937C8.33164 5.64635 8.36385 5.34904 8.36163 5.051C8.36239 4.79133 8.33625 4.53228 8.28363 4.278ZM7.42263 5.036C7.42263 5.268 7.40263 5.475 7.36363 5.649C7.32763 5.821 7.27363 5.964 7.20463 6.073C7.14922 6.17117 7.06884 6.25293 6.97163 6.31C6.8864 6.36014 6.78979 6.38774 6.69094 6.39019C6.59208 6.39264 6.49424 6.36986 6.40663 6.324C6.32444 6.27819 6.2526 6.21588 6.19563 6.141C6.13273 6.05546 6.08504 5.95973 6.05463 5.858C6.01843 5.74213 6.00021 5.62139 6.00063 5.5V4.983C6.00063 4.819 6.02063 4.669 6.05963 4.536C6.09663 4.404 6.14763 4.294 6.21663 4.2C6.27535 4.11382 6.35343 4.04259 6.44463 3.992C6.53321 3.94377 6.63278 3.91931 6.73363 3.921C6.83397 3.91811 6.93322 3.94254 7.02076 3.99168C7.1083 4.04083 7.18084 4.11283 7.23063 4.2C7.29363 4.299 7.33863 4.414 7.37363 4.554C7.40463 4.697 7.42263 4.86 7.42263 5.036ZM2.40863 9.9C2.4952 9.79816 2.60307 9.71657 2.72463 9.661C2.94263 9.561 3.27163 9.556 3.49063 9.643C3.59463 9.685 3.69463 9.743 3.81063 9.827L4.13963 10.087V8.945L4.04363 8.883C3.76397 8.7387 3.4533 8.66489 3.13863 8.668C2.83063 8.668 2.54563 8.725 2.29263 8.836C2.04263 8.946 1.82563 9.106 1.64563 9.311C1.46473 9.52067 1.3277 9.76447 1.24263 10.028C1.15263 10.3 1.10563 10.598 1.10563 10.923C1.10563 11.212 1.14863 11.484 1.23463 11.731C1.32163 11.98 1.44663 12.202 1.60863 12.383C1.76963 12.568 1.96963 12.716 2.20563 12.824C2.43763 12.928 2.69863 12.979 2.98363 12.979C3.21663 12.979 3.41763 12.951 3.59663 12.895C3.7613 12.8447 3.91815 12.7717 4.06263 12.678L4.14063 12.617V11.728L3.94063 11.823C3.91622 11.8342 3.89076 11.8429 3.86463 11.849C3.81463 11.866 3.76563 11.884 3.73663 11.898C3.70063 11.921 3.50963 11.988 3.50963 11.988C3.44963 12.012 3.36963 12.031 3.29163 12.047C3.09093 12.0915 2.88132 12.0715 2.69263 11.99C2.57455 11.9398 2.46979 11.8627 2.38663 11.765C2.29406 11.6545 2.22437 11.5267 2.18163 11.389C2.12901 11.2177 2.10337 11.0392 2.10563 10.86C2.10563 10.65 2.13363 10.461 2.18863 10.3C2.24263 10.142 2.31763 10.006 2.40863 9.9ZM14.0002 6H10.0002V5H14.5002L15.0002 5.5V11.5L14.5002 12H7.87893L9.95 14.0711L9.24289 14.7782L6.35381 11.8891V11.182L9.24289 8.2929L9.95 9L7.95 11H14.0002V6Z" fill="#424242"/>
</svg>
